<svg width="60" height="40" viewBox="0 0 60 40" xmlns="http://www.w3.org/2000/svg"><title>npsu</title><desc>Created with Sketch.</desc><defs><linearGradient x1="38.988%" y1="73.021%" x2=".008%" y2="90.501%" id="a"><stop stop-color="#C20F51" offset="0%"/><stop stop-color="#C20F51" stop-opacity="0" offset="100%"/></linearGradient><linearGradient x1="62.151%" y1="26.552%" x2="99.771%" y2="9.073%" id="b"><stop stop-color="#8C8C8C" offset="0%"/><stop stop-color="#8C8C8C" stop-opacity="0" offset="100%"/></linearGradient><linearGradient x1="76.612%" y1="50%" y2="50%" id="c"><stop stop-color="#C20F51" offset="0%"/><stop stop-color="#C20F51" stop-opacity="0" offset="100%"/></linearGradient><linearGradient x1="75.898%" y1="50%" y2="50%" id="d"><stop stop-color="#C20F51" offset="0%"/><stop stop-color="#C20F51" stop-opacity="0" offset="100%"/></linearGradient></defs><g fill="none"><path fill="#fff" d="M.018.018h59.97v39.968H.018z"/><g><path d="M29.444 28.685c-.257-.265-.314-.286-.773-.286-.27 0-.818.037-1.215.083-.68.077-.736.072-.97-.095-.137-.097-.305-.31-.372-.47-.336-.804.03-2.65.543-2.754.116-.024.476-.12.8-.216.49-.144.71-.164 1.35-.122 1.264.083 1.434.21 1.275.956-.032.157-.06.895-.06 1.64-.004 1.656-.065 1.79-.576 1.263zm-13.85-4.6c.05-.06.077-.29.06-.512-.03-.392-.04-.378-.315-.426l-.285-.025-.01.457c-.01.4.01.464.173.53.25.1.274.1.377-.025zm-1.88-.054c.31 0 .345-.016.255-.124-.075-.09-.19-.11-.4-.076-.232.038-.27.03-.172-.046.092-.07.097-.104.02-.135-.056-.024-.102-.095-.102-.158 0-.125-.15-.152-.29-.054-.074.05-.098.355-.05.622.007.04.096.05.197.02.1-.026.345-.048.54-.05zm.813-.18c.054-.054.098-.22.098-.368 0-.27 0-.27-.414-.27-.254 0-.394.032-.362.082.027.045.12.082.204.082.2 0 .292.15.13.213-.097.036-.107.084-.044.203.095.177.246.2.39.057zm-.615-.896c.254-.135.032-.194-.267-.07-.13.054-.314.073-.41.042-.165-.052-.168-.065-.04-.205.103-.114.114-.186.047-.31-.072-.135-.04-.213.192-.466.153-.167.26-.352.238-.41-.026-.067.057-.127.23-.165.15-.033.312-.116.362-.185.063-.086.14-.104.247-.058.086.037.183.06.217.054.034-.006.06.098.06.233 0 .207.033.246.206.246.226 0 .273.167.09.32-.122.1-.128.224-.02.398.037.058.047.158.022.222-.044.117.144.367.276.367.133 0 .328-.257.33-.435 0-.098.024-.372.05-.608.032-.283.018-.43-.04-.43-.05 0-.07-.05-.044-.115.064-.17-.195-.28-.794-.34-.424-.042-.61-.018-.985.122-.253.096-.553.26-.666.365-.19.176-.333.256-.197.906l.008.715.356-.048c.196-.027.437-.093.536-.146zm.713-.07c0-.105-.14-.105-.205 0-.028.046.007.083.077.083.07 0 .128-.037.128-.082zm-.04-.244c.027-.045-.008-.082-.078-.082s-.128.037-.128.082c0 .106.138.106.204 0zm-.674-.415c-.03-.112-.07-.14-.125-.087-.098.098-.012.37.095.302.04-.025.055-.122.03-.215zm.73-.614c-.06-.035-.13-.03-.157.01-.027.042.02.07.108.066.096-.006.115-.035.05-.075zM4.526 24.79c-.1-.02-.255-.127-.344-.24-.146-.186-.196-.2-.553-.145-.217.033-.633.065-.926.072-.292.007-.747.077-1.01.156-.453.135-.488.135-.634.002-.315-.284-.206-.36.966-.68.19-.05.366-.13.393-.173.09-.144-.326-.083-1.11.165-.426.134-.876.244-1 .245-.257.002-.378-.193-.247-.398.078-.123.293-.156 1.17-.182.207-.006.348-.135.275-.253-.022-.037-.167-.066-.322-.066-.22 0-.28-.034-.28-.15 0-.083.09-.193.203-.244.237-.108.25-.21.08-.62-.146-.347-.085-.52.263-.748.126-.082.296-.234.378-.338.21-.266.45-.236.792.096.273.266.31.28.576.2.578-.172 1.224-.076 1.224.183 0 .042-.11.114-.246.16-.23.082-.34.234-.167.234.042 0 .178.1.302.225l.224.224-.22.078c-.122.042-.22.103-.22.135 0 .1.5.237.864.237.377 0 .633.172.59.398-.02.11-.184.14-.977.174-.75.03-.986.07-1.11.182-.085.078-.273.183-.417.233-.322.113-.353.28-.035.197.125-.033.435-.054.69-.046.262.008.54-.032.634-.09.14-.09.206-.084.394.028.124.074.28.232.348.35.113.2.11.227-.036.336-.16.12-.19.123-.514.06zm-2.15-1.496c0-.09-.054-.164-.122-.164s-.122.073-.122.164c0 .09.054.163.122.163s.123-.072.123-.163zm.614-.164c0-.06-.046-.124-.102-.143-.06-.02-.102.038-.102.143 0 .106.04.164.102.143.056-.018.102-.083.102-.143zm.532-.127c0-.065-.037-.118-.082-.118-.045 0-.08.076-.08.168 0 .093.035.146.08.118.045-.027.082-.102.082-.167zm-1.227-.69c0-.045-.034-.082-.077-.082-.042 0-.1.038-.127.083-.027.045.008.08.078.08s.127-.035.127-.08zm.736-.205c0-.152-.076-.152-.28.003-.152.116-.15.12.06.12.142 0 .22-.043.22-.122zm.492.04c0-.044-.035-.08-.077-.08-.042 0-.1.036-.127.08-.028.046.006.083.077.083.07 0 .127-.036.127-.08zm7.335 2.638c-.097-.017-.276-.13-.397-.25-.193-.193-.287-.22-.803-.23-.322-.007-.723.026-.892.073-.254.07-.41.128-.59-.068l-.282-.152-.487.233c-.49.234-.71.236-.8.006-.082-.218.128-.38.42-.324.19.036.277.016.31-.07.026-.065.178-.144.34-.174.346-.065.36-.134.087-.49-.267-.35-.26-.582.02-.757l.252-.158c.014-.01-.02-.09-.077-.18-.083-.135-.082-.19.006-.298.154-.186.082-.218-.27-.12-.2.055-.364.176-.485.36-.35.532-.698.504-.84-.066-.045-.177-.016-.274.13-.43.19-.202.517-.266.61-.117.063.103.423.107.486.006.026-.042.003-.172-.05-.29-.08-.176-.075-.236.032-.343.106-.106.178-.114.385-.04.314.108.486.05.582-.203.094-.248.42-.258.64-.02.142.15.196.162.422.083.447-.156.78.142.367.33-.308.14-.167.23.36.23.392 0 .51.037.695.207.32.298.25.483-.19.515-.198.014-.398-.013-.446-.06-.06-.063-.052-.09.032-.09.1 0 .1-.013-.004-.08-.068-.044-.237-.08-.376-.08-.192 0-.275.048-.347.207-.142.307-.12.363.14.363.35 0 .454.17.304.504-.187.415-.333.56-.57.56-.118 0-.216.04-.216.09 0 .052.077.07.184.045.165-.04.552.143.465.22-.02.017-.385.074-.812.128-1.033.13-1.173.27-.202.206.403-.028.79-.07.856-.096.28-.107.933-.018 1.113.15.34.32.276.73-.106.666zm-2.235-1.524c0-.018-.055-.054-.122-.08-.068-.025-.123-.01-.123.033 0 .043.055.08.123.08.067 0 .122-.016.122-.033zm.852-.1c.072-.027.13-.1.13-.16 0-.14-.216-.065-.278.094-.05.13-.035.137.148.067zm-.934-.277c-.16-.104-.35-.104-.286 0 .028.045.13.08.23.08.146 0 .156-.015.056-.08zm.948-.224c-.056-.056-.21.06-.21.158 0 .054.046.048.123-.016.07-.057.11-.12.088-.14zm-.54-.64c0-.145-.175-.12-.225.032-.018.053.026.097.097.097.07 0 .13-.06.13-.13zm16.76 2.724c-.08-.064-.166-.365-.232-.82-.06-.417-.138-.705-.188-.688-.046.015-.13.21-.187.43-.097.383-.275.61-.48.61-.113 0-.283-.352-.283-.586 0-.12-.037-.154-.13-.12-.07.03-.144.05-.163.05-.02 0-.034.203-.034.45 0 .248-.034.45-.075.45-.09 0-.334-.694-.334-.954 0-.25-.126-.242-.296.02-.158.24-.78.69-.957.69-.226 0-.223-.25.006-.476.194-.192.22-.273.197-.636-.015-.23.015-.568.065-.753.105-.39.04-.75-.133-.75-.07 0-.11-.06-.093-.144.02-.1.14-.158.425-.2.22-.03.438-.095.486-.143.097-.096.38-.114.58-.037.172.066.165.248-.014.353-.1.06-.115.102-.047.147.057.04.105.38.123.88.024.67.052.82.16.842.238.044.37-.194.386-.693.008-.262.033-.537.055-.61.027-.086-.017-.148-.124-.176-.27-.07-.22-.488.092-.75.32-.27.425-.185.386.305-.027.325-.015.354.11.276.077-.047.16-.066.184-.04.06.06-.118.56-.2.56-.067 0-.29.484-.237.515.017.01.11.084.204.163.096.082.23.122.306.093.22-.084.152-.204-.084-.145-.2.05-.19.03.117-.248.32-.29.405-.533.26-.744-.03-.045-.033-.265-.005-.49.043-.35.08-.417.275-.485.346-.12.436.02.306.484-.08.283-.082.4-.012.47.132.133.117.432-.028.552-.216.18-.043.265.417.207.533-.065.768-.002.768.21 0 .123-.056.157-.264.157-.147 0-.4.038-.564.083-.35.098-.395.212-.396 1.03-.002.637-.113.85-.348.664zm-2.19-1.955c0-.238-.137-.174-.252.116-.057.146-.12.302-.142.347-.02.045.06-.007.18-.116.118-.11.215-.266.215-.348zm-.297-.355c.03-.074 0-.122-.072-.122-.066 0-.12.055-.12.122 0 .068.033.123.073.123.04 0 .095-.055.12-.123zm.207-.442c.13-.082.054-.253-.113-.253-.14 0-.23.136-.163.246.062.1.13.1.277.007zm-4.017 2.61c-.03-.023-.173-.18-.32-.35-.42-.49-.322-.956.2-.96.082 0 .203-.036.27-.078.234-.148.006-.18-.555-.076-.503.092-.584.133-.704.356-.326.606-.932 1.008-.957.636-.018-.27.02-.39.162-.51.224-.194.266-.4.133-.656-.157-.306-.154-.482.014-.668.17-.188.087-.283-.156-.178-.27.117-.47.046-.47-.167 0-.2.134-.357.572-.662.158-.11.367-.258.466-.33.156-.115.21-.117.41-.02.175.084.222.157.2.312-.015.11-.062.215-.104.23-.04.015-.12.073-.177.13-.055.055-.143.086-.195.07-.052-.018-.122.012-.155.067-.038.06-.027.076.03.042.092-.058.08.287-.03.836-.07.342.082.47.35.294.1-.065.27-.12.378-.12.433 0 .692-.1.785-.304.122-.267.073-.306-.247-.195-.382.133-.81.118-.81-.028 0-.177.267-.29.684-.29.447 0 .625-.153.625-.54 0-.352.2-.85.343-.848.213.002.347.16.43.505.07.287.123.356.29.375.42.047.572.106.572.22 0 .108-.147.167-.828.33-.158.04-.214.105-.214.25 0 .18.034.2.347.2.367 0 .567.14.488.345-.03.078-.118.107-.25.082-.29-.056-.852.123-1.138.362-.208.175-.215.19-.04.1.245-.13.746-.314.854-.316.043 0 .006.053-.08.12-.15.11-.142.12.134.12.31.004.565.2.565.433 0 .177-.307.878-.387.885-.36.03-1.442.026-1.483-.006zm1.03-.717c.147-.112.266-.235.266-.275 0-.1-.285-.09-.685.025-.385.11-.566.23-.342.23.118 0 .13.025.053.116-.072.09-.07.125.012.157.158.063.4-.025.7-.25zm7.063.725c-.224-.145-.032-.325.376-.35l.392-.026-.027-.34c-.022-.282.004-.36.15-.436.096-.052.246-.165.333-.252.087-.087.21-.157.277-.157.09 0 .103-.047.05-.185-.08-.215-.167-.208-.776.06l-.452.2-.125-.178c-.178-.254-.072-.336.49-.382.05-.004.067-.2.04-.522-.024-.283-.033-.572-.02-.643.026-.13.482-.232 1.048-.232h.272l-.048.41c-.027.224-.024.408.006.408.168 0 .46-.288.46-.454 0-.206.08-.247.653-.32.588-.077.604-.045.553 1.126-.027.634-.013 1.054.038 1.105.054.054.03.167-.07.338-.132.224-.136.267-.03.334.068.042.226.077.353.078.287.002.547.135.547.282 0 .123-.22.235-.33.167-.04-.022-.49-.073-1.004-.112-.827-.06-1.906-.017-2.756.114-.158.024-.338.01-.4-.03zm1.695-.682c-.04-.27-.313-.295-.313-.027 0 .16.042.212.17.212s.163-.044.143-.184zm.65-.272c-.08-.08-.226.043-.226.192 0 .125.01.124.138-.003.076-.076.115-.16.087-.19zm.624.163c.083-.217.057-.28-.114-.28-.12 0-.164.054-.164.204 0 .228.198.282.278.075zm-.176-.555c.312-.014.077-.38-.244-.38-.228 0-.69.32-.62.43.026.046.188.053.384.018.185-.034.402-.064.48-.068zm-.676-.786c.21-.413.215-.582.01-.37-.147.153-.32.693-.22.693.024 0 .12-.145.21-.324zm1.143-.432c.063-.532-.01-.64-.317-.475-.216.116-.22.25-.006.25.09 0 .163.053.163.12 0 .065-.074.158-.163.206-.19.1-.214.29-.047.383.11.062.124.09.13.25.01.226.193-.336.24-.735zm-1.673.08c0-.212-.127-.21-.27.008-.124.185-.12.19.07.164.125-.018.2-.082.2-.17zm.123-.604c0-.14-.2-.228-.372-.162-.096.038-.106.085-.04.206.095.18.413.146.413-.044z" fill="#000"/><g fill="#C20F51"><path d="M17 29.28h.244l.59 1.115V29.28h.176v1.333h-.242l-.592-1.116v1.116H17V29.28"/><path d="M18.75 29.728c-.088 0-.158.034-.21.103-.05.07-.076.164-.076.284 0 .12.026.214.076.283.05.068.12.102.21.102.088 0 .157-.035.208-.104.052-.07.077-.163.077-.282 0-.12-.025-.213-.077-.282-.05-.07-.12-.104-.208-.104m0-.14c.143 0 .255.047.337.14.082.093.122.22.122.386 0 .163-.04.292-.123.385-.082.092-.194.14-.337.14-.143 0-.256-.048-.337-.14-.08-.094-.122-.223-.122-.386 0-.165.042-.293.123-.386.08-.093.194-.14.337-.14"/><path d="M20.313 30.01v.603h-.165v-.6c0-.093-.018-.164-.055-.21-.037-.048-.092-.072-.166-.072-.09 0-.16.03-.21.086-.05.057-.077.134-.077.232v.565h-.165v-1h.165v.155c.04-.06.085-.105.138-.135.054-.03.116-.045.185-.045.115 0 .202.036.26.108.06.07.09.175.09.313"/><path d="M20.56 30.04h.48v.145h-.48v-.146"/><path d="M21.49 29.428v.5h.228c.084 0 .15-.02.195-.064.045-.044.068-.106.068-.186s-.022-.142-.067-.185c-.046-.044-.11-.065-.195-.065h-.227m-.18-.15h.408c.15 0 .262.035.338.103.077.07.116.167.116.298 0 .13-.04.23-.116.298-.076.067-.19.1-.338.1h-.227v.537h-.18V29.28"/><path d="M22.78 30.11c-.133 0-.225.015-.276.046-.05.03-.077.082-.077.155 0 .06.02.106.057.14.04.034.092.05.158.05.09 0 .164-.03.218-.095.056-.065.084-.15.084-.258v-.037h-.164m.328-.068v.57h-.164v-.15c-.038.06-.085.105-.14.134-.057.028-.125.043-.206.043-.103 0-.184-.03-.245-.087-.06-.058-.09-.135-.09-.23 0-.114.037-.2.112-.256.076-.057.19-.086.338-.086h.23v-.015c0-.075-.024-.134-.074-.175-.05-.04-.12-.062-.21-.062-.058 0-.113.007-.168.02-.054.014-.106.035-.156.062v-.152c.06-.023.12-.04.175-.052.058-.012.113-.018.166-.018.145 0 .253.038.325.113.072.076.108.19.108.342"/><path d="M24.027 29.766c-.018-.01-.04-.018-.06-.023-.022-.005-.046-.008-.072-.008-.093 0-.164.03-.214.09-.05.06-.074.148-.074.26v.528h-.165v-1h.166v.155c.035-.06.08-.106.135-.135.057-.03.124-.045.203-.045.012 0 .024 0 .038.003l.046.007v.17"/><path d="M24.364 29.33v.283h.34v.127h-.34v.543c0 .082.01.134.033.157.023.024.068.035.137.035h.17v.138h-.17c-.127 0-.215-.024-.263-.07-.047-.048-.07-.135-.07-.26v-.543h-.122v-.127h.12v-.284h.166"/><path d="M26.065 29.642v.155c-.047-.023-.095-.04-.145-.053-.05-.012-.102-.018-.155-.018-.082 0-.143.013-.184.038-.04.025-.06.062-.06.112 0 .038.015.068.044.09.03.022.088.042.176.062l.056.012c.117.025.2.06.248.107.05.045.075.108.075.19 0 .093-.038.166-.112.22-.074.055-.174.082-.303.082-.054 0-.11-.007-.168-.017-.058-.01-.12-.026-.183-.047v-.17c.06.032.12.056.18.072.058.015.117.023.174.023.078 0 .137-.012.18-.038.04-.027.062-.064.062-.113 0-.045-.016-.08-.046-.103-.03-.024-.095-.047-.197-.07l-.057-.012c-.102-.022-.176-.055-.22-.1-.046-.043-.07-.104-.07-.182 0-.094.034-.167.1-.218.068-.05.162-.077.285-.077.06 0 .118.005.172.014.053.01.103.022.148.04"/><path d="M26.836 30.11c-.133 0-.225.015-.276.046-.05.03-.077.082-.077.155 0 .06.02.106.057.14.04.034.09.05.157.05.092 0 .164-.03.22-.095.055-.065.082-.15.082-.258v-.037h-.164m.328-.068v.57H27v-.15c-.038.06-.085.105-.14.134-.057.028-.125.043-.206.043-.103 0-.184-.03-.245-.087-.06-.058-.09-.135-.09-.23 0-.114.036-.2.11-.256.077-.057.19-.086.34-.086H27v-.015c0-.075-.026-.134-.076-.175-.05-.04-.12-.062-.21-.062-.056 0-.112.007-.166.02-.054.014-.106.035-.156.062v-.152c.06-.023.118-.04.175-.052.057-.012.112-.018.165-.018.145 0 .253.038.325.113.07.076.107.19.107.342"/><path d="M28.335 30.01v.603h-.164v-.6c0-.093-.018-.164-.055-.21-.037-.048-.092-.072-.166-.072-.09 0-.16.03-.21.086-.052.057-.078.134-.078.232v.565h-.165v-1h.165v.155c.04-.06.086-.105.14-.135.052-.03.114-.045.184-.045.115 0 .202.036.26.108.06.07.09.175.09.313"/><path d="M30.054 29.323v.176c-.07-.034-.133-.058-.194-.074-.06-.016-.12-.024-.176-.024-.098 0-.174.02-.228.057-.053.037-.08.09-.08.162 0 .058.018.103.053.133.035.03.102.054.2.073l.11.022c.135.026.234.07.298.136.064.064.096.15.096.26 0 .128-.043.226-.13.293-.087.065-.214.1-.38.1-.064 0-.13-.008-.203-.023-.07-.014-.143-.035-.22-.063v-.186c.074.04.146.072.216.093.07.022.14.032.207.032.103 0 .183-.02.24-.06.055-.04.083-.1.083-.174 0-.065-.02-.116-.06-.153-.04-.037-.107-.065-.2-.083L29.58 30c-.135-.027-.232-.07-.293-.126-.06-.057-.09-.136-.09-.238 0-.118.042-.21.124-.28.083-.067.197-.1.343-.1.063 0 .127.005.192.016.064.012.13.03.2.05"/><path d="M30.796 29.728c-.088 0-.158.034-.21.103-.05.07-.076.164-.076.284 0 .12.026.214.076.283.05.068.12.102.21.102.088 0 .157-.035.208-.104.05-.07.077-.163.077-.282 0-.12-.025-.213-.076-.282-.05-.07-.12-.104-.208-.104m0-.14c.143 0 .255.047.337.14.08.093.122.22.122.386 0 .163-.04.292-.122.385-.082.092-.194.14-.337.14-.143 0-.256-.048-.338-.14-.08-.094-.12-.223-.12-.386 0-.165.04-.293.12-.386.082-.093.195-.14.338-.14"/><path d="M31.527 29.223h.164v1.39h-.163v-1.39"/><path d="M33.2 29.764v-.54h.164v1.39H33.2v-.15c-.034.058-.078.103-.13.132-.054.028-.117.043-.19.043-.122 0-.22-.05-.296-.146-.076-.096-.114-.223-.114-.38 0-.158.038-.284.114-.38.076-.097.174-.146.295-.146.073 0 .136.015.19.044.052.03.096.073.13.132m-.56.35c0 .12.025.215.074.284.05.07.12.103.206.103.087 0 .155-.033.205-.102.05-.07.075-.164.075-.284 0-.12-.025-.216-.075-.284-.05-.07-.118-.104-.205-.104s-.156.035-.206.104c-.05.068-.074.163-.074.284"/><path d="M34.158 30.11c-.133 0-.225.015-.276.046-.05.03-.077.082-.077.155 0 .06.02.106.057.14.04.034.09.05.157.05.09 0 .163-.03.218-.095.056-.065.083-.15.083-.258v-.037h-.162m.328-.068v.57h-.165v-.15c-.036.06-.083.105-.14.134-.055.028-.123.043-.204.043-.103 0-.185-.03-.245-.087-.06-.058-.09-.135-.09-.23 0-.114.038-.2.113-.256.076-.057.188-.086.338-.086h.23v-.015c0-.075-.024-.134-.074-.175-.05-.04-.12-.062-.21-.062-.056 0-.112.007-.166.02-.054.014-.106.035-.156.062v-.152c.06-.023.118-.04.175-.052.055-.012.11-.018.164-.018.145 0 .253.038.324.113.072.076.108.19.108.342"/><path d="M35.405 29.766c-.02-.01-.04-.018-.06-.023-.022-.005-.046-.008-.072-.008-.093 0-.165.03-.215.09-.05.06-.074.148-.074.26v.528h-.165v-1h.164v.155c.035-.06.08-.106.135-.135.054-.03.122-.045.2-.045.012 0 .025 0 .038.003l.046.007v.17"/><path d="M36.25 29.33v.283h.338v.127h-.34v.543c0 .082.012.134.034.157.023.024.068.035.137.035h.168v.138h-.17c-.126 0-.214-.024-.262-.07-.048-.048-.072-.135-.072-.26v-.543h-.12v-.127h.12v-.284h.165"/><path d="M37.22 30.706c-.045.12-.09.196-.135.233-.044.035-.103.053-.177.053h-.13v-.137h.096c.045 0 .08-.01.105-.032.024-.022.052-.072.082-.152l.03-.075-.405-.984h.174l.314.782.312-.782h.175l-.44 1.093"/><path d="M38.457 29.28h.18v.81c0 .142.027.245.08.308.05.063.134.094.25.094.116 0 .2-.03.252-.094.05-.063.076-.166.076-.31v-.81h.182v.834c0 .174-.044.305-.13.394-.086.088-.212.133-.38.133-.17 0-.296-.046-.383-.134-.086-.09-.128-.22-.128-.394v-.833"/><path d="M40.642 30.01v.603h-.165v-.6c0-.093-.018-.164-.055-.21-.037-.048-.092-.072-.166-.072-.09 0-.16.03-.21.086-.05.057-.077.134-.077.232v.565h-.166v-1h.165v.155c.038-.06.084-.105.137-.135.054-.03.116-.045.185-.045.115 0 .202.036.26.108.06.07.09.175.09.313"/><path d="M41.866 29.728c-.088 0-.157.034-.21.103-.05.07-.075.164-.075.284 0 .12.026.214.077.283.05.068.12.102.21.102.087 0 .156-.035.208-.104.05-.07.076-.163.076-.282 0-.12-.024-.213-.075-.282-.052-.07-.12-.104-.21-.104m0-.14c.144 0 .257.047.338.14.082.093.123.22.123.386 0 .163-.04.292-.123.385-.08.092-.194.14-.337.14-.143 0-.256-.048-.337-.14-.082-.094-.123-.223-.123-.386 0-.165.04-.293.122-.386.08-.093.193-.14.336-.14"/><path d="M43.43 30.01v.603h-.165v-.6c0-.093-.02-.164-.056-.21-.038-.048-.093-.072-.167-.072-.09 0-.16.03-.21.086-.05.057-.077.134-.077.232v.565h-.165v-1h.166v.155c.04-.06.086-.105.14-.135.052-.03.114-.045.184-.045.115 0 .202.036.26.108.06.07.09.175.09.313"/></g><g><path d="M24.74 22.223c7.028.487 8.803-3.474 9.328-6.07.388-1.916-.416-3.803-1.94-4.55-.91-.465-1.8-.37-2.577.038-.294.155-.734.492-1.013.777l-.492.505-.058-.31c-.09-.472.01-1.432.212-2.033.502-1.507 1.933-2.985 3.634-3.756 1.196-.542 2.908-.722 4.223-.443 1.475.313 2.954 1.38 3.86 2.782 1.79 2.768 1.522 7.04-.648 10.322-.52.784-1.458 1.798-2.153 2.324-1.4 1.06-3.194 1.64-5.132 1.942-1.84.277-4.584.006-7.245-1.527z" fill="url(#a)"/><path d="M36.53 5.595c-7.028-.488-8.803 3.474-9.33 6.07-.386 1.915.417 3.802 1.94 4.55.91.464 1.802.368 2.58-.04.294-.152.734-.49 1.012-.775l.493-.505.058.31c.088.473-.012 1.433-.213 2.034-.503 1.504-1.934 2.982-3.635 3.753-1.196.542-2.907.722-4.223.443-1.474-.312-2.953-1.378-3.86-2.78-1.79-2.77-1.522-7.04.648-10.323.52-.784 1.457-1.798 2.152-2.323 1.4-1.06 3.194-1.642 5.133-1.943 1.84-.277 4.583-.006 7.244 1.528z" fill="url(#b)"/></g></g><path fill="url(#c)" d="M.018 34.59h27.986v1.4H.018z"/><path fill="url(#d)" d="M59.988 34.59H32.002v1.4h27.986z"/></g></svg>