<svg width="60" height="40" viewBox="0 0 60 40" xmlns="http://www.w3.org/2000/svg"><title>無黨籍</title><desc>Created with Sketch.</desc><g fill="none"><path fill="#000" d="M0 .016h60v39.867H0z"/><path d="M29.827 8.774l-.268.595c-.596.04-1.22.723-1.876 2.053l-.12.09.06.118.09.06.12.03c.098-.04.902-.248 2.41-.625.476-.218 1.22-.496 2.232-.833.635-.16 1.032-.268 1.19-.327.397-.14.755-.328 1.072-.566-.08-.02.357-.03 1.31-.03.674 0 1.12.198 1.34.595l.088.625c-.456.278-1.17.456-2.143.535-1.21.12-1.994.22-2.35.298-1.013.397-2.55.863-4.614 1.4l-1.52-.27c-1.745 1.33-3.293 2.164-4.642 2.5l-1.07-.356c1.487-1.627 2.39-2.67 2.707-3.125.932-1.23 1.508-2.45 1.726-3.66-.118-.16-.237-.328-.356-.507-.198-.258-.288-.407-.268-.446l.06-.18c.06-.06.13-.09.208-.09.06 0 .164.026.313.075.148.05.262.075.342.075.118 0 .237-.04.356-.12 1.746.18 2.946.874 3.6 2.084zm7.65 4.554c.694.06 1.15.12 1.368.178.516.14.883.417 1.102.834l-.15.535c-.257.1-.456.348-.595.744 1.31.376 2.074.614 2.292.714.774.416 1.2 1.05 1.28 1.904l-.536.864-3.69-.596c-.357.16-.615.477-.774.953-.238.733-.387 1.15-.447 1.25.655.316 1.32.644 1.995.98.714.398 1.06.963 1.04 1.697v.15l-.267.654-.893.18c-.277-.06-1.01-.278-2.202-.655-.893-.258-1.647-.387-2.262-.387-.14 0-.347-.015-.625-.045s-.486-.044-.625-.044c-1.052 0-2.798.286-5.238.862-1.607.377-2.68.655-3.215.833-1.25.417-2.202.933-2.857 1.548l-1.25-1.34.18-.416-.12-.417.922.268c.298-.16.74-.332 1.325-.52.585-.19.997-.333 1.235-.432l-1.1-1.637-.27-1.46c-.872.18-1.517.377-1.934.595-.575.298-1.05.764-1.428 1.4l-.536.118c-.397-.14-.784-.516-1.16-1.13-.378-.616-.745-.983-1.102-1.102l-.09-.416.536-.357.804.238 4.94-1.488-.118-1.458-.566-.953.566-.09c.575 0 1.096.19 1.562.566.466.377.7.853.7 1.428.496-.138 1.23-.376 2.202-.713l-.15-2.024-.683-.833c1.428.198 2.31.754 2.65 1.667-.18.1-.27.267-.27.505 0 .16.05.288.15.387.158-.1.58-.22 1.264-.358.685-.14 1.146-.258 1.384-.357l.15-1.548-.803-.684.803-.15 1.25.3c.556.138.824.465.804.98v.06c-.377.14-.566.318-.566.536l.03.178c.198.06.407.09.625.09.18 0 .585-.04 1.22-.12.496-.04.903-.04 1.22 0 .18-.318.268-.764.268-1.34l-.564-.595 1.22-.535zM33.07 17.88c-.316.438-.475 1.32-.475 2.65-.12.18-.178.357-.178.536 0 .16.08.307.238.446l2.53-.565c.158-.357.307-.838.446-1.444.14-.605.26-1.026.358-1.265-.397-.257-.992-.386-1.786-.386-.12 0-.307.01-.565.03h-.566zm-4.017.626c-.12 1.092-.178 1.637-.178 1.637 0 .06.015.164.044.313.03.15.044.253.044.312l-.208 1.816h.178c.298.02.69-.084 1.176-.313.486-.227.838-.35 1.057-.37l-.15-.596.417-3.155c-.238-.06-.486-.09-.744-.09-.654 0-1.2.15-1.637.446zm-3.66 1.25l-.18 1.13.09 1.013c0 .098-.025.277-.074.535-.05.258-.076.446-.076.566 0 .24.04.417.12.536.615-.158 1.488-.407 2.62-.744-.22-.278-.35-.635-.388-1.07v-1.817c0-.436-.08-.803-.238-1.1-.596.058-1.22.376-1.875.95zm10.863 6.697c1.31.18 2.758.863 4.345 2.054 1.728 1.33 2.59 2.59 2.59 3.78 0 .535-.337.803-1.01.803-.755-.298-1.38-.714-1.876-1.25-1.806-1.925-3.155-3.72-4.048-5.387zm-.982 5.566l-.268.564-.476.15-.744-.18-1.548-1.696c-.337-1.548-.923-2.927-1.756-4.137h.12c.535-.02 1.22.26 2.053.834 1.012.695 1.66 1.295 1.95 1.8.287.507.51 1.395.67 2.665zm-10.268-4.882c.912.555 1.552 1.1 1.92 1.636.366.536.64 1.32.818 2.352 0 .04.025.153.074.342.05.188.075.322.075.402 0 .218-.16.436-.477.655-.396.238-.605.386-.625.446-.733-.356-1.19-.892-1.368-1.606-.08-.337-.11-1.052-.09-2.143.02-.912-.088-1.606-.326-2.082zm-3.75.148l.327.268c.06.14.1.437.12.893.02.456.098.764.237.923l-.893 2.946c-.456.12-.784.427-.982.923l-.804-.12c-.376-.318-.564-.764-.564-1.34 0-.674.12-1.21.357-1.607.298-.297.724-.764 1.28-1.4.198-.415.506-.91.923-1.487z" fill="#fff"/></g></svg>