<svg width="498" height="247" viewBox="0 0 498 247" xmlns="http://www.w3.org/2000/svg"><title>Artboard 1</title><desc>Created with Sketch.</desc><g fill="#CCBAAD"><g><path d="M38.462 162.094h34.61l6.574-15.438H38.462v15.438zm0-30.875h53.296l15.384-15.44h-68.68v15.44zm0-46.314v15.438h84.07l15.383-15.438H38.462z"/><path d="M184.615 231.563H15.385V75.898c0-4.256 3.45-10.292 7.692-10.292h15.385c7.873 0 14.47-.44 20.47-6.47 6.01-6.023 6.453-12.642 6.453-20.542V23.152c0-4.26 6.01-7.722 10.257-7.722h108.973v22.62L200 22.612v-7.174c0-3.95-1.504-7.905-4.508-10.915C192.488 1.51 188.55 0 184.615 0H76.923c-9.827 0-19.31 3.94-26.26 10.914L10.876 50.836C3.93 57.81 0 67.323 0 77.188v154.375c0 3.948 1.504 7.904 4.508 10.914C7.512 245.49 11.45 247 15.385 247h169.23c3.935 0 7.873-1.51 10.877-4.523 3.004-3.01 4.508-6.966 4.508-10.915v-99.79l-15.385 15.436v84.355zm49.77-188.878c-9.008-9.047-18.75-13.937-21.754-10.922L92.966 151.843l.054.05c3.368-2.327 12.692 2.505 21.36 11.204 8.67 8.7 13.485 18.05 11.17 21.44l.05.053L245.27 64.517c3.003-3.014-1.87-12.794-10.885-21.832zM79.355 198.22c.007.005.01.01.018.017.004.004.004.008.008.008 1.935 1.93 5.012 2.7 8.324 1.39l16.092-6.388c-1.704-3.744-4.458-7.723-8.108-11.382-3.65-3.666-7.62-6.43-11.35-8.14l-6.365 16.145c-1.308 3.32-.538 6.406 1.38 8.35z"/></g><path d="M287.78 131.156c-7.186 0-12.738-2.11-16.655-6.328-3.917-4.22-5.875-10.193-5.875-17.922 0-7.708 1.995-13.687 5.984-17.937 3.99-4.25 9.61-6.376 16.86-6.376 4.146 0 9 .677 14.562 2.03v6.157c-6.333-2.186-11.218-3.28-14.656-3.28-5.02 0-8.906 1.698-11.656 5.094-2.75 3.396-4.125 8.187-4.125 14.375 0 5.895 1.467 10.546 4.405 13.952 2.938 3.406 6.948 5.11 12.03 5.11 4.376 0 9.064-1.344 14.064-4.032v5.625c-4.564 2.354-9.543 3.53-14.94 3.53zm37.94-.375c-4.855 0-8.73-1.608-11.626-4.827-2.896-3.22-4.344-7.526-4.344-12.922 0-5.457 1.453-9.775 4.36-12.952 2.906-3.177 6.848-4.766 11.827-4.766 4.98 0 8.922 1.59 11.83 4.766 2.905 3.177 4.358 7.474 4.358 12.89 0 5.542-1.458 9.897-4.375 13.063-2.917 3.168-6.927 4.75-12.03 4.75zm.092-4.624c6.52 0 9.782-4.396 9.782-13.187 0-8.69-3.22-13.032-9.656-13.032-6.417 0-9.625 4.364-9.625 13.093 0 8.75 3.166 13.126 9.5 13.126zM351.75 130V96.062h6.156v6.376c3-4.75 6.854-7.126 11.563-7.126 4.54 0 7.634 2.375 9.28 7.126 2.917-4.77 6.708-7.157 11.375-7.157 3 0 5.323.88 6.97 2.642 1.645 1.76 2.467 4.224 2.467 7.39V130h-6.187v-23.72c0-3.874-1.53-5.81-4.594-5.81-3.186 0-6.53 2.26-10.03 6.78V130h-6.188v-23.72c0-3.895-1.562-5.843-4.687-5.843-3.104 0-6.427 2.27-9.97 6.813V130h-6.155zm59.75 0V96.062h6.156V130H411.5zm0-40.094V83.75h6.156v6.156H411.5zM430 130V96.062h6.156v6.376c3.25-4.75 7.23-7.126 11.938-7.126 2.937 0 5.28.933 7.03 2.797s2.626 4.37 2.626 7.515V130h-6.156v-22.375c0-2.52-.37-4.318-1.11-5.39-.74-1.074-1.963-1.61-3.67-1.61-3.772 0-7.324 2.47-10.658 7.406V130H430zm39.844 11.28l.72-5.343c3.56 1.688 7.07 2.532 10.53 2.532 6.937 0 10.406-3.678 10.406-11.032v-5.344c-2.27 4.75-6 7.125-11.188 7.125-4.062 0-7.29-1.48-9.687-4.44-2.396-2.957-3.594-6.947-3.594-11.968 0-5.166 1.366-9.374 4.095-12.624 2.73-3.25 6.26-4.876 10.594-4.876 3.79 0 7.05 1.542 9.78 4.626V96.06h6.188v24.688c0 5.313-.277 9.245-.83 11.797-.55 2.552-1.587 4.64-3.108 6.266-2.688 2.854-6.865 4.28-12.53 4.28-3.96 0-7.75-.603-11.376-1.812zm21.656-23.03v-14.094c-2.708-2.812-5.656-4.22-8.844-4.22-2.833 0-5.052 1.137-6.656 3.408-1.604 2.27-2.406 5.385-2.406 9.344 0 7.437 2.614 11.156 7.844 11.156 3.562 0 6.916-1.865 10.062-5.594zm-214.47 88.906c-3.103 0-7.072-.677-11.905-2.03v-6.5c5.208 2.416 9.49 3.624 12.844 3.624 2.582 0 4.66-.677 6.233-2.03 1.573-1.355 2.36-3.137 2.36-5.345 0-1.813-.516-3.354-1.547-4.625-1.032-1.27-2.933-2.687-5.704-4.25l-3.187-1.844c-3.938-2.25-6.714-4.37-8.328-6.36-1.615-1.99-2.422-4.306-2.422-6.952 0-3.563 1.292-6.495 3.875-8.797 2.583-2.302 5.875-3.453 9.875-3.453 3.563 0 7.323.593 11.28 1.78v6c-4.874-1.916-8.51-2.874-10.905-2.874-2.27 0-4.146.604-5.625 1.813-1.48 1.208-2.22 2.73-2.22 4.562 0 1.542.543 2.906 1.626 4.094 1.085 1.186 3.064 2.603 5.94 4.25l3.31 1.874c4 2.27 6.793 4.416 8.376 6.437 1.584 2.022 2.375 4.45 2.375 7.282 0 4.02-1.483 7.25-4.452 9.688-2.97 2.438-6.9 3.656-11.797 3.656zm38.876-.375c-4.854 0-8.73-1.608-11.625-4.827-2.895-3.22-4.342-7.526-4.342-12.922 0-5.457 1.453-9.775 4.36-12.952 2.905-3.177 6.848-4.766 11.827-4.766 4.98 0 8.922 1.59 11.828 4.766 2.906 3.177 4.36 7.474 4.36 12.89 0 5.542-1.46 9.897-4.375 13.063-2.917 3.168-6.928 4.75-12.032 4.75zm.094-4.624c6.52 0 9.78-4.396 9.78-13.187 0-8.69-3.217-13.032-9.655-13.032-6.417 0-9.625 4.364-9.625 13.093 0 8.75 3.167 13.126 9.5 13.126zm39.22 4.625c-4.855 0-8.73-1.608-11.626-4.827-2.896-3.22-4.344-7.526-4.344-12.922 0-5.457 1.453-9.775 4.36-12.952 2.906-3.177 6.848-4.766 11.827-4.766 4.98 0 8.922 1.59 11.83 4.766 2.905 3.177 4.358 7.474 4.358 12.89 0 5.542-1.458 9.897-4.375 13.063-2.917 3.168-6.927 4.75-12.03 4.75zm.092-4.624c6.52 0 9.782-4.396 9.782-13.187 0-8.69-3.22-13.032-9.656-13.032-6.417 0-9.625 4.364-9.625 13.093 0 8.75 3.166 13.126 9.5 13.126zM381.25 206v-33.938h6.156v6.375c3.25-4.75 7.23-7.125 11.938-7.125 2.937 0 5.28.933 7.03 2.797s2.626 4.37 2.626 7.515V206h-6.156v-22.375c0-2.52-.37-4.318-1.11-5.39-.74-1.074-1.963-1.61-3.67-1.61-3.772 0-7.324 2.47-10.658 7.406V206h-6.156zm66.938-2.625c0 1.75-.938 2.625-2.813 2.625-1.938 0-2.906-.906-2.906-2.72 0-1.75.936-2.624 2.81-2.624.793 0 1.475.255 2.048.766.573.51.86 1.16.86 1.953zm-12.313 0c0 1.75-.937 2.625-2.813 2.625-1.916 0-2.875-.906-2.875-2.72 0-1.75.938-2.624 2.813-2.624.792 0 1.47.255 2.03.766.564.51.845 1.16.845 1.953zm-12.28 0c0 1.75-.94 2.625-2.814 2.625-1.936 0-2.905-.906-2.905-2.72 0-1.75.937-2.624 2.813-2.624.79 0 1.473.255 2.046.766.573.51.86 1.16.86 1.953z"/></g></svg>