<?xml version="1.0" encoding="UTF-8" standalone="no"?>
<svg width="60px" height="40px" viewBox="0 0 60 40" version="1.1" xmlns="http://www.w3.org/2000/svg" xmlns:xlink="http://www.w3.org/1999/xlink" xmlns:sketch="http://www.bohemiancoding.com/sketch/ns">
    <!-- Generator: Sketch 3.2.2 (9983) - http://www.bohemiancoding.com/sketch -->
    <title>npsu</title>
    <desc>Created with Sketch.</desc>
    <defs>
        <linearGradient x1="38.9876741%" y1="73.0213945%" x2="0.00808478071%" y2="90.5005974%" id="linearGradient-1">
            <stop stop-color="#C20F51" offset="0%"></stop>
            <stop stop-color="#C20F51" stop-opacity="0" offset="100%"></stop>
        </linearGradient>
        <linearGradient x1="62.1509356%" y1="26.5522764%" x2="99.7706591%" y2="9.07306789%" id="linearGradient-2">
            <stop stop-color="#8C8C8C" offset="0%"></stop>
            <stop stop-color="#8C8C8C" stop-opacity="0" offset="100%"></stop>
        </linearGradient>
        <linearGradient x1="76.6122609%" y1="50.0000135%" x2="99.9999915%" y2="50.0000135%" id="linearGradient-3">
            <stop stop-color="#C20F51" offset="0%"></stop>
            <stop stop-color="#C20F51" stop-opacity="0" offset="100%"></stop>
        </linearGradient>
        <linearGradient x1="75.8979648%" y1="50.0000135%" x2="99.9999769%" y2="50.0000135%" id="linearGradient-4">
            <stop stop-color="#C20F51" offset="0%"></stop>
            <stop stop-color="#C20F51" stop-opacity="0" offset="100%"></stop>
        </linearGradient>
    </defs>
    <g id="Page-1" stroke="none" stroke-width="1" fill="none" fill-rule="evenodd" sketch:type="MSPage">
        <g id="npsu" sketch:type="MSArtboardGroup">
            <rect id="rect3807" fill="#FFFFFF" sketch:type="MSShapeGroup" x="0.0179905547" y="0.0179835952" width="59.970018" height="39.9680288"></rect>
            <g id="g3026" sketch:type="MSLayerGroup" transform="translate(14.001400, 3.959899)">
                <path d="M15.4426191,24.7249039 C15.1854581,24.4596608 15.1288925,24.4387572 14.6699731,24.4393788 C14.3976296,24.4397816 13.8501802,24.477231 13.4534195,24.5226737 C12.7737578,24.6005202 12.7176383,24.5950478 12.4830778,24.428078 C12.3461514,24.3306066 12.1787996,24.1184934 12.1111841,23.9567169 C11.7756274,23.1538575 12.1401156,21.3066191 12.6543685,21.203847 C12.770814,21.1805741 13.1304939,21.0836637 13.4536575,20.9884887 C13.9449894,20.8437865 14.1660389,20.8236916 14.8032687,20.865798 C16.0681687,20.9493779 16.2382274,21.076764 16.0798873,21.8220656 C16.0464461,21.9794728 16.0182065,22.7172426 16.0171328,23.4615553 C16.0147445,25.1179236 15.9537344,25.2520838 15.4426191,24.7249039 L15.4426191,24.7249039 Z M15.5947635,24.0845289 C15.644576,24.0245251 15.671126,23.7951332 15.6539141,23.5734651 C15.6234186,23.1807658 15.6128639,23.1945164 15.3390207,23.1465404 L15.0553606,23.1218085 L15.044826,23.5785884 C15.0355551,23.9806622 15.0562961,24.0442104 15.2180079,24.1091994 C15.469478,24.2102622 15.4915844,24.2088157 15.5947635,24.0845289 L15.5947635,24.0845289 Z M13.7144973,24.0309749 C14.0250921,24.0300023 14.0585726,24.013514 13.9690033,23.9056224 C13.8954081,23.8169721 13.7812511,23.795302 13.5704627,23.8299706 C13.3375162,23.8682824 13.3010007,23.8586574 13.3977529,23.7844407 C13.4903822,23.7133865 13.4953918,23.6801654 13.4182013,23.6488531 C13.3619686,23.6260435 13.3159577,23.5552512 13.3159577,23.491538 C13.3159577,23.3674104 13.1664328,23.3400455 13.0249342,23.4382766 C12.95191,23.4889721 12.9279469,23.7933433 12.9760016,24.0598382 C12.9830282,24.0988138 13.0715976,24.1085145 13.1728174,24.081397 C13.2740382,24.0542795 13.5177956,24.0315879 13.7144973,24.0309749 L13.7144973,24.0309749 Z M14.5265191,23.8499639 C14.5805027,23.7959946 14.6246723,23.6304109 14.6246723,23.4819985 C14.6246723,23.2122814 14.6245187,23.2121567 14.2108715,23.2121567 C13.9558339,23.2121567 13.8164674,23.2435294 13.847624,23.2939275 C13.8754271,23.3389011 13.967446,23.3756973 14.0521102,23.3756973 C14.2527104,23.3756973 14.3442007,23.5264522 14.1814852,23.5888733 C14.0849114,23.6259208 14.0747223,23.6739975 14.1382819,23.7927227 C14.2333905,23.9703841 14.3838701,23.9925692 14.5265191,23.8499639 L14.5265191,23.8499639 Z M13.91205,22.9542584 C14.1657337,22.8185308 13.9440731,22.7604627 13.6450098,22.8843006 C13.5156521,22.9378671 13.3307957,22.956622 13.23422,22.9259802 C13.0697227,22.8737855 13.0671704,22.8608292 13.1938136,22.7209328 C13.297912,22.605939 13.3090703,22.5343793 13.2423395,22.409728 C13.1703054,22.2751716 13.2026777,22.1965635 13.4341763,21.9439035 C13.5873465,21.7767294 13.694426,21.5924302 13.6721316,21.5343467 C13.6462658,21.4669635 13.7294696,21.4072522 13.9020298,21.3693645 C14.0507698,21.3367045 14.2136781,21.2536388 14.2640471,21.1847726 C14.3266434,21.0991947 14.4046831,21.0808167 14.5106007,21.1267151 C14.5958348,21.1636494 14.6931762,21.1880263 14.7269159,21.1808858 C14.7606564,21.1737482 14.7882609,21.278293 14.7882609,21.4132148 C14.7882609,21.6203649 14.8200709,21.6585242 14.992749,21.6585242 C15.2186537,21.6585242 15.2657085,21.826999 15.0823058,21.9791649 C14.9606051,22.0801357 14.9548221,22.2037193 15.0636422,22.3779304 C15.100103,22.4362997 15.1098354,22.5364253 15.0852659,22.6004301 C15.0405897,22.7168244 15.2286173,22.9668464 15.3608248,22.9668464 C15.4934171,22.9668464 15.6880058,22.7096109 15.6899882,22.5317126 C15.691084,22.4337347 15.7136519,22.1603889 15.7401471,21.9242776 C15.7719053,21.6412676 15.7581669,21.4949846 15.6998319,21.4949846 C15.6511631,21.4949846 15.631446,21.4426115 15.6560154,21.3785999 C15.7203897,21.2108964 15.4614545,21.1008091 14.8615221,21.0408158 C14.4380657,20.9984705 14.2505697,21.0216235 13.877468,21.1623342 C13.6239608,21.2579419 13.324034,21.4218767 13.210966,21.5266345 C13.020128,21.7034421 12.8766433,21.7825529 13.0132003,22.4326498 L13.0210117,23.148198 L13.3762693,23.0995208 C13.5716602,23.0727476 13.8127598,23.0073788 13.9120481,22.9542584 L13.91205,22.9542584 Z M14.6246723,22.8850757 C14.6246723,22.7792733 14.4855965,22.7792733 14.420186,22.8850757 C14.392383,22.9300503 14.4270159,22.9668464 14.497153,22.9668464 C14.5672891,22.9668464 14.6246723,22.9300503 14.6246723,22.8850757 L14.6246723,22.8850757 Z M14.5837746,22.6397654 C14.6115786,22.5947918 14.5769457,22.5579956 14.5068086,22.5579956 C14.4366725,22.5579956 14.3792884,22.5947918 14.3792884,22.6397654 C14.3792884,22.7455687 14.5183651,22.7455687 14.5837746,22.6397654 L14.5837746,22.6397654 Z M13.9107854,22.2254297 C13.8813722,22.1129827 13.8393184,22.0838546 13.7849107,22.138245 C13.6873918,22.2357357 13.772911,22.5067697 13.880265,22.4404426 C13.9213468,22.4150613 13.9350804,22.3183054 13.9107854,22.2254297 L13.9107854,22.2254297 Z M14.6400083,21.6109734 C14.5809632,21.5750742 14.5104155,21.5794898 14.4832351,21.6207784 C14.4560558,21.6620698 14.5043657,21.6914425 14.5905911,21.6860458 C14.6858772,21.6800806 14.7052585,21.6506365 14.6400083,21.6109675 L14.6400083,21.6109734 Z M4.52570471,24.7900646 C4.42538064,24.770691 4.27085432,24.6627735 4.18231335,24.550244 C4.0358682,24.3641251 3.98586031,24.35102 3.62857001,24.4051313 C3.41255293,24.4378478 2.99656283,24.4702862 2.70414693,24.4772167 C2.41173094,24.4841509 1.95692958,24.5540809 1.69347843,24.6326219 C1.24104738,24.7675006 1.20588145,24.7676483 1.05956987,24.635279 C0.745416655,24.3510593 0.853764057,24.2748483 2.02590738,23.9555658 C2.21521343,23.9040032 2.39222217,23.8260301 2.41925818,23.7822958 C2.50854989,23.6378642 2.09354972,23.6993289 1.30960078,23.946645 C0.884444629,24.0807716 0.434213564,24.191161 0.309086246,24.1919543 C0.0526030341,24.1935821 -0.0676944516,23.9992646 0.062648613,23.7938785 C0.140629087,23.6709989 0.35588932,23.6375313 1.23158642,23.6121433 C1.43966624,23.6061097 1.58072627,23.4769606 1.50790022,23.3591601 C1.48571995,23.3232829 1.34091818,23.2939284 1.18611888,23.2939284 C0.967380903,23.2939284 0.90466527,23.2604119 0.90466527,23.143514 C0.90466527,23.060785 0.996684161,22.951186 1.10915125,22.8999572 C1.34658223,22.7918076 1.35988223,22.6886162 1.18906787,22.2799208 C1.04416458,21.9332206 1.10538139,21.7601126 1.45345666,21.5322834 C1.57899846,21.4501127 1.7487989,21.2977155 1.83079086,21.1936244 C2.03980334,20.9282767 2.2813544,20.9576848 2.62169229,21.289917 C2.89455777,21.5562844 2.93325484,21.569775 3.19770273,21.4907266 C3.77640204,21.3177405 4.42183291,21.4137376 4.42183291,21.6727927 C4.42183291,21.714599 4.31140979,21.7872858 4.17644838,21.8343189 C3.94623146,21.9145501 3.83651944,22.0673779 4.00914135,22.0673779 C4.05208362,22.0673779 4.18821871,22.1683486 4.31166358,22.2917548 L4.53610831,22.5161328 L4.31538115,22.5937347 C4.19398111,22.6364177 4.09465475,22.6974316 4.09465475,22.7293251 C4.09465475,22.8295035 4.59494427,22.9668483 4.95985998,22.9668483 C5.33724734,22.9668483 5.59277957,23.1394028 5.54974211,23.3651812 C5.52856886,23.4762603 5.36645533,23.5051371 4.57252412,23.5392397 C3.82370274,23.5714037 3.58723685,23.6104263 3.46383766,23.7221999 C3.37756825,23.8003419 3.18974879,23.9051323 3.04646296,23.9550661 C2.72363623,24.0675716 2.69319919,24.2356713 3.01087647,24.1516061 C3.13459077,24.1188675 3.44500554,24.0983207 3.70068975,24.1059447 C3.96200827,24.1137385 4.23932084,24.0737634 4.33400294,24.0146507 C4.47475381,23.9267754 4.5395101,23.9315841 4.7279687,24.0438977 C4.85200933,24.11782 5.00870848,24.2757692 5.07618847,24.3948944 C5.18902977,24.5940953 5.1861325,24.6209605 5.04010648,24.7295217 C4.87902817,24.8492732 4.85000796,24.8526891 4.52570471,24.7900665 L4.52570471,24.7900646 Z M2.37696848,23.2939275 C2.37696848,23.2030718 2.32243827,23.130386 2.25427645,23.130386 C2.18611463,23.130386 2.13158443,23.2030718 2.13158443,23.2939275 C2.13158443,23.3847821 2.18611463,23.457468 2.25427645,23.457468 C2.32243827,23.457468 2.37696848,23.3847821 2.37696848,23.2939275 L2.37696848,23.2939275 Z M2.99042766,23.130386 C2.99042766,23.0704224 2.94441818,23.0060282 2.88818454,22.9872896 C2.82736276,22.9670229 2.78594133,23.0249941 2.78594133,23.130386 C2.78594133,23.2357788 2.82736276,23.2937519 2.88818454,23.2734843 C2.94441818,23.2547447 2.99042766,23.1903505 2.99042766,23.130386 L2.99042766,23.130386 Z M3.52209205,23.0029059 C3.52209205,22.9381011 3.48528485,22.8850757 3.44029775,22.8850757 C3.39531055,22.8850757 3.35850335,22.9608416 3.35850335,23.0534431 C3.35850335,23.1460445 3.39531055,23.199067 3.44029775,23.1712723 C3.48528485,23.1434776 3.52209205,23.0677126 3.52209205,23.0029059 L3.52209205,23.0029059 Z M2.29517322,22.3126853 C2.29517322,22.2677126 2.26053886,22.2309155 2.21820655,22.2309155 C2.17587473,22.2309155 2.11849081,22.2677126 2.09068689,22.3126853 C2.06288374,22.3576599 2.09751657,22.394456 2.16765442,22.394456 C2.23779007,22.394456 2.29517322,22.3576599 2.29517322,22.3126853 L2.29517322,22.3126853 Z M3.03132529,22.1082604 C3.03132529,21.9556474 2.95418936,21.9563592 2.74985934,22.1108608 C2.59758578,22.2260004 2.60009761,22.2309155 2.81120492,22.2309155 C2.95233768,22.2309155 3.03132529,22.1869021 3.03132529,22.1082604 L3.03132529,22.1082604 Z M3.52209205,22.1491457 C3.52209205,22.1041721 3.48745769,22.0673759 3.44512529,22.0673759 C3.40279375,22.0673759 3.34540974,22.1041721 3.31760582,22.1491457 C3.28980266,22.1941193 3.32443635,22.2309155 3.39457335,22.2309155 C3.4647089,22.2309155 3.52209205,22.1941193 3.52209205,22.1491457 L3.52209205,22.1491457 Z M10.8574097,24.7856186 C10.7596481,24.7693634 10.5809547,24.6573855 10.4603133,24.5367812 C10.2665257,24.3430507 10.172866,24.3160713 9.65652701,24.3052445 C9.33508458,24.2985078 8.93409369,24.3315908 8.76543642,24.3787687 C8.51111377,24.4499102 8.35648113,24.50815 8.17592783,24.3122641 L7.89307068,24.1599812 L7.40609881,24.3926632 C6.91489633,24.6273663 6.69566909,24.6290037 6.60724258,24.3986402 C6.5241631,24.1822047 6.73387142,24.0211246 7.0271269,24.0761241 C7.21684746,24.1117049 7.30348369,24.0921375 7.33644676,24.0062594 C7.36163033,23.9406507 7.5140008,23.8622613 7.67504696,23.832055 C8.0222196,23.7669462 8.03470018,23.6977068 7.76337242,23.3420838 C7.49637374,22.9921347 7.50262789,22.7604944 7.78382047,22.5846335 C7.90753477,22.5072599 8.02050859,22.4364033 8.03487231,22.4271697 C8.04923681,22.417938 8.01464208,22.3361951 7.95799911,22.2455217 C7.87456719,22.1119659 7.87570403,22.0557289 7.96398613,21.9493875 C8.1177954,21.7641146 8.0460514,21.7318968 7.69526673,21.8287246 C7.49268026,21.8846441 7.3301881,22.005564 7.20909866,22.1905098 C6.86111772,22.7220014 6.5116002,22.6943966 6.36923263,22.1241788 C6.32492439,21.946716 6.35448567,21.8495304 6.49980961,21.6948867 C6.69081977,21.4916273 7.01725469,21.4283294 7.10901562,21.5767582 C7.17260283,21.6796129 7.53338896,21.6841539 7.59599496,21.5828829 C7.62171442,21.5412791 7.59895662,21.4111314 7.54541827,21.2936666 C7.46502305,21.1172705 7.47073238,21.0574479 7.57821448,20.9499976 C7.68407719,20.8441664 7.75586005,20.8364609 7.96310068,20.9086834 C8.27746282,21.0182383 8.44891191,20.9587851 8.54466214,20.7070163 C8.63882332,20.4594307 8.96477396,20.4493146 9.18637314,20.6871026 C9.3271434,20.8381558 9.38120938,20.8488618 9.60660318,20.7703131 C10.0537108,20.6144973 10.386103,20.9123122 9.97439303,21.099845 C9.66627382,21.2401913 9.80748641,21.3314431 10.3327873,21.3314431 C10.7258758,21.3314431 10.8447038,21.3665779 11.0289432,21.5372724 C11.3497818,21.8345261 11.2812999,22.0204666 10.8393017,22.0521779 C10.6423822,22.0663045 10.4420987,22.0387074 10.3942273,21.9908512 C10.3327009,21.9293433 10.3419545,21.903468 10.4257878,21.9025836 C10.5266554,21.9015208 10.5260452,21.8894786 10.4216983,21.8220656 C10.3542182,21.7784685 10.1852898,21.7422354 10.0463033,21.7415477 C9.85422944,21.740598 9.77082506,21.7902642 9.69867586,21.9485683 C9.55805788,22.2570968 9.57949836,22.3126853 9.83912083,22.3126853 C10.1905729,22.3126853 10.2935343,22.482951 10.1438462,22.8166028 C9.95738458,23.2322287 9.8112295,23.3756973 9.57428539,23.3756973 C9.45553113,23.3756973 9.35836705,23.4164819 9.35836705,23.4663323 C9.35836705,23.5191265 9.43520504,23.5382028 9.54240533,23.5120253 C9.70672144,23.4718997 10.0941028,23.6551553 10.0067548,23.7316915 C9.98754518,23.7485222 9.622157,23.8060704 9.19477758,23.8595735 C8.16218597,23.9888464 8.0223999,24.1313481 8.99250304,24.0657778 C9.39617042,24.0384963 9.78165421,23.9951946 9.84913535,23.9695553 C10.1288355,23.8632809 10.7834106,23.9520138 10.9628361,24.120526 C11.3032959,24.4402728 11.2385062,24.8489874 10.8574097,24.7856186 L10.8574097,24.7856186 Z M8.62221565,23.2617903 C8.62221565,23.2441155 8.56700448,23.2084752 8.49952382,23.1825855 C8.43204306,23.1566987 8.37683265,23.171162 8.37683265,23.2147236 C8.37683265,23.2582843 8.43204306,23.2939275 8.49952382,23.2939275 C8.56700448,23.2939275 8.62221565,23.2794661 8.62221565,23.2617903 L8.62221565,23.2617903 Z M9.4743692,23.1625232 C9.5455301,23.1352244 9.60375235,23.062787 9.60375235,23.0015495 C9.60375235,22.8630392 9.38750547,22.9365337 9.32636129,23.0958248 C9.27622319,23.2264435 9.29071866,23.2329759 9.4743692,23.1625232 L9.4743692,23.1625232 Z M8.54042135,22.8850757 C8.37927559,22.7809673 8.18977812,22.7809673 8.25413928,22.8850757 C8.28194388,22.9300503 8.38533746,22.9662843 8.48390408,22.9655946 C8.62959782,22.964573 8.6401676,22.9495189 8.54042135,22.8850757 L8.54042135,22.8850757 Z M9.48847847,22.6608119 C9.43175394,22.604104 9.27657275,22.7193203 9.27657275,22.8181452 C9.27657275,22.8723668 9.32350509,22.8661625 9.40124129,22.8016666 C9.46981033,22.7447764 9.50906574,22.6813922 9.48847847,22.6608119 L9.48847847,22.6608119 Z M8.94939458,22.0196762 C8.94939458,21.8752762 8.77331025,21.9004244 8.722756,22.0520445 C8.70494788,22.1054498 8.74865662,22.1491457 8.81988641,22.1491457 C8.89111544,22.1491457 8.94939458,22.0908848 8.94939458,22.0196762 L8.94939458,22.0196762 Z M25.7081929,24.7439601 C25.627055,24.6802123 25.5418332,24.3791658 25.4764544,23.9253337 C25.4161726,23.5068762 25.3376915,23.2193174 25.2882628,23.2357903 C25.2416291,23.2513289 25.1573381,23.4448416 25.100951,23.6658152 C25.0032325,24.0487591 24.8247262,24.2751677 24.620525,24.2751677 C24.5071979,24.2751677 24.3367488,23.9237989 24.3367488,23.6901826 C24.3367488,23.5701797 24.2995405,23.5360148 24.2073661,23.571374 C24.1362062,23.5986738 24.0625918,23.6210085 24.0437766,23.6210085 C24.0249623,23.6210085 24.0095697,23.8233893 24.0095697,24.0707438 C24.0095697,24.3180982 23.9762225,24.520479 23.935463,24.520479 C23.8442539,24.520479 23.6005962,23.8256502 23.6005962,23.5655572 C23.6005962,23.3162699 23.4743781,23.324432 23.3037591,23.5847505 C23.1455255,23.8261749 22.5234811,24.2751677 22.3472421,24.2751677 C22.1211245,24.2751677 22.1240002,24.0266517 22.3527373,23.8004493 C22.5469125,23.6084282 22.572216,23.5266642 22.549699,23.1640061 C22.5354895,22.9351419 22.5647337,22.5961529 22.6146873,22.4106958 C22.7195341,22.0214383 22.655276,21.6585242 22.481504,21.6585242 C22.411696,21.6585242 22.3731185,21.5991592 22.3890801,21.5163007 C22.4086725,21.414599 22.5300845,21.3578316 22.815227,21.3170565 C23.0345388,21.2856944 23.2531165,21.2209069 23.3009544,21.1730834 C23.3970167,21.0770508 23.6796626,21.0588417 23.8801879,21.1357664 C24.0518077,21.2016043 24.0446958,21.3843918 23.8664284,21.4894239 C23.7648824,21.5492551 23.750954,21.5921577 23.8185004,21.6370671 C23.8767625,21.6758047 23.9250091,22.0172081 23.9428197,22.516786 C23.9667175,23.187069 23.9954791,23.3377337 24.1035115,23.3585318 C24.3411741,23.4042872 24.4739602,23.1663994 24.4893941,22.6672138 C24.4975068,22.404762 24.5227268,22.130198 24.5454339,22.05707 C24.5720759,21.9712714 24.5278794,21.9087256 24.4208363,21.8807409 C24.1494101,21.8097846 24.2001601,21.3920733 24.5120886,21.129682 C24.831107,20.8613261 24.9371273,20.9451458 24.8976968,21.4345443 C24.871476,21.7599831 24.882996,21.7888896 25.0078324,21.7109146 C25.0845154,21.6630182 25.1674985,21.6440685 25.1922407,21.6688033 C25.2523047,21.7288493 25.0743723,22.2309155 24.993028,22.2309155 C24.9251016,22.2309155 24.7018731,22.7138105 24.75516,22.7454719 C24.7724621,22.7557529 24.8641116,22.8290536 24.9588278,22.908362 C25.0558938,22.9896397 25.1897354,23.0300426 25.2655576,23.0009548 C25.4867309,22.9161088 25.4175907,22.795797 25.1816745,22.8549894 C24.9815243,22.9052081 24.9913239,22.8844531 25.2989365,22.6066268 C25.6189988,22.3175563 25.7047041,22.0741769 25.5608193,21.862951 C25.5301837,21.8179764 25.5274923,21.5979879 25.5548395,21.3740839 C25.597637,21.0236973 25.6359555,20.9559832 25.8299186,20.8879736 C26.1759686,20.7666393 26.2659947,20.9089923 26.1362292,21.3723294 C26.0569277,21.6554815 26.0539724,21.7725405 26.1243465,21.8428925 C26.2561068,21.9746143 26.2408399,22.2737328 26.0962325,22.3937078 C25.8801937,22.572951 26.0527403,22.6588225 26.5133503,22.6012896 C27.04579,22.534786 27.2813551,22.5984349 27.2813551,22.8088167 C27.2813551,22.9325001 27.2235776,22.9669452 27.0155229,22.967304 C26.8693141,22.9675534 26.6158012,23.0049376 26.4521579,23.0503774 C26.1008718,23.1479236 26.0571225,23.2616272 26.0555527,24.0811735 C26.0543331,24.7167687 25.943284,24.9286622 25.7081929,24.7439601 L25.7081929,24.7439601 Z M23.5188019,22.7890536 C23.5188019,22.5518584 23.3807903,22.6155141 23.2662927,22.9055198 C23.2085852,23.0516838 23.1447243,23.2080685 23.1243796,23.2530421 C23.1040349,23.2980157 23.1844562,23.24561 23.3030941,23.1365759 C23.421734,23.0275457 23.5188019,22.8711601 23.5188019,22.7890536 L23.5188019,22.7890536 Z M23.2212019,22.4353404 C23.249882,22.3606268 23.2213555,22.3126853 23.1481594,22.3126853 C23.0820907,22.3126853 23.0280332,22.3678805 23.0280332,22.4353404 C23.0280332,22.5028004 23.0609035,22.5579956 23.1010777,22.5579956 C23.1412518,22.5579956 23.1953074,22.5028004 23.2212019,22.4353404 L23.2212019,22.4353404 Z M23.4270382,21.9934949 C23.5571991,21.9110776 23.4811667,21.7402959 23.3143157,21.7402959 C23.1739446,21.7402959 23.083198,21.8763755 23.1507261,21.9856052 C23.2122746,22.085164 23.2792462,22.0870747 23.4270382,21.9934968 L23.4270382,21.9934949 Z M19.4100135,24.6022488 C19.3805515,24.5797615 19.2368844,24.4220963 19.0907524,24.2518795 C18.6714488,23.763469 18.7683296,23.2970718 19.2900006,23.2926747 C19.3716855,23.2920224 19.4926647,23.2571898 19.5588428,23.21535 C19.7939646,23.0666987 19.5655163,23.0351284 19.0048369,23.1387927 C18.5017874,23.2318009 18.420515,23.2729913 18.3005059,23.4957682 C17.9741846,24.1015284 17.3682668,24.5042123 17.343065,24.1320694 C17.3247775,23.8620579 17.3622362,23.7434766 17.5045052,23.6210085 C17.7288113,23.4279208 17.7709371,23.2218402 17.6384581,22.965728 C17.4805422,22.6604445 17.4841711,22.4837587 17.6521677,22.2981807 C17.822448,22.110081 17.7394553,22.0154297 17.4962428,22.1203534 C17.2249864,22.237375 17.025577,22.1664848 17.025577,21.9530316 C17.025577,21.7518076 17.1603839,21.5959333 17.59814,21.2909884 C17.7555944,21.181305 17.9652764,21.032199 18.0641013,20.9596436 C18.2197422,20.8453741 18.2744578,20.8425635 18.4730737,20.938645 C18.6489538,21.023729 18.695786,21.0966844 18.6741143,21.2518335 C18.6585768,21.3630796 18.6119096,21.4665846 18.5704122,21.4818431 C18.528913,21.4971016 18.4492786,21.5552532 18.393446,21.611068 C18.3376135,21.6668848 18.2496264,21.6984532 18.197915,21.6812215 C18.1462055,21.6639918 18.076434,21.694315 18.0428671,21.7486134 C18.0051589,21.8096071 18.0162529,21.8260695 18.0719002,21.7916877 C18.1654717,21.7338748 18.1529739,22.0787889 18.0415852,22.6283822 C17.9724047,22.9697069 18.1247113,23.0975505 18.3919684,22.9224896 C18.4920406,22.8569385 18.6626327,22.8033069 18.7710604,22.8033069 C19.2031324,22.8033069 19.461772,22.7026344 19.5549529,22.4981874 C19.6769377,22.2305385 19.6277392,22.1917318 19.3077959,22.3032311 C18.9259471,22.4363035 18.4978802,22.4212138 18.4978802,22.2746776 C18.4978802,22.0984637 18.7649396,21.9856052 19.1819145,21.9856052 C19.6287074,21.9856052 19.8065948,21.8318402 19.8065948,21.445633 C19.8065948,21.0929424 20.0080249,20.5950949 20.1500483,20.5967659 C20.3631031,20.5992753 20.4971356,20.7565002 20.5803903,21.101586 C20.6498259,21.3893894 20.7029757,21.4583016 20.8699245,21.4769913 C21.2890746,21.523916 21.4424865,21.5830824 21.4424865,21.6978153 C21.4424865,21.8054383 21.2948346,21.8643525 20.614316,22.0282594 C20.4558743,22.0664215 20.3996061,22.1318968 20.3996061,22.2780992 C20.3996061,22.4566939 20.4338955,22.4762258 20.7474427,22.4762258 C21.1142011,22.4762258 21.3136988,22.6174968 21.2353137,22.8217049 C21.2052999,22.8998968 21.1173013,22.9289174 20.9861953,22.9038623 C20.6949359,22.8482009 20.1329583,23.0270929 19.8474924,23.2663409 C19.6385502,23.4414527 19.6324764,23.4560953 19.8065948,23.36495 C20.051874,23.2365491 20.5532397,23.0515659 20.6606234,23.0498469 C20.7029613,23.0491946 20.6661522,23.1026411 20.5788282,23.1686718 C20.4296467,23.2814728 20.4378199,23.2888838 20.7141071,23.291327 C21.022566,23.2940579 21.278897,23.489916 21.278897,23.72288 C21.278897,23.8995582 20.9732073,24.6009327 20.8932802,24.6076397 C20.5337518,24.6378133 19.4514543,24.6338785 19.4100135,24.6022517 L19.4100135,24.6022488 Z M20.4405028,23.8857318 C20.5867106,23.7744301 20.7063359,23.6509385 20.7063359,23.611303 C20.7063359,23.511469 20.4205956,23.521255 20.0205707,23.6347927 C19.6352955,23.7441423 19.4542896,23.8663179 19.6775585,23.8663179 C19.7961955,23.8663179 19.8071868,23.8897327 19.731401,23.981021 C19.658275,24.0691064 19.6606968,24.1053711 19.7418339,24.1372876 C19.9000185,24.1995131 20.1434439,24.111868 20.4405028,23.8857318 L20.4405028,23.8857318 Z M27.5034294,24.6113692 C27.2791501,24.4652349 27.4710139,24.2854555 27.879069,24.2593845 L28.2719475,24.2342843 L28.2450828,23.8930699 C28.2229361,23.6117807 28.2491656,23.535303 28.3944149,23.4575879 C28.4913235,23.4057404 28.6414414,23.2925097 28.7280094,23.2059678 C28.8145782,23.1194258 28.9394339,23.0486162 29.0054642,23.0486162 C29.0960736,23.0486162 29.1084371,23.003491 29.0558726,22.8646344 C28.9746464,22.6500695 28.8883461,22.6569088 28.2792427,22.9262047 L27.8280562,23.125681 L27.7031343,22.9473826 C27.5251529,22.6933548 27.6310216,22.6105069 28.1920108,22.56481 C28.244415,22.5605414 28.2595274,22.3657616 28.2324709,22.0433971 C28.2087122,21.7603659 28.2004584,21.4707515 28.2141249,21.3998067 C28.2393516,21.2688541 28.6950901,21.1679035 29.2610459,21.1679035 L29.5320576,21.1679035 L29.48362,21.5767544 C29.4569799,21.8016215 29.4600091,21.9856052 29.490352,21.9856052 C29.6583016,21.9856052 29.9487378,21.6981827 29.9487378,21.5319755 C29.9487378,21.3260244 30.0314984,21.2854469 30.6030942,21.21114 C31.1908521,21.1347342 31.206571,21.1667793 31.1559688,22.3381261 C31.1285821,22.972081 31.1428876,23.3920004 31.1936011,23.4426958 C31.2481575,23.4972397 31.2249909,23.6098258 31.1240637,23.7806306 C30.9920338,24.0040723 30.9882772,24.0466133 31.0946333,24.1138344 C31.1616894,24.1562171 31.3201954,24.1914584 31.4468665,24.1921462 C31.7341123,24.1937078 31.993604,24.327349 31.993604,24.4737231 C31.993604,24.5968512 31.7728817,24.7089068 31.6634839,24.6413164 C31.6249995,24.617538 31.1736508,24.5667581 30.660486,24.5284685 C29.8330686,24.4667332 28.7541006,24.5110737 27.9038717,24.6417529 C27.7464173,24.6659543 27.5662184,24.6522814 27.5034294,24.6113692 L27.5034294,24.6113692 Z M29.1978269,23.9284819 C29.1590393,23.6566977 28.8854081,23.63281 28.8854081,23.901208 C28.8854081,24.0594709 28.927366,24.1116282 29.0546876,24.1116282 C29.1832556,24.1116282 29.2176784,24.0675831 29.1978269,23.9284819 L29.1978269,23.9284819 Z M29.847068,23.6556502 C29.7665672,23.5751754 29.6215597,23.6987188 29.6215597,23.8477797 C29.6215597,23.9726008 29.6323178,23.9723773 29.7598323,23.844903 C29.835881,23.7688752 29.8751369,23.6837126 29.847068,23.6556502 L29.847068,23.6556502 Z M30.4716524,23.8187447 C30.5546087,23.6026287 30.5287678,23.5392378 30.3577113,23.5392378 C30.2377453,23.5392378 30.1941217,23.593751 30.1941217,23.7436618 C30.1941217,23.9719447 30.3922684,24.0255505 30.4716524,23.8187447 L30.4716524,23.8187447 Z M30.2963643,23.2654421 C30.6081921,23.2511524 30.3727767,22.8850757 30.0517596,22.8850757 C29.8237805,22.8850757 29.362162,23.2051054 29.4305585,23.3157385 C29.4583395,23.3606776 29.6204466,23.367797 29.8158702,23.3326584 C30.0014155,23.2992973 30.2176376,23.2690507 30.2963643,23.2654421 L30.2963643,23.2654421 Z M29.6198978,22.4794843 C29.8305173,22.0667601 29.8349416,21.8976551 29.6295515,22.1105328 C29.4826413,22.2627966 29.3104957,22.8033069 29.4089108,22.8033069 C29.4340646,22.8033069 29.5290092,22.657587 29.6198978,22.4794843 L29.6198978,22.4794843 Z M30.7628236,22.0484311 C30.825676,21.5155294 30.7542023,21.4083851 30.4458969,21.5733347 C30.2300068,21.6888436 30.2265832,21.8220656 30.4395094,21.8220656 C30.5294827,21.8220656 30.603098,21.8759649 30.603098,21.9418431 C30.603098,22.0077222 30.5294827,22.1010076 30.4395094,22.1491457 C30.2485745,22.2513002 30.2256458,22.4399726 30.3928019,22.5334901 C30.5019684,22.5945644 30.5173409,22.6238325 30.5237917,22.7828637 C30.5329465,23.0086105 30.7158647,22.4465942 30.7628265,22.0484311 L30.7628236,22.0484311 Z M29.0898943,22.1287035 C29.0898943,21.915751 28.9631168,21.9193376 28.8189738,22.1363649 C28.6964978,22.3207678 28.6992103,22.3269472 28.890792,22.2999054 C29.0151736,22.2823467 29.0898943,22.2180982 29.0898943,22.1287035 L29.0898943,22.1287035 Z M29.2125863,21.5237664 C29.2125863,21.382951 29.0131385,21.2963256 28.8409833,21.3623669 C28.7439086,21.3996091 28.7342194,21.4471275 28.7990158,21.5681664 C28.8951712,21.7477827 29.2125863,21.7137059 29.2125863,21.5237664 L29.2125863,21.5237664 Z" id="path3021" fill="#000000" sketch:type="MSShapeGroup"></path>
                <g id="text4291" transform="translate(2.998678, 25.263022)" fill="#C20F51" sketch:type="MSShapeGroup">
                    <path d="M0.00101192279,0.0564628815 L0.244002877,0.0564628815 L0.835399147,1.17192073 L0.835399147,0.0564628815 L1.01049547,0.0564628815 L1.01049547,1.38983269 L0.767504516,1.38983269 L0.176108246,0.274374841 L0.176108246,1.38983269 L0.00101192279,1.38983269 L0.00101192279,0.0564628815" id="path3396"></path>
                    <path d="M1.75018783,0.50478913 C1.66204426,0.504790626 1.59236305,0.539322615 1.54114494,0.608386594 C1.48992533,0.676857219 1.46431665,0.770928101 1.46431665,0.890599989 C1.46431665,1.01027337 1.48962819,1.10464206 1.54025127,1.17370678 C1.59146938,1.24217666 1.66144849,1.2764116 1.75018783,1.27641085 C1.83773562,1.2764116 1.90711894,1.24187886 1.95833855,1.17281413 C2.00955591,1.10374941 2.03516534,1.00967852 2.03516609,0.890599989 C2.03516534,0.77211855 2.00955591,0.678345467 1.95833855,0.609279992 C1.90711894,0.539620415 1.83773562,0.504790626 1.75018783,0.50478913 M1.75018783,0.365469227 C1.89312342,0.365469976 2.00538697,0.411910193 2.08698073,0.50478913 C2.16857225,0.597670312 2.209368,0.726273931 2.2093695,0.890599989 C2.209368,1.05433195 2.16857225,1.18293556 2.08698073,1.27641085 C2.00538697,1.36929128 1.89312342,1.4157315 1.75018783,1.4157315 C1.60665646,1.4157315 1.49409427,1.36929128 1.41250276,1.27641085 C1.33150552,1.18293556 1.2910069,1.05433195 1.2910069,0.890599989 C1.2910069,0.726273931 1.33150552,0.597670312 1.41250276,0.50478913 C1.49409427,0.411910193 1.60665646,0.365469976 1.75018783,0.365469227" id="path3398"></path>
                    <path d="M3.312655,0.786109875 L3.312655,1.38983269 L3.14827892,1.38983269 L3.14827892,0.791468017 C3.14827742,0.696802284 3.12981507,0.62595151 3.09289111,0.578914947 C3.05596491,0.531880628 3.00057786,0.50836272 2.92672845,0.508361972 C2.83798836,0.50836272 2.76800926,0.536643171 2.71679115,0.59320482 C2.66557229,0.649767217 2.63996285,0.72686953 2.6399636,0.824512506 L2.6399636,1.38983269 L2.47469386,1.38983269 L2.47469386,0.389581985 L2.6399636,0.389581985 L2.6399636,0.544977808 C2.67926992,0.484844813 2.72542692,0.439892844 2.77843236,0.410122649 C2.83203284,0.380354699 2.89367405,0.365469976 2.96335527,0.365469227 C3.07829907,0.365469976 3.16525108,0.401193162 3.22421354,0.472638786 C3.28317301,0.543490308 3.3126535,0.64798117 3.312655,0.786109875" id="path3400"></path>
                    <path id="path3402" d="M3.55921911,0.815581523 L4.04073344,0.815581523 L4.04073344,0.96204711 L3.55921911,0.96204711 L3.55921911,0.815581523"></path>
                    <path d="M4.49098145,0.204714516 L4.49098145,0.70573252 L4.71789167,0.70573252 C4.80186554,0.705733268 4.86678278,0.684001407 4.9126419,0.640537686 C4.95849951,0.597075461 4.9814287,0.535154923 4.98142944,0.454776819 C4.9814287,0.374995809 4.95849951,0.313373818 4.9126419,0.269909349 C4.86678278,0.226447124 4.80186554,0.204715264 4.71789167,0.204714516 L4.49098145,0.204714516 M4.31052463,0.0564628815 L4.71789167,0.0564628815 C4.86737781,0.056464378 4.98023789,0.0904015171 5.05647115,0.158274299 C5.13329795,0.225553727 5.17171209,0.3243879 5.17171284,0.454776819 C5.17171209,0.586358431 5.13329795,0.685788203 5.05647115,0.753066134 C4.98023789,0.820345562 4.86737781,0.853984902 4.71789167,0.853984154 L4.49098145,0.853984154 L4.49098145,1.38983269 L4.31052463,1.38983269 L4.31052463,0.0564628815" id="path3404"></path>
                    <path d="M5.78008352,0.887027895 C5.64727165,0.887028643 5.55525703,0.902211166 5.50403891,0.932575463 C5.4528193,0.962940507 5.42721062,1.01473887 5.42721062,1.08797128 C5.42721062,1.14631973 5.44626875,1.1927592 5.48438501,1.22729194 C5.52309629,1.26122907 5.57550596,1.27819764 5.64161401,1.27819764 C5.73273496,1.27819764 5.8056922,1.24604655 5.86048498,1.18174437 C5.91587128,1.11684808 5.94356518,1.03081404 5.94356593,0.923644479 L5.94356593,0.887027895 L5.78008352,0.887027895 M6.10794201,0.819153617 L6.10794201,1.38983269 L5.94356593,1.38983269 L5.94356593,1.23800897 C5.9060447,1.29873831 5.85929267,1.34369028 5.80331059,1.37286412 C5.74732626,1.40144237 5.6788366,1.4157315 5.59784012,1.4157315 C5.49540239,1.4157315 5.41381013,1.38715325 5.35306258,1.329996 C5.29291006,1.2722439 5.26283454,1.19514084 5.26283454,1.09868832 C5.26283454,0.986160616 5.30035502,0.901317768 5.37539673,0.844159772 C5.45103272,0.787003273 5.56359491,0.758425023 5.7130818,0.758424275 L5.94356593,0.758424275 L5.94356593,0.742349103 C5.94356518,0.666735787 5.91855153,0.608387342 5.86852497,0.567305267 C5.81909194,0.525629089 5.74941073,0.504790626 5.65948133,0.50478913 C5.6023062,0.504790626 5.54662125,0.511637015 5.492425,0.525330542 C5.43822801,0.539024816 5.38611623,0.559566228 5.33608892,0.586952533 L5.33608892,0.435128804 C5.3962407,0.411910193 5.45460664,0.394643824 5.51118525,0.383330446 C5.56776385,0.371423715 5.62285377,0.365469976 5.67645499,0.365469227 C5.82117642,0.365469976 5.92927177,0.402979209 6.00074032,0.477996927 C6.07220737,0.55301689 6.10794126,0.666735787 6.10794201,0.819153617" id="path3406"></path>
                    <path d="M7.02719752,0.543191761 C7.00873442,0.532475478 6.98848549,0.524735691 6.96644997,0.519971652 C6.94500948,0.514614259 6.92118664,0.511934814 6.89498218,0.511934066 C6.80207389,0.511934814 6.73060535,0.542299859 6.68057879,0.603028453 C6.63114651,0.663162944 6.60643075,0.749791839 6.60643075,0.862915137 L6.60643075,1.38983269 L6.441161,1.38983269 L6.441161,0.389581985 L6.60643075,0.389581985 L6.60643075,0.544977808 C6.64097309,0.484249214 6.68593854,0.439297994 6.74132634,0.410122649 C6.7967134,0.380354699 6.86401225,0.365469976 6.9432229,0.365469227 C6.95453817,0.365469976 6.967045,0.366362625 6.98074413,0.368147924 C6.99444101,0.369339869 7.00962809,0.371423715 7.02630461,0.374399463 L7.02719752,0.543191761" id="path3408"></path>
                    <path d="M7.36399043,0.105582543 L7.36399043,0.389581985 L7.70256916,0.389581985 L7.70256916,0.517292956 L7.36399043,0.517292956 L7.36399043,1.06028568 C7.36398968,1.14185424 7.37500781,1.19424819 7.39704408,1.21746755 C7.41967537,1.24068841 7.46523585,1.25229809 7.53372625,1.25229809 L7.70256916,1.25229809 L7.70256916,1.38983269 L7.53372625,1.38983269 C7.40687065,1.38983269 7.31932287,1.36631479 7.27108214,1.31927897 C7.22284067,1.27164831 7.19872068,1.18531721 7.19872068,1.06028568 L7.19872068,0.517292956 L7.0781185,0.517292956 L7.0781185,0.389581985 L7.19872068,0.389581985 L7.19872068,0.105582543 L7.36399043,0.105582543" id="path3410"></path>
                    <path id="path3412"></path>
                    <path d="M9.06492635,0.419053633 L9.06492635,0.574449455 C9.01847146,0.550635245 8.97023074,0.532773277 8.92020343,0.52086505 C8.87017538,0.508958319 8.81836149,0.503003831 8.76476101,0.503003083 C8.683168,0.503003831 8.62182468,0.515507657 8.58073103,0.540512316 C8.54023241,0.565519968 8.51998348,0.603029201 8.51998348,0.653040764 C8.51998348,0.691146344 8.53457478,0.721213589 8.56375737,0.743241753 C8.59293997,0.764676562 8.65160305,0.785217226 8.73974736,0.804864492 L8.79602808,0.81736757 C8.91275847,0.842374474 8.99554228,0.877799861 9.04437953,0.923644479 C9.09381031,0.968894247 9.11852608,1.03230303 9.11852683,1.11387084 C9.11852608,1.20675127 9.08160138,1.28028149 9.00775197,1.33446149 C8.93449684,1.3886415 8.83354856,1.4157315 8.70490638,1.4157315 C8.65130516,1.4157315 8.59532233,1.41037336 8.53695714,1.39965633 C8.47918697,1.3895349 8.41814153,1.37405457 8.35382082,1.35321611 L8.35382082,1.18353116 C8.41456837,1.21508666 8.47442225,1.23890162 8.53338397,1.25497754 C8.59234419,1.27045711 8.65071013,1.27819764 8.70848029,1.27819764 C8.78590287,1.27819764 8.84545961,1.26509897 8.88714978,1.23890162 C8.92883846,1.21210941 8.94968317,1.17460018 8.94968392,1.12637392 C8.94968317,1.08171975 8.93449684,1.04748556 8.90412344,1.0236691 C8.87434432,0.999854142 8.80853491,0.976931833 8.70669371,0.954902173 L8.64951933,0.941505698 C8.54767738,0.920072385 8.47412511,0.887326443 8.42886178,0.843267123 C8.38359919,0.798613701 8.36096715,0.737586561 8.3609679,0.6601857 C8.36096715,0.566114818 8.39431943,0.493477997 8.46102251,0.442273741 C8.52772559,0.39107173 8.62242045,0.365469976 8.74510711,0.365469227 C8.80585466,0.365469976 8.86302905,0.369935467 8.91663027,0.378864955 C8.97023074,0.387796686 9.01966227,0.401193162 9.06492635,0.419053633" id="path3414"></path>
                    <path d="M9.83588653,0.887027895 C9.70307466,0.887028643 9.61106004,0.902211166 9.55984118,0.932575463 C9.50862231,0.962940507 9.48301363,1.01473887 9.48301363,1.08797128 C9.48301363,1.14631973 9.50207101,1.1927592 9.54018802,1.22729194 C9.5788993,1.26122907 9.63130897,1.27819764 9.69741702,1.27819764 C9.78853797,1.27819764 9.86149521,1.24604655 9.91628724,1.18174437 C9.97167429,1.11684808 9.99936819,1.03081404 9.99936894,0.923644479 L9.99936894,0.887027895 L9.83588653,0.887027895 M10.163745,0.819153617 L10.163745,1.38983269 L9.99936894,1.38983269 L9.99936894,1.23800897 C9.96184771,1.29873831 9.91509568,1.34369028 9.8591136,1.37286412 C9.80312927,1.40144237 9.73463961,1.4157315 9.65364313,1.4157315 C9.5512054,1.4157315 9.46961314,1.38715325 9.40886559,1.329996 C9.34871307,1.2722439 9.31863755,1.19514084 9.31863755,1.09868832 C9.31863755,0.986160616 9.35615803,0.901317768 9.43119899,0.844159772 C9.50683573,0.787003273 9.61939792,0.758425023 9.76888481,0.758424275 L9.99936894,0.758424275 L9.99936894,0.742349103 C9.99936819,0.666735787 9.97435454,0.608387342 9.92432798,0.567305267 C9.87489495,0.525629089 9.80521374,0.504790626 9.71528434,0.50478913 C9.65810921,0.504790626 9.60242426,0.511637015 9.54822801,0.525330542 C9.49403102,0.539024816 9.44191924,0.559566228 9.39189193,0.586952533 L9.39189193,0.435128804 C9.45204371,0.411910193 9.51040965,0.394643824 9.56698825,0.383330446 C9.62356686,0.371423715 9.67865678,0.365469976 9.732258,0.365469227 C9.87697942,0.365469976 9.98507478,0.402979209 10.0565433,0.477996927 C10.1280104,0.55301689 10.1637443,0.666735787 10.163745,0.819153617" id="path3416"></path>
                    <path d="M11.3349251,0.786109875 L11.3349251,1.38983269 L11.1705491,1.38983269 L11.1705491,0.791468017 C11.1705483,0.696802284 11.152086,0.62595151 11.1151613,0.578914947 C11.0782358,0.531880628 11.022848,0.50836272 10.9489986,0.508361972 C10.8602585,0.50836272 10.7902802,0.536643171 10.7390613,0.59320482 C10.6878424,0.649767217 10.662233,0.72686953 10.6622338,0.824512506 L10.6622338,1.38983269 L10.496964,1.38983269 L10.496964,0.389581985 L10.6622338,0.389581985 L10.6622338,0.544977808 C10.7015408,0.484844813 10.7476971,0.439892844 10.8007025,0.410122649 C10.854303,0.380354699 10.9159442,0.365469976 10.9856262,0.365469227 C11.1005692,0.365469976 11.187522,0.401193162 11.2464837,0.472638786 C11.3054439,0.543490308 11.3349244,0.64798117 11.3349251,0.786109875" id="path3418"></path>
                    <path d="M13.0537277,0.100223654 L13.0537277,0.276160888 C12.9852365,0.243415694 12.9206179,0.219005137 12.8598711,0.202928469 C12.799122,0.186854045 12.740459,0.178816459 12.6838811,0.178814962 C12.5856123,0.178816459 12.5096777,0.197868875 12.4560772,0.23597221 C12.4030718,0.27407779 12.3765687,0.328258542 12.3765694,0.398512969 C12.3765687,0.457457012 12.3941381,0.502111181 12.429277,0.53247473 C12.4650101,0.562244925 12.532309,0.586358431 12.6311735,0.6048145 L12.7401618,0.627141211 C12.8747588,0.652743713 12.9739205,0.697993481 13.0376469,0.762889767 C13.1019669,0.827191951 13.1341276,0.913523047 13.1341291,1.02188305 C13.1341276,1.15108227 13.0906516,1.2490238 13.0036996,1.31570688 C12.9173419,1.38238996 12.7904863,1.4157315 12.6231335,1.4157315 C12.5600029,1.4157315 12.492704,1.40858731 12.421237,1.39429819 C12.3503642,1.38000831 12.276812,1.35887205 12.2005794,1.3308894 L12.2005794,1.14512853 C12.2738338,1.18621061 12.3455995,1.2171705 12.4158765,1.23800897 C12.4861527,1.25884743 12.5552382,1.26926666 12.6231335,1.26926666 C12.7261655,1.26926666 12.8056733,1.2490238 12.8616577,1.20853732 C12.9176398,1.16805084 12.9456315,1.11029874 12.9456323,1.03527953 C12.9456315,0.969786897 12.9253819,0.918584137 12.8848847,0.881669754 C12.8449812,0.844756119 12.779171,0.817070519 12.6874543,0.798612953 L12.5775723,0.777178892 C12.4429746,0.750387438 12.3455995,0.708412713 12.2854477,0.651254717 C12.2252952,0.594098217 12.1952197,0.514614259 12.1952197,0.412802094 C12.1952197,0.294916253 12.2366112,0.202036567 12.319395,0.134160793 C12.4027739,0.066288011 12.5174198,0.0323508719 12.6633343,0.0323493754 C12.7258677,0.0323508719 12.7895933,0.0380075606 12.8545106,0.049317945 C12.9194263,0.0606320706 12.9858323,0.0776006401 13.0537277,0.100223654" id="path3420"></path>
                    <path d="M13.7960995,0.50478913 C13.7079559,0.504790626 13.6382747,0.539322615 13.5870566,0.608386594 C13.535837,0.676857219 13.5102283,0.770928101 13.5102283,0.890599989 C13.5102283,1.01027337 13.5355399,1.10464206 13.586163,1.17370678 C13.6373811,1.24217666 13.7073602,1.2764116 13.7960995,1.27641085 C13.8836473,1.2764116 13.9530306,1.24187886 14.0042502,1.17281413 C14.0554676,1.10374941 14.081077,1.00967852 14.0810778,0.890599989 C14.081077,0.77211855 14.0554676,0.678345467 14.0042502,0.609279992 C13.9530306,0.539620415 13.8836473,0.504790626 13.7960995,0.50478913 M13.7960995,0.365469227 C13.9390351,0.365469976 14.0512987,0.411910193 14.1328924,0.50478913 C14.2144839,0.597670312 14.2552797,0.726273931 14.2552812,0.890599989 C14.2552797,1.05433195 14.2144839,1.18293556 14.1328924,1.27641085 C14.0512987,1.36929128 13.9390351,1.4157315 13.7960995,1.4157315 C13.6525681,1.4157315 13.540006,1.36929128 13.4584144,1.27641085 C13.3774172,1.18293556 13.3369186,1.05433195 13.3369186,0.890599989 C13.3369186,0.726273931 13.3774172,0.597670312 13.4584144,0.50478913 C13.540006,0.411910193 13.6525681,0.365469976 13.7960995,0.365469227" id="path3422"></path>
                    <path id="path3424" d="M14.526859,0.000199031639 L14.691235,0.000199031639 L14.691235,1.38983269 L14.526859,1.38983269 L14.526859,0.000199031639"></path>
                    <path id="path3426"></path>
                    <path d="M16.200101,0.541405714 L16.200101,0.000199031639 L16.3644771,0.000199031639 L16.3644771,1.38983269 L16.200101,1.38983269 L16.200101,1.23979501 C16.1655579,1.29933391 16.1217832,1.34369028 16.0687793,1.37286412 C16.0163689,1.40144237 15.953239,1.4157315 15.8793888,1.4157315 C15.7584887,1.4157315 15.6599228,1.36750524 15.5836911,1.27105271 C15.5080536,1.17460018 15.4702352,1.04778261 15.4702352,0.890599989 C15.4702352,0.733418868 15.5080536,0.606601295 15.5836911,0.510148019 C15.6599228,0.41369624 15.7584887,0.365469976 15.8793888,0.365469227 C15.953239,0.365469976 16.0163689,0.3800569 16.0687793,0.40923 C16.1217832,0.437808997 16.1655579,0.481868317 16.200101,0.541405714 M15.6399718,0.890599989 C15.6399718,1.01146457 15.6646875,1.1064281 15.7141198,1.17549283 C15.7641471,1.24396271 15.8326368,1.27819764 15.9195895,1.27819764 C16.0065416,1.27819764 16.075032,1.24396271 16.12506,1.17549283 C16.1750866,1.1064281 16.2001002,1.01146457 16.200101,0.890599989 C16.2001002,0.769737653 16.1750866,0.675071172 16.12506,0.606600547 C16.075032,0.537536568 16.0065416,0.503003831 15.9195895,0.503003083 C15.8326368,0.503003831 15.7641471,0.537536568 15.7141198,0.606600547 C15.6646875,0.675071172 15.6399718,0.769737653 15.6399718,0.890599989" id="path3428"></path>
                    <path d="M17.1577699,0.887027895 C17.024958,0.887028643 16.9329434,0.902211166 16.8817253,0.932575463 C16.8305064,0.962940507 16.804897,1.01473887 16.804897,1.08797128 C16.804897,1.14631973 16.8239551,1.1927592 16.8620714,1.22729194 C16.9007827,1.26122907 16.9531923,1.27819764 17.0193011,1.27819764 C17.1104221,1.27819764 17.1833786,1.24604655 17.2381713,1.18174437 C17.2935577,1.11684808 17.3212516,1.03081404 17.3212523,0.923644479 L17.3212523,0.887027895 L17.1577699,0.887027895 M17.4856284,0.819153617 L17.4856284,1.38983269 L17.3212523,1.38983269 L17.3212523,1.23800897 C17.2837311,1.29873831 17.236979,1.34369028 17.180997,1.37286412 C17.1250134,1.40144237 17.056523,1.4157315 16.9755265,1.4157315 C16.8730888,1.4157315 16.7914965,1.38715325 16.7307489,1.329996 C16.6705972,1.2722439 16.6405209,1.19514084 16.6405209,1.09868832 C16.6405209,0.986160616 16.6780414,0.901317768 16.7530831,0.844159772 C16.8287191,0.787003273 16.9412813,0.758425023 17.0907689,0.758424275 L17.3212523,0.758424275 L17.3212523,0.742349103 C17.3212516,0.666735787 17.2962379,0.608387342 17.2462113,0.567305267 C17.1967783,0.525629089 17.1270979,0.504790626 17.0371677,0.50478913 C16.9799933,0.504790626 16.9243076,0.511637015 16.8701114,0.525330542 C16.8159151,0.539024816 16.7638026,0.559566228 16.7137753,0.586952533 L16.7137753,0.435128804 C16.7739278,0.411910193 16.832293,0.394643824 16.8888716,0.383330446 C16.9454502,0.371423715 17.0005401,0.365469976 17.0541414,0.365469227 C17.1988628,0.365469976 17.3069581,0.402979209 17.3784267,0.477996927 C17.4498937,0.55301689 17.4856276,0.666735787 17.4856284,0.819153617" id="path3430"></path>
                    <path d="M18.4048854,0.543191761 C18.3864223,0.532475478 18.3661726,0.524735691 18.3441378,0.519971652 C18.3226966,0.514614259 18.2988738,0.511934814 18.27267,0.511934066 C18.179761,0.511934814 18.1082932,0.542299859 18.0582659,0.603028453 C18.0088336,0.663162944 17.9841179,0.749791839 17.9841179,0.862915137 L17.9841179,1.38983269 L17.8188489,1.38983269 L17.8188489,0.389581985 L17.9841179,0.389581985 L17.9841179,0.544977808 C18.0186602,0.484249214 18.0636257,0.439297994 18.1190135,0.410122649 C18.1744005,0.380354699 18.2416994,0.365469976 18.3209108,0.365469227 C18.3322253,0.365469976 18.3447321,0.366362625 18.3584312,0.368147924 C18.3721281,0.369339869 18.3873152,0.371423715 18.4039917,0.374399463 L18.4048854,0.543191761" id="path3432"></path>
                    <path id="path3434"></path>
                    <path d="M19.2490992,0.105582543 L19.2490992,0.389581985 L19.5876787,0.389581985 L19.5876787,0.517292956 L19.2490992,0.517292956 L19.2490992,1.06028568 C19.2490992,1.14185424 19.2601173,1.19424819 19.2821536,1.21746755 C19.3047841,1.24068841 19.3503454,1.25229809 19.4188358,1.25229809 L19.5876787,1.25229809 L19.5876787,1.38983269 L19.4188358,1.38983269 C19.2919794,1.38983269 19.2044316,1.36631479 19.1561909,1.31927897 C19.1079502,1.27164831 19.0838294,1.18531721 19.0838302,1.06028568 L19.0838302,0.517292956 L18.963228,0.517292956 L18.963228,0.389581985 L19.0838302,0.389581985 L19.0838302,0.105582543 L19.2490992,0.105582543" id="path3436"></path>
                    <path d="M20.221063,1.48271313 C20.1746081,1.60179017 20.1293455,1.67948808 20.0852745,1.71580686 C20.041202,1.7521249 19.982241,1.77028466 19.9083908,1.77028466 L19.7770692,1.77028466 L19.7770692,1.63275006 L19.8735506,1.63275006 C19.9188132,1.63275006 19.9539513,1.62203303 19.9789657,1.60059972 C20.0039794,1.57916566 20.0316725,1.52855775 20.0620474,1.44877599 L20.0915279,1.37375677 L19.6868404,0.389581985 L19.8610438,0.389581985 L20.1737159,1.17192073 L20.4863874,0.389581985 L20.6605908,0.389581985 L20.221063,1.48271313" id="path3438"></path>
                    <path d="M21.4565646,0.0564628815 L21.6379143,0.0564628815 L21.6379143,0.866487231 C21.6379136,1.00938072 21.6638209,1.11238259 21.7156355,1.17549283 C21.7674494,1.23800897 21.8514241,1.26926666 21.9675594,1.26926666 C22.0830982,1.26926666 22.1667757,1.23800897 22.2185904,1.17549283 C22.2704035,1.11238259 22.2963108,1.00938072 22.2963116,0.866487231 L22.2963116,0.0564628815 L22.4776613,0.0564628815 L22.4776613,0.888813942 C22.4776606,1.06266733 22.4344817,1.19395039 22.3481262,1.28266314 C22.2623635,1.37137513 22.1355087,1.4157315 21.9675594,1.4157315 C21.7990144,1.4157315 21.671563,1.37137513 21.5852068,1.28266314 C21.4994448,1.19395039 21.4565639,1.06266733 21.4565646,0.888813942 L21.4565646,0.0564628815" id="path3440"></path>
                    <path d="M23.6416944,0.786109875 L23.6416944,1.38983269 L23.4773183,1.38983269 L23.4773183,0.791468017 C23.4773168,0.696802284 23.4588544,0.62595151 23.4219305,0.578914947 C23.3850043,0.531880628 23.3296172,0.50836272 23.2557678,0.508361972 C23.1670277,0.50836272 23.0970486,0.536643171 23.0458305,0.59320482 C22.9946116,0.649767217 22.9690022,0.72686953 22.969003,0.824512506 L22.969003,1.38983269 L22.8037332,1.38983269 L22.8037332,0.389581985 L22.969003,0.389581985 L22.969003,0.544977808 C23.0083093,0.484844813 23.0544663,0.439892844 23.1074717,0.410122649 C23.1610722,0.380354699 23.2227134,0.365469976 23.2923946,0.365469227 C23.4073384,0.365469976 23.4942904,0.401193162 23.5532529,0.472638786 C23.6122124,0.543490308 23.6416929,0.64798117 23.6416944,0.786109875" id="path3442"></path>
                    <path id="path3444"></path>
                    <path d="M24.8664742,0.50478913 C24.7783299,0.504790626 24.7086487,0.539322615 24.6574306,0.608386594 C24.6062117,0.676857219 24.5806023,0.770928101 24.5806023,0.890599989 C24.5806023,1.01027337 24.6059138,1.10464206 24.6565369,1.17370678 C24.7077558,1.24217666 24.7777341,1.2764116 24.8664742,1.27641085 C24.9540212,1.2764116 25.0234046,1.24187886 25.0746242,1.17281413 C25.1258423,1.10374941 25.1514517,1.00967852 25.1514525,0.890599989 C25.1514517,0.77211855 25.1258423,0.678345467 25.0746242,0.609279992 C25.0234046,0.539620415 24.9540212,0.504790626 24.8664742,0.50478913 M24.8664742,0.365469227 C25.0094091,0.365469976 25.1216734,0.411910193 25.2032664,0.50478913 C25.2848579,0.597670312 25.3256544,0.726273931 25.3256551,0.890599989 C25.3256544,1.05433195 25.2848579,1.18293556 25.2032664,1.27641085 C25.1216734,1.36929128 25.0094091,1.4157315 24.8664742,1.4157315 C24.7229421,1.4157315 24.6103807,1.36929128 24.5287884,1.27641085 C24.4477912,1.18293556 24.4072925,1.05433195 24.4072925,0.890599989 C24.4072925,0.726273931 24.4477912,0.597670312 24.5287884,0.50478913 C24.6103807,0.411910193 24.7229421,0.365469976 24.8664742,0.365469227" id="path3446"></path>
                    <path d="M26.4289406,0.786109875 L26.4289406,1.38983269 L26.2645645,1.38983269 L26.2645645,0.791468017 C26.2645638,0.696802284 26.2461014,0.62595151 26.2091767,0.578914947 C26.1722513,0.531880628 26.1168635,0.50836272 26.0430141,0.508361972 C25.9542747,0.50836272 25.8842956,0.536643171 25.8330775,0.59320482 C25.7818587,0.649767217 25.7562492,0.72686953 25.7562492,0.824512506 L25.7562492,1.38983269 L25.5909795,1.38983269 L25.5909795,0.389581985 L25.7562492,0.389581985 L25.7562492,0.544977808 C25.7955563,0.484844813 25.8417126,0.439892844 25.894718,0.410122649 C25.9483185,0.380354699 26.0099597,0.365469976 26.0796416,0.365469227 C26.1945847,0.365469976 26.2815375,0.401193162 26.3404992,0.472638786 C26.3994594,0.543490308 26.4289399,0.64798117 26.4289406,0.786109875" id="path3448"></path>
                </g>
                <g id="g3387" transform="translate(6.163821, 0.005615)" sketch:type="MSShapeGroup">
                    <path d="M4.57489395,18.2566148 C11.6027052,18.7439325 13.3777158,14.7827218 13.9029105,12.1873081 C14.2907134,10.2708579 13.4869369,8.38421301 11.9641832,7.6366816 C11.0532416,7.1722944 10.1627249,7.26776299 9.38561307,7.67498621 C9.09072664,7.82865585 8.65065998,8.16566505 8.37207809,8.45116396 L7.87971777,8.95575182 L7.82171484,8.64666316 C7.73295903,8.17369216 7.8331566,7.21361067 8.03400232,6.61255982 C8.53709635,5.10700744 9.96802254,3.62919004 11.6694884,2.85793944 C12.8651208,2.31597629 14.5765712,2.1364737 15.8921105,2.41505738 C17.3666047,2.72730136 18.8457724,3.79282921 19.7532516,5.19645495 C21.5425174,7.96396818 21.2738676,12.2350981 19.104041,15.5179274 C18.5856019,16.3022977 17.6471521,17.3157585 16.9524304,17.8415178 C15.5526672,18.9008495 13.7581082,19.4834248 11.8195276,19.7841661 C9.97912001,20.0610947 7.23647543,19.7900024 4.57489395,18.2566148 L4.57489395,18.2566148 Z" id="path5093" fill="url(#linearGradient-1)"></path>
                    <path d="M16.3644112,1.62861155 C9.33659843,1.14129381 7.56158856,5.10250453 7.0363939,7.69791825 C6.64859095,9.61436846 7.45236751,11.5010133 8.97512195,12.2485447 C9.88606952,12.7129484 10.7765698,12.6174701 11.5536921,12.2102401 C11.8485785,12.0565705 12.2886452,11.7195613 12.5672271,11.4340616 L13.0595874,10.9294738 L13.1175903,11.2385624 C13.2063461,11.7115334 13.1061485,12.6716156 12.9053021,13.2726665 C12.4022088,14.7782189 10.9712826,16.2560363 9.26981677,17.0272876 C8.07418359,17.56925 6.36273324,17.7487526 5.04719395,17.4701697 C3.57269894,17.157925 2.09353128,16.0923971 1.1860521,14.6887714 C-0.603213762,11.9212574 -0.334563979,7.65012821 1.83526269,4.36729887 C2.35370247,3.58292865 3.29215158,2.56946778 3.98687325,2.04370849 C5.38663716,0.984376814 7.18119615,0.40180148 9.11977751,0.101061682 C10.9601859,-0.175867648 13.7028297,0.0952291567 16.3644112,1.62861155 L16.3644112,1.62861155 Z" id="path5095" fill="url(#linearGradient-2)"></path>
                </g>
            </g>
            <rect id="rect3028" fill="url(#linearGradient-3)" sketch:type="MSShapeGroup" x="0.0179905547" y="34.5903273" width="27.9860096" height="1.39888092"></rect>
            <rect id="rect3803" fill="url(#linearGradient-4)" sketch:type="MSShapeGroup" transform="translate(45.995004, 35.289768) scale(-1, 1) translate(-45.995004, -35.289768) " x="32.0019994" y="34.5903273" width="27.9860096" height="1.39888092"></rect>
        </g>
    </g>
</svg>