<svg width="60" height="40" viewBox="0 0 60 40" xmlns="http://www.w3.org/2000/svg"><title>親民黨</title><desc>Created with Sketch.</desc><g fill="none"><path d="M0 .018h59.988v39.968H0V.018z" fill="#FE6407"/><g fill="#fff"><path d="M10.108 10.457l.127.022.215.183.206.307-.026.2-.145.142-.723.24-.193.123-.097.14-1.306.28-.333.185-.25.03-.057-.04-.114.084-.307.035-.158.16.123.238h.093l.587.232.05.052.086.01.105-.07.102.008.092.092.154.044.508.008 1.012-.18.276-.245.377-.19.926-.37.127-.203.338-.27.224-.023.18.127.144-.104.518-.013.363.008.2-.13.3-.35.464.02.175-.02.257-.26v-.108l-.105-.228-.25-.18-.11.01-.223.16-.115.185-.355-.036-.994-.407-.062-.24-.197-.33-.096-.06-.385-.054-.302-.078-.19-.11-.17.057-.394-.017-.597-.04-.28.066-.14.075-.076.145.022.127.096.13.123.098.134.144.044.187z"/><path d="M9.346 14.093l.096-.162 1.38-.214.084-.066.04.05-.11.113-.145.424-.126.224-.188.075-.198.26-.18.073-.262-.153-.255-.29-.134-.332z"/><path d="M9.867 16.49l.267-.22h.1v-.123l.816-.412.114.013.088-.1.68-.377.48-.717.34-.622.047-.253.135-.14.197-.63.25-.15.653.136.166.29.02.148-.093.14-.162.145-.25.723.11.478.1.118-.114.192-.336.132-.17.175-.338.092-.28.237-.075.678.066.17.163.11.23.03h.487l.21.028.154.105.365.508-.272.28-.54.023-.34-.044-.3.04-.275.135-.24.223-.172.324-.074.368.017.25.13.363-.09.372-.058.4.008.41.044.42.053.23-.018.27-.102.31-.135.172-.05.246.028.433-.026.368-.118-.096-.193-.4-.184-.393-.16-.15-.025-.205.06-.285.142-.25.153-.415.004-.224-.057-.15.04-.24.15.075.05-.144-.082-.048h-.175l-.11-.11.044-.253.24-.412.01-.258-.114-.237-.17-.232-.16-.145-.722.028-.61.15-.192.19-.302.137-.32.026L8.82 19l-.15.105-.074.15-.47-.093-.555-.04-.096-.047.022-.237.92-.547.57-.04.513-.32.595-.298.35.026.224-.083.078-.11.123-.03.15-.154.017-.152-.065-.127-.12-.07-.39.12-.384.153-.228-.018-.263.053-.15-.08-.302-.047-.342.018-.18-.04-.13-.09-.053-.076-.28-.06v-.106L8.2 16.7l.18-.02.105-.086.324.157.33.01.07.04h.1l.04-.132.114-.096.403-.083z"/><path d="M8.67 21.236l.15-.188.11-.03.302-.202.17-.254.062-.184.083-.053.123.027.302.22.044.28-.052.218-.114.114-.106.096-.096.228-.01.28-.056.07-.298.053-.096-.043-.053-.08v-.1l-.158-.09-.15-.07-.126-.115-.03-.176z"/><path d="M20.75 10.04l-.18-.07-.123.07-.224-.007-.114-.132-.26-.043-.087.044-.066-.073-.38-.066-.255.09-.33-.16-.1.08-.38.057-.347-.08-.202.378-.32.074-.166.126-.11-.026-.013.11-.1.034-.084-.065-.057.064-.132-.008-.23.135-.386.396-.255.074-.04.057.044.057.114.026v.263l.105.153.01.22-.09.14-.003.45.07.158v.145l.04.082-.036.08-.004.31-.053.122v.17l-.14.155-.01.064.08.092-.01.45-.104.11-.03.115.14.303-.027.144-.03.053.03.118v.07l-.057.066.008.04.075.043-.035.114-.15.19.07.424-.105.084-.04-.04-.03.162.106.114.07.263-.04.188-.115.092-.004.04.05.057-.018.302-.106.096.035.08-.108.165.048.066-.14.127-.22.24-.113.067-.084-.005-.074-.118-.102-.004-.29.105-.17-.044.013.194-.1.096-.06-.01-.07.102.056.162-.01.136.09.07v.114l-.08.14.166.01.17.178.286.022.29-.162.135.035.18-.11.074.05.027-.146.377-.257.15.013.328-.298.163.062.084.026-.03.123-.08.007.027.114-.157.216-.005.105-.105-.052h-.1l-.075.075.074.087-.04.11-.095.144-.018.167-.172.37-.64.67-.004.104-.154.166-.35.552-.355.303-.018.157-.057.153-.122.18.136.13.324-.288.14-.017.33-.364.143-.04.01-.078.18.075.114-.263.048.096.11-.057.1-.15.145-.013.092-.11.03-.35.122-.1.04-.163.464-.48-.065-.106.12-.14-.02-.228.023-.088.17-.048.16-.31.18-.216v-.07l.047-.022.416-.71.425-.3.422-.08.15-.206.332-.158h.114l.237-.123.044-.092.104.017.114.223-.097.092-.003.08.28.25.01.288-.067.092.04.105.01.31-.142.18.035.198.145.08.08.266-.023.108.105.285.03.302.027.088-.1.135v.097l-.12.048.067.29.11.034.017.162.167.183-.043.08.398.415.128-.004.06.096.093-.013.013-.096.048-.083-.07-.065.07-.272.184-.236-.04-.05.09-.14.034-.218-.127-.232-.084.004-.056-.236-.096-.04-.048-.122v-.267l.092-.254.14-.11.145-.14.004-.11-.11-.123h-.09l-.04-.202v-.258l-.123-.197-.083-.294v-.302l.083-.21.022-.127-.11-.197.026-.04-.075-.197.124-.192-.07-.078-.132-.473.08-.11-.036-.075.088-.18-.08-.27.137-.34-.056-.24-.048.027-.048-.044.043-.105-.09-.14-.123.04v-.058l.105-.044.03-.362.08.057.122-.136-.175-.3.043-.16.048-.027-.065-.1.114-.785-.115-.162.026-.214.18-.145-.113-.118.044-.028.053-.11-.11-.187.16-.35-.02-.43.106-.258.034-.303-.24-.302-.005-.1zM2.91-2.875l.206.254.035.207-.028.442-.15.27v.145l.085.048-.013.21.078.097.483-.105.13.026.15-.05.136-.12.233-.057.24-.017.172-.162.136.004.106-.096.184-.013.246-.194.105-.018.053-.148.01-.224h.188l.036-.14-.062-.04.176-.105v-.12l-.097-.225.08-.122-.014-.123-.115.013-.342-.21h-.13l-.282-.144-.178.012-.057-.07-.106-.014-.08.084-.29.08h-.306l-.13.13-.154-.013-.057.09-.198.036-.026.096-.128.022-.18.114v.123l-.092-.043-.052.07zm.022 2.2l.258-.16.82-.008.057.095.065-.083 1.144-.276.127.097.18-.018.106-.096.14.025.03.114.058.03-.105.363-.18.005-.084.074.03.1.084-.017.123.053.08.258-.054.11-.48.232h-.095l-.105.122-.312-.013-.096.158-.4.004-.025.034-.167.044-.02.088-.177.06h-.11l-.236.14-.035.15h-.232l-.1.1.07.12.315.034.38-.044.198.053.123.008.14-.118.07-.066.17-.053.558.067.06-.04.115.053.24-.01-.004.41-.114.187-.443.504h-.115l-.074.062-.087.013-.237.228-.236.017-.206.088-.053.083-.1-.003-.797.372-.114.148-.124.004-.11-.07.15-.127-.014-.11.08-.082L10 9.68l-.07-.097v-.228l-.052-.06.043-.317.088-.09-.07-.18.067-.233-.193-.22.004-.113.08-.066.025-.14-.096-.2.07-.234.01-.214.06-.066-.044-.473.044-.05-.004-.104-.083-.21z"/><path d="M13.697 19.72l.114.04.054.136.08-.092.27.1.07.185v.34l-.02.276.104.25-.088.153-.214-.044-.198-.18-.13-.17-.106-.075-.04-.17.018-.38.048-.216.04-.153z"/><path d="M23.238 19.38l.07.126v.346l-.057.066v.105l-.156.29-.057.192.048.044h.083l.088.126-.013.08-.005.7-.118.27.066.11-.21.294-.237.403-.65.17h-.302l-.022.088-.084.02-.052-.07-.1-.028v.114l-.106-.008-.01-.08-.143.03-.11-.07-.402-.056-.062-.127-.114-.078-.153.017-.264-.184-.14-.07-.097-.136-.176-.096-.18.013-.144-.222-.057.004-.662-.574v-.184l-.17-.188h.12l.03-.158-.124-.074-.074-.153-.04-.236-.09-.088-.045-.232.057-.258.14-.24-.06-.3.03-.113-.102-.114.145-.123-.074-.22.087-.21-.223-.223-.17.447-.216.198-.025.385-.167.32-.06.412.003.398.185.373-.035.04v.148l.097.092.004.38-.11.11.072.08.083-.01.1.08-.017.166.132.07-.04.21.075.193.18.145-.027.227.048.053.035-.04.11.07.023.136.08-.013.44.368.07.023.02.11.034-.018.114.035-.003.057.175-.018.118.16.26.02.402.104.52-.07.23.04.31-.03.027.064.1-.065.004.1.443.036.11-.107.14.005-.014-.11.075-.07.228.027.49-.08.084-.09.193.025.08-.11.555-.026.07-.114.08.022-.032-.1.027-.106v-.258l.11-.18-.023-.096.027-.145-.193-.315-.03-.385-.097-.053-.097-.236.022-.276-.13-.26-.01-.39-.066-.28.057-.284-.06-.22-.076.01-.03-.06.096-.02v-.17l.048-.11-.178-.135.008-.28-.2-.136.13.552-.092.28zM4.01 6.256l.083-.093.04.13h.08l-.018-.095.1-.158.04.097-.06.08.042.096-.06.04.056.09-.04.07.036.093-.127.17-.05-.236.097-.027.017-.074-.013-.044-.183.043.035-.13-.074-.054z"/><path d="M25.276 11.995l.346-.302.29.118.144-.17.246-.04.28.084.114-.092.32.048.08-.066.262-.013.15.133.218-.12.368-.012.228-.183.364-.008.07-.13.136.15.54-.013.157-.175.454-.022.224-.118h.188l.167-.21.223.118.303-.057-.036-.136.412-.477.11.136.267-.08v-.13h.074l.14.253.42.074.014.122.146-.013.11.07.166.03-.035.09.08.143.17.057.166.167-.01.135-.126.237-.136.01-.187.257h-.088l-.18.31.018.066-.298.43-.302.043-.228.218-.018-.066-.048-.01-.045.085-.07-.014-.11.114.027.114-.018.168-.127.297.12.294.064.034-.038.083.096.232.1.047.08.136-.026.118.096.146.092-.004.162.2.623-.06.276.017.07-.053-.012-.088.153-.11v-.15l.352.11.495-.17.346-.19.044-.095h.482l.17-.11.15-.2.367-.032.08-.263.078-.135-.092-.504.035-.135-.066-.053.092-.078.04-.298-.114-.132-.084-.02-.078.042-.044-.043.066-.24.122-.085.158.17.127-.003-.01.122h.054l.22.246.004.035.12.083.064.216.027.205.114.177-.028.052.28.472.207.07.05-.07h.072l.11.162.02.22.11.113-.126.254.232.247.048.183-.153.333-.272.066-.126.082-.044.263-.074.088-.057-.005-.168.105-.298-.022-.184-.09.053-.145-.193-.434-.246-.23-.01-.132-.073.03-.192-.1-.092.03-.01.08-.095-.036-.174.162-.136-.026-.053.06-.223-.025-.01.035-.065.004-.05-.02-.34.02-.058-.048-.07.01-.035.09-.215.067-.18.123-.087-.035-.075-.004-.105.074-.096-.092-.076.018-.122.166-.417-.026-.074.044.01.1.276.158-.1.044-.05.092.05.1h.078l.285.614.134.022-.083.118.098-.01.052.098-.013.13.105.216.092.013.048-.044.03.183-.047.13-.06.04.016.102.11-.106.12.17.1.053h.087l.03.013v.074l.05-.048.043.027.03.082.264-.005-.215.395.205.105.15.008.074-.056.055.1-.1.166.04.096h.096l.12.08.126.31.13.13.12.02.29.218.052.254.1.026-.026.048-.096-.004-.005.057.3.42.262.255.355.184.08.21.223.035.434-.088.087-.1h.247l.096-.075.048.083.076-.018.074-.07.062.053.11-.004-.053.438.1.166-.01.088.088.04-.01.117.243.01-.02.104.056.07.197.017.13.14-.113.162.035.358-.39-.083-.092.01-.074.086-.014.155-.106.083-.162.022-.175.127-.018-.14-.258-.202-.132-.01-.284-.297-.17-.09-.066-.146h-.118l-.24-.21-.164-.08-.087.014-.053-.08.053-.174-.035-.07-.092.013-.092-.11.008-.144-.07-.02-.04.056-1.095-1.082-.145-.29-.092-.047-.093.04-.096-.206-.083.07-.267-.385-.048-.398-.118-.114-.075.017-.27-.35-.41-.368-.05-.24-.216-.027-.062.105-.302-.24-.127-.132-.267.06.052.093-.026.224-.815.596-.172.206-.075.004-.258.486-.417.184-.223.215-.013.118-.07.044-.18.017-.105.12.035.117-.158-.017-.07.07-.333.014-.126.245-.08.07-.148-.053-.22.135-.052.1.018.093-.46.17-.14-.04-.07.23.012.07-.092.096-.13-.05-.155.177-.118-.056-.242.206-.188.043-.05.11-.082-.01-.096.216-.25-.036.057.078-.027.053-.496-.43-.013-.104-.14-.153-.06-.29.1-.16-.03-.277.012-.267.066-.057-.04-.136.083-.1-.118-.228.06-.092-.038-.622.078-.13-.004-.098-.088-.07.013-.07.14-.04.09-.096.014-.127-.078-.135.008-.08.04-.052-.092-.28.022-.272.083-.197-.175-.117.026-.14.066-.053-.005-.2.223-.273-.053-.096.088-.472-.044-.127.013-.18.04-.05-.044-.08.022-.145.044-.087.025-.276-.167-.578.22-.342.052-.276-.022-.127.097-.146.03-.346-.066-.087-.123-.02-.013-.093-.066-.01-.395-.323h-.122l-.188.127-.048-.07.026-.157-.07-.162-.184-.165zm-2.494-6.963l.175-.193-.052-.093.06-.065.05.08.262-.198.048.04.08-.058.104.004.052-.022v-.083l.258-.044.018-.077.215-.027.17.176-.218.29-.005.113.048.06.092.014.01.087-.018.056.03.088-.04.08-.113-.01-.067.102.145.228.1-.01.07.027-.056.132.06.073-.034.1.04.115-.066.074h-.062l-.122.158-.224-.162-.114-.013-.153-.17.004-.102-.117-.013-.26-.162-.1-.206.005-.1-.053-.093-.206-.058-.044-.06.026-.08zm-3.002.758l.22-.057.14-.123.017-.057.096.018.057-.074-.03-.135.135.014.12-.053.05.04h.067l.07-.06h.118l.07-.07.014-.097.232.052.153-.056.345-.023.15-.044.043.083.136-.03.013.1.14.224.255.232h.074l.022.052-.044.026.092.18-.04.07.132-.004-.026.074.215.145-.097.017.1.17-.008.246-.074.11-.153.096-.053-.03-.425.227-.06-.012-.01.083-.097-.104-.114.088-.29-.018-.065.075.032.067-.048.017-.044.083v.12l.153.165.1.013.05-.022.078.01.164-.128.127-.11.123.005.224.105h.166l.228-.013.163-.15.057.005.057.088.097-.11.293.022.08.123.074-.07.123.017.03.105.18.154.058.17.093.075-.013.146-.167.135-.123.028-.14-.184-.193.17-.114.03-.096-.012-.302.315-.176.08.012.06-.236-.013-.232.114-.027.12-.065-.015-.07.066-.158.043-.25.004-.154.075-.04.087-.722.04-.346.108.022.28.254.325.127.035.158-.176.114-.017.197-.105.074-.08.158.036.11-.11.013-.083-.032-.083.105-.017.048.087.102.026.123-.048.153-.15.15-.056.302.01.245-.102.18-.013.11-.04h.1l.105.067.018-.097.17-.14.417-.08.097.028-.05.1.365-.03.07-.123h.26l-.01.162.215.28.285.097.11.154-.066.06.018.41-.08.064-.122-.013-.11.11h-.047v-.088l-.15-.223-.053.017-.026.076.128.144-.01.097-.082.03-.03.062-.46.51h-.058l-.237.255-.03.145-.166.162-.45.21-.124.118-.18-.017-.267.284-.13.005-.207.157-.167-.023-.742.307-.17.17h-.193l-.11-.095-.066.147-.32.163-.193.017-.272.096-.083-.17-.075-.084h-.074l-.17-.268-.036-.166.035-.854.04-.05.004-.112-.093-.092-.11-.044.084-.123.167-.05-.022-.11.1-.18.176-.136.057-.17-.044-.316-.02-.132-.216-.18-.157-.262.017-.224-.06-.122.003-.175-.052-.12.13-.156-.025-.425.114-.145-.14-.254.013-.1.06-.053.146-.548.188-.183-.117-.203.004-.18-.175-.157v-.285h-.044l-.083-.07.035-.105z"/><g><path d="M40.183 9.892l.92.154.21.188.163.166.135.053.054.337-.01.333-.117.07.118.153-.21.548.052.193-.122.1-.035.31.052.255-.096.316-.14.188-.092.36.074.047v.202l-.223.355-.32-.066-.237-.223-.153-.512-.097-.342.075-.55.157-.264-.078-.19.122-.485-.057-.136.057-.21v-.196l.062-.074-.062-.675-.2-.403z"/><path d="M43.224 8.644l.307-.145.33.55.27.146.238-.026.066.166-.04.206-.15.11-.025.16.104.137-.07.205-.473-.04-.065-.288-.24-.176-.207-.336-.066-.38.022-.29z"/><path d="M42.602 11.596h.276l.75-.285.39-.012.236-.14.64-.048.53.026.215-.083-.023.1.04.1-.17.12-.348.035h-.334l-.18.07-.113.184-.36.074-.1.01-.202.073-.104.09-.675-.003-.28-.074-.15-.106-.038-.13z"/><path d="M46.13 12.9l.832-.095.097.083-.023.083.044.448-.175.298-.254-.07-.14-.018-.078.075-.114.017-.017.088.137.25.008.144-.24.434.468-.105.36-.455.284-.193h.04l.25-.192v-.132l.083.013.153-.21.12-.437-.023-.333-.08-.18-.117-.07-.15-.113h-.148l-.097.04-.07-.027-.118.022-.404.21-.42.118-.075.088-.13-.092.434-.828.04-.197-.05-.174-.245-.285 1.178-.28-.122-.18.06-.17-.11-.15.058-.415.145-.144.38-.074-.035-.118.44-.29.12-.28.418-.056.482-.504.276-.285.514.088.184-.047.184-.316-.198-.516-.582-.27-.614.043-.118.136-.07.296-.163.206-.057.215-.114.114-.24.426v.153l-.21.09.02.115-.332.267-.048.175-.224.25-.372.25h-.206l-.1-.088-.036-.413.087-.617-.008-.272.184-.64-.14-.437-.486-.293-.916.11-.175.15.223.34.106.517.162.08.022.13-.08.298.04.17.062.045-.01.157-.09.106.06.254-.004.39-.14.63-.005.267.087.15-.018.114-.075.044.206.105.044.153-.157.517.017.228-.122.145-.224.495-.013.092-.237.42.035.167v.192l.057.096h.097v.132l.06.074.04-.052.018-.12.197-.183-.03-.185.065-.113.114-.014.01-.1.13-.07.12-.097z"/><path d="M48.422 10.724l.13-.1.01.1h-.14z"/><path d="M48.957 10.676l.206-.105h.192l.097.054-.12.092h-.226l-.15-.04z"/><path d="M53.514 11.066l-.074-.127.022-.16-.092-.104v-.06l-.132-.124h-.11l-.372-.197-.486.022-.17.118-1.084-.135-1.354.297.01.044 1.143-.113 1.07.044.047.076v.153l.114.025-.21.67-.97.622.058.105.088-.013.622.336.018.044h.08l.03-.092.056.066 1.092.096.42-.096h.364l.21-.245.268-.247.06-.087-.03-.15-.214-.2-.035-.075.03-.09-.044-.09-.093.006-.083-.053-.01-.092-.24-.174z"/><path d="M50.696 16.156l.03.14-.306.315-.06.15-.198.22-.14.192-.12-.127-.113.048-.04.293-.057.386-.246.223-.118.25-.203.29-.263.34-.026.162.07.11-1.03.048h-.276l-.27.193-.02.17.093.145.197.206h.224l.013-.075.09-.027.14.01.076.052.236.21.08.048.25-.026.126.083.14.298-.008.166-.127.122-.233.044-.306.065-.37.076-.384.105-.316.233-.236.386-.018.362-.114.15-.145.017-.117-.058-.17.057-.395.26-.14-.003-.307.258-.126-.026-.325-.027-.233.052-.45.066-.983.067.17-.224.273-.127.42-.162.198-.175.048-.194.044-.07.192-.03.254.052.263.123.22-.047.14-.127-.15-.35-.276-.193-.46.065-.464.027-.215-.075-.042-.315.162.013.31-.123.023-.065.39-.22.105.027.272-.18.193-.39.043-.52-.223-.172-.26.018-.073.092-.26.01-.218.108-.25-.267.005-.175-.303-.363-.35-.617-.15-.048-.144-.15-.04-.144-.18-.328-.24-.386-.1-.127-.023-.193.08-.113.306.018.083.21.136.184.32.237.25.31.017.096.082.114v.123l-.06.22.012.292.158.258.535.368.144.04.457-.06.24-.215.295-.15.122-.095.04-.17-.048-.37-.14-.354-.548-.276-.19-.026-.148.03-.118.128-.307-.1.145-.168.074-.127.01-.144.402-.118.42-.22.106-.14.333-.293.022-.175.127-.635-.245-.084-.198-.192-.027-.175-.144-.065h-.394l-.543.1-.19.106h-.288l-1.582.592-.57-.057-.074-.162.23-.25.264-.065.806-.062.224.04.482-.307h.206l.153.117.557-.13.158-.264.144-.087.35.227.816.027.254-.15.964-.03.12.127.21.01.507-.198.496.07.202.117.105.158-.07.07-.197.013-.63.2-.37-.007-.266-.056-.128.052h-.15l-.025.11.194.68.22.358.157.066.132-.053-.008.14-.14.14-.158.022-.092.113-.018.136-.377.222-.224.276-.075.263.014.19-.07.16.057.33.137.306.482.114.18-.004.25.1.24-.07.162.193h.122l.294-.28.1-.014.21-.21.137-.228.08-.59.073-.575-.013-.22.035-.144.07-.058-.04-.092.014-.245.145-.56-.045-.447.096-.075.36.15.35-.058.133.07.04.11-.05.18.163.218-.004.084-.132.096.044.088.162-.034zM-29.927 2l.128.07.004.097-.188.123-.057-.083.074-.088.04-.118z"/><path d="M47.484 21.998l.11-.065.105-.303.165-.065.224.083.12.15.59-.01.187.088.092.11.07.012.09-.08.115.098.066-.06v.143l-1.103.06-.26.01-.402-.097-.17-.075z"/><path d="M40.55 24.924l.01-.21.227-.06.487.007.285-.21h.31l.202.255.078-.105h.417l-.088.29-.185.187-.145.368-.29.35-.3-.008-.194.21-.162-.07.026-.66-.123-.203-.2-.122-.356-.018z"/><path d="M48.19 24.775l.114-.263.54-.078.336.113.22-.2.32.14-.01.21-.53.332-.285.017-.504-.246-.2-.025z"/><path d="M50.32 24.47l-.036-.16.583-.192.333.035.1.228.457.018.285.482-.044.158-.202.07h-.53l-.4-.394-.205-.01-.156-.043-.01-.113-.175-.078z"/><path d="M44.28 24.714l.018-.184.18-.175.06-.14h.352l.135-.07.412-.018.19.2-.036.597-.188.123h-.368l-.38-.21-.374-.123z"/></g></g><path d="M1.737 35.94v-3.26h1c.246 0 .426.017.525.066.164.05.278.164.377.31.097.15.13.345.13.558 0 .295-.066.54-.213.72-.148.18-.41.28-.787.28h-.672v1.326h-.36zm.36-1.72h.69c.212 0 .376-.05.475-.147.098-.1.147-.246.147-.443 0-.13-.017-.23-.066-.327-.05-.098-.115-.148-.18-.18-.083-.05-.197-.066-.394-.066h-.672v1.163zm3.115 1.72v-3.26h1.934v.377h-1.59v1h1.492v.392H5.556v1.097h1.64v.393H5.21zm3.41-1.59c0-.556.13-.982.376-1.276.246-.295.54-.46.918-.46.23 0 .443.083.64.214.196.13.343.327.458.573.115.263.164.558.164.902 0 .49-.098.885-.328 1.196-.23.327-.557.49-.95.49-.394 0-.705-.163-.95-.507-.214-.31-.33-.687-.33-1.13zm.376 0c0 .41.082.722.262.935.18.23.394.344.64.344.262 0 .475-.116.655-.345.18-.213.263-.557.263-.983 0-.278-.05-.524-.132-.753-.065-.165-.18-.296-.31-.41-.15-.1-.296-.148-.46-.148-.28 0-.492.114-.656.327-.18.23-.262.573-.262 1.03zm3.672 1.59v-3.26h1.016c.23 0 .41.017.524.066.148.05.28.164.36.31.1.15.148.345.148.558 0 .295-.082.54-.23.72-.147.18-.41.28-.786.28h-.672v1.326h-.36zm.36-1.72h.69c.212 0 .376-.05.474-.147.098-.1.147-.246.147-.443 0-.13-.015-.23-.064-.327-.05-.098-.115-.148-.18-.18-.082-.05-.197-.066-.394-.066h-.672v1.163zm3.082 1.72v-3.26h.36v2.867h1.31v.393h-1.67zm3.015 0v-3.26h1.918v.377h-1.573v1h1.475v.392h-1.475v1.097h1.64v.393h-1.985zm5.622 0v-3.26h1.802v.377h-1.46v1.016h1.263v.376h-1.262v1.49h-.344zm3.36 0v-3.26h.343v3.26h-.344zm2 0v-3.26h1.18c.26 0 .44.033.556.1.115.048.213.146.295.294.067.147.1.31.1.49 0 .247-.05.443-.18.607-.132.148-.312.247-.558.28.098.065.164.13.213.18.115.13.213.262.28.426l.474.884h-.444l-.36-.688c-.13-.262-.246-.442-.312-.524-.065-.098-.13-.164-.196-.197-.066-.03-.164-.03-.28-.03h-.41v1.44h-.36zm.36-1.818h.753c.164 0 .295-.033.377-.066.082-.032.164-.098.213-.18.05-.098.066-.196.066-.31 0-.165-.05-.296-.15-.378-.08-.098-.228-.147-.425-.147h-.836v1.082zm3.26.77l.33-.033c.015.18.064.31.113.408.066.1.164.18.28.246.114.066.245.098.392.098.214 0 .377-.065.492-.163.115-.1.18-.23.18-.394 0-.1-.032-.18-.065-.263-.05-.065-.115-.13-.197-.163-.082-.05-.262-.115-.557-.197-.246-.082-.426-.147-.525-.23-.114-.08-.196-.163-.262-.294-.048-.116-.08-.247-.08-.394 0-.262.08-.475.245-.64.18-.163.41-.245.705-.245.197 0 .36.034.508.116.148.082.262.18.36.328.083.147.115.327.132.524l-.344.032c-.017-.213-.082-.376-.197-.475-.1-.098-.263-.147-.46-.147s-.344.05-.46.13c-.097.083-.147.214-.147.345 0 .13.033.23.115.31.066.067.246.15.508.214.28.082.46.148.558.197.163.082.295.196.377.327.083.132.115.296.115.493 0 .18-.032.344-.13.508-.083.148-.198.263-.345.345-.148.08-.344.114-.54.114-.345 0-.607-.1-.804-.296-.197-.196-.295-.458-.295-.802zm4.262 1.048v-2.883h-.885v-.377h2.13v.377h-.884v2.883h-.36zm4.655 0v-3.26h1c.23 0 .41.017.524.066.15.05.28.164.362.31.098.15.148.345.148.558 0 .295-.082.54-.23.72-.147.18-.41.28-.77.28h-.69v1.326h-.343zm.344-1.72h.69c.23 0 .377-.05.475-.147.115-.1.164-.246.164-.443 0-.13-.034-.23-.083-.327-.05-.098-.115-.148-.18-.18-.066-.05-.197-.066-.377-.066h-.69v1.163zm2.607 1.72l1.033-3.26h.377l1.098 3.26h-.41l-.31-.983h-1.116l-.296.983h-.377zm.77-1.343h.92l-.28-.9c-.098-.28-.148-.51-.197-.673-.032.213-.082.41-.147.623l-.295.95zm2.853 1.343v-3.26h1.18c.246 0 .426.033.557.1.115.048.213.146.28.294.08.147.113.31.113.49 0 .247-.065.443-.18.607-.13.148-.328.247-.574.28.1.065.18.13.23.18.115.13.197.262.28.426l.474.884h-.443l-.36-.688c-.148-.262-.246-.442-.312-.524-.082-.098-.147-.164-.213-.197-.065-.03-.147-.03-.278-.03h-.41v1.44h-.344zm.344-1.818h.77c.164 0 .295-.033.377-.066.083-.032.15-.098.198-.18.05-.098.082-.196.082-.31 0-.165-.05-.296-.148-.378-.098-.098-.23-.147-.426-.147h-.852v1.082zm4.015 1.818v-2.883h-.886v-.377h2.115v.377h-.886v2.883h-.345zm3.245 0v-1.376L55.81 32.68h.425l.524.983c.097.197.196.377.278.557.065-.18.164-.377.278-.59l.525-.95h.41l-1.065 1.884v1.376h-.36z" fill="#fff"/></g></svg>