<?xml version="1.0" encoding="UTF-8" standalone="no"?>
<svg width="1000px" height="88px" viewBox="0 0 1000 88" version="1.1" xmlns="http://www.w3.org/2000/svg" xmlns:xlink="http://www.w3.org/1999/xlink" xmlns:sketch="http://www.bohemiancoding.com/sketch/ns">
    <!-- Generator: Sketch 3.2.2 (9983) - http://www.bohemiancoding.com/sketch -->
    <title>410-people-action</title>
    <desc>Created with Sketch.</desc>
    <defs></defs>
    <g id="Page-1" stroke="none" stroke-width="1" fill="none" fill-rule="evenodd" sketch:type="MSPage">
        <g id="410-people-action" sketch:type="MSArtboardGroup" fill="#FCECD4">
            <path d="M280.256,45.512 C280.256,45.6720008 280.184001,45.7999995 280.04,45.896 C279.895999,45.9920005 279.744001,46.04 279.584,46.04 L261.68,46.04 L261.68,64.376 C261.68,64.5360008 261.632,64.6879993 261.536,64.832 C261.44,64.9760007 261.312001,65.048 261.152,65.048 L255.968,65.048 C255.807999,65.048 255.68,64.9760007 255.584,64.832 C255.488,64.6879993 255.44,64.5360008 255.44,64.376 L255.44,46.04 L238.112,46.04 C237.951999,46.04 237.816001,45.9920005 237.704,45.896 C237.591999,45.7999995 237.536,45.6880006 237.536,45.56 L237.536,42.68 C237.536,42.5199992 237.591999,42.4000004 237.704,42.32 C237.816001,42.2399996 237.951999,42.2 238.112,42.2 L255.44,42.2 L255.44,29.432 L239.552,29.432 C239.391999,29.432 239.256001,29.3840005 239.144,29.288 C239.031999,29.1919995 238.976,29.0800006 238.976,28.952 L238.976,26.072 C238.976,25.9119992 239.031999,25.7920004 239.144,25.712 C239.256001,25.6319996 239.391999,25.592 239.552,25.592 L270.56,25.592 L271.616,23.432 C271.68,23.3039994 271.783999,23.1840006 271.928,23.072 C272.072001,22.9599994 272.207999,22.904 272.336,22.904 L278,22.904 C278.128001,22.904 278.247999,22.9599994 278.36,23.072 C278.472001,23.1840006 278.496,23.3039994 278.432,23.432 L276.704,27.032 C276.543999,27.3840018 276.376001,27.6959986 276.2,27.968 C276.023999,28.2400014 275.808001,28.471999 275.552,28.664 C274.847996,29.1760026 273.968005,29.432 272.912,29.432 L261.68,29.432 L261.68,42.2 L279.584,42.2 C279.744001,42.2 279.895999,42.2479995 280.04,42.344 C280.184001,42.4400005 280.256,42.5679992 280.256,42.728 L280.256,45.512 Z M328.496,64.52 C328.592,64.6480006 328.608,64.7759994 328.544,64.904 C328.48,65.0320006 328.368001,65.096 328.208,65.096 L322.064,65.096 C321.679998,65.096 321.424001,65.0160008 321.296,64.856 L304.784,40.28 L291.824,64.664 C291.695999,64.9200013 291.504001,65.048 291.248,65.048 L285.056,65.048 C284.895999,65.048 284.768,64.9840006 284.672,64.856 C284.576,64.7279994 284.56,64.6000006 284.624,64.472 L306.752,23.336 C306.880001,23.0799987 307.087999,22.952 307.376,22.952 L313.376,22.952 C313.504001,22.952 313.608,23.0159994 313.688,23.144 C313.768,23.2720006 313.776,23.3839995 313.712,23.48 L305.6,38.792 L310.784,38.792 C310.88,38.792 311.007999,38.8159998 311.168,38.864 C311.328001,38.9120002 311.44,38.9839995 311.504,39.08 L328.496,64.52 Z M374.864,64.568 C374.703999,64.8880016 374.432002,65.048 374.048,65.048 L339.44,65.048 C339.087998,65.048 338.736002,64.9600009 338.384,64.784 C338.031998,64.6079991 337.728001,64.3920013 337.472,64.136 C337.215999,63.8479986 337.000001,63.5200018 336.824,63.152 C336.647999,62.7839982 336.56,62.4240018 336.56,62.072 L336.56,39.656 L333.392,39.656 C333.231999,39.656 333.088001,39.5840007 332.96,39.44 C332.831999,39.2959993 332.816,39.1440008 332.912,38.984 L341.6,23.48 C341.664,23.3519994 341.791999,23.2320006 341.984,23.12 C342.176001,23.0079994 342.383999,22.952 342.608,22.952 L348.368,22.952 C348.528001,22.952 348.656,23.0239993 348.752,23.168 C348.848,23.3120007 348.848,23.4639992 348.752,23.624 L346.688,27.224 L369.44,27.224 C370.656006,27.224 371.615996,27.5439968 372.32,28.184 C372.928003,28.792003 373.232,29.6399946 373.232,30.728 L373.232,53.816 C373.232,54.808005 372.928003,55.5759973 372.32,56.12 C371.711997,56.728003 370.928005,57.032 369.968,57.032 L361.664,57.032 C361.407999,57.032 361.216001,56.9040013 361.088,56.648 L359.6,53.96 C359.504,53.767999 359.511999,53.5920008 359.624,53.432 C359.736001,53.2719992 359.887999,53.192 360.08,53.192 L367.088,53.192 L367.088,31.112 L344.528,31.112 L341.744,36.056 L357.92,36.056 C359.040006,36.056 359.919997,36.3759968 360.56,37.016 C361.232003,37.624003 361.568,38.5199941 361.568,39.704 L361.568,48.344 C361.568,49.4640056 361.264003,50.3759965 360.656,51.08 C360.015997,51.7840035 359.104006,52.136 357.92,52.136 L342.704,52.136 L342.704,61.304 L375.968,61.304 C376.128001,61.304 376.248,61.3519995 376.328,61.448 C376.408,61.5440005 376.416,61.6559994 376.352,61.784 L374.864,64.568 Z M355.424,39.8 L342.704,39.8 L342.704,48.392 L355.424,48.392 L355.424,39.8 Z M423.584,62.072 C423.584,62.9040042 423.360002,63.5919973 422.912,64.136 C422.399997,64.8080034 421.664005,65.144 420.704,65.144 L384.8,65.144 C383.775995,65.144 383.008003,64.840003 382.496,64.232 C382.015998,63.7199974 381.776,63.0000046 381.776,62.072 L381.776,26.552 C381.776,25.5919952 382.111997,24.8240029 382.784,24.248 C383.392003,23.7359974 384.143996,23.48 385.04,23.48 L419.984,23.48 C420.784004,23.48 421.519997,23.6879979 422.192,24.104 C422.608002,24.3600013 422.943999,24.687998 423.2,25.088 C423.456001,25.488002 423.584,25.9599973 423.584,26.504 L423.584,62.072 Z M417.536,26.408 L387.824,26.408 L387.824,62.216 L417.536,62.216 L417.536,26.408 Z M416.576,37.64 C416.576,37.9920018 416.400002,38.168 416.048,38.168 L389.456,38.168 C389.295999,38.168 389.152001,38.1040006 389.024,37.976 C388.895999,37.8479994 388.832,37.7040008 388.832,37.544 L388.832,35.768 C388.832,35.6079992 388.895999,35.4720006 389.024,35.36 C389.152001,35.2479994 389.295999,35.192 389.456,35.192 L395.456,35.192 L396.368,32.552 L391.136,32.552 C390.975999,32.552 390.832001,32.4880006 390.704,32.36 C390.575999,32.2319994 390.512,32.0880008 390.512,31.928 L390.512,30.152 C390.512,29.9919992 390.575999,29.8560006 390.704,29.744 C390.832001,29.6319994 390.975999,29.576 391.136,29.576 L397.376,29.576 L397.952,27.848 C398.112001,27.4319979 398.367998,27.224 398.72,27.224 L403.232,27.224 C403.392001,27.224 403.527999,27.2879994 403.64,27.416 C403.752001,27.5440006 403.776,27.6879992 403.712,27.848 L403.136,29.576 L410.816,29.576 C411.584004,29.576 412.223997,29.7679981 412.736,30.152 C413.408003,30.6640026 413.744,31.319996 413.744,32.12 L413.744,35.192 L416.048,35.192 C416.400002,35.192 416.576,35.3679982 416.576,35.72 L416.576,37.64 Z M416.432,57.944 C416.432,58.2960018 416.256002,58.472 415.904,58.472 L406.88,58.472 L406.88,60.824 C406.88,61.2400021 406.720002,61.448 406.4,61.448 L401.552,61.448 C401.391999,61.448 401.256001,61.3840006 401.144,61.256 C401.031999,61.1279994 400.976,60.9840008 400.976,60.824 L400.976,58.472 L390.848,58.472 C390.687999,58.472 390.536001,58.4080006 390.392,58.28 C390.247999,58.1519994 390.176,57.9760011 390.176,57.752 L390.176,56.648 C390.176,56.3599986 390.216,56.0880013 390.296,55.832 C390.376,55.5759987 390.464,55.3680008 390.56,55.208 L391.376,53.72 C391.44,53.5599992 391.567999,53.4400004 391.76,53.36 C391.952001,53.2799996 392.127999,53.24 392.288,53.24 L396.416,53.24 C396.576001,53.24 396.688,53.2959994 396.752,53.408 C396.816,53.5200006 396.8,53.6559992 396.704,53.816 L395.744,55.496 L400.976,55.496 L400.976,52.376 L389.552,52.376 C389.391999,52.376 389.248001,52.3120006 389.12,52.184 C388.991999,52.0559994 388.928,51.9120008 388.928,51.752 L388.928,49.976 C388.928,49.8159992 388.991999,49.6800006 389.12,49.568 C389.248001,49.4559994 389.391999,49.4 389.552,49.4 L400.976,49.4 L400.976,47.768 L393.056,47.768 C392.383997,47.768 391.808002,47.5600021 391.328,47.144 C390.847998,46.7599981 390.608,46.1840038 390.608,45.416 L390.608,42.296 C390.608,41.5279962 390.863997,40.9040024 391.376,40.424 C391.824002,39.9119974 392.463996,39.656 393.296,39.656 L412.16,39.656 C412.992004,39.656 413.663997,39.8799978 414.176,40.328 C414.656002,40.7440021 414.896,41.3679958 414.896,42.2 L414.896,45.32 C414.896,46.120004 414.624003,46.7439978 414.08,47.192 C413.663998,47.5760019 413.104004,47.768 412.4,47.768 L406.88,47.768 L406.88,49.4 L415.088,49.4 C415.440002,49.4 415.616,49.5759982 415.616,49.928 L415.616,51.848 C415.616,52.2000018 415.440002,52.376 415.088,52.376 L406.88,52.376 L406.88,55.496 L415.904,55.496 C416.256002,55.496 416.432,55.6719982 416.432,56.024 L416.432,57.944 Z M407.84,32.552 L402.08,32.552 L401.168,35.192 L407.84,35.192 L407.84,32.552 Z M408.992,42.68 L396.512,42.68 L396.512,44.744 L408.992,44.744 L408.992,42.68 Z M470.24,32.504 C470.24,32.7280011 470.176001,32.9039994 470.048,33.032 C469.919999,33.1600006 469.776001,33.224 469.616,33.224 L431.552,33.224 C431.391999,33.224 431.248001,33.1680006 431.12,33.056 C430.991999,32.9439994 430.928,32.8080008 430.928,32.648 L430.928,29.96 C430.928,29.7999992 430.991999,29.6640006 431.12,29.552 C431.248001,29.4399994 431.391999,29.384 431.552,29.384 L447.632,29.384 L445.136,23.384 C445.072,23.2879995 445.088,23.1760006 445.184,23.048 C445.28,22.9199994 445.391999,22.856 445.52,22.856 L451.952,22.856 C452.048,22.856 452.167999,22.8959996 452.312,22.976 C452.456001,23.0560004 452.56,23.1599994 452.624,23.288 L455.216,29.384 L469.616,29.384 C470.032002,29.384 470.24,29.6079978 470.24,30.056 L470.24,32.504 Z M471.824,64.328 C471.824,64.8080024 471.616002,65.048 471.2,65.048 L429.68,65.048 C429.519999,65.048 429.376001,64.9920006 429.248,64.88 C429.119999,64.7679994 429.056,64.6320008 429.056,64.472 L429.056,61.784 C429.056,61.6239992 429.119999,61.4880006 429.248,61.376 C429.376001,61.2639994 429.519999,61.208 429.68,61.208 L453.872,61.208 L460.352,37.304 C460.416,37.1439992 460.511999,36.9920007 460.64,36.848 C460.768001,36.7039993 460.911999,36.632 461.072,36.632 L466.256,36.632 C466.416001,36.632 466.551999,36.7039993 466.664,36.848 C466.776001,36.9920007 466.8,37.1439992 466.736,37.304 L460.208,61.208 L471.2,61.208 C471.616002,61.208 471.824,61.4319978 471.824,61.88 L471.824,64.328 Z M446.624,56.936 C446.688,57.0960008 446.68,57.2319994 446.6,57.344 C446.52,57.4560006 446.400001,57.512 446.24,57.512 L440.96,57.512 C440.799999,57.512 440.632001,57.4320008 440.456,57.272 C440.279999,57.1119992 440.16,56.9520008 440.096,56.792 L434.336,37.304 C434.272,37.1439992 434.295999,36.9920007 434.408,36.848 C434.520001,36.7039993 434.655999,36.632 434.816,36.632 L440.048,36.632 C440.208001,36.632 440.367999,36.7039993 440.528,36.848 C440.688001,36.9920007 440.8,37.1439992 440.864,37.304 L446.624,56.936 Z M519.392,34.184 C519.392,34.6640024 519.200002,34.904 518.816,34.904 L514.016,34.904 C513.567998,34.904 513.344,34.6640024 513.344,34.184 L513.344,30.44 L501.056,30.44 L501.056,34.184 C501.056,34.6640024 500.864002,34.904 500.48,34.904 L495.584,34.904 C495.423999,34.904 495.288001,34.8320007 495.176,34.688 C495.063999,34.5439993 495.008,34.376001 495.008,34.184 L495.008,29.432 C495.008,29.0799982 495.095999,28.7440016 495.272,28.424 C495.448001,28.1039984 495.663999,27.8160013 495.92,27.56 C496.240002,27.2719986 496.607998,27.032001 497.024,26.84 C497.440002,26.647999 497.855998,26.552 498.272,26.552 L503.888,26.552 L502.64,23.672 C502.576,23.5119992 502.576,23.3440009 502.64,23.168 C502.704,22.9919991 502.847999,22.904 503.072,22.904 L508.88,22.904 C509.232002,22.904 509.471999,23.0479986 509.6,23.336 L511.136,26.552 L515.792,26.552 C516.752005,26.552 517.599996,26.8719968 518.336,27.512 C518.656002,27.8000014 518.911999,28.1199982 519.104,28.472 C519.296001,28.8240018 519.392,29.1919981 519.392,29.576 L519.392,34.184 Z M517.328,39.848 C517.328,40.0720011 517.272001,40.2399994 517.16,40.352 C517.047999,40.4640006 516.912001,40.52 516.752,40.52 L497.168,40.52 C496.815998,40.52 496.64,40.3600016 496.64,40.04 L496.64,37.16 C496.64,36.8399984 496.799998,36.68 497.12,36.68 L516.752,36.68 C517.136002,36.68 517.328,36.8879979 517.328,37.304 L517.328,39.848 Z M519.104,64.664 C518.975999,64.9520014 518.736002,65.096 518.384,65.096 L512.144,65.096 C511.343996,65.096 510.656003,64.7760032 510.08,64.136 C509.471997,63.527997 509.168,62.7440048 509.168,61.784 L509.168,48.584 L504.896,48.584 L504.896,57.176 C504.896,57.6560024 504.848,58.1359976 504.752,58.616 C504.656,59.0960024 504.448002,59.5119982 504.128,59.864 L499.952,64.472 C499.599998,64.8560019 499.136003,65.048 498.56,65.048 L492.896,65.048 C492.735999,65.048 492.632,64.9680008 492.584,64.808 C492.536,64.6479992 492.56,64.5040006 492.656,64.376 L498.848,57.176 L498.848,48.584 L494.912,48.584 C494.751999,48.584 494.616001,48.5360005 494.504,48.44 C494.391999,48.3439995 494.336,48.2320006 494.336,48.104 L494.336,45.224 C494.336,44.9039984 494.511998,44.744 494.864,44.744 L519.392,44.744 C519.808002,44.744 520.016,44.9679978 520.016,45.416 L520.016,47.864 C520.016,48.0880011 519.952001,48.2639994 519.824,48.392 C519.695999,48.5200006 519.552001,48.584 519.392,48.584 L515.216,48.584 L515.216,61.208 L520.016,61.208 C520.176001,61.208 520.28,61.2559995 520.328,61.352 C520.376,61.4480005 520.384,61.5439995 520.352,61.64 L519.104,64.664 Z M493.472,38.264 C493.472,39.0000037 493.264002,39.6559971 492.848,40.232 C492.271997,40.9040034 491.472005,41.2879995 490.448,41.384 C491.504005,41.4800005 492.271998,41.8479968 492.752,42.488 C493.168002,42.9360022 493.376,43.6079955 493.376,44.504 L493.376,56.024 C493.376,56.4080019 493.288001,56.8079979 493.112,57.224 C492.935999,57.6400021 492.672002,58.0239982 492.32,58.376 C491.999998,58.6640014 491.632002,58.903999 491.216,59.096 C490.799998,59.288001 490.368002,59.384 489.92,59.384 L483.92,59.384 L483.92,64.424 C483.92,64.8400021 483.744002,65.048 483.392,65.048 L478.4,65.048 C478.239999,65.048 478.112,64.9840006 478.016,64.856 C477.92,64.7279994 477.872,64.5840008 477.872,64.424 L477.872,26.216 C477.872,25.5759968 478.159997,24.9680029 478.736,24.392 C478.992001,24.1359987 479.295998,23.9200009 479.648,23.744 C480.000002,23.5679991 480.367998,23.48 480.752,23.48 L490.64,23.48 C490.992002,23.48 491.367998,23.5679991 491.768,23.744 C492.168002,23.9200009 492.511999,24.1679984 492.8,24.488 C492.992001,24.7120011 493.151999,24.9599986 493.28,25.232 C493.408001,25.5040014 493.472,25.7999984 493.472,26.12 L493.472,38.264 Z M487.328,27.368 L483.92,27.368 L483.92,39.464 L487.328,39.464 L487.328,27.368 Z M487.328,43.352 L483.92,43.352 L483.92,55.496 L487.328,55.496 L487.328,43.352 Z M550.64,45.56 C550.64,46.0080022 550.560001,46.4719976 550.4,46.952 C550.239999,47.4640026 550.016001,47.9119981 549.728,48.296 L545.168,54.488 C544.975999,54.7760014 544.704002,54.92 544.352,54.92 L542.24,54.92 C542.079999,54.92 541.968,54.8560006 541.904,54.728 C541.84,54.5999994 541.856,54.4720006 541.952,54.344 L547.28,47.192 L543.152,47.192 C542.799998,47.192 542.624,47.0160018 542.624,46.664 L542.624,39.944 C542.624,39.7839992 542.672,39.6480006 542.768,39.536 C542.864,39.4239994 542.975999,39.368 543.104,39.368 L550.112,39.368 C550.240001,39.368 550.359999,39.4239994 550.472,39.536 C550.584001,39.6480006 550.64,39.7839992 550.64,39.944 L550.64,45.56 Z M616.112,51.992 C616.112,52.2160011 616.048001,52.3919994 615.92,52.52 C615.791999,52.6480006 615.648001,52.712 615.488,52.712 L597.824,52.712 L597.824,61.736 C597.824,62.5680042 597.600002,63.287997 597.152,63.896 C596.895999,64.2480018 596.576002,64.527999 596.192,64.736 C595.807998,64.944001 595.360003,65.048 594.848,65.048 L583.328,65.048 C583.103999,65.048 582.96,64.9680008 582.896,64.808 L581.696,61.64 C581.664,61.5759997 581.68,61.4800006 581.744,61.352 C581.808,61.2239994 581.903999,61.16 582.032,61.16 L591.536,61.16 L591.536,52.712 L574.016,52.712 C573.855999,52.712 573.720001,52.6640005 573.608,52.568 C573.495999,52.4719995 573.44,52.3600006 573.44,52.232 L573.44,49.352 C573.44,49.0319984 573.615998,48.872 573.968,48.872 L591.536,48.872 L591.536,40.616 L576.56,40.616 C576.399999,40.616 576.264001,40.5680005 576.152,40.472 C576.039999,40.3759995 575.984,40.2640006 575.984,40.136 L575.984,37.256 C575.984,36.9359984 576.159998,36.776 576.512,36.776 L591.536,36.776 L591.536,29.144 L575.456,29.144 C575.295999,29.144 575.152001,29.0960005 575.024,29 C574.895999,28.9039995 574.832,28.7920006 574.832,28.664 L574.832,25.784 C574.832,25.6239992 574.895999,25.5040004 575.024,25.424 C575.152001,25.3439996 575.295999,25.304 575.456,25.304 L607.424,25.304 L608.048,23.528 C608.112,23.3999994 608.199999,23.2720006 608.312,23.144 C608.424001,23.0159994 608.543999,22.952 608.672,22.952 L614.528,22.952 C614.656001,22.952 614.775999,23.0079994 614.888,23.12 C615.000001,23.2320006 615.024,23.3679992 614.96,23.528 L613.808,26.792 C613.583999,27.4640034 613.216003,27.9919981 612.704,28.376 C611.999996,28.8880026 611.104005,29.144 610.016,29.144 L597.824,29.144 L597.824,36.776 L612.656,36.776 C613.072002,36.776 613.28,36.9999978 613.28,37.448 L613.28,39.896 C613.28,40.1200011 613.216001,40.2959994 613.088,40.424 C612.959999,40.5520006 612.816001,40.616 612.656,40.616 L597.824,40.616 L597.824,48.872 L615.488,48.872 C615.904002,48.872 616.112,49.0959978 616.112,49.544 L616.112,51.992 Z M663.728,27.992 C663.728,28.4400022 663.520002,28.664 663.104,28.664 L659.456,28.664 L659.456,30.2 C659.456,30.3600008 659.400001,30.5119993 659.288,30.656 C659.175999,30.8000007 659.008001,30.872 658.784,30.872 L654.272,30.872 C654.111999,30.872 653.960001,30.8000007 653.816,30.656 C653.671999,30.5119993 653.6,30.3600008 653.6,30.2 L653.6,28.664 L647.84,28.664 L647.84,30.2 C647.84,30.3600008 647.784001,30.5119993 647.672,30.656 C647.559999,30.8000007 647.392001,30.872 647.168,30.872 L642.704,30.872 C642.543999,30.872 642.392001,30.8000007 642.248,30.656 C642.103999,30.5119993 642.032,30.3600008 642.032,30.2 L642.032,28.664 L638,28.664 C637.871999,28.664 637.752001,28.6240004 637.64,28.544 C637.527999,28.4639996 637.472,28.3440008 637.472,28.184 L637.472,26.264 C637.472,26.1679995 637.52,26.0640006 637.616,25.952 C637.712,25.8399994 637.839999,25.784 638,25.784 L642.032,25.784 L642.032,23.624 C642.032,23.3999989 642.103999,23.2320006 642.248,23.12 C642.392001,23.0079994 642.543999,22.952 642.704,22.952 L647.072,22.952 C647.296001,22.952 647.479999,23.0239993 647.624,23.168 C647.768001,23.3120007 647.84,23.4639992 647.84,23.624 L647.84,25.784 L653.6,25.784 L653.6,23.624 C653.6,23.3999989 653.671999,23.2320006 653.816,23.12 C653.960001,23.0079994 654.111999,22.952 654.272,22.952 L658.688,22.952 C658.912001,22.952 659.095999,23.0239993 659.24,23.168 C659.384001,23.3120007 659.456,23.4639992 659.456,23.624 L659.456,25.784 L663.056,25.784 C663.216001,25.784 663.367999,25.8319995 663.512,25.928 C663.656001,26.0240005 663.728,26.1519992 663.728,26.312 L663.728,27.992 Z M663.824,50.552 C663.824,50.744001 663.752001,50.9119993 663.608,51.056 C663.463999,51.2000007 663.312001,51.272 663.152,51.272 L641.888,51.272 C640.671994,51.272 639.776003,51.0000027 639.2,50.456 C638.591997,49.8799971 638.288,49.0160058 638.288,47.864 L638.288,40.52 L635.984,40.52 C635.823999,40.52 635.712,40.4560006 635.648,40.328 C635.584,40.1999994 635.584,40.0720006 635.648,39.944 L640.448,31.976 C640.576001,31.7519989 640.783999,31.64 641.072,31.64 L645.632,31.64 C645.792001,31.64 645.904,31.7039994 645.968,31.832 C646.032,31.9600006 646.032,32.0719995 645.968,32.168 L644.96,33.992 L649.424,33.992 L648.416,32.024 C648.352,31.9279995 648.36,31.8160006 648.44,31.688 C648.52,31.5599994 648.623999,31.496 648.752,31.496 L653.696,31.496 C653.824001,31.496 653.951999,31.5279997 654.08,31.592 C654.208001,31.6560003 654.304,31.7359995 654.368,31.832 L655.328,33.992 L662.96,33.992 C663.120001,33.992 663.271999,34.0479994 663.416,34.16 C663.560001,34.2720006 663.632,34.3919994 663.632,34.52 L663.632,36.2 C663.632,36.6480022 663.424002,36.872 663.008,36.872 L655.232,36.872 L655.232,38.744 L661.856,38.744 C662.016001,38.744 662.167999,38.7999994 662.312,38.912 C662.456001,39.0240006 662.528,39.1439994 662.528,39.272 L662.528,41.096 C662.528,41.4480018 662.320002,41.624 661.904,41.624 L655.232,41.624 L655.232,43.544 L662,43.544 C662.160001,43.544 662.311999,43.5999994 662.456,43.712 C662.600001,43.8240006 662.672,43.9439994 662.672,44.072 L662.672,45.752 C662.672,46.2000022 662.464002,46.424 662.048,46.424 L655.232,46.424 L655.232,48.392 L663.152,48.392 C663.312001,48.392 663.463999,48.4479994 663.608,48.56 C663.752001,48.6720006 663.824,48.7919994 663.824,48.92 L663.824,50.552 Z M636.368,29.72 C636.368,29.8800008 636.288001,30.0079995 636.128,30.104 C635.967999,30.2000005 635.824001,30.248 635.696,30.248 L621.872,30.248 C621.711999,30.248 621.568001,30.2000005 621.44,30.104 C621.311999,30.0079995 621.248,29.8960006 621.248,29.768 L621.248,26.984 C621.248,26.8239992 621.311999,26.7040004 621.44,26.624 C621.568001,26.5439996 621.711999,26.504 621.872,26.504 L626.384,26.504 L625.184,23.48 C625.152,23.4159997 625.176,23.3120007 625.256,23.168 C625.336,23.0239993 625.439999,22.952 625.568,22.952 L630.56,22.952 C630.656,22.952 630.759999,22.9759998 630.872,23.024 C630.984001,23.0720002 631.072,23.1599994 631.136,23.288 L632.336,26.504 L635.696,26.504 C635.856001,26.504 636.007999,26.5519995 636.152,26.648 C636.296001,26.7440005 636.368,26.8719992 636.368,27.032 L636.368,29.72 Z M635.888,36.968 C635.888,37.1280008 635.816001,37.2559995 635.672,37.352 C635.527999,37.4480005 635.376001,37.496 635.216,37.496 L622.64,37.496 C622.479999,37.496 622.336001,37.4480005 622.208,37.352 C622.079999,37.2559995 622.016,37.1440006 622.016,37.016 L622.016,34.232 C622.016,34.0719992 622.079999,33.9520004 622.208,33.872 C622.336001,33.7919996 622.479999,33.752 622.64,33.752 L635.216,33.752 C635.376001,33.752 635.527999,33.7999995 635.672,33.896 C635.816001,33.9920005 635.888,34.1199992 635.888,34.28 L635.888,36.968 Z M664.832,64.568 C664.992001,64.6320003 665.04,64.7359993 664.976,64.88 C664.912,65.0240007 664.800001,65.096 664.64,65.096 L656.096,65.096 C655.551997,65.096 655.104002,65.0160008 654.752,64.856 L649.856,62.696 L645.536,64.808 C645.311999,64.9360006 645.096001,65.0159998 644.888,65.048 C644.679999,65.0800002 644.448001,65.096 644.192,65.096 L636.368,65.096 C636.207999,65.096 636.104,65.0400006 636.056,64.928 C636.008,64.8159994 636.063999,64.7280003 636.224,64.664 L645.2,60.632 L637.904,57.464 C637.808,57.3999997 637.776,57.3280004 637.808,57.248 C637.84,57.1679996 637.904,57.128 638,57.128 L646.832,57.128 C646.992001,57.128 647.151999,57.1439998 647.312,57.176 C647.472001,57.2080002 647.631999,57.2559997 647.792,57.32 L650.288,58.376 L656.24,55.736 L638.048,55.736 C637.727998,55.736 637.568,55.5600018 637.568,55.208 L637.568,53.432 C637.568,53.3039994 637.616,53.1760006 637.712,53.048 C637.808,52.9199994 637.935999,52.856 638.096,52.856 L661.76,52.856 C661.920001,52.856 662.087999,52.9199994 662.264,53.048 C662.440001,53.1760006 662.528,53.3199992 662.528,53.48 L662.528,55.832 C662.528,56.3120024 662.240003,56.6799987 661.664,56.936 L654.752,60.296 L664.832,64.568 Z M635.792,44.216 C635.792,44.3760008 635.720001,44.5039995 635.576,44.6 C635.431999,44.6960005 635.280001,44.744 635.12,44.744 L622.544,44.744 C622.383999,44.744 622.240001,44.6960005 622.112,44.6 C621.983999,44.5039995 621.92,44.3920006 621.92,44.264 L621.92,41.48 C621.92,41.3199992 621.983999,41.2000004 622.112,41.12 C622.240001,41.0399996 622.383999,41 622.544,41 L635.12,41 C635.280001,41 635.431999,41.0479995 635.576,41.144 C635.720001,41.2400005 635.792,41.3679992 635.792,41.528 L635.792,44.216 Z M635.984,62.456 C635.984,63.1920037 635.744002,63.7999976 635.264,64.28 C634.783998,64.7600024 634.192004,65 633.488,65 L624.32,65 C623.679997,65 623.184002,64.8400016 622.832,64.52 C622.255997,64.1359981 621.968,63.5120043 621.968,62.648 L621.968,51.32 C621.968,50.711997 622.207998,50.1360027 622.688,49.592 C623.264003,49.0159971 623.903996,48.728 624.608,48.728 L633.2,48.728 C634.032004,48.728 634.703997,49.0159971 635.216,49.592 C635.728003,50.1680029 635.984,50.8239963 635.984,51.56 L635.984,62.456 Z M649.52,36.872 L644.048,36.872 L644.048,38.744 L649.52,38.744 L649.52,36.872 Z M649.52,41.624 L644.048,41.624 L644.048,43.544 L649.52,43.544 L649.52,41.624 Z M649.52,46.424 L644.048,46.424 L644.048,48.392 L649.52,48.392 L649.52,46.424 Z M630.368,52.52 L627.584,52.52 L627.584,61.208 L630.368,61.208 L630.368,52.52 Z M710.912,64.76 C710.848,64.952001 710.688001,65.048 710.432,65.048 L701.648,65.048 C700.815996,65.048 700.096003,64.8400021 699.488,64.424 C698.751996,63.9759978 698.160002,63.1920056 697.712,62.072 L692.48,49.208 L677.072,49.208 L677.072,61.208 L690.608,61.208 C690.768001,61.208 690.88,61.2639994 690.944,61.376 C691.008,61.4880006 691.008,61.6239992 690.944,61.784 L689.696,64.76 C689.632,64.952001 689.472001,65.048 689.216,65.048 L673.664,65.048 C673.311998,65.048 672.960002,64.9600009 672.608,64.784 C672.255998,64.6079991 671.952001,64.3920013 671.696,64.136 C671.439999,63.8479986 671.224001,63.5200018 671.048,63.152 C670.871999,62.7839982 670.784,62.4240018 670.784,62.072 L670.784,27.128 C670.784,26.135995 671.087997,25.3040034 671.696,24.632 C672.400004,23.8639962 673.343994,23.48 674.528,23.48 L706.064,23.48 C707.248006,23.48 708.159997,23.8319965 708.8,24.536 C709.408003,25.2080034 709.712,26.0719947 709.712,27.128 L709.712,35.048 C709.712,36.0720051 709.440003,36.9359965 708.896,37.64 C708.255997,38.440004 707.312006,38.84 706.064,38.84 L695.456,38.84 L698.096,45.368 L710.864,45.368 C711.280002,45.368 711.488,45.5919978 711.488,46.04 L711.488,48.488 C711.488,48.7120011 711.424001,48.8879994 711.296,49.016 C711.167999,49.1440006 711.024001,49.208 710.864,49.208 L699.68,49.208 L704.528,61.208 L711.584,61.208 C711.776001,61.208 711.92,61.2959991 712.016,61.472 C712.112,61.6480009 712.128,61.8159992 712.064,61.976 L710.912,64.76 Z M703.424,27.32 L677.072,27.32 L677.072,35 L703.424,35 L703.424,27.32 Z M688.256,38.84 L677.072,38.84 L677.072,45.368 L690.896,45.368 L688.256,38.84 Z M759.968,64.28 C759.968,64.5040011 759.904001,64.6799994 759.776,64.808 C759.647999,64.9360006 759.504001,65 759.344,65 L718.256,65 C718.095999,65 717.944001,64.9440006 717.8,64.832 C717.655999,64.7199994 717.584,64.5840008 717.584,64.424 L717.584,61.736 C717.584,61.5759992 717.655999,61.4400006 717.8,61.328 C717.944001,61.2159994 718.095999,61.16 718.256,61.16 L735.296,61.16 L735.296,48.632 L720.128,48.632 C719.967999,48.632 719.824001,48.5760006 719.696,48.464 C719.567999,48.3519994 719.504,48.2160008 719.504,48.056 L719.504,45.368 C719.504,45.2079992 719.567999,45.0720006 719.696,44.96 C719.824001,44.8479994 719.967999,44.792 720.128,44.792 L735.296,44.792 L735.296,33.128 L719.12,33.128 C718.959999,33.128 718.816001,33.0640006 718.688,32.936 C718.559999,32.8079994 718.496,32.6640008 718.496,32.504 L718.496,29.96 C718.496,29.7999992 718.559999,29.6480007 718.688,29.504 C718.816001,29.3599993 718.959999,29.288 719.12,29.288 L734.768,29.288 L732.704,23.672 C732.64,23.5119992 732.663999,23.3520008 732.776,23.192 C732.888001,23.0319992 733.055999,22.952 733.28,22.952 L738.8,22.952 C738.992001,22.952 739.159999,23.0079994 739.304,23.12 C739.448001,23.2320006 739.552,23.3679992 739.616,23.528 L741.776,29.288 L758.288,29.288 C758.448001,29.288 758.591999,29.3599993 758.72,29.504 C758.848001,29.6480007 758.912,29.7999992 758.912,29.96 L758.912,32.504 C758.912,32.9200021 758.704002,33.128 758.288,33.128 L741.584,33.128 L741.584,44.792 L757.088,44.792 C757.504002,44.792 757.712,45.0159978 757.712,45.464 L757.712,47.912 C757.712,48.1360011 757.648001,48.3119994 757.52,48.44 C757.391999,48.5680006 757.248001,48.632 757.088,48.632 L741.584,48.632 L741.584,61.16 L759.296,61.16 C759.744002,61.16 759.968,61.3839978 759.968,61.832 L759.968,64.28 Z" id="千人包圍立院" sketch:type="MSShapeGroup"></path>
        </g>
    </g>
</svg>