<svg width="1000" height="832" viewBox="0 0 1000 832" xmlns="http://www.w3.org/2000/svg"><title>410action-shading</title><desc>Created with Sketch.</desc><defs><filter x="-50%" y="-50%" width="200%" height="200%" filterUnits="objectBoundingBox" id="a"><feGaussianBlur stdDeviation="4.004" in="SourceGraphic" result="blur"/></filter><filter x="-50%" y="-50%" width="200%" height="200%" filterUnits="objectBoundingBox" id="b"><feGaussianBlur stdDeviation="4.004" in="SourceGraphic" result="blur"/></filter><filter x="-50%" y="-50%" width="200%" height="200%" filterUnits="objectBoundingBox" id="c"><feGaussianBlur stdDeviation="4.004" in="SourceGraphic" result="blur"/></filter><filter x="-50%" y="-50%" width="200%" height="200%" filterUnits="objectBoundingBox" id="d"><feGaussianBlur stdDeviation="4" in="SourceGraphic" result="blur"/></filter><filter x="-50%" y="-50%" width="200%" height="200%" filterUnits="objectBoundingBox" id="e"><feGaussianBlur stdDeviation="4" in="SourceGraphic" result="blur"/></filter><filter x="-50%" y="-50%" width="200%" height="200%" filterUnits="objectBoundingBox" id="f"><feGaussianBlur stdDeviation="4" in="SourceGraphic" result="blur"/></filter><filter x="-50%" y="-50%" width="200%" height="200%" filterUnits="objectBoundingBox" id="g"><feGaussianBlur stdDeviation="4" in="SourceGraphic" result="blur"/></filter><filter x="-50%" y="-50%" width="200%" height="200%" filterUnits="objectBoundingBox" id="h"><feGaussianBlur stdDeviation="4" in="SourceGraphic" result="blur"/></filter><filter x="-50%" y="-50%" width="200%" height="200%" filterUnits="objectBoundingBox" id="i"><feGaussianBlur stdDeviation="4" in="SourceGraphic" result="blur"/></filter><filter x="-50%" y="-50%" width="200%" height="200%" filterUnits="objectBoundingBox" id="j"><feGaussianBlur stdDeviation="4" in="SourceGraphic" result="blur"/></filter><filter x="-50%" y="-50%" width="200%" height="200%" filterUnits="objectBoundingBox" id="k"><feGaussianBlur stdDeviation="4" in="SourceGraphic" result="blur"/></filter></defs><g fill="none" fill-rule="evenodd"><g fill="#5D5D5D" fill-opacity=".8"><g><path d="M121.926 150.516v32.297H79.04v-32.297H.46l.023-30.26L76.21.515h45.716l-.053 119.74h18.69l.14 30.26h-18.777zM79.04 60.978l-39.61 59.277h39.61V60.978z" filter="url(#a)" transform="translate(282 65)"/><path d="M176.055 182.813V23.96H145.92V.278h76.265v182.536h-46.13" id="Fill-2" filter="url(#b)" transform="translate(282 65)"/><path d="M250.345.516h134.91v182.297h-134.91V.516zm45.898 157.895h42.883V24.92h-42.883V158.41z" filter="url(#c)" transform="translate(282 65)"/></g><g><path d="M9.03 24.93L.227 4.237h20.4l8.376 20.69H9.032zm68.184 60.776l-18.79-15.733-2.577 1.51v5.494h9.126L61 85.707H36.95v-9.484h-8.484v7.435l10.952 4.634h58.09L93.536 98.1H37.7l-12.67-5.605-3.544 5.604h-20.4l9.127-14.98V66.525h-7.84V56.287l7.088-17.673H2.16v-10.56h25.987V39.8l-6.23 16.057h6.55v17.78l15.25-9.914H32.438V44.865h61.095v18.858h-25.77l-3.328 2.263H74.96l4.618 3.88 3.434-4.096h13.96l-9.128 11.1 10.523 8.836H77.214zM29.647 33.334h66.25v8.407h-66.25v-8.406zm.966-28.125H94.61v25H30.613v-25zM47.15 21.05h4.187V14.15H47.15v6.897zm3.973 35.022h23.3V52.73h-23.3v3.342zm9.663-35.023h4.08V14.15h-4.08v6.897zm13.423 0h4.08V14.15h-4.08v6.897z" filter="url(#d)" transform="translate(54 287.5)"/><path d="M115.342 92.495h-6.873l1.718-59.7h6.872l-1.718 59.7zm21.26-64.548v71.23H118.35l.105-71.23H108.9v-9.915h9.45V3.592h18.253v14.44h7.946v9.915h-7.947zm12.35 71.23V69.434h-3.22l.75 23.06h-6.66l-1.93-59.698h6.763l.967 29.633 6.55-15.302h18.468l-1.61 4.418h4.08l-.967-4.418h18.364l.965 4.418h12.24v9.05h-12.348v3.88h10.523v8.62h-10.523v4.096h10.523v8.622h-10.523V89.8h12.78v9.377H148.95zm47.996-81.036v3.45H179.23v-3.45h-9.34v3.45h-17.502v-3.45h-6.336V8.873h6.336v-5.28h17.5v5.28h9.343v-5.28h17.718v5.28h7.41v9.27h-7.41zm-49.286 5.712h25.448v21.12h-25.448v-21.12zm9.987 12.823h5.37v-4.418h-5.37v4.418zm9.018 27.802h6.98v-3.88h-6.98v3.88zm0 12.715h6.98v-4.095h-6.98v4.095zm0 12.61h6.98v-3.988h-6.98V89.8zm9.664-65.95h25.877v21.12H176.33v-21.12zm9.986 12.823h5.476v-4.418h-5.476v4.418z" filter="url(#e)" transform="translate(54 287.5)"/><path d="M294.884 42.062l-7.946-26.4h-3.114l-7.3 26.4h-16.11v56.79h-19.647l-3.76-9.267-2.683 9.268h-18.47l5.155-17.242V24.498h-4.296v-10.56h12.134l-2.47-10.13h21.26l2.686 10.13h10.307v10.56h-21.904v13.47h20.294l9.45-32.973h33.823l11.596 37.068h-19.006zm-51.11 6.467h-4.726v33.836l-1.61 5.926h6.335V48.53zm44.882 50.323l-24.482-27.695h24.268l25.02 27.695h-24.806zm-1.29-30.71l-21.045-22.847h24.27l21.26 22.846h-24.483z" filter="url(#f)" transform="translate(54 287.5)"/><path d="M416.013 98.853h-24.59l-13.207-34.268h-31.138v23.492h28.24l-4.295 10.776H326.46V4.777h89.017v36.747h-23.944l4.723 12.285h22.012v10.775h-17.824l9.02 23.492h11.488l-4.94 10.776zm-68.935-83.3V30.75h47.996l.11-15.194h-48.106zm22.01 25.97h-22.01V53.81h26.843l-4.83-12.286z" filter="url(#g)" transform="translate(54 287.5)"/><path d="M475.174 95.11v-9.234h37.233V80.83H479.56v-8.59h32.847V67.62h-32.74V32.618h32.74v-4.94h-36.912v-9.34h36.912V13.29h-33.382V3.842H547.5l.856-3.437h20.65l-4.067 12.885H532.2v5.047h36.805v9.34H532.2v4.94h32.633v35.005H532.2v4.617h33.49v8.59H532.2v5.046h37.447v9.234h-94.473zm24.607-49.285h12.627v-4.617H499.78v4.617zm0 12.993h12.627V54.2H499.78v4.618zm32.42-12.993h12.625v-4.617H532.2v4.617zm0 12.993h12.625V54.2H532.2v4.618z" filter="url(#h)" transform="translate(54 287.5)"/><path d="M590.074 20.806l-9.63-20.51h21.398l9.63 20.51h-21.398zm69.01 60.56l-4.816-6.765-3.53 6.766h-18.724l11.555-22.12-9.524-13.636v23.3l-4.386 12.456h-15.62l5.776 3.435h59.167l-5.135 10.31h-56.706l-11.02-6.335-3.96 6.335h-21.505l10.485-17.502v-15.14h-8.345v-9.45l9.31-18.467h-9.737V24.03h28.138v11.81l-7.703 15.785h7.81V79.97l4.28-11.38V3.947h39.587L655.66.084h21.504l-3.53 14.28h-39.588v10.952h40.444v11.812L663.148 58.28l16.156 23.086h-20.22zm-25.038-45.634v3.757h15.728l2.57 3.435 3.635-7.193h-21.934z" filter="url(#i)" transform="translate(54 287.5)"/><path d="M689.137 95.11V84.157h52.106l14.55-50.79h20.436L762 84.158h21.932V95.11h-94.795zm2.89-68.183V16.19h34.344L723.804.726h22.362l2.675 15.462h31.56v10.737h-88.373zm19.366 51.97l-15.514-45.53h20.86l15.622 45.53h-20.97z" filter="url(#j)" transform="translate(54 287.5)"/><path d="M813.56 82.332V94.68h-16.584V1.586h34.664v34.682l-7.168 5.584 7.168 5.047V82.33h-18.08zm0-45.742h3.317V11.894h-3.317V36.59zm0 35.65h3.317V47.436h-3.317V72.24zm74.465 22.44h-24.073V59.676h-5.134V84.05l-7.704 10.63h-21.506L839.88 80.4V59.676h-5.885v-10.2h56.812v10.2h-8.025V84.8h9.845l-4.602 9.88zm-17.332-65.928V19.09h-17.44v9.662h-18.83V8.89h16.798L848.868.62h21.612l2.353 8.27h16.904V28.75h-19.044zm-31.67 3.22h46.115v10.203h-46.114V31.973z" filter="url(#k)" transform="translate(54 287.5)"/></g></g></g></svg>