<svg width="115" height="36" viewBox="0 0 115 36" xmlns="http://www.w3.org/2000/svg"><title>action-hovered</title><desc>Created with Sketch.</desc><g fill="none" fill-rule="evenodd"><g fill="#96562A"><g><ellipse cx="28.282" cy="5.079" rx="4.225" ry="4.667"/><path d="M13.086 33.526c-.42-.973-.027-2.132.867-2.584l7.154-3.615c.897-.454 1.962-.04 2.383.94.42.973.027 2.132-.867 2.584l-7.153 3.617c-.898.454-1.963.04-2.384-.94z"/><path d="M25.086 23.526c-.42-.973-.027-2.132.867-2.584l7.154-3.615c.897-.454 1.962-.04 2.383.94.42.973.027 2.132-.867 2.584l-7.153 3.617c-.898.454-1.963.04-2.384-.94z"/><path d="M26.485 23.522c-.98.02-1.788-.82-1.806-1.892l-.063-3.86c-.017-1.063.757-1.94 1.744-1.96.98-.017 1.79.822 1.807 1.894l.062 3.86c.016 1.062-.758 1.94-1.745 1.958z"/><path d="M.78 35.288c-.694-.782-.67-2.033.04-2.78l11.07-11.625c.716-.753 1.855-.735 2.554.052.694.782.67 2.032-.04 2.78L3.333 35.34c-.717.753-1.855.735-2.554-.052z"/><path d="M12.93 6.943c.512-1.014 1.483-1.21 2.18-.424.693.778.836 2.24.33 3.245l-4.376 8.678c-.51 1.014-1.48 1.21-2.18.424-.69-.78-.835-2.24-.328-3.247l4.375-8.677z"/><path d="M13.63 10.662c-.685-.817-.82-2.3-.294-3.33.522-1.023 1.505-1.184 2.184-.374l5.856 6.988c.684.816.82 2.3.293 3.33-.523 1.022-1.506 1.184-2.185.374l-5.856-6.988z"/><path d="M16.52 24.61c-.643-.65-.77-1.832-.275-2.652.492-.814 1.417-.943 2.056-.298l5.515 5.564c.644.65.77 1.832.276 2.652-.49.814-1.417.943-2.056.298L16.52 24.61z"/></g><path d="M55.01 28.532v6.062c0 .28-.112.336-.588.336-.574 0-1.176-.056-1.974-.168.126.322.182.574.224.966.602.042 1.26.07 1.708.07 1.232 0 1.568-.238 1.568-1.134v-6.132h.798c.644 0 1.162.028 1.526.084v-.98c-.322.056-.826.084-1.54.084h-4.914c-.672 0-1.218-.028-1.554-.084v.98c.336-.056.896-.084 1.554-.084h3.192zm-6.09-5.18c-.224.518-.574 1.008-1.274 1.708-.56.574-1.064.98-1.848 1.484.266.21.42.378.63.686 1.26-.91 2.268-1.89 3.108-3.038.126-.168.154-.21.252-.308l-.868-.532zm1.918 1.75c.42-.056.896-.084 1.456-.084h3.92c.56 0 1.022.028 1.442.084v-.98c-.392.056-.812.084-1.442.084h-3.92c-.63 0-1.078-.028-1.456-.084v.98zm-2.982 9.212c0 .742-.028 1.316-.098 1.708h1.106c-.07-.392-.098-.952-.098-1.708v-5.656c.392-.462.644-.784.938-1.26.21-.322.252-.392.42-.602l-.868-.49c-.14.378-.35.77-.672 1.204-.84 1.134-1.736 2.016-2.828 2.758.224.224.378.448.546.798.686-.532 1.092-.924 1.596-1.568-.028.672-.042 1.078-.042 1.68v3.136zM62.934 25.9h-1.89c-.56 0-.896-.028-1.274-.084v.868c.364-.056.672-.07 1.26-.07h1.904v.868h-1.302c-.588 0-.966-.014-1.33-.042.042.392.042.532.042 1.232v1.638c0 .7-.014 1.008-.042 1.316.336-.028.714-.042 1.302-.042h1.33v.938h-1.54c-.602 0-.952-.014-1.288-.07v.868c.378-.042.84-.07 1.274-.07h1.554v1.092c-1.428.14-2.226.196-2.66.196-.126 0-.364-.014-.588-.028l.182.966c.266-.056.378-.07.742-.112 2.38-.238 3.78-.42 5.74-.756v-.742c-1.232.21-1.708.28-2.604.392V33.25h1.54c.658 0 .854.014 1.148.056v-.84c-.308.042-.546.056-1.274.056h-1.414v-.938h1.4c.588 0 .952.014 1.288.042-.042-.294-.056-.63-.056-1.33v-1.624c0-.728.014-.966.056-1.232-.336.028-.686.042-1.232.042h-1.456v-.868h1.792c.672 0 .868.014 1.12.056v-.84c-.266.056-.616.07-1.232.07h-1.68v-1.106c.812-.14 1.47-.28 2.002-.434.504-.126.504-.126.7-.168l-.616-.714c-.952.476-3.584.924-5.838.966.238.364.294.49.35.742 1.064-.084 1.582-.126 2.59-.266v.98zm0 2.254v1.022h-1.792v-1.022h1.792zm.812 0h1.848v1.022h-1.848v-1.022zm-.812 1.666v1.092h-1.792V29.82h1.792zm.812 0h1.848v1.092h-1.848V29.82zm5.642-3.262c.014-.476.014-.952.028-1.946 0-.504.014-.798.084-1.064h-1.036c.07.378.084.616.084 1.61 0 .518 0 .924-.014 1.4h-.462c-.602 0-.882-.014-1.246-.07v.952c.392-.056.728-.07 1.302-.07h.364c-.126 2.716-.434 4.368-1.078 5.74-.434.924-.826 1.456-1.624 2.268.308.168.63.406.798.602 1.176-1.4 1.764-2.492 2.198-4.116.308-1.148.476-2.464.574-4.494h1.722c0 3.15-.196 5.824-.504 7.028-.098.42-.252.518-.77.518-.392 0-.798-.056-1.512-.196.098.322.14.63.154.938.602.07 1.106.112 1.484.112.77 0 1.148-.182 1.344-.686.378-.91.56-2.884.658-7.112.028-.882.042-1.162.07-1.47-.378.042-.686.056-1.246.056h-1.372zm5.6 5.544c-.616 0-1.022-.028-1.344-.07v.924c.448-.056.98-.084 1.54-.084h9.618c.602 0 1.092.028 1.554.084v-.924c-.364.042-.742.07-1.344.07l.28-6.748c.028-.658.056-.994.098-1.372-.28.056-.574.07-.966.07h-1.26c-.434 0-.63-.014-.91-.07v.882c.266-.042.504-.056.896-.056h1.33l-.07 1.918h-1.274c-.406 0-.602-.014-.854-.056v.812c.252-.028.504-.042.854-.042h1.232l-.07 1.792h-1.162c-.392 0-.616-.014-.854-.056v.812c.252-.028.504-.042.854-.042h1.134l-.098 2.156h-2.716l.14-3.906c.014-.532.042-.896.098-1.246-.322.056-.574.07-.98.07h-1.358l.084-1.512h1.624c.336 0 .602.014.854.042v-.84c-.238.042-.462.056-.854.056h-1.582l.028-.364c.028-.42.056-.714.084-.91l-.896-.014c.014.238.028.364.028.56 0 .168 0 .196-.014.378l-.126 2.436c-.014.294-.056.742-.098.924.294-.028.63-.042 1.036-.042h1.316l-.182 4.368h-1.414l.112-2.688c.014-.434.028-.532.084-.896l-.882-.014c.014.154.028.308.028.462 0 .322 0 .35-.014.448l-.112 2.688h-2.632l-.07-2.1h1.204c.336 0 .602.014.854.042v-.812c-.252.042-.476.056-.854.056h-1.218l-.056-1.764h1.274c.336 0 .602.014.854.042v-.812c-.238.042-.448.056-.854.056H75.66l-.042-1.666c.812-.266 1.498-.56 2.24-.938l-.574-.714c-.574.448-1.442.826-2.576 1.092.042.336.07.686.084 1.428l.196 6.09zm2.884 1.036c-.532.518-.896.77-1.484 1.092-.784.406-1.4.63-2.394.882.238.224.42.49.574.798 1.834-.644 2.842-1.204 4.018-2.226l-.714-.546zm3.626.588c1.26.98 2.59 1.666 4.214 2.142.168-.35.182-.392.532-.826-1.638-.364-2.912-.938-4.102-1.862l-.644.546zm6.398-3.43c.28-.042.392-.056.798-.07.462-.028 1.19-.084 1.526-.112v4.452c0 .588-.028 1.036-.084 1.442h1.008c-.056-.392-.084-.84-.084-1.442v-4.522c.238-.028.238-.028.7-.07.294-.028.546-.056.784-.084.126.322.168.476.322.938l.714-.294c-.364-1.022-.728-1.834-1.218-2.702l-.644.252c.28.518.364.7.56 1.134-.882.098-1.498.154-2.408.168.77-.882 1.624-2.016 2.59-3.416.182-.28.266-.392.378-.546l-.826-.476c-.224.532-.826 1.512-1.582 2.534-.308-.364-.518-.616-.91-1.022.462-.616.868-1.246 1.176-1.778.42-.742.476-.84.602-1.022l-.868-.392c-.154.546-.672 1.512-1.442 2.66-.21-.196-.336-.322-.672-.616l-.462.686c1.064.924 1.358 1.218 2.114 2.128-.56.728-.644.84-1.022 1.288h-.462c-.294 0-.406 0-.714-.028l.126.91zm.756.672c-.224 2.03-.42 2.87-.896 3.906l.798.364c.448-1.19.588-1.834.882-4.116l-.784-.154zm3.052.21c.448 1.134.574 1.624.91 3.486l.756-.28c-.336-1.596-.546-2.352-.966-3.416l-.7.21zm3.276-1.974h3.22c.574 0 .98.014 1.358.056-.042-.406-.056-.756-.056-1.302v-2.506c0-.742.014-1.008.042-1.372-.406.042-.742.056-1.33.056h-3.332c-.532 0-.938-.028-1.344-.084v.98c.35-.042.798-.07 1.344-.07h3.724v3.444h-3.22c-.574 0-.924-.014-1.372-.056.056.364.07.686.07 1.344v4.858c0 .49.098.756.35.896.336.182.952.266 2.086.266 1.932 0 2.604-.07 2.968-.336.448-.322.644-.966.84-2.66-.378-.098-.63-.21-.924-.434-.042.616-.084 1.022-.154 1.442-.112.644-.238.868-.518.98-.266.098-.784.154-1.54.154-1.092 0-1.694-.028-1.946-.098-.196-.056-.266-.168-.266-.42v-5.138zm11.102 3.92c.322-.868.49-1.47.686-2.394l-.7-.266c-.112.938-.266 1.54-.602 2.422l.616.238zm1.218-3.192c.574.714.882 1.246 1.26 2.17l.756-.42c-.406-.84-.728-1.344-1.316-2.1l-.7.35zm-3.15-2.31v1.456h-.994c-.602 0-.952-.028-1.33-.084v.896c.406-.056.742-.07 1.316-.07h1.008v4.326c-1.106.294-1.778.434-2.38.462l.182.938c.252-.084.406-.126.854-.238 1.722-.448 2.114-.56 3.822-1.218l.364.742c.21-.14.28-.182.616-.378.966-.574 1.694-1.078 2.422-1.652v2.086c0 .294-.112.364-.504.364-.378 0-.952-.056-1.372-.14.14.322.182.518.224.896.518.028 1.008.042 1.204.042.994 0 1.26-.238 1.26-1.078v-2.674c0-.182-.042-1.232-.07-1.736.378 1.092.7 1.75 1.204 2.506.588.854 1.134 1.456 2.086 2.24.182-.308.378-.532.644-.742-1.344-1.036-1.666-1.372-2.422-2.436.924-.868 1.218-1.176 1.918-1.974l-.728-.56c-.49.784-.7 1.036-1.596 1.89-.462-.756-.756-1.456-1.022-2.394v-.028h2.31c.588 0 .938.014 1.288.07v-.924c-.392.056-.756.084-1.316.084h-.98c.266-.84.476-1.624.7-2.66.224-.966.294-1.26.364-1.484-.462.028-.868.042-1.372.042h-2.394c.042-.126.056-.182.084-.252.07-.266.07-.266.112-.364.056-.168.056-.168.084-.266l-.924-.042c-.042.252-.07.462-.112.602-.252 1.036-.714 2.324-1.232 3.388.406-.028.896-.042 1.372-.042h2.8c-.112.42-.112.42-.322 1.078h-3.22c-.546 0-.896-.028-1.302-.084v.798c-.322.042-.686.07-1.204.07h-.644v-1.456h.462c.406 0 .63.014.938.056v-.826c-.28.042-.532.056-.938.056h-1.722c-.378 0-.7-.014-.924-.056.798-.798 1.33-1.568 1.848-2.688.588 1.162 1.05 1.778 1.974 2.632.168-.308.28-.462.518-.728-1.008-.784-1.47-1.372-2.03-2.59h-.994c-.518 1.372-1.288 2.394-2.534 3.346.224.196.336.35.504.672.322-.266.42-.364.7-.63v.812c.322-.042.574-.056.91-.056h.49zm5.88 1.442v2.842c-1.218.952-2.464 1.708-3.402 2.044l-.028-.63c-.728.294-1.022.392-1.652.588V29.82h.644c.546 0 .882.014 1.232.07v-.756c.35-.056.686-.07 1.274-.07h1.932zm2.142-4.13c-.154.728-.224 1.05-.336 1.554h-3.178c.266-.644.322-.784.574-1.554h2.94zm-8.68 8.498c-.182-1.204-.336-1.862-.658-2.842l-.672.224c.336 1.106.462 1.666.616 2.87l.714-.252z"/></g></g></svg>