<svg width="135" height="36" viewBox="0 0 135 36" xmlns="http://www.w3.org/2000/svg"><title>action</title><desc>Created with Sketch.</desc><g fill="none" fill-rule="evenodd"><g fill="#C57B46"><text font-family="Hiragino Kaku Gothic ProN" font-size="14" font-weight="313"><tspan x="45" y="35">行動與紀錄</tspan></text><g transform="translate(0 .286)"><ellipse cx="28.282" cy="4.794" rx="4.225" ry="4.667"/><path d="M13.086 33.24c-.42-.973-.027-2.13.867-2.583l7.154-3.616c.897-.453 1.962-.04 2.383.94.42.975.027 2.134-.867 2.586L15.47 34.18c-.898.455-1.963.04-2.384-.94z"/><path d="M25.086 23.24c-.42-.973-.027-2.13.867-2.583l7.154-3.616c.897-.453 1.962-.04 2.383.94.42.975.027 2.134-.867 2.586L27.47 24.18c-.898.455-1.963.04-2.384-.94z"/><path d="M26.485 23.236c-.98.02-1.788-.82-1.806-1.892l-.063-3.86c-.017-1.063.757-1.94 1.744-1.958.98-.02 1.79.82 1.807 1.892l.062 3.86c.016 1.062-.758 1.94-1.745 1.958z"/><path d="M.78 35.002c-.694-.782-.67-2.032.04-2.78l11.07-11.625c.716-.753 1.855-.735 2.554.052.694.78.67 2.032-.04 2.778L3.333 35.054c-.717.753-1.855.735-2.554-.052z"/><path d="M12.93 6.657c.512-1.014 1.483-1.21 2.18-.424.693.78.836 2.24.33 3.247l-4.376 8.677c-.51 1.014-1.48 1.21-2.18.424-.69-.778-.835-2.24-.328-3.245l4.375-8.678z"/><path d="M13.63 10.376c-.685-.816-.82-2.3-.294-3.33.522-1.023 1.505-1.184 2.184-.374l5.856 6.988c.684.816.82 2.3.293 3.33-.523 1.023-1.506 1.184-2.185.374l-5.856-6.988z"/><path d="M16.52 24.324c-.643-.65-.77-1.83-.275-2.652.492-.814 1.417-.942 2.056-.297l5.515 5.564c.644.65.77 1.83.276 2.65-.49.815-1.417.943-2.056.298l-5.513-5.564z"/></g></g></g></svg>