<svg width="135" height="36" viewBox="0 0 135 36" xmlns="http://www.w3.org/2000/svg"><title>action-hovered</title><desc>Created with Sketch.</desc><g fill="none" fill-rule="evenodd"><g fill="#96562A"><text font-family="Hiragino Kaku Gothic ProN" font-size="14" font-weight="313"><tspan x="45" y="35">行動與紀錄</tspan></text><g><ellipse cx="28.282" cy="5.079" rx="4.225" ry="4.667"/><path d="M13.086 33.526c-.42-.973-.027-2.132.867-2.584l7.154-3.615c.897-.454 1.962-.04 2.383.94.42.973.027 2.132-.867 2.584l-7.153 3.617c-.898.454-1.963.04-2.384-.94z"/><path d="M25.086 23.526c-.42-.973-.027-2.132.867-2.584l7.154-3.615c.897-.454 1.962-.04 2.383.94.42.973.027 2.132-.867 2.584l-7.153 3.617c-.898.454-1.963.04-2.384-.94z"/><path d="M26.485 23.522c-.98.02-1.788-.82-1.806-1.892l-.063-3.86c-.017-1.063.757-1.94 1.744-1.96.98-.017 1.79.822 1.807 1.894l.062 3.86c.016 1.062-.758 1.94-1.745 1.958z"/><path d="M.78 35.288c-.694-.782-.67-2.033.04-2.78l11.07-11.625c.716-.753 1.855-.735 2.554.052.694.782.67 2.032-.04 2.78L3.333 35.34c-.717.753-1.855.735-2.554-.052z"/><path d="M12.93 6.943c.512-1.014 1.483-1.21 2.18-.424.693.778.836 2.24.33 3.245l-4.376 8.678c-.51 1.014-1.48 1.21-2.18.424-.69-.78-.835-2.24-.328-3.247l4.375-8.677z"/><path d="M13.63 10.662c-.685-.817-.82-2.3-.294-3.33.522-1.023 1.505-1.184 2.184-.374l5.856 6.988c.684.816.82 2.3.293 3.33-.523 1.022-1.506 1.184-2.185.374l-5.856-6.988z"/><path d="M16.52 24.61c-.643-.65-.77-1.832-.275-2.652.492-.814 1.417-.943 2.056-.298l5.515 5.564c.644.65.77 1.832.276 2.652-.49.814-1.417.943-2.056.298L16.52 24.61z"/></g></g></g></svg>