<svg width="135" height="36" viewBox="0 0 135 36" xmlns="http://www.w3.org/2000/svg"><title>alias</title><desc>Created with Sketch.</desc><g fill="none" fill-rule="evenodd"><g fill="#C57B46"><text font-family="Hiragino Kaku Gothic ProN" font-size="14" font-weight="313"><tspan x="45" y="35">立委聲援牆</tspan></text><path d="M38.567 23.75c-1.323-.682-4.992-1.704-5.378-2.994 2.375-.32 4.38-.92 5.396-1.602.552-.37.152-1.15-.223-1.707-.822-1.22-1.6-3.763-1.6-6.447V8.664c0-3.838-3.21-6.95-7.17-6.95-1.467 0-2.828.427-3.964 1.157.993 1.662 1.565 3.613 1.565 5.7v2.036c.405.836.615 1.73.615 2.624 0 1.99-.974 3.82-2.764 5.23-.246.658-.513 1.332-.81 1.995.555.117 1.144.22 1.76.3-.203.675-1.3 1.276-2.49 1.792.09.037.226.08.426.12l.115.02.113.034c.784.23 2.985.86 3.73 1.034 3.648.856 6.43 4.005 7.126 7.817h7.93v-1.865c0-2.79-2.753-5.12-4.38-5.956"/><path d="M27.138 26.4c-.968-.23-3.836-1.067-3.836-1.067-1.507-.295-2.607-1.083-2.607-2.732v-.125c0-.452.002-.89.024-1.314.812-1.203 1.394-2.768 2.004-4.442 1.418-.916 2.29-2.14 2.29-3.488 0-.67-.218-1.31-.61-1.9V8.57c0-4.536-3.558-8.213-7.947-8.213-4.39 0-7.947 3.677-7.947 8.214v2.76c-.393.59-.612 1.23-.612 1.9 0 1.35.875 2.572 2.293 3.488.61 1.674 1.193 3.238 2.006 4.442.02.425.023.863.023 1.315v.126c0 1.65-1.1 2.438-2.607 2.733 0 0-2.87.837-3.838 1.066-2.988.705-5.212 3.74-5.212 7.038v2.205H32.35v-2.205c0-3.298-2.222-6.332-5.212-7.04"/></g></g></svg>