<svg width="115" height="36" viewBox="0 0 115 36" xmlns="http://www.w3.org/2000/svg"><title>alias</title><desc>Created with Sketch.</desc><g fill="none" fill-rule="evenodd"><g fill="#C57B46"><path d="M38.567 23.75c-1.323-.682-4.992-1.704-5.378-2.994 2.375-.32 4.38-.92 5.396-1.602.552-.37.152-1.15-.223-1.707-.822-1.22-1.6-3.763-1.6-6.447V8.664c0-3.838-3.21-6.95-7.17-6.95-1.467 0-2.828.427-3.964 1.157.993 1.662 1.565 3.613 1.565 5.7v2.036c.405.836.615 1.73.615 2.624 0 1.99-.974 3.82-2.764 5.23-.246.658-.513 1.332-.81 1.995.555.117 1.144.22 1.76.3-.203.675-1.3 1.276-2.49 1.792.09.037.226.08.426.12l.115.02.113.034c.784.23 2.985.86 3.73 1.034 3.648.856 6.43 4.005 7.126 7.817h7.93v-1.865c0-2.79-2.753-5.12-4.38-5.956"/><path d="M27.138 26.4c-.968-.23-3.836-1.067-3.836-1.067-1.507-.295-2.607-1.083-2.607-2.732v-.125c0-.452.002-.89.024-1.314.812-1.203 1.394-2.768 2.004-4.442 1.418-.916 2.29-2.14 2.29-3.488 0-.67-.218-1.31-.61-1.9V8.57c0-4.536-3.558-8.213-7.947-8.213-4.39 0-7.947 3.677-7.947 8.214v2.76c-.393.59-.612 1.23-.612 1.9 0 1.35.875 2.572 2.293 3.488.61 1.674 1.193 3.238 2.006 4.442.02.425.023.863.023 1.315v.126c0 1.65-1.1 2.438-2.607 2.733 0 0-2.87.837-3.838 1.066-2.988.705-5.212 3.74-5.212 7.038v2.205H32.35v-2.205c0-3.298-2.222-6.332-5.212-7.04"/><path d="M51.426 25.76H47.87c-.7 0-1.162-.028-1.554-.098v1.05c.448-.056.91-.084 1.554-.084h8.204c.672 0 1.148.028 1.61.084v-1.05c-.434.07-.91.098-1.61.098h-3.738v-1.148c0-.378.028-.728.098-1.134h-1.106c.07.434.098.742.098 1.148v1.134zm-4.046 8.484c-.686 0-1.162-.028-1.61-.084v1.064c.448-.07.91-.098 1.61-.098h9.324c.686 0 1.092.028 1.54.098V34.16c-.42.056-.896.084-1.54.084H53.47c.714-1.512 1.344-3.164 1.876-4.886.42-1.358.42-1.358.56-1.694l-1.078-.364c-.21 1.568-1.274 4.69-2.352 6.944H47.38zm.812-6.454c.672 1.68 1.162 3.458 1.526 5.544l.91-.35c-.448-2.296-.84-3.696-1.512-5.53l-.924.336zm22.442 3.808c.574 0 1.022.028 1.414.084v-.924c-.35.056-.728.084-1.302.084h-5.614c.49-.728.602-.882.728-1.022l-1.008-.238c-.126.378-.294.672-.714 1.26h-2.842c-.574 0-.952-.028-1.302-.084v.924c.392-.056.84-.084 1.414-.084h2.156c-.602.742-.84.994-1.526 1.652 1.442.28 2.24.462 3.262.742-1.414.658-2.968.98-5.222 1.078.322.546.322.56.434.882 2.66-.294 4.438-.784 5.88-1.638 1.708.518 3.122 1.036 4.69 1.736l.686-.77c-1.596-.644-2.716-1.022-4.55-1.54.798-.672 1.19-1.162 1.708-2.142h1.708zm-2.702 0c-.476.854-.868 1.288-1.708 1.862-.686-.182-1.134-.28-2.688-.63.742-.854.798-.924 1.036-1.232h3.36zm-2.422-5.264h-4.06c-.602 0-1.078-.028-1.47-.084v.91c.406-.056.84-.084 1.47-.084h3.36c-.462.392-.98.742-1.68 1.12-1.106.616-1.904.91-3.388 1.302.252.28.378.476.504.77 2.436-.798 4.032-1.68 5.306-2.954-.028.252-.042.49-.042.756v.462c0 .63-.014.826-.056 1.134h.966c-.056-.308-.07-.602-.07-1.134v-.476c0-.35-.014-.476-.042-.756.714.686 1.33 1.148 2.24 1.624 1.148.63 2.072.98 3.36 1.288.126-.336.252-.546.476-.812-2.31-.49-3.976-1.218-5.32-2.324h3.486c.672 0 1.036.028 1.456.084v-.91c-.378.056-.812.084-1.456.084h-4.2v-1.442c1.792-.182 2.352-.266 4.466-.686l-.616-.798c-1.19.504-5.026.938-8.316.938-.196 0-.518 0-.924-.014.182.308.28.532.378.798 2.24-.042 2.842-.07 4.172-.168v1.372zm12.026 8.33c-.868.168-1.456.238-2.072.266l.238.98c.182-.056.434-.112.658-.168 2.072-.406 3.374-.728 5.194-1.246v-.854c-1.428.42-2.03.588-3.164.84v-3.276c.672-.574.798-.7 1.358-1.302h.154c1.232 2.828 2.912 4.466 6.006 5.866.168-.308.336-.56.602-.84-1.596-.602-2.716-1.246-3.71-2.17.784-.588 1.442-1.162 2.03-1.736.182-.182.182-.182.28-.266l-.812-.546c-.448.588-1.134 1.246-2.058 1.96-.686-.798-.994-1.274-1.456-2.268h3.906c.602 0 1.092.028 1.526.084v-.952c-.35.056-.784.084-1.526.084h-4.382v-1.358h3.108c.84 0 1.148.014 1.484.056v-.896c-.336.042-.658.056-1.484.056h-3.108v-1.316h3.878c.7 0 1.12.014 1.512.07v-.924c-.378.056-.826.084-1.54.084h-3.85v-.322c0-.574.014-.84.084-1.218H79.37c.056.336.084.616.084 1.218v.322h-3.598c-.7 0-1.148-.028-1.512-.084v.924c.364-.056.798-.07 1.484-.07h3.626v1.316h-2.898c-.784 0-1.106-.014-1.428-.056v.896c.308-.042.63-.056 1.428-.056h2.898v1.358h-4.13c-.798 0-1.19-.014-1.554-.084v.952c.42-.056.924-.084 1.554-.084h3.374c-1.26 1.302-2.94 2.31-5.054 3.038.294.336.434.532.56.798 1.498-.672 2.226-1.078 3.332-1.862v2.786zm10.318-8.386c.322-.042.546-.07.728-.07 2.268-.126 2.59-.154 4.522-.392.182.266.252.378.476.728l.686-.434c-.658-.938-1.19-1.596-1.862-2.296l-.644.378c.42.42.574.588.91 1.036-1.204.112-1.582.14-2.828.182.392-.574.63-.98 1.162-1.918l-.924-.252c-.238.742-.504 1.246-1.134 2.198-.294.014-.35.014-.49.014-.308 0-.476-.014-.7-.028l.098.854zm1.61 4.13h3.15v.728c0 .308-.07.364-.49.364-.322 0-.714-.042-1.204-.112.126.266.168.476.182.756.336.014.644.028.854.028.462 0 .868-.056 1.078-.154.238-.098.364-.392.364-.868v-3.038c0-.7.014-1.078.056-1.4-.308.042-.644.056-1.232.056H89.87c-.574 0-.938-.014-1.246-.042.028.308.042.546.042 1.148v3.024c0 .686-.014 1.05-.07 1.428h.924c-.042-.322-.056-.658-.056-1.344v-.574zm0-.644v-.84h3.15v.84h-3.15zm0-1.484v-.84h3.15v.84h-3.15zm5.992-3.878c0-.462.014-.686.084-1.008h-.994c.07.322.084.574.084 1.036v2.142c0 .798.448.98 2.394.98 1.624 0 2.1-.056 2.408-.294.336-.238.462-.602.56-1.638-.378-.112-.42-.14-.798-.35-.07 1.554-.098 1.568-1.75 1.568-.91 0-1.582-.042-1.75-.098-.196-.07-.238-.14-.238-.35v-.672c1.064-.224 1.47-.322 2.394-.602.504-.168 1.456-.518 1.876-.7l-.672-.686c-.658.462-1.946.938-3.598 1.288v-.616zm-.042 4.62c0-.462.014-.714.084-1.008h-.994c.07.322.084.574.084 1.036v2.058c0 .784.462.966 2.492.966 1.554 0 2.142-.084 2.464-.35.28-.252.378-.546.49-1.596-.364-.098-.448-.14-.798-.35-.042.896-.112 1.232-.28 1.372-.182.14-.574.182-1.82.182-1.47 0-1.722-.07-1.722-.434V30.1c1.54-.322 2.562-.602 3.542-1.008.35-.14.392-.154.56-.21l-.63-.686c-.616.448-1.96.91-3.472 1.204v-.378zm-6.832 6.762c.756-.938 1.022-1.4 1.512-2.646l-.784-.364c-.406 1.12-.7 1.582-1.498 2.478l.77.532zm2.506-3.094c.07.336.084.616.084 1.022v1.232c0 .84.322.938 3.024.938 1.68 0 2.324-.07 2.632-.294.336-.252.504-.728.602-1.75-.35-.084-.56-.154-.868-.336-.014.686-.098 1.092-.238 1.288-.168.252-.644.308-2.506.308-1.526 0-1.806-.056-1.806-.364v-1.092c0-.42.014-.63.084-.952h-1.008zm9.086 2.506c-.532-.938-.994-1.554-1.834-2.506l-.7.364c.728.812 1.218 1.554 1.764 2.618l.77-.476zm-4.662-1.484c-.7-.616-1.134-.938-1.89-1.344l-.588.49c.728.392 1.218.784 1.862 1.428l.616-.574zm8.778-6.818h-1.316v-2.03c0-.532.014-.812.056-1.064h-.924c.042.252.056.602.056 1.106v1.96c0 .294-.014.56-.028.826.322-.014.56-.028.98-.028h1.176v1.876h-1.484c-.602 0-.924-.014-1.246-.056v.882c.308-.042.476-.042.924-.056-.014 1.666-.028 1.722-.154 2.632-.154 1.078-.378 1.75-.84 2.408.28.182.392.28.672.616.854-1.372 1.092-2.646 1.12-5.656h1.008v4.2c0 .756-.014 1.134-.084 1.554h.98c-.056-.42-.07-.798-.07-1.54v-9.59c0-.756.014-1.106.07-1.54h-.98c.07.406.084.77.084 1.526v1.974zm5.11-1.708v3.332h-2.478c-.644 0-.98-.014-1.358-.084v.91c.42-.07.77-.084 1.372-.084h6.062c.672 0 1.064.028 1.428.084v-.91c-.364.056-.742.084-1.358.084h-2.856v-3.332h2.548c.588 0 .98.014 1.372.07v-.882c-.406.056-.77.084-1.414.084h-2.506c0-.574.028-.826.084-1.19h-.98c.056.364.084.63.084 1.19h-2.128c-.658 0-1.05-.028-1.442-.084v.882c.42-.056.77-.07 1.4-.07h2.17zm-2.142.224c-.154.658-.28.924-.588 1.386-.294.462-.504.672-1.008 1.078.238.126.42.28.574.49.588-.518.826-.812 1.176-1.386.308.434.7.812 1.274 1.246.154-.252.266-.406.49-.602-.686-.406-1.05-.728-1.442-1.274.112-.238.168-.364.322-.784l-.798-.154zm4.634-.014c-.168.63-.266.896-.588 1.4-.28.462-.462.658-.924 1.064.308.196.434.308.588.504.518-.532.784-.854 1.106-1.428.406.532.868.938 1.554 1.386.154-.266.28-.42.462-.602-.77-.406-1.26-.826-1.708-1.4.112-.252.154-.378.308-.756l-.798-.168zm-3.766 7.742c0 .21 0 .406-.028.784.28-.014.518-.028.77-.028h1.876c.28 0 .476 0 .882.028-.014-.196-.028-.448-.028-.7v-.868c0-.238.014-.462.028-.798-.266.014-.532.028-.84.028h-1.904c-.336 0-.532-.014-.784-.028.014.336.028.518.028.742v.84zm.686-.924h2.1v1.05h-2.1v-1.05zm-1.792 3.178h5.726v.686h.896c-.042-.364-.07-.826-.07-1.4v-3.486c0-.546.014-.826.056-1.162-.322.042-.63.056-1.19.056h-5.082c-.56 0-.896-.014-1.218-.056.042.378.056.644.056 1.19v3.514c0 .7-.014 1.05-.07 1.33h.896v-.672zm-.014-4.578h5.74v3.85h-5.74v-3.85z"/></g></g></svg>