<svg width="150" height="64" viewBox="0 0 150 64" xmlns="http://www.w3.org/2000/svg"><title>alias</title><desc>Created with Sketch.</desc><g fill="none" fill-rule="evenodd"><g fill="#C57B46"><g><path d="M79.61 7.652h-6.383c-1.512 0-2.688-.056-3.528-.196v3.36c.895-.112 2.127-.168 3.527-.168h16.268c1.456 0 2.688.056 3.612.168v-3.36c-.868.14-2.1.196-3.612.196h-6.748V5.748c0-.784.056-1.484.196-2.156h-3.528c.14.784.196 1.372.196 2.184v1.876zm-7.28 17.22c-1.51 0-2.66-.056-3.64-.168v3.36c.925-.14 2.157-.196 3.64-.196h18.257c1.484 0 2.576.056 3.556.196v-3.36c-.952.112-2.128.168-3.556.168h-5.04c1.092-2.38 2.576-6.328 3.584-9.688.617-1.932.645-2.1.953-2.688L86.47 11.46c-.335 2.912-2.49 9.856-4.2 13.412h-9.94zm.645-12.096c1.344 3.332 2.352 6.972 3.08 10.948l3.136-1.12c-1.287-5.292-1.96-7.532-3.19-10.892l-3.025 1.064zm48.384 14.392c-2.605-1.064-4.51-1.736-7.897-2.744 1.26-1.204 2.044-2.212 2.828-3.64h2.465c1.232 0 2.212.056 3.052.168V18.04c-.672.112-1.316.168-2.324.168H108.73c.673-.98.87-1.232 1.15-1.596h.95c-.11-.616-.14-1.092-.14-2.044v-.784c0-.56 0-.728-.055-1.176 1.456 1.288 2.324 1.876 4.368 2.94 2.016 1.064 3.612 1.652 6.02 2.268.448-1.176.812-1.848 1.484-2.744-1.624-.252-3.836-.84-5.404-1.456-1.288-.476-2.8-1.288-3.78-1.988h5.152c1.456 0 2.352.056 3.276.168V8.884c-.867.112-1.93.168-3.33.168h-7.7V7.064c5.04-.448 5.347-.476 7.447-.756 1.036-.168 1.036-.168 1.54-.224l-2.016-2.716c-3.275.896-10.05 1.54-16.267 1.54L98.68 4.88c.53.924.727 1.344 1.147 2.576 4.312 0 5.516-.028 7.924-.168v1.764h-7.28c-1.315 0-2.49-.056-3.415-.168v2.912c.868-.112 1.932-.168 3.36-.168h4.956c-2.295 1.624-5.375 2.856-8.903 3.64.672.812 1.176 1.652 1.54 2.604 4.564-1.428 7.616-3.052 9.8-5.208-.028.42-.056.728-.056 1.176v.756c0 .84 0 1.12-.083 1.652l-1.148-.14c-.197.588-.477 1.064-1.177 2.1H99.38c-1.01 0-1.68-.056-2.325-.168v2.912c.868-.112 1.848-.168 3.08-.168h3.248c-1.176 1.456-1.512 1.82-2.744 2.996 2.687.504 3.863.784 6.16 1.344-2.493.84-6.02 1.372-8.905 1.372h-.756c.727 1.12 1.035 1.764 1.4 2.856 5.627-.504 9.38-1.428 12.32-3.08 3.05.952 4.927 1.68 8.287 3.164l2.212-2.268zm-8.54-6.384c-.533.952-1.373 1.82-2.66 2.744-3.557-.868-3.557-.868-4.733-1.12.672-.728.896-.98 1.428-1.624h5.964z"/><path d="M80.86 47.256c.924 2.268 2.016 4.172 3.304 5.768 1.988 2.436 4.536 4.284 8.344 5.936.448-1.12.952-1.932 1.848-3.024-2.576-.868-4.144-1.68-6.132-3.164 1.288-1.008 2.492-2.1 3.304-2.912l.644-.644-2.8-1.736c-.672.924-1.848 2.128-3.276 3.22-1.036-1.26-1.652-2.24-2.184-3.444h6.524c1.26 0 2.268.056 3.22.168V44.4c-.756.14-1.624.168-3.22.168h-8.092v-1.792h5.908c1.624 0 2.296.028 3.108.112v-2.8c-.756.084-1.428.112-3.108.112h-5.908v-1.708h7.224c1.512 0 2.38.028 3.136.14v-2.94c-.84.112-1.792.168-3.332.168h-7.028c0-1.26.028-1.708.168-2.408h-3.444c.14.672.168 1.204.168 2.408h-6.58c-1.428 0-2.436-.056-3.276-.168v2.94c.756-.112 1.596-.14 3.136-.14h6.72V40.2h-5.46c-1.624 0-2.296-.028-3.08-.112v2.8c.812-.084 1.484-.112 3.08-.112h5.46v1.792h-7.672c-1.652 0-2.408-.028-3.248-.168v3.024c.952-.112 1.988-.168 3.276-.168h5.292c-2.352 2.1-5.292 3.612-9.016 4.62.812 1.064 1.232 1.792 1.736 2.996 2.632-1.092 4.088-1.82 5.964-3.08v3.836c-1.764.224-2.744.308-3.864.336l.672 3.276c.252-.056.784-.168 1.344-.28.644-.084.644-.084 1.316-.196 1.54-.252 1.652-.28 3.556-.644 3.108-.644 3.752-.784 5.852-1.372v-2.94c-2.464.644-3.64.924-5.796 1.316v-5.768c1.12-1.036 1.372-1.288 2.044-2.1h.168zm17.472-10.08h-.7c-.504 0-.868-.028-1.288-.056l.28 2.716c.84-.112 1.4-.168 1.932-.196 4.256-.28 5.74-.42 8.484-.756.196.364.364.616.672 1.204l2.268-1.204v.98c0 1.092.392 1.68 1.344 2.044.672.252 1.82.336 4.256.336 2.912 0 4.144-.168 4.816-.672.756-.532 1.008-1.344 1.204-3.444-1.204-.224-1.512-.308-2.66-.784-.056 1.456-.14 1.904-.42 2.184-.252.28-.98.392-2.492.392-2.856 0-3.22-.084-3.22-.84v-.7c1.932-.364 2.912-.588 4.592-1.036.672-.196 3.36-1.036 3.864-1.232l-2.184-2.24c-.784.504-1.008.588-2.296 1.092-1.456.532-2.184.728-3.976 1.092v-.504c0-.98.028-1.428.14-2.072h-3.108c.112.644.14 1.204.14 2.212v3.052c-1.288-1.96-2.24-3.22-3.5-4.62l-2.128 1.036c.672.812.896 1.092 1.316 1.652-2.072.196-2.072.196-4.06.28.672-1.008.672-1.008 2.072-3.388l-3.024-.532c-.42 1.316-1.008 2.464-2.044 4.004h-.28zm2.24 10.948h4.984v.476c0 .56-.112.616-1.064.616-.476 0-1.204-.056-1.932-.14.336.812.532 1.512.588 2.24.56.028.868.028 1.064.028 1.288 0 2.268-.14 2.828-.392.868-.42 1.176-.952 1.176-2.184v-5.964c0-1.372.028-2.072.112-2.632-.784.084-1.428.112-2.492.112h-5.824c-.868 0-1.428-.028-2.212-.112.056.672.084 1.176.084 2.24v6.272c0 1.344-.028 2.072-.14 2.94h2.94c-.084-.672-.112-1.204-.112-2.436v-1.064zm0-1.876v-.98h4.984v.98h-4.984zm0-2.856v-.924h4.984v.924h-4.984zm9.212-.616c.112.616.14 1.204.14 2.212v4.004c0 1.932 1.008 2.38 5.18 2.38 3.192 0 4.648-.196 5.348-.728.784-.56 1.008-1.288 1.204-3.5-1.232-.224-1.624-.308-2.688-.756-.084 1.512-.196 2.044-.504 2.268-.336.224-.812.28-3.08.28-2.212 0-2.632-.14-2.632-.84v-.924c2.912-.504 5.208-1.036 6.916-1.624.728-.252.756-.252 1.204-.364l-2.016-2.24c-1.148.784-3.5 1.54-6.104 1.96 0-1.092.028-1.456.14-2.128h-3.108zM98.696 58.848c1.484-2.044 2.072-3.192 2.884-5.684L99.06 52.1c-.784 2.24-1.372 3.22-2.94 5.012l2.576 1.736zm4.06-6.944c.112.644.14 1.176.14 1.96v2.884c0 1.932.784 2.24 5.656 2.24 4.2 0 5.46-.112 6.216-.532.896-.532 1.288-1.596 1.456-4.06-1.148-.168-1.848-.392-2.884-.868-.028 1.344-.14 2.016-.364 2.352-.308.42-1.204.532-4.088.532-2.66 0-3.108-.112-3.108-.7v-2.184c0-.7.028-1.036.14-1.624h-3.164zm19.04 5.18c-1.036-1.904-2.044-3.36-3.64-5.236l-2.408 1.176c1.316 1.596 2.324 3.276 3.388 5.628l2.66-1.568zm-9.576-3.304c-1.036-1.176-1.68-1.792-3.08-2.912l-2.016 1.428c1.26 1.064 1.932 1.792 2.996 3.136l2.1-1.652zm37.268-18.62c-.84.112-1.596.168-2.94.168h-4.172c0-.84.056-1.372.168-1.988h-3.22c.112.616.14 1.064.168 1.988h-3.416c-1.4 0-2.072-.028-2.94-.168v2.8c.644-.084.98-.084 2.1-.112-.504 1.876-1.26 3.108-2.52 4.172.588.336 1.148.812 1.596 1.484-.756-.028-1.036-.056-1.624-.14v2.884c.756-.112 1.4-.14 2.548-.14h11.648c1.596 0 2.324.028 3.108.14v-2.884c-.588.084-.952.112-1.736.14.252-.56.784-1.344 1.316-1.96-1.204-.728-2.156-1.484-2.772-2.296.14-.42.168-.504.42-1.4.896 0 1.596.056 2.268.14V35.16zm-1.988 8.344h-3.164c.588-.728.952-1.204 1.484-2.156.756.98 1.484 1.708 2.128 2.156h-.448zm-5.124 0v-5.656h2.352c-.532 1.764-1.12 2.8-2.296 4.06.644.42 1.344 1.12 1.624 1.596h-1.68zm-2.884-5.656v5.656h-4.76c.672-.644 1.008-1.092 1.568-2.044.532.728.98 1.232 1.708 1.876.476-.952.98-1.68 1.456-2.1-.952-.588-1.484-1.092-2.156-1.988.196-.56.252-.784.42-1.4h1.764zm-10.22 2.296h-1.736V36.56c0-1.148.028-1.68.112-2.184h-2.968c.112.56.14 1.316.14 2.436v4.2c0 .644-.028 1.232-.084 1.82.728-.056 1.12-.056 2.072-.056h2.464v2.8h-2.884c-1.316 0-1.876-.028-2.52-.112v2.912c.504-.084.756-.084 1.484-.112-.028 2.884-.056 3.164-.252 4.648-.252 1.96-.616 3.052-1.428 4.34.868.504 1.232.812 2.296 1.988 1.036-1.792 1.484-3.136 1.764-5.488.168-1.344.252-3.136.28-5.488h1.26v7.756c0 1.708-.028 2.352-.14 3.332h3.052c-.112-.84-.14-1.568-.14-3.332V36.784c0-1.988.028-2.548.14-3.332h-3.052c.112.868.14 1.288.14 3.332v3.36zm8.372 13.244c0 .504-.028 1.008-.056 1.512.476-.028 1.036-.056 1.568-.056h3.696c.532 0 1.092.028 1.708.056-.028-.392-.056-.84-.056-1.4v-1.708c0-.532 0-.812.056-1.512-.448.028-1.092.056-1.68.056h-3.724c-.616 0-1.12-.028-1.568-.056.028.448.056.98.056 1.484v1.624zm2.044-1.344h2.716v1.12h-2.716v-1.12zm-3.22 6.132h9.212v1.176h2.968c-.084-.952-.14-1.904-.14-3.08v-6.86c0-1.148.028-1.736.112-2.408-.7.084-1.288.112-2.352.112h-10.164c-1.036 0-1.792-.028-2.492-.112.084.756.112 1.204.112 2.464v6.944c0 1.624-.028 2.268-.112 2.94h2.856v-1.176zm-.028-8.736h9.24v6.272h-9.24V49.44z"/></g><g><path d="M16 34c0-11.866 11.16-21.56 25.066-21.98C37.266 7.23 30.153 4 22 4 9.85 4 0 11.163 0 20c0 4.97 3.114 9.408 8 12.343V43.02c0 .814.936 1.272 1.58.772l6.943-5.396C16.18 36.976 16 35.506 16 34"/><path d="M42 16c-12.15 0-22 8.06-22 18s9.85 18 22 18c.768 0 1.526-.033 2.273-.096l10.148 7.888c.644.5 1.58.042 1.58-.773V47.885c4.886-3.302 8-8.296 8-13.886 0-9.94-9.85-18-22-18zm11.76 28.57L52 45.76v7.085l-6.508-5.06-1.56.134c-.63.053-1.28.08-1.932.08-9.926 0-18.002-6.28-18.002-14S32.074 20 42 20c9.925 0 18 6.28 18 14 0 4.037-2.274 7.89-6.24 10.57zM52 31c-1.657 0-3 1.344-3 3 0 1.657 1.343 3 3 3 1.656 0 3-1.343 3-3 0-1.656-1.344-3-3-3zm-20 0c-1.658 0-3 1.344-3 3 0 1.657 1.342 3 3 3 1.655 0 3-1.343 3-3 0-1.656-1.345-3-3-3zm10 0c-1.658 0-3 1.344-3 3 0 1.657 1.342 3 3 3 1.656 0 3-1.343 3-3 0-1.656-1.344-3-3-3z"/></g></g></g></svg>