<svg width="150" height="57" viewBox="0 0 150 57" xmlns="http://www.w3.org/2000/svg"><title>claim-hovered</title><desc>Created with Sketch.</desc><g fill="none" fill-rule="evenodd"><g fill="#96562A"><path d="M89.652 11.876c-.504 1.708-1.708 3.696-3.388 5.628-.784-1.988-1.26-4.032-1.596-6.944h5.936c1.176 0 2.072.056 2.884.168V8.796c-.812.112-1.624.168-2.8.168H84.5c-.168-2.072-.224-3.276-.224-5.18 0-1.4.028-1.988.168-2.604h-2.128c.112.672.14 1.036.168 2.072.056 3.22.084 3.696.252 5.712h-6.608V4.12c1.4-.448 2.184-.7 3.472-1.204.616-.224.616-.224.728-.252l.504-.168L79.768.928c-1.596 1.204-6.58 2.632-10.864 3.136.364.532.588.98.784 1.54 1.848-.308 2.772-.504 4.676-1.008v4.368h-2.94c-1.26 0-2.156-.056-2.884-.168v1.932c.812-.112 1.708-.168 2.884-.168h2.94v4.956c-3.304.756-4.956 1.064-5.88 1.064l.476 1.932c.504-.196.812-.252 1.456-.392.868-.168 1.148-.224 3.948-.924v5.852c0 .504-.14.616-.728.616-.98 0-1.96-.084-3.528-.308.28.7.392 1.204.448 1.932 1.148.084 2.24.14 3.136.14 1.82 0 2.436-.476 2.436-1.932v-6.72c1.876-.504 2.716-.756 5.096-1.54l-.084-1.652c-2.184.756-2.968 1.008-5.012 1.512V10.56h6.748c.392 3.136 1.064 5.852 2.128 8.316-2.184 2.072-4.396 3.472-7.672 4.732.672.588.924.924 1.288 1.54 3.052-1.4 5.124-2.744 7.168-4.676 1.708 3.136 3.668 5.096 5.124 5.096.756 0 1.344-.448 1.764-1.344.42-.868.644-1.764 1.036-3.836-.588-.336-.924-.588-1.512-1.204-.448 3.024-.868 4.396-1.4 4.396-.784 0-2.408-1.904-3.724-4.396 1.26-1.428 2.464-3.108 3.416-4.928.308-.56.56-.952.896-1.428l-1.736-.952zm-3.416-9.184c1.988 1.904 2.8 2.856 4.172 4.732l1.344-1.148c-1.372-1.82-2.52-3.024-4.256-4.508l-1.26.924zm14.7 5.012c.644-1.484 1.316-3.416 1.792-4.984.168-.616.196-.728.364-1.204L101.188.9c-.028.7-.308 1.876-.728 3.192-1.12 3.528-2.744 6.468-4.9 9.016.504.392.84.868 1.176 1.54 1.26-1.652 1.904-2.688 2.604-4.228-.084 1.232-.112 2.128-.112 3.388v8.624c0 1.484-.056 2.408-.168 3.444h2.016c-.112-.812-.14-1.68-.14-3.36V7.704zm4.536 18.172c-.112-.644-.14-1.428-.14-3.08V11.288h3.22c1.12 0 1.736.028 2.52.112-.056-.756-.056-1.456-.056-2.632V4.316c0-1.176 0-1.764.084-2.632-.728.084-1.344.112-2.436.112h-2.688c-1.064 0-1.708-.028-2.464-.112.056.924.084 1.82.084 3.136v17.92c0 1.428-.056 2.24-.14 3.136h2.016zm-.14-20.104V3.224h4.116v2.548h-4.116zm0 1.4h4.116v2.66h-4.116v-2.66zm10.108-5.376c-1.176 0-1.904-.028-2.632-.112.056.756.084 1.512.084 2.632v4.48c0 1.064-.028 1.792-.084 2.604.756-.084 1.4-.112 2.548-.112h3.528v11.9c0 .644-.168.756-1.148.756-.784 0-1.624-.084-2.94-.252.308.728.392 1.064.504 1.82.784.056 1.568.084 2.408.084 2.324 0 2.884-.42 2.884-2.296V4.82c0-1.568.028-2.24.14-3.136-.756.084-1.484.112-2.604.112h-2.688zm3.444 3.976h-4.424V3.224h4.424v2.548zm0 1.4v2.66h-4.424v-2.66h4.424zm9.016-2.128h-.812c-.476 0-1.288-.028-1.68-.084.084.7.112 1.344.112 2.66v14.196c0 1.652-.028 2.688-.14 3.416h1.876v-2.464h5.46v1.792h1.848c-.084-.672-.14-1.624-.14-2.884V7.424c0-1.008.028-1.736.084-2.464-.112 0-.924.028-2.464.084h-1.82c.532-1.232.896-2.268 1.428-3.864l-1.988-.364c-.252 1.484-.588 2.66-1.204 4.228h-.56zm-.644 1.54h5.46v6.244h-5.46V6.584zm0 7.784h5.46V21.2h-5.46v-6.832zm19.88-7.7c-.028 4.116-.056 6.048-.196 8.288-.196 3.752-.56 6.44-1.036 7.728-.336.896-.728 1.148-1.764 1.148-1.008 0-2.268-.14-3.976-.476.308.7.42 1.176.476 1.988 1.792.14 2.548.196 3.584.196 1.652 0 2.548-.504 3.108-1.792 1.008-2.24 1.372-5.992 1.624-17.08.028-1.036.028-1.26.112-1.764-.56.084-1.344.112-2.464.112h-6.776c.42-1.092.672-1.736 1.064-2.856.196-.588.308-.896.392-1.064l-1.932-.364c-.056.616-.336 1.652-.728 2.716-1.036 2.856-2.408 5.236-4.116 7.056.476.308.98.784 1.344 1.26 1.456-1.876 2.268-3.164 3.22-5.096h8.064zm-3.388 10.556c-1.484-2.996-2.66-4.844-4.424-6.972l-1.428.868c1.624 1.96 2.688 3.724 4.256 7.084l1.596-.98z"/><path d="M86.412 39.86v4.872c-1.036-.56-1.652-.896-3.416-1.736l-.896 1.316c2.044.952 2.8 1.372 4.312 2.296v6.58c0 1.12-.056 1.876-.168 2.772h2.044c-.14-.812-.196-1.68-.196-2.8v-5.488c1.232.84 1.848 1.316 3.332 2.632l.98-1.568c-1.932-1.484-2.744-2.044-4.312-3.024V39.86h2.24c.98 0 1.708.028 2.548.14v-1.96c-.756.112-1.456.168-2.604.168h-9.268V34.512c3.92-.392 6.72-.98 9.996-2.128.28-.084.504-.168.896-.308l-1.456-1.54c-.784.476-1.988.952-3.528 1.344-2.184.588-5.46 1.092-7.196 1.092h-.616c.112 1.036.168 2.184.168 3.444 0 5.012-.168 8.876-.532 11.368-.448 3.276-1.148 5.236-2.492 7.168.56.336.812.56 1.4 1.232 2.352-3.64 3.164-7.588 3.332-16.324h5.432zm-17.808-6.384c.616-.084 1.204-.112 2.016-.112h3.696c.784 0 1.4.028 2.016.112v-1.764c-.644.112-1.092.14-2.016.14H70.62c-.924 0-1.4-.028-2.016-.14v1.764zm-1.288 3.92c.728-.084 1.26-.112 2.24-.112h5.684c.952 0 1.456.028 2.016.112v-1.82c-.616.112-1.092.14-2.24.14h-5.46c-1.064 0-1.596-.028-2.24-.14v1.82zm1.26 3.864c.616-.084 1.008-.112 1.904-.112h3.892c.812 0 1.176.028 1.848.112v-1.708c-.56.084-.896.112-1.848.112H70.48c-.98 0-1.288-.028-1.904-.112v1.708zm0 3.864c.588-.084 1.008-.112 1.876-.112h3.892c.868 0 1.316.028 1.876.112v-1.708c-.504.084-.952.112-1.876.112H70.48c-.952 0-1.344-.028-1.904-.112v1.708zm1.68 10.808V54.28h4.816c.14.028.308.028.476.028.336 0 .42 0 .7.028-.028-.532-.056-1.008-.056-1.82V49.38c0-1.036.028-1.568.084-2.184-.504.084-.756.084-1.68.084h-4.284c-1.036 0-1.288-.028-1.792-.112.084.728.112 1.428.112 2.296v3.752c0 .868-.056 1.904-.14 2.716h1.764zm-.028-7.224h4.424v4.116h-4.424v-4.116zm36.82-11.256V53.16c0 .644-.224.784-1.288.784-1.036 0-2.296-.112-3.668-.336.28.728.364 1.12.448 1.848 1.148.112 2.408.168 3.528.168 2.156 0 2.772-.476 2.772-2.1v-8.26c-.028-.84-.14-3.864-.168-4.648.616 1.904 1.008 2.744 1.792 4.116 1.064 1.904 2.352 3.612 3.808 5.124 1.68 1.708 2.828 2.632 4.872 3.892.448-.7.812-1.148 1.316-1.652-2.072-1.092-3.248-1.904-4.816-3.388-1.12-1.036-2.016-2.072-2.968-3.332 1.512-1.232 2.94-2.548 3.864-3.584 1.456-1.596 1.456-1.596 1.652-1.82l-1.568-1.204c-.896 1.596-2.464 3.304-4.844 5.292-1.316-2.072-2.324-4.368-2.884-6.608h8.26c1.26 0 2.128.056 2.884.168v-1.932c-.784.112-1.624.168-2.884.168h-8.316V33.7c0-1.344.056-2.128.168-2.996h-2.128c.112.812.168 1.652.168 2.996v2.156H98.9c-1.288 0-2.1-.056-2.884-.168v1.932c.784-.112 1.652-.168 2.828-.168h8.204zm4.2-5.432c1.932 1.12 2.744 1.736 4.284 3.276l1.26-1.204c-1.68-1.484-2.352-1.988-4.34-3.164l-1.204 1.092zm-12.572 8.036c1.596 1.568 2.548 2.772 3.808 4.928l1.484-1.176c-1.372-2.044-2.184-3.052-3.92-4.816l-1.372 1.064zm7.084 5.46c-1.848 1.428-3.052 2.212-5.376 3.5-1.82 1.008-2.912 1.484-4.2 1.848l.924 1.904c.476-.308.784-.504 1.372-.812 3.976-2.156 5.124-2.856 7.784-4.76l-.504-1.68z"/><g><path d="M14.87 30.29L43.993 4.81 56.88 36.697 18.518 39.27l-3.647-8.98z"/><path d="M6.116 32.315l7.518-2.015 2.732 10.19-5.462 2.75-4.788-10.925zm2.795 1.18l3.47-.932 1.608 5.995-3.47.93-1.607-5.994z"/><path d="M20.928 36.697l5.783-1.55 3.537 13.188s-3.454 4.46-5.783 1.55c-2.33-2.91-3.536-13.188-3.536-13.188z"/></g></g></g></svg>