<svg width="130" height="64" viewBox="0 0 130 64" xmlns="http://www.w3.org/2000/svg"><title>flyingV</title><desc>Created with Sketch.</desc><g id="Page-1" fill="none" fill-rule="evenodd"><g><g><g><g><g><g id="Group" transform="translate(3 3) translate(4.991 4.958)" fill="#B85442"><path d="M111.23 0l-2.422 41.15H4.694L3.09 0h108.14z" id="Rectangle-24"/><ellipse cx="3.241" cy="2.479" rx="2.421" ry="2.479"/><ellipse cx="7.6" cy="45.278" rx="2.421" ry="2.479"/><ellipse cx="106.871" cy="45.278" rx="2.421" ry="2.479"/><path d="M.82 2.975h111.862L109.05 46.11s-.378 2.4-3.39 1.982c-10.177-1.415-35.44-7.19-48.91-7.19-13.81 0-39.284 5.86-48.666 7.19-2.336.332-3.148-1.983-3.148-1.983L.82 2.974z"/><ellipse cx="110.261" cy="2.479" rx="2.421" ry="2.479"/></g><g><path d="M3.51 12.886C3.095 7.426 7.097 3 12.447 3h104.59c5.352 0 9.335 4.423 8.898 9.886l-3.26 40.71c-.437 5.46-5.03 8.935-10.258 7.805 0 0-31.284-7.333-47.694-7.333-15.31 0-47.885 7.385-47.885 7.385-5.236 1.12-9.816-2.393-10.232-7.856L3.51 12.886z" stroke="#B85442" stroke-width="5"/><path d="M30.118 16.387l4.843-.992V38.45l-4.842 1.24V16.386z" fill="#FEFEFE"/><path d="M18.496 18.37l4.843-.992v23.055l-4.844 1.24V18.37z" fill="#FEFEFE"/><path d="M54.33 23.044l4.843-.708v16.468l-4.842.885V23.043z" fill="#FEFEFE"/><path d="M54.33 15.638l4.843-.243v5.646l-4.842.305v-5.707z" fill="#FEFEFE"/><path d="M46.098 23.125l4.843-.79v18.35l-4.842.987V23.125z" fill="#FEFEFE"/><path d="M38.35 22.842l4.36-.506V34.1l-4.36.63V22.843z" fill="#FEFEFE"/><path d="M67.406 22.336v16.468l-4.843.885V23.043l4.843-.708z" fill="#FEFEFE"/><path d="M70.795 22.336l4.843 2.23v14.238l-4.843.885V22.335z" fill="#FEFEFE"/><path d="M95.008 16.387l4.842-.992V39.69h-4.842V16.386z" fill="#FEFEFE"/><path d="M86.776 23.125l4.842-.79v18.35l-4.842.987V23.125z" fill="#D8D8D8"/><path d="M22.854 15.4c-.08-.003-.16-.005-.242-.005-2.273 0-4.116 1.665-4.116 3.718 0 2.054 1.843 3.72 4.116 3.72.248 0 .49-.02.726-.06-.026-.99-.69-2.295 0-2.916.598-.538 2.354-.506 3.38-.497.007-.08.01-.164.01-.247 0-.083-.003-.166-.01-.247h.495l1.452-3.47h-5.81v.005z" fill="#FEFEFE"/><path d="M86.776 23.125l4.842-.79v18.35l-4.842.987V23.125z" fill="#FEFEFE"/><path d="M79.028 28.195l4.842-.405v9.41l-4.842.506v-9.51z" fill="#FEFEFE"/><path fill="#FEFEFE" d="M16.075 22.832h11.622v3.47H16.075z"/><path d="M85.323 46.63c3.21 0 6.295-3.485 6.295-5.95 0-2.464.062-2.726-3.148-2.726-1.033 0-2.306 4.595-3.147 4.958-.814.35-1.988.213-3.148-.248-1.364-.542-.062 3.966 3.148 3.966z" fill="#FEFEFE"/><path d="M65.71 28.534c.165 0 3.96-1.953 4.117-1.984 1.51-.292 3.874 1.736 3.874-.247 0-2.19-1.408-3.967-3.147-3.967-1.738 0-3.39 1.776-3.39 3.967 0 2.19-3.19 2.23-1.452 2.23z" fill="#FEFEFE"/><path d="M81.45 42.168l4.357 2.48-1.21 1.734-3.875-1.24.727-2.974z" fill="#FEFEFE"/><path d="M109.05 14.403h6.054l-15.01 25.038-3.39-4.957 12.347-20.08z" fill="#FEFEFE"/><path d="M93.07 16.14l6.538-.993v5.206l-6.537.496v-4.71z" fill="#FEFEFE"/><path d="M83.144 31.26c1.21-11.403 4.116-1.997 4.116-4.462 0-2.464-1.843-4.462-4.116-4.462-2.274 0-4.116 1.998-4.116 4.462 0 2.465 2.905 15.866 4.116 4.463z" fill="#FEFEFE"/><path d="M83.144 39.69c2.273 0 4.6-3.18 4.6-4.96 0-.96-2.78 1.583-3.632.993-.726-.504.078-2.48-.968-2.48-2.274 0-4.116 1.444-4.116 3.223 0 1.78 1.842 3.223 4.116 3.223z" fill="#FEFEFE"/><path d="M42.467 39.69c2.273 0 4.116-2.22 4.116-4.96 0-1.775-1.498 1.868-2.664.993-.253-.19-1.065-1.113-1.21-2.23-.22-1.68.236-3.72-.243-3.72-2.274 0-4.117 2.22-4.117 4.958 0 2.74 1.843 4.96 4.117 4.96z" fill="#FEFEFE"/><path d="M40.28 45.146c.37.25 2.442.992 3.874.992 1.023 0 2.7-.314 3.874-.992 1.898-1.094 3.148-2.94 3.148-4.462 0-1.996-1.912-.917-3.874-1.487-.46-.134-1.914 3.47-2.422 3.47-.746 0-1.95.335-2.663 0-1.84-.864-.968 0-1.937 1.488-.664 1.02-.32.774 0 .99z" fill="#FEFEFE"/></g></g></g></g></g></g></g></svg>