<svg width="528" height="630" viewBox="0 0 528 630" xmlns="http://www.w3.org/2000/svg"><title>hand</title><desc>Created with Sketch.</desc><g id="Page-1" fill="none" fill-rule="evenodd"><g fill="#fff"><g><g><g><path d="M55 251.443v-15.8l96.28-146.097c44.902 17.193 90.146 34.642 135.51 51.778 8.216 3.104 15.205 7.048 15.08 16.68-.11 8.325-1.72 16.635-2.716 24.945-1.125 9.368-7.086 14.35-15.668 16.57-17.766 4.592-35.503 9.37-53.45 13.137-3.417.716-8.676-1.935-11.482-4.673-10.433-10.182-20.198-21.05-30.212-31.66.325 13.308 4.09 24.162-2.693 36.548-6.387 11.656-12.775 19.37-27.597 16.986 18.118 7.357 35.606 13.954 53.524 19.036 8.272 2.346 13.12 7.333 17.25 13.812 17.602 27.638 35.056 55.372 52.603 83.048 14.107 22.25 28.27 44.466 42.7 67.153-16.067 7.59-31.333 14.803-46.598 22.016.03.704.065 1.41.1 2.117l42.077 5.09 7.266 147.48c1.47-5.65 3.276-9.7 3.474-13.824 1.715-35.445 3.348-70.896 4.58-106.358.964-27.83-4.394-20.06 22.378-29.31l-106.79-170.154c3.88 0 6.498-.54 8.8.084 25.19 6.83 50.452 13.446 75.42 21.027 8.12 2.468 16.252 6.527 22.954 11.7 15.446 11.92 30.02 24.972 45.207 37.784 24.363-23.315 47.713-45.658 71.592-68.508.226 2.23.626 3.405.41 4.455-6.195 30.25-11.876 60.62-18.903 90.676-4.646 19.858-5.888 41.05-19.405 58.052-6.483 8.157-13.084 16.253-19.034 24.79-6.84 9.824-16.963 17.825-17.18 31.468-.587 36.733-1.328 73.464-2.27 110.19-.332 13.007-1.418 25.995-2.162 38.99h-241.67c.063-3.007-.33-6.105.255-9.008 10.377-51.577 21.06-103.098 31.145-154.732 1.534-7.865 4.608-15.708-1.342-24.393C140.956 379.072 98.072 315.193 55 251.443"/><path d="M499.944 233.384l-98.366 87.89c-13.025-9.565-26.14-19.193-39.786-29.212l93.638-117.768c13.55 15.092 26.006 29.037 38.573 42.887 1.707 1.886 3.948 3.29 5.94 4.918v11.286"/><path d="M237.947.88c12.033 6.78 23.88 13.923 36.14 20.262 20.47 10.577 20.786 10.478 9.33 30.415C272.24 71 260.804 90.3 248.89 109.29c-1.517 2.418-7.367 4.498-9.954 3.498-22.252-8.62-44.215-17.984-67.87-27.792C190.64 56.533 209.776 28.708 228.91.88h9.037"/><path d="M287.78 254.944c13.872-22.205 27.163-44.314 41.293-65.874 15.152-23.125 31.378-45.55 46.54-68.672 5.676-8.656 11.097-11.004 19.4-3.92 15.246 13.014 30.45 26.087 46.012 38.716 6.447 5.23 4.974 10.114.877 15.28-28.932 36.476-57.887 72.936-87.12 109.168-1.474 1.827-6.224 2.917-8.406 1.965-19.537-8.525-38.84-17.585-58.596-26.663"/><path d="M256.718 117.682c18.07-26.21 34.767-50.423 51.697-74.975 22.652 13.38 44.023 25.65 64.837 38.792 2.385 1.508 3.725 9.163 2.082 11.87-20.77 34.232-42.175 68.078-65.55 101.44 1.258-9.637 2.668-19.26 3.716-28.92.682-6.282 2.05-12.874.804-18.846-.85-4.06-4.992-8.922-8.88-10.6-15.48-6.668-31.44-12.228-48.706-18.762"/><path d="M269.82 253.556c-20.42-5.838-41.042-11.737-64.84-18.544l93.19-24.21-28.35 42.754"/></g></g></g></g></g></svg>