<svg width="115" height="36" viewBox="0 0 115 36" xmlns="http://www.w3.org/2000/svg"><title>people</title><desc>Created with Sketch.</desc><g fill="none" fill-rule="evenodd"><g fill="#C57B46"><path d="M10.17 19.58c0-7.495 7.095-13.618 15.934-13.883C23.688 2.67 19.167.632 13.984.632 6.26.632 0 5.156 0 10.737c0 3.138 1.98 5.942 5.085 7.795v6.744c0 .514.595.803 1.004.487l4.413-3.408c-.217-.897-.332-1.826-.332-2.776"/><path d="M26.698 8.21c-7.724 0-13.985 5.09-13.985 11.37 0 6.277 6.26 11.367 13.985 11.367.488 0 .97-.02 1.445-.06l6.45 4.982c.41.314 1.004.025 1.004-.49v-7.03c3.106-2.086 5.085-5.24 5.085-8.77 0-6.28-6.26-11.37-13.984-11.37zm7.475 18.045l-1.12.75v4.476l-4.136-3.195-.99.085c-.4.034-.815.052-1.23.052-6.31 0-11.442-3.967-11.442-8.843 0-4.877 5.133-8.844 11.443-8.844S38.14 14.703 38.14 19.58c0 2.55-1.446 4.983-3.967 6.675zm-1.12-8.57c-1.052 0-1.906.848-1.906 1.894 0 1.045.854 1.894 1.907 1.894s1.907-.85 1.907-1.895c0-1.047-.853-1.896-1.906-1.896zm-12.713 0c-1.053 0-1.907.848-1.907 1.894 0 1.045.854 1.894 1.907 1.894s1.907-.85 1.907-1.895c0-1.047-.854-1.896-1.907-1.896zm6.358 0c-1.054 0-1.907.848-1.907 1.894 0 1.045.854 1.894 1.908 1.894 1.052 0 1.907-.85 1.907-1.895 0-1.047-.855-1.896-1.907-1.896z"/><path d="M57.432 35.364c-.938-1.708-2.058-3.36-3.444-5.082l-.77.476c.98 1.19 1.4 1.764 2.114 2.87-2.156.308-3.5.434-6.188.574.882-1.554 1.918-3.766 2.744-5.824.112-.308.168-.448.224-.574.014-.014.028-.042.042-.07l-1.078-.322c-.112.56-.35 1.26-.812 2.408-.742 1.82-1.33 3.038-2.156 4.424-.462.014-.616.014-.91.014-.252 0-.588-.014-.938-.028l.224 1.092c.434-.084.518-.084 1.596-.154 2.73-.154 5.278-.406 7.7-.784.308.546.462.812.812 1.526l.84-.546zm-7.546-11.55c-.07.462-.322 1.05-.756 1.778-.882 1.47-2.016 2.646-3.668 3.78.294.238.462.448.672.784.868-.658 1.428-1.148 2.086-1.848.868-.924 1.75-2.198 2.352-3.402.224-.448.266-.532.392-.714l-1.078-.378zm3.108.378c.07.098.098.168.21.392 1.358 2.59 2.394 3.822 4.732 5.6.196-.35.35-.56.658-.854-1.386-.938-2.268-1.736-3.08-2.772-.77-.98-1.344-2.002-1.582-2.772l-.938.406zM69.43 27.86c.56 0 .966.014 1.386.042-.028-.252-.042-.518-.042-1.036V25.2c0-.63 0-.84.042-1.12-.434.056-.84.07-1.456.07h-6.23c-.756 0-1.19-.014-1.638-.07.042.532.056.896.056 1.582v8.96c-.756.14-1.246.21-1.61.224l.238 1.008c.154-.056.434-.126.77-.196 2.38-.49 3.57-.812 5.726-1.526l-.028-.868c-1.526.518-2.716.854-4.186 1.176v-3.724l4.116-.056c.364 1.148.812 2.044 1.498 2.996.91 1.274 2.044 2.128 2.814 2.128.742 0 1.106-.63 1.414-2.492-.364-.168-.49-.238-.84-.532-.126 1.4-.336 2.016-.658 2.016-.294 0-.98-.476-1.526-1.064-.812-.868-1.4-1.89-1.778-3.066l2.982-.028c.952 0 .952 0 1.47.042v-.966c-.35.07-.672.098-1.484.098l-3.192.042c-.196-.784-.238-1.106-.322-1.974h2.478zm-3.388 0c.098.812.182 1.316.322 1.988l-3.906.042v-2.03h3.584zm-3.584-2.912h7.434v2.128h-7.434v-2.128zm14.28-.21v.728h-1.246c-.448 0-.7-.014-.994-.056v.7c.322-.042.546-.056.994-.056h3.234c.56 0 .742.014 1.022.042v-.672c-.252.028-.462.042-1.022.042h-1.19v-.728h1.638c.56 0 .728.014 1.022.042v-.714c-.308.042-.588.056-1.036.056h-1.624c0-.42.014-.574.07-.784h-.938c.042.238.056.448.07.784h-1.764c-.504 0-.784-.014-1.106-.056v.728c.336-.042.588-.056 1.106-.056h1.764zm8.162 1.806c-.21.042-.406.056-.854.056H81.05c-.504 0-.616 0-.882-.042v.714c.224-.028.266-.028.672-.042.504.77.77 1.05 1.316 1.498-.882.42-1.568.616-2.646.784.182.224.308.42.406.7 1.26-.294 1.988-.574 2.856-1.05.98.602 1.792.91 3.178 1.218.112-.322.196-.49.392-.756-1.33-.182-1.974-.378-2.926-.882.56-.392 1.19-.952 1.554-1.386.196-.224.294-.336.364-.406l-.434-.406zm-.742.686c-.49.532-.742.742-1.358 1.134-.49-.336-.77-.63-1.134-1.134h2.492zm-8.036 7.392c-.938 0-1.008 0-1.106.014h-.224c-.35 0-.826-.028-1.106-.07l.14.868c.28-.042.49-.056.91-.056 3.528-.056 5.796-.126 8.316-.252 0 .392-.028.644-.084.966h.994c-.056-.336-.084-.602-.084-1.008 1.456-.07 1.456-.07 2.506-.126l.014-.714c-.98.07-.98.07-2.52.154V31.15c.672 0 1.022.014 1.358.056v-.798c-.322.056-.742.084-1.484.084h-7.504c-.672 0-1.078-.028-1.4-.084v.826c.364-.056.588-.07 1.274-.084v3.472zm.84-.826h6.09v.644c-1.862.098-4.144.168-6.09.168v-.812zm0-.602v-.728h6.09v.728h-6.09zm0-1.33v-.714h6.09v.714h-6.09zm1.638-3.038c.532 0 .77.014 1.134.042-.028-.168-.028-.308-.028-.728v-.896c0-.238 0-.392.042-.602-.28.028-.462.028-1.036.028H75.66c-.462 0-.742-.014-1.092-.042.028.182.042.406.042.742 0 1.386-.252 2.17-.938 3.024.336.168.462.266.672.504.546-.756.756-1.26.91-2.072H78.6zm-1.778-1.568v.966h-1.484c.014-.28.028-.504.028-.966h1.456zm.672.966v-.966h1.484v.966h-1.484zm6.034-3.948v1.19c0 .462.224.574 1.232.574 1.246 0 1.428-.154 1.526-1.33-.252-.042-.42-.098-.686-.224-.042.924-.056.938-.826.938-.42 0-.504-.042-.504-.21v-.91c0-.308.014-.518.056-.756-.266.042-.49.056-.952.056h-1.358c-.462 0-.658-.014-.952-.056.014.182.028.364.028.49 0 .854-.364 1.358-1.204 1.694.252.238.364.392.462.63.966-.532 1.358-1.078 1.456-2.086h1.722zm10.388 3.864c-.028.476-.056.784-.112 1.19h-.574c-.644 0-1.078-.014-1.456-.07v.882c.406-.056.784-.07 1.442-.07h.448c-.238 1.092-.63 2.044-1.19 2.94-.574.924-1.106 1.526-2.03 2.268.308.224.462.392.616.658 1.302-1.162 2.114-2.268 2.786-3.808.49.686 1.008 1.218 1.778 1.82-1.078.672-1.974 1.022-3.332 1.33.238.238.364.434.49.756 1.442-.392 2.464-.854 3.556-1.582 1.092.7 2.128 1.148 3.724 1.61.168-.378.252-.546.462-.868-1.512-.308-2.408-.63-3.528-1.246.602-.504 1.386-1.344 1.722-1.848.252-.364.252-.364.336-.462l-.448-.574c-.238.042-.56.056-1.176.056h-3.206c.112-.392.182-.63.266-1.05h4.2c.602 0 1.078.028 1.526.084v-.91c-.364.056-.784.084-1.526.084h-4.06c.056-.42.07-.56.126-1.19h3.906c.546 0 .91.014 1.302.056v-.854c-.35.07-.63.084-1.232.084h-.658c.56-.812.616-.896 1.372-2.352l-.854-.294c-.308.896-.686 1.652-1.358 2.646h-3.976c-.588 0-.938-.014-1.26-.07v.84c.378-.042.77-.056 1.316-.056h.602zm3.934 3.71c-.476.686-.882 1.12-1.568 1.652-.742-.532-1.302-1.05-1.75-1.652h3.318zm-8.414-5.656h-.798c-.392 0-.63-.014-.938-.07v.91c.35-.042.602-.056.938-.056h.798v2.87c-1.218.49-1.428.56-1.904.63l.252.924c.224-.112.364-.168.602-.252.448-.168.462-.182 1.05-.434v4.158c0 .196-.084.266-.378.266-.308 0-.742-.042-1.204-.112.112.322.168.56.182.868.378.028.532.028.826.028 1.162 0 1.442-.182 1.442-.952v-4.634c.504-.238.686-.336 1.232-.63l-.042-.826c-.546.308-.742.406-1.19.602v-2.506h.434c.35 0 .574.014.882.056v-.896c-.28.042-.518.056-.882.056h-.434v-1.358c0-.644.028-1.05.084-1.414h-1.036c.07.42.084.77.084 1.428v1.344zm9.66-2.842c-1.078.49-4.494.938-7.224.938h-.35c.196.364.238.448.294.798 2.59-.07 5.502-.392 7.224-.798.448-.098.448-.098.7-.14l-.644-.798zm-5.082 3.64c-.252-.714-.476-1.162-.868-1.75l-.714.28c.434.602.644 1.022.91 1.778l.672-.308zm2.38-.084c-.252-.812-.434-1.204-.826-1.876l-.714.21c.392.7.616 1.19.812 1.918l.728-.252zm7.896-.014h-1.316v-2.03c0-.532.014-.812.056-1.064h-.924c.042.252.056.602.056 1.106v1.96c0 .294-.014.56-.028.826.322-.014.56-.028.98-.028h1.176v1.876h-1.484c-.602 0-.924-.014-1.246-.056v.882c.308-.042.476-.042.924-.056-.014 1.666-.028 1.722-.154 2.632-.154 1.078-.378 1.75-.84 2.408.28.182.392.28.672.616.854-1.372 1.092-2.646 1.12-5.656h1.008v4.2c0 .756-.014 1.134-.084 1.554h.98c-.056-.42-.07-.798-.07-1.54v-9.59c0-.756.014-1.106.07-1.54h-.98c.07.406.084.77.084 1.526v1.974zm5.11-1.708v3.332h-2.478c-.644 0-.98-.014-1.358-.084v.91c.42-.07.77-.084 1.372-.084h6.062c.672 0 1.064.028 1.428.084v-.91c-.364.056-.742.084-1.358.084h-2.856v-3.332h2.548c.588 0 .98.014 1.372.07v-.882c-.406.056-.77.084-1.414.084h-2.506c0-.574.028-.826.084-1.19h-.98c.056.364.084.63.084 1.19h-2.128c-.658 0-1.05-.028-1.442-.084v.882c.42-.056.77-.07 1.4-.07h2.17zm-2.142.224c-.154.658-.28.924-.588 1.386-.294.462-.504.672-1.008 1.078.238.126.42.28.574.49.588-.518.826-.812 1.176-1.386.308.434.7.812 1.274 1.246.154-.252.266-.406.49-.602-.686-.406-1.05-.728-1.442-1.274.112-.238.168-.364.322-.784l-.798-.154zm4.634-.014c-.168.63-.266.896-.588 1.4-.28.462-.462.658-.924 1.064.308.196.434.308.588.504.518-.532.784-.854 1.106-1.428.406.532.868.938 1.554 1.386.154-.266.28-.42.462-.602-.77-.406-1.26-.826-1.708-1.4.112-.252.154-.378.308-.756l-.798-.168zm-3.766 7.742c0 .21 0 .406-.028.784.28-.014.518-.028.77-.028h1.876c.28 0 .476 0 .882.028-.014-.196-.028-.448-.028-.7v-.868c0-.238.014-.462.028-.798-.266.014-.532.028-.84.028h-1.904c-.336 0-.532-.014-.784-.028.014.336.028.518.028.742v.84zm.686-.924h2.1v1.05h-2.1v-1.05zm-1.792 3.178h5.726v.686h.896c-.042-.364-.07-.826-.07-1.4v-3.486c0-.546.014-.826.056-1.162-.322.042-.63.056-1.19.056h-5.082c-.56 0-.896-.014-1.218-.056.042.378.056.644.056 1.19v3.514c0 .7-.014 1.05-.07 1.33h.896v-.672zm-.014-4.578h5.74v3.85h-5.74v-3.85z"/></g></g></svg>