<svg width="150" height="64" viewBox="0 0 150 64" xmlns="http://www.w3.org/2000/svg"><title>people</title><desc>Created with Sketch.</desc><g fill="none" fill-rule="evenodd"><g fill="#C57B46"><g><path d="M93.05 27.504c-1.875-3.528-4.115-6.916-6.86-10.444l-2.743 1.54c1.596 1.988 2.268 2.912 3.556 4.984-3.724.532-5.712.728-10.136.924 1.428-2.324 3.92-7.448 5.236-10.78.28-.672.392-.896.56-1.232l-3.696-.952c-.308 1.512-.7 2.66-1.624 4.816-1.232 2.912-2.632 5.74-4.116 8.288-.784.028-.952.028-1.596.028-.783 0-1.427-.028-2.043-.084l.56 3.584c.84-.168 1.064-.168 3.276-.308 5.404-.28 10.304-.784 15.148-1.54.505.952.757 1.428 1.457 2.94l3.024-1.764zM76.476 4.096c-.168.98-.616 1.988-1.484 3.472-1.735 2.912-3.835 5.096-6.915 7.224.868.924 1.428 1.652 2.128 2.912 2.044-1.652 2.968-2.492 4.312-4.032 1.82-2.072 3.584-4.648 4.648-6.86.196-.448.196-.448.364-.728.084-.14.112-.224.14-.28.14-.252.14-.252.252-.42l-3.445-1.288zm6.384 1.288l.223.448c.196.364.196.364.28.56.14.308.252.504.308.644.673 1.372 1.54 2.8 2.577 4.228 1.764 2.436 3.276 3.92 6.468 6.468.7-1.316 1.148-2.016 2.072-3.08-1.568-1.036-1.932-1.316-2.66-1.904-1.232-1.064-2.212-2.072-3.08-3.164-1.428-1.792-2.716-4.06-3.108-5.516l-3.08 1.316zm33.655 7.924c1.288 0 2.128.028 3.052.084-.084-.644-.112-1.372-.112-2.576v-3.22c0-1.4 0-1.96.112-2.688-.924.112-1.68.14-3.136.14h-13.41c-1.653 0-2.38-.028-3.39-.14.085.98.14 1.904.14 3.388v17.388c-1.623.224-2.21.308-2.967.308l.672 3.304c.392-.084.504-.112.98-.224.7-.14.7-.14 1.148-.224.448-.112 1.512-.308 2.352-.476 3.276-.672 5.516-1.232 8.708-2.212v-2.968c-3.108.896-4.648 1.26-7.784 1.932v-5.992l7.027-.056c.672 2.24 1.68 4.256 2.996 6.02 1.904 2.492 4.228 4.06 6.048 4.06 1.765 0 2.69-1.596 3.305-5.684-1.064-.504-1.652-.868-2.688-1.652-.336 2.884-.616 3.864-1.064 3.864-.476 0-1.68-.84-2.492-1.708-1.315-1.4-2.24-2.996-2.91-4.928l5.01-.056h.73c.81 0 1.65.056 2.743.14l-.056-3.192c-.84.14-1.484.196-3.416.196l-5.74.084c-.25-1.428-.335-1.96-.39-2.912h4.535zm-7.588 0c.14 1.344.252 2.324.364 2.912l-6.41.056v-2.968h6.047zm-6.048-5.544h13.58v2.884h-13.58V7.764z"/><path d="M73.132 47.508c-.812 0-1.484-.028-2.044-.056.476-1.064.616-1.484.84-2.52h6.384c1.204 0 1.652 0 2.324.084-.056-.336-.056-.756-.056-1.596v-1.764c0-.672 0-1.008.084-1.456-.588.056-.924.056-2.268.056h-6.552c-1.176 0-1.68-.028-2.324-.084.056.448.084.7.084 1.428 0 2.66-.42 4.032-1.68 5.656 1.036.588 1.456.924 2.156 1.736v.84c.7-.112 1.316-.14 2.604-.168v5.992h-2.408c-.7 0-1.512-.056-2.072-.112l.364 2.576c.616-.084.868-.084 1.764-.112.756-.028.756-.028 2.296-.056 4.564-.084 5.432-.112 8.092-.196 2.072-.084 3.276-.14 5.6-.252-.028.896-.056 1.26-.168 1.876h3.192c-.084-.672-.14-1.232-.14-2.016 1.848-.084 3.36-.168 4.508-.252l.028-2.296c-2.24.196-2.24.196-4.536.336v-5.488c1.26 0 1.932.056 2.632.14v-2.436c.476.084.616.112 1.176.196.28-1.092.504-1.652 1.036-2.548-2.128-.056-3.556-.252-5.096-.672 1.036-.756 1.96-1.596 2.716-2.492.392-.448.588-.672.756-.868l-1.204-1.12c-.448.056-.784.084-1.708.084h-6.468c-.924 0-1.148 0-1.652-.056v2.184c.532-.084.812-.084 1.792-.084h.504l-1.624.924c.812.728 1.176 1.008 1.988 1.54-1.372.448-2.408.616-4.088.756.588.7.896 1.316 1.176 2.24 2.212-.42 3.724-.868 5.348-1.652 1.708.756 3.36 1.232 5.236 1.568-.7.084-1.652.14-3.052.14h-15.54zm15.428-5.516c-.7.616-1.232.98-2.044 1.428-.924-.448-1.54-.84-2.156-1.428h4.2zM75.596 54.62H86.32v.672c-3.08.168-3.696.196-10.724.336V54.62zm0-1.68v-.812H86.32v.812H75.596zm0-2.492v-.784H86.32v.784H75.596zm-1.512-8.54v1.232h-1.988c.028-.224.028-.476.056-1.232h1.932zm2.128 1.232v-1.232H78.2v1.232h-1.988zm-2.38-6.468v.924h-2.156c-1.008 0-1.54-.028-2.156-.112V39.5c.616-.084 1.008-.112 2.128-.112h6.86c1.26 0 1.596 0 2.184.084v-1.96c-.56.056-1.036.084-2.156.084h-1.96v-.924h2.66c1.232 0 1.568 0 2.184.084v-2.128c-.728.084-1.316.112-2.24.112h-2.604c.028-.644.056-.924.14-1.344h-3.024c.084.448.084.672.112 1.344h-2.912c-1.064 0-1.652-.028-2.408-.112v2.156c.756-.084 1.232-.112 2.408-.112h2.94zm13.748-.616v1.764c0 .98.616 1.26 2.772 1.26 2.94 0 3.472-.448 3.556-3.052-.84-.14-1.288-.28-2.072-.616-.056 1.68-.056 1.68-1.008 1.68-.7 0-.812-.056-.812-.392v-1.4c0-.644.028-1.064.084-1.54-.504.084-.924.112-2.044.112h-3.332c-.98 0-1.316-.028-1.96-.112.056.42.084.7.084.98 0 .84-.168 1.456-.476 1.988-.308.504-.644.756-1.568 1.148.784.7 1.092 1.12 1.484 1.96 1.876-1.092 2.548-1.96 2.8-3.78h2.492zm21.056 7.672c-.056.56-.084.756-.168 1.512h-.924c-1.12 0-1.932-.028-2.688-.14v2.8c.728-.112 1.484-.14 2.632-.14h.476c-1.064 3.696-2.968 6.636-5.628 8.652V48.18c.84-.336.98-.42 1.876-.784l-.028-2.744c-.896.364-1.232.504-1.848.728v-3.948h.728c.56 0 .924.028 1.456.084v-2.884c-.532.056-.896.084-1.456.084h-.728v-2.324c0-1.4.028-2.072.14-2.856h-3.248c.14.812.168 1.484.168 2.884v2.296h-1.204c-.784 0-1.288-.028-1.932-.14v2.968c.756-.084 1.232-.112 1.904-.112h1.232v4.872c-1.736.56-2.632.756-3.472.812l.588 3.108c.756-.28.756-.28 1.344-.448.672-.196.756-.224 1.54-.504v6.412c0 .616-.14.756-.7.756-.672 0-1.372-.056-2.408-.196.392 1.036.56 1.736.644 2.856.924.056 1.344.084 1.68.084 2.716 0 3.5-.448 3.696-2.1.644.672.924 1.036 1.512 2.044 1.064-.868 1.456-1.26 2.184-2.072.588.812 1.008 1.54 1.344 2.352 2.604-.644 4.592-1.456 6.608-2.716 2.072 1.288 3.668 1.876 7.084 2.744.42-1.26.728-1.988 1.26-3.024-2.576-.308-4.2-.7-5.964-1.456 1.092-.952 2.044-1.988 2.744-2.968.7-.952.7-.952.98-1.26l-1.484-1.82c-.504.084-1.12.112-2.38.112h-5.684c.168-.532.224-.728.364-1.26h7.7c1.204 0 2.436.056 3.22.168v-2.856c-.784.14-1.652.168-3.22.168h-7.224c.084-.588.112-.84.196-1.512h7.168c1.092 0 1.876.028 2.688.112v-2.66c-.616.112-1.148.14-2.184.14h-.644c.7-1.064 1.204-1.904 2.212-3.948l-2.828-.728c-.504 1.736-.98 2.772-2.156 4.676h-3.192l2.044-.756c-.42-1.428-.756-2.212-1.4-3.36l-2.436.756c.672 1.176 1.092 2.156 1.4 3.36h-4.06l1.624-.7c-.308-1.064-.728-1.932-1.4-2.996l-2.38.784c.7.98 1.12 1.82 1.484 2.912h-.14c-.924 0-1.54-.028-2.128-.112v2.632c.756-.084 1.568-.112 2.492-.112h.924zm.42 8.876c.588.7 1.344 1.428 2.464 2.352-1.54.784-3.276 1.344-5.124 1.68 1.092-1.316 1.848-2.464 2.66-4.032zm6.776-1.092c-.644.812-1.148 1.288-2.072 2.016-.98-.7-1.708-1.316-2.436-2.016h4.508zm3.304-18.172c-2.072.896-8.708 1.708-14 1.708h-.924c.532.98.7 1.456.896 2.408 5.32-.168 11.004-.756 15.288-1.568.504-.112.504-.112.756-.14l-2.016-2.408zm30.352 1.82c-.84.112-1.596.168-2.94.168h-4.172c0-.84.056-1.372.168-1.988h-3.22c.112.616.14 1.064.168 1.988h-3.416c-1.4 0-2.072-.028-2.94-.168v2.8c.644-.084.98-.084 2.1-.112-.504 1.876-1.26 3.108-2.52 4.172.588.336 1.148.812 1.596 1.484-.756-.028-1.036-.056-1.624-.14v2.884c.756-.112 1.4-.14 2.548-.14h11.648c1.596 0 2.324.028 3.108.14v-2.884c-.588.084-.952.112-1.736.14.252-.56.784-1.344 1.316-1.96-1.204-.728-2.156-1.484-2.772-2.296.14-.42.168-.504.42-1.4.896 0 1.596.056 2.268.14V35.16zm-1.988 8.344h-3.164c.588-.728.952-1.204 1.484-2.156.756.98 1.484 1.708 2.128 2.156h-.448zm-5.124 0v-5.656h2.352c-.532 1.764-1.12 2.8-2.296 4.06.644.42 1.344 1.12 1.624 1.596h-1.68zm-2.884-5.656v5.656h-4.76c.672-.644 1.008-1.092 1.568-2.044.532.728.98 1.232 1.708 1.876.476-.952.98-1.68 1.456-2.1-.952-.588-1.484-1.092-2.156-1.988.196-.56.252-.784.42-1.4h1.764zm-10.22 2.296h-1.736V36.56c0-1.148.028-1.68.112-2.184h-2.968c.112.56.14 1.316.14 2.436v4.2c0 .644-.028 1.232-.084 1.82.728-.056 1.12-.056 2.072-.056h2.464v2.8h-2.884c-1.316 0-1.876-.028-2.52-.112v2.912c.504-.084.756-.084 1.484-.112-.028 2.884-.056 3.164-.252 4.648-.252 1.96-.616 3.052-1.428 4.34.868.504 1.232.812 2.296 1.988 1.036-1.792 1.484-3.136 1.764-5.488.168-1.344.252-3.136.28-5.488h1.26v7.756c0 1.708-.028 2.352-.14 3.332h3.052c-.112-.84-.14-1.568-.14-3.332V36.784c0-1.988.028-2.548.14-3.332h-3.052c.112.868.14 1.288.14 3.332v3.36zm8.372 13.244c0 .504-.028 1.008-.056 1.512.476-.028 1.036-.056 1.568-.056h3.696c.532 0 1.092.028 1.708.056-.028-.392-.056-.84-.056-1.4v-1.708c0-.532 0-.812.056-1.512-.448.028-1.092.056-1.68.056h-3.724c-.616 0-1.12-.028-1.568-.056.028.448.056.98.056 1.484v1.624zm2.044-1.344h2.716v1.12h-2.716v-1.12zm-3.22 6.132h9.212v1.176h2.968c-.084-.952-.14-1.904-.14-3.08v-6.86c0-1.148.028-1.736.112-2.408-.7.084-1.288.112-2.352.112h-10.164c-1.036 0-1.792-.028-2.492-.112.084.756.112 1.204.112 2.464v6.944c0 1.624-.028 2.268-.112 2.94h2.856v-1.176zm-.028-8.736h9.24v6.272h-9.24V49.44z"/></g><g><path d="M57.236 40.472c-1.998-1.004-7.538-2.51-8.12-4.41 3.587-.47 6.613-1.357 8.15-2.362.833-.546.23-1.695-.338-2.515-1.24-1.796-2.414-5.546-2.414-9.5V18.24c0-5.655-4.847-10.24-10.83-10.24-2.213 0-4.27.63-5.984 1.705 1.5 2.447 2.365 5.323 2.365 8.398v3c.61 1.232.928 2.548.928 3.868 0 2.934-1.47 5.632-4.174 7.71-.372.967-.775 1.96-1.223 2.938.837.172 1.727.322 2.655.443-.304.995-1.96 1.88-3.76 2.64.14.055.344.12.645.176l.174.033.17.047c1.186.336 4.51 1.264 5.636 1.522C46.622 41.74 50.82 46.38 51.874 52H63.85v-2.75c0-4.11-4.16-7.544-6.614-8.778"/><path d="M39.98 44.377c-1.463-.337-5.794-1.57-5.794-1.57-2.276-.435-3.936-1.597-3.936-4.027v-.185c0-.666.003-1.31.036-1.937 1.227-1.774 2.106-4.08 3.027-6.547 2.142-1.35 3.46-3.15 3.46-5.14 0-.99-.33-1.93-.923-2.798v-4.068C35.85 11.42 30.478 6 23.85 6s-12 5.42-12 12.104v4.067c-.593.868-.924 1.81-.924 2.8 0 1.99 1.32 3.79 3.463 5.14.92 2.468 1.798 4.773 3.026 6.547.03.626.035 1.272.035 1.938v.185c0 2.43-1.66 3.592-3.935 4.027 0 0-4.33 1.233-5.794 1.57C3.21 45.417-.15 49.89-.15 54.75V58h48v-3.25c0-4.86-3.356-9.33-7.87-10.373"/></g></g></g></svg>