<svg width="135" height="36" viewBox="0 0 135 36" xmlns="http://www.w3.org/2000/svg"><title>people-selected</title><desc>Created with Sketch.</desc><g fill="none" fill-rule="evenodd"><g fill="#7D2B2D"><text font-family="Hiragino Kaku Gothic ProN" font-size="14" font-weight="313"><tspan x="45" y="35">公民表態牆</tspan></text><g><path d="M10.17 19.58c0-7.495 7.095-13.618 15.934-13.883C23.688 2.67 19.167.632 13.984.632 6.26.632 0 5.156 0 10.737c0 3.138 1.98 5.942 5.085 7.795v6.744c0 .514.595.803 1.004.487l4.413-3.408c-.217-.897-.332-1.826-.332-2.776"/><path d="M26.698 8.21c-7.724 0-13.985 5.09-13.985 11.37 0 6.277 6.26 11.367 13.985 11.367.488 0 .97-.02 1.445-.06l6.45 4.982c.41.314 1.004.025 1.004-.49v-7.03c3.106-2.086 5.085-5.24 5.085-8.77 0-6.28-6.26-11.37-13.984-11.37zm7.475 18.045l-1.12.75v4.476l-4.136-3.195-.99.085c-.4.034-.815.052-1.23.052-6.31 0-11.442-3.967-11.442-8.843 0-4.877 5.133-8.844 11.443-8.844S38.14 14.703 38.14 19.58c0 2.55-1.446 4.983-3.967 6.675zm-1.12-8.57c-1.052 0-1.906.848-1.906 1.894 0 1.045.854 1.894 1.907 1.894s1.907-.85 1.907-1.895c0-1.047-.853-1.896-1.906-1.896zm-12.713 0c-1.053 0-1.907.848-1.907 1.894 0 1.045.854 1.894 1.907 1.894s1.907-.85 1.907-1.895c0-1.047-.854-1.896-1.907-1.896zm6.358 0c-1.054 0-1.907.848-1.907 1.894 0 1.045.854 1.894 1.908 1.894 1.052 0 1.907-.85 1.907-1.895 0-1.047-.855-1.896-1.907-1.896z"/></g></g></g></svg>