<svg width="115" height="36" viewBox="0 0 115 36" xmlns="http://www.w3.org/2000/svg"><title>statement-selected</title><desc>Created with Sketch.</desc><g fill="none" fill-rule="evenodd"><g fill="#7D2B2D"><g><path d="M6.45 20.33L26.007 1.035l9.814 25.47-26.597 1L6.45 20.33z"/><path d="M.418 21.692l5.17-1.387 2.174 8.103-3.723 2.02-3.622-8.736zm1.974 1.003l2.387-.64 1.277 4.767-2.387.64-1.278-4.767z"/><path d="M10.83 25.542l3.98-1.067 2.81 10.487s-2.28 3.42-3.977 1.066c-1.698-2.355-2.812-10.486-2.812-10.486z"/></g><path d="M56.206 27.93v2.436c-.518-.28-.826-.448-1.708-.868l-.448.658c1.022.476 1.4.686 2.156 1.148v3.29c0 .56-.028.938-.084 1.386h1.022c-.07-.406-.098-.84-.098-1.4v-2.744c.616.42.924.658 1.666 1.316l.49-.784c-.966-.742-1.372-1.022-2.156-1.512V27.93h1.12c.49 0 .854.014 1.274.07v-.98c-.378.056-.728.084-1.302.084h-4.634V25.256c1.96-.196 3.36-.49 4.998-1.064.14-.042.252-.084.448-.154l-.728-.77c-.392.238-.994.476-1.764.672-1.092.294-2.73.546-3.598.546h-.308c.056.518.084 1.092.084 1.722 0 2.506-.084 4.438-.266 5.684-.224 1.638-.574 2.618-1.246 3.584.28.168.406.28.7.616 1.176-1.82 1.582-3.794 1.666-8.162h2.716zm-8.904-3.192c.308-.042.602-.056 1.008-.056h1.848c.392 0 .7.014 1.008.056v-.882c-.322.056-.546.07-1.008.07H48.31c-.462 0-.7-.014-1.008-.07v.882zm-.644 1.96c.364-.042.63-.056 1.12-.056h2.842c.476 0 .728.014 1.008.056v-.91c-.308.056-.546.07-1.12.07h-2.73c-.532 0-.798-.014-1.12-.07v.91zm.63 1.932c.308-.042.504-.056.952-.056h1.946c.406 0 .588.014.924.056v-.854c-.28.042-.448.056-.924.056H48.24c-.49 0-.644-.014-.952-.056v.854zm0 1.932c.294-.042.504-.056.938-.056h1.946c.434 0 .658.014.938.056v-.854c-.252.042-.476.056-.938.056H48.24c-.476 0-.672-.014-.952-.056v.854zm.84 5.404v-.826h2.408c.07.014.154.014.238.014.168 0 .21 0 .35.014-.014-.266-.028-.504-.028-.91V32.69c0-.518.014-.784.042-1.092-.252.042-.378.042-.84.042h-2.142c-.518 0-.644-.014-.896-.056.042.364.056.714.056 1.148v1.876c0 .434-.028.952-.07 1.358h.882zm-.014-3.612h2.212v2.058h-2.212v-2.058zm18.41-5.628v7.854c0 .322-.112.392-.644.392-.518 0-1.148-.056-1.834-.168.14.364.182.56.224.924.574.056 1.204.084 1.764.084 1.078 0 1.386-.238 1.386-1.05v-4.13c-.014-.42-.07-1.932-.084-2.324.308.952.504 1.372.896 2.058.532.952 1.176 1.806 1.904 2.562.84.854 1.414 1.316 2.436 1.946.224-.35.406-.574.658-.826-1.036-.546-1.624-.952-2.408-1.694-.56-.518-1.008-1.036-1.484-1.666.756-.616 1.47-1.274 1.932-1.792.728-.798.728-.798.826-.91l-.784-.602c-.448.798-1.232 1.652-2.422 2.646-.658-1.036-1.162-2.184-1.442-3.304h4.13c.63 0 1.064.028 1.442.084v-.966c-.392.056-.812.084-1.442.084H67.42V24.85c0-.672.028-1.064.084-1.498H66.44c.056.406.084.826.084 1.498v1.078H62.45c-.644 0-1.05-.028-1.442-.084v.966c.392-.056.826-.084 1.414-.084h4.102zm2.1-2.716c.966.56 1.372.868 2.142 1.638l.63-.602c-.84-.742-1.176-.994-2.17-1.582l-.602.546zm-6.286 4.018c.798.784 1.274 1.386 1.904 2.464l.742-.588c-.686-1.022-1.092-1.526-1.96-2.408l-.686.532zm3.542 2.73c-.924.714-1.526 1.106-2.688 1.75-.91.504-1.456.742-2.1.924l.462.952c.238-.154.392-.252.686-.406 1.988-1.078 2.562-1.428 3.892-2.38l-.252-.84zm10.108 1.344c-.616 0-1.022-.028-1.344-.07v.924c.448-.056.98-.084 1.54-.084h9.618c.602 0 1.092.028 1.554.084v-.924c-.364.042-.742.07-1.344.07l.28-6.748c.028-.658.056-.994.098-1.372-.28.056-.574.07-.966.07h-1.26c-.434 0-.63-.014-.91-.07v.882c.266-.042.504-.056.896-.056h1.33l-.07 1.918h-1.274c-.406 0-.602-.014-.854-.056v.812c.252-.028.504-.042.854-.042h1.232l-.07 1.792h-1.162c-.392 0-.616-.014-.854-.056v.812c.252-.028.504-.042.854-.042h1.134l-.098 2.156h-2.716l.14-3.906c.014-.532.042-.896.098-1.246-.322.056-.574.07-.98.07h-1.358l.084-1.512h1.624c.336 0 .602.014.854.042v-.84c-.238.042-.462.056-.854.056h-1.582l.028-.364c.028-.42.056-.714.084-.91l-.896-.014c.014.238.028.364.028.56 0 .168 0 .196-.014.378l-.126 2.436c-.014.294-.056.742-.098.924.294-.028.63-.042 1.036-.042h1.316l-.182 4.368h-1.414l.112-2.688c.014-.434.028-.532.084-.896l-.882-.014c.014.154.028.308.028.462 0 .322 0 .35-.014.448l-.112 2.688h-2.632l-.07-2.1h1.204c.336 0 .602.014.854.042v-.812c-.252.042-.476.056-.854.056h-1.218l-.056-1.764h1.274c.336 0 .602.014.854.042v-.812c-.238.042-.448.056-.854.056H76.66l-.042-1.666c.812-.266 1.498-.56 2.24-.938l-.574-.714c-.574.448-1.442.826-2.576 1.092.042.336.07.686.084 1.428l.196 6.09zm2.884 1.036c-.532.518-.896.77-1.484 1.092-.784.406-1.4.63-2.394.882.238.224.42.49.574.798 1.834-.644 2.842-1.204 4.018-2.226l-.714-.546zm3.626.588c1.26.98 2.59 1.666 4.214 2.142.168-.35.182-.392.532-.826-1.638-.364-2.912-.938-4.102-1.862l-.644.546zm9.24-8.988v.728h-1.246c-.448 0-.7-.014-.994-.056v.7c.322-.042.546-.056.994-.056h3.234c.56 0 .742.014 1.022.042v-.672c-.252.028-.462.042-1.022.042h-1.19v-.728h1.638c.56 0 .728.014 1.022.042v-.714c-.308.042-.588.056-1.036.056h-1.624c0-.42.014-.574.07-.784h-.938c.042.238.056.448.07.784h-1.764c-.504 0-.784-.014-1.106-.056v.728c.336-.042.588-.056 1.106-.056h1.764zm8.162 1.806c-.21.042-.406.056-.854.056H96.05c-.504 0-.616 0-.882-.042v.714c.224-.028.266-.028.672-.042.504.77.77 1.05 1.316 1.498-.882.42-1.568.616-2.646.784.182.224.308.42.406.7 1.26-.294 1.988-.574 2.856-1.05.98.602 1.792.91 3.178 1.218.112-.322.196-.49.392-.756-1.33-.182-1.974-.378-2.926-.882.56-.392 1.19-.952 1.554-1.386.196-.224.294-.336.364-.406l-.434-.406zm-.742.686c-.49.532-.742.742-1.358 1.134-.49-.336-.77-.63-1.134-1.134h2.492zm-8.036 7.392c-.938 0-1.008 0-1.106.014h-.224c-.35 0-.826-.028-1.106-.07l.14.868c.28-.042.49-.056.91-.056 3.528-.056 5.796-.126 8.316-.252 0 .392-.028.644-.084.966h.994c-.056-.336-.084-.602-.084-1.008 1.456-.07 1.456-.07 2.506-.126l.014-.714c-.98.07-.98.07-2.52.154V31.15c.672 0 1.022.014 1.358.056v-.798c-.322.056-.742.084-1.484.084h-7.504c-.672 0-1.078-.028-1.4-.084v.826c.364-.056.588-.07 1.274-.084v3.472zm.84-.826h6.09v.644c-1.862.098-4.144.168-6.09.168v-.812zm0-.602v-.728h6.09v.728h-6.09zm0-1.33v-.714h6.09v.714h-6.09zm1.638-3.038c.532 0 .77.014 1.134.042-.028-.168-.028-.308-.028-.728v-.896c0-.238 0-.392.042-.602-.28.028-.462.028-1.036.028H90.66c-.462 0-.742-.014-1.092-.042.028.182.042.406.042.742 0 1.386-.252 2.17-.938 3.024.336.168.462.266.672.504.546-.756.756-1.26.91-2.072H93.6zm-1.778-1.568v.966h-1.484c.014-.28.028-.504.028-.966h1.456zm.672.966v-.966h1.484v.966h-1.484zm6.034-3.948v1.19c0 .462.224.574 1.232.574 1.246 0 1.428-.154 1.526-1.33-.252-.042-.42-.098-.686-.224-.042.924-.056.938-.826.938-.42 0-.504-.042-.504-.21v-.91c0-.308.014-.518.056-.756-.266.042-.49.056-.952.056h-1.358c-.462 0-.658-.014-.952-.056.014.182.028.364.028.49 0 .854-.364 1.358-1.204 1.694.252.238.364.392.462.63.966-.532 1.358-1.078 1.456-2.086h1.722zm15.33 7.154v3.052c0 .378-.098.476-.448.476-.476 0-.952-.042-1.736-.182.14.336.196.574.238.966.868.056 1.078.07 1.386.07.588 0 .91-.056 1.092-.196.252-.196.35-.49.35-1.008V25.41c0-.63.014-1.036.056-1.372-.336.042-.7.056-1.33.056h-3.024c-.63 0-.952-.014-1.358-.056.056.406.07 1.064.07 2.408 0 3.71-.168 5.194-.7 6.468-.434 1.022-.966 1.694-2.002 2.506.336.21.504.364.728.658.854-.742 1.26-1.218 1.694-2.002.434-.798.714-1.638.882-2.646h4.102zm0-3.36v2.576h-4.004c.084-.854.126-1.358.168-2.576h3.836zm0-.784h-3.822v-2.394h3.822v2.394zm-10.528 4.662c0 .56-.028 1.064-.084 1.47h.952v-1.092h2.702v.644h.896c-.028-.406-.042-.686-.042-1.358v-5.894c0-.756.014-1.008.042-1.344-.336.028-.588.042-1.26.042h-1.526c-.938 0-1.288-.014-1.736-.042.042.364.056.728.056 1.344v6.23zm.868-6.734h2.702v2.618h-2.702v-2.618zm0 3.402h2.702v2.926h-2.702v-2.926z"/></g></g></svg>