<svg width="60" height="40" viewBox="0 0 60 40" xmlns="http://www.w3.org/2000/svg"><title>tsu</title><desc>Created with Sketch.</desc><g fill="none" fill-rule="evenodd"><g><g><g stroke="#000" stroke-opacity="0" stroke-width="11.111" fill="#fff"><path d="M.002 0H60v39.015H0z"/></g><g><path d="M29.475 3.883l.452.01.448.037.442.055.435.078.426.1.42.118.41.142.403.157.39.177.383.197.37.215.358.23.35.245.33.265.323.277.31.294.29.31.28.322.26.335.25.346.23.36.212.37.196.383.18.393.156.4.142.41.118.42.1.43.077.434.055.442.037.448.01.456-.01.453-.037.448-.055.444-.078.434-.1.427-.117.42-.142.41-.157.4-.18.394-.195.38-.212.37-.23.36-.25.348-.26.332-.28.322-.29.307-.31.292-.322.28-.33.262-.35.25-.358.23-.37.212-.38.196-.39.178-.404.157-.41.142-.42.117-.426.1-.435.078-.442.055-.448.036-.452.01-.456-.01-.448-.036-.443-.055-.435-.08-.43-.098-.418-.118-.41-.143-.4-.157-.394-.178-.382-.196-.37-.212-.36-.23-.345-.25-.335-.262-.322-.28-.31-.293-.292-.308-.277-.322-.265-.332-.247-.35-.23-.357-.214-.37-.197-.38-.178-.394-.158-.4-.14-.412-.12-.42-.098-.426-.08-.434-.054-.443-.036-.447-.01-.453.01-.456.036-.448.055-.442.08-.435.098-.43.118-.42.142-.41.157-.4.177-.394.197-.383.214-.37.23-.36.247-.346.264-.335.276-.322.293-.31.308-.293.322-.277.335-.265.346-.246.36-.23.37-.216.383-.197.393-.178.4-.158.41-.14.42-.12.43-.1.433-.077.442-.055.447-.037.455-.01z" fill="#fff"/><path d="M38.274 13.518l-1.607.843-1.953.384.02-.058.025-.06.02-.058.018-.06.02-.06.02-.06.018-.06.018-.06.016-.06.015-.064.016-.06.017-.06.015-.064.014-.062.013-.063.012-.063.01-.06.01-.066.01-.063.012-.063.007-.062.01-.066.007-.063.005-.066.008-.066.005-.065.003-.063.005-.065.003-.066v-.07l.003-.065v-.065l-.01-.288-.02-.286-.037-.28-.05-.277-.062-.27-.075-.268-.09-.262-.1-.254-.114-.252-.122-.24-.136-.236-.147-.228-.157-.223-.167-.212-.177-.204-.186-.196-.194-.186-.204-.178-.213-.167-.222-.157-.228-.147-.235-.137-.24-.123-.25-.113-.254-.102-.26-.09-.266-.075-.272-.063-.275-.05-.28-.036-.283-.02-.287-.008-.288.008-.286.02-.28.037-.28.05-.268.063-.267.076-.262.09-.256.1-.25.114-.242.123-.236.136-.23.146-.22.157-.21.167-.205.178-.196.186-.187.197-.178.205-.167.212-.155.223-.146.228-.136.235-.125.24-.113.253-.1.254-.088.262-.076.267-.063.27-.05.276-.036.28-.022.286-.008.288V12.946l.003.034v.066l.002.034.003.035v.034l.003.03.003.034.005.03.003.036-3.132.903-.015-.086-.014-.09-.014-.088-.01-.088-.01-.09-.01-.088-.01-.092-.007-.09-.006-.088-.008-.09-.002-.093-.006-.09-.002-.092v-.092l-.003-.092v-.094l.01-.456.037-.448.055-.442.08-.435.098-.43.118-.42.142-.41.157-.4.177-.394.197-.383.214-.37.23-.36.247-.346.264-.335.276-.322.293-.31.308-.293.322-.277.335-.265.346-.246.36-.23.37-.216.383-.197.393-.178.4-.158.41-.14.42-.12.43-.1.433-.077.442-.055.447-.037.455-.01.452.01.448.037.442.055.435.078.426.1.42.118.41.142.403.157.39.177.383.197.37.215.358.23.35.245.33.265.323.277.31.294.29.31.28.322.26.335.25.346.23.36.212.37.196.383.18.393.156.4.142.41.118.42.1.43.077.434.055.442.037.448.01.456v.1l-.002.052v.047l-.003.05-.002.05-.003.048-.003.047-.002.05-.003.047-.005.05-.003.047-.006.046-.002.048-.006.047-.002.048z" fill="#F58310"/><path d="M37.93 15.335l.022-.065.018-.066.02-.065.02-.066.018-.07.018-.064.016-.068.018-.066.016-.068.015-.068.017-.068.013-.068.016-.068.013-.07.012-.07.013-.07.013-.068.01-.07.01-.068.012-.07.01-.072.01-.07.008-.07.008-.072.008-.07.008-.07.008-.072.005-.07.008-.074.005-.07.003-.074.006-.07-.33.174-.327.163-.323.152-.322.14-.32.124-.316.117-.312.102-.312.094-.308.08-.307.07-.302.064-.3.05-.3.04-.295.03-.293.022-.294.013-.287.002-.29-.005-.285-.016-.282-.023-.283-.03-.277-.04-.278-.047-.275-.055-.272-.063-.272-.068-.27-.076-.267-.083-.268-.09-.26-.093-.263-.102-.263-.107-.227-.092-.23-.087-.234-.078-.235-.073-.24-.066-.24-.06-.247-.056-.246-.047-.248-.04-.253-.034-.254-.028-.256-.024-.257-.015-.26-.01-.26-.003h-.265l-.264.008-.263.016-.267.018-.27.026-.27.032-.27.036-.27.042-.273.05-.273.055-.272.06-.275.066-.274.07-.273.077-.274.082-.275.088-.274.09.013.106.015.105.018.104.018.104.02.105.018.105.02.105.025.102.023.104.024.102.026.102.026.102.03.102.028.102.028.1.032.1.26-.085.263-.078.265-.073.26-.07.263-.064.265-.06.262-.055.262-.05.26-.045.262-.04.26-.036.258-.028.26-.024.26-.018.252-.013.257-.007.253-.003.25.003.25.008.248.016.247.02.246.028.24.03.24.038.238.044.236.05.23.055.228.064.228.068.222.076.217.08.22.087.242.1.24.097.244.092.244.09.243.082.244.076.243.074.246.068.25.063.247.055.25.05.255.04.257.038.26.03.26.02.268.015.27.008.27-.002.28-.007.28-.02.287-.027.293-.034.296-.045.302-.055.31-.065.313-.074.32-.084.327-.095.335-.107.34-.115.348-.13.356-.138z" fill="#2D79BE"/><path d="M36.656 17.892l.042-.06.042-.06.042-.06.042-.06.042-.062.04-.062.038-.06.04-.064.04-.062.038-.063.037-.064.038-.063.036-.063.037-.065.038-.066.034-.064.036-.065.034-.065.034-.065.032-.068.034-.066.03-.068.035-.065.03-.068.03-.068.032-.07.028-.067.028-.068.03-.068.025-.07.03-.07.026-.07-.348.13-.343.117-.335.108-.33.095-.32.086-.318.075-.31.065-.308.055-.298.048-.296.036-.29.028-.283.02-.28.014-.277.003-.27-.003-.267-.01-.264-.02-.26-.025-.254-.03-.254-.04-.25-.043-.245-.052-.24-.055-.24-.06-.24-.066-.235-.07-.233-.075-.234-.08-.228-.083-.227-.09-.227-.088-.225-.094-.212-.086-.215-.08-.216-.072-.22-.068-.22-.06-.222-.056-.225-.05-.228-.044-.23-.04-.23-.03-.234-.027-.233-.02-.238-.017-.24-.01-.242-.003H25.4l-.246.008-.25.01-.25.02-.254.023-.254.026-.26.034-.258.036-.265.045-.264.046-.268.055-.272.06-.272.062-.275.068-.278.073-.28.08-.282.08.04.105.04.104.043.102.042.103.044.102.045.1.047.1.05.1.047.1.05.096.053.097.052.097.052.097.055.094.055.096.055.094.202-.06.2-.055.203-.053.204-.05.205-.044.204-.04.206-.036.21-.03.206-.028.21-.023.21-.02.21-.013.213-.013.214-.006.214-.002.215.002.213.006.22.01.217.016.22.018.22.026.22.03.222.03.225.037.223.043.228.047.225.053.227.055.228.06.23.065.23.07.234.075.235.078.233.076.236.076.233.076.232.07.233.07.232.067.233.064.233.06.233.058.233.052.235.047.233.046.235.04.238.03.24.03.238.02.24.016.24.01.245.003.246-.005.245-.013.248-.02.252-.03.253-.037.257-.044.26-.055.258-.062.265-.074.266-.083.27-.094.272-.104z" fill="#2D79BE"/><path d="M33.885 20.403l.08-.047.084-.05.08-.05.08-.05.08-.052.08-.052.077-.052.08-.055.077-.055.076-.055.076-.055.076-.058.073-.058.076-.06.075-.058.073-.06.07-.063.07-.06.074-.063.068-.063.07-.065.07-.063.067-.066.068-.068.066-.066.066-.068.066-.068.065-.068.063-.07.065-.072.06-.07.063-.07-.25.078-.247.068-.248.062-.243.053-.247.044-.24.036-.242.03-.24.022-.238.016-.238.01h-.238l-.236-.002-.235-.01-.236-.016-.236-.02-.233-.03-.235-.03-.233-.038-.235-.042-.233-.044-.233-.05-.235-.055-.232-.058-.236-.06-.236-.064-.234-.068-.238-.068-.236-.073-.238-.074-.24-.076-.242-.078-.24-.08-.19-.058-.187-.055-.19-.052-.195-.05-.196-.044-.197-.044-.198-.04-.2-.036-.202-.03-.2-.032-.203-.027-.204-.022-.203-.02-.204-.014-.205-.013-.206-.01-.207-.005-.204-.003h-.206l-.207.006-.204.01-.207.013-.204.017-.204.02-.204.024-.202.028-.2.034-.203.034-.2.042-.198.044-.197.047-.196.052.07.102.073.102.073.1.073.1.078.098.076.097.078.098.082.094.08.095.082.094.084.093.086.09.084.088.09.087.085.087.09.083.167-.036.164-.033.168-.03.167-.028.17-.022.166-.02.168-.016.167-.014.172-.007.167-.005.17-.002.167.002.17.006.17.008.17.014.17.015.17.02.17.022.17.025.17.03.17.033.173.037.17.042.173.042.17.046.173.052.173.055.172.058.172.06.173.066.173.07.173.072.154.068.157.063.157.062.156.057.157.057.154.052.157.05.157.046.158.045.157.043.155.04.157.036.157.033.157.028.158.028.157.023.157.022.157.02.156.012.157.013.157.005.157.005.157.003.157-.003.158-.005.157-.01.157-.014.157-.015.154-.02.157-.022.158-.025.157-.032z" fill="#2D79BE"/><path d="M32.785 20.932l-.096.04-.096.036-.097.037-.1.034-.096.033-.098.034-.1.03-.1.033-.1.03-.098.027-.102.027-.102.026-.102.023-.102.024-.102.023-.105.02-.106.02-.102.018-.105.018-.104.016-.108.016-.104.013-.107.014-.104.01-.11.01-.106.01-.107.007-.107.006-.11.005-.108.004-.107.002h-.11l-.204-.002-.2-.008-.2-.01-.198-.016-.2-.02-.196-.025-.196-.03-.194-.033-.193-.036-.19-.042-.192-.047-.188-.05-.186-.052-.183-.058-.183-.063-.183-.065-.178-.072-.18-.073-.175-.076-.175-.083-.17-.083-.17-.09-.168-.09-.165-.095-.164-.1-.16-.1-.16-.108-.157-.107-.152-.113-.15-.115-.15-.118-.147-.12.14-.028.145-.026.147-.02.143-.022.146-.015.148-.017.15-.013.15-.008.15-.005.152-.005h.155l.154.005.154.005.16.01.156.014.16.015.162.022.162.024.165.026.164.03.168.038.17.037.17.044.17.048.175.053.176.056.175.06.178.065.18.07.18.073.185.078.186.085.116.053.117.052.114.05.118.05.115.044.118.045.118.04.118.042.118.04.118.036.118.034.118.032.12.03.118.03.12.03.12.022.12.024.12.02.12.02.12.018.12.015.12.013.124.01.12.01.123.007.12.005.123.003h.123l.123-.002.123-.003.122-.005.123-.008z" fill="#2D79BE"/><path d="M32.005 12.48l.008-.046.013-.048.013-.04.015-.046.016-.04.02-.04.018-.038.02-.04.02-.036.022-.04.02-.036.022-.036.024-.04.02-.04.022-.038.018-.04.026-.055.024-.056.018-.06.018-.063.013-.062.013-.063.008-.063.006-.063v-.124l-.006-.06-.008-.058-.01-.057-.013-.052-.016-.05-.022-.047-.044-.1-.034-.105-.02-.103-.01-.104.004-.102.01-.103.02-.102.032-.1.037-.1.045-.103.05-.096.054-.1.06-.096.066-.094.068-.094.068-.092.052-.073.047-.078.04-.08.036-.085.03-.086.027-.086.023-.09.016-.088.013-.086.007-.087.003-.086v-.084l-.006-.08-.01-.077-.013-.073-.017-.07-.016-.064-.013-.064-.008-.06-.003-.058.003-.055.005-.052.012-.052.013-.052.018-.047.018-.048.025-.047.024-.045.027-.044.03-.045.03-.043.032-.042.022-.045.016-.065.01-.08v-.096l-.007-.106-.012-.11-.024-.117-.03-.118-.04-.116-.05-.113-.058-.106-.065-.095-.073-.085-.083-.065-.095-.05-.103-.026-.062-.01-.06-.008-.056-.01-.056-.01-.052-.01-.052-.012-.047-.013-.05-.015-.045-.018-.047-.02-.043-.025-.047-.026-.045-.032-.044-.036-.044-.04-.047-.047-.035-.027-.04-.03-.046-.023-.054-.018-.057-.016-.06-.013-.064-.008-.066-.005-.065.003-.063.005-.063.01-.06.016-.056.02-.052.027-.045.033-.04.04-.067.072-.076.074-.078.07-.082.07-.083.068-.088.066-.09.062-.09.063-.095.057-.092.055-.09.05-.093.047-.09.04-.088.037-.084.032-.08.025-.087.026-.07.022-.06.018-.048.02-.037.017-.026.018-.02.02-.014.022-.008.027-.005.03-.003.035v.04L29.2 6.7v.058l-.005.063-.01.074-.01.063-.017.063-.016.068-.02.068-.024.07-.026.074-.03.07-.03.072-.037.07-.04.07-.04.067-.046.064-.05.063-.05.058-.058.057-.058.05-.05.04-.05.04-.05.043-.054.045-.05.047-.05.05-.05.055-.05.055-.043.06-.042.065-.042.068-.034.076-.035.08-.026.085-.025.093-.015.097-.01.065-.01.066-.012.07-.01.062-.013.065-.013.063-.016.063-.016.063-.018.06-.02.058-.022.057-.024.056-.026.053-.026.05-.03.048-.035.047-.017.02-.016.017-.018.024-.022.02-.02.027-.024.03-.024.027-.024.032-.026.034-.026.036-.026.04-.03.044-.025.045-.026.048-.026.052-.026.055-.007.016-.008.02-.012.023-.01.024-.013.028-.016.03-.017.028-.018.03-.02.035-.022.032-.02.034-.027.03-.026.033-.026.03-.03.027-.03.027-.02.016-.02.016-.02.02-.027.022-.023.023-.03.027-.025.03-.028.032-.028.035-.03.04-.025.04-.028.044-.026.047-.023.05-.02.053-.022.058-.017.05-.02.05-.017.052-.02.055-.022.053-.02.055-.022.055-.023.055-.028.057-.026.055-.026.058-.03.055-.027.058-.032.055-.03.055-.034.055-.037.062-.032.06-.032.06-.03.06-.025.06-.025.064-.02.062-.022.063-.018.068-.016.068-.014.072-.013.076-.008.078-.01.082-.006.086-.006.092-.005.063-.004.064-.005.068v.066l-.007.068-.002.07-.005.07-.002.072-.003.073-.005.072-.003.073-.002.074-.006.072-.002.073-.003.076v.074l-.003.074-.003.076-.003.073v.436l.004.068v.07l.003.07.002.064.004.066.003.065.005.063.006.06.007.06.01.06.014.064.012.062.018.06.02.066.022.063.024.063.026.065.026.067.032.063.03.065.035.066.037.066.036.066.04.065.04.066.043.065.046.065.047.066.047.064.047.063.052.066.05.063.052.065.054.064.055.063.06.063.057.06.057.063.06.06.053.05.052.052.05.052.054.053.052.052.055.055.053.053.053.055.052.055.052.055.053.055.05.055.052.057.047.055.05.058.047.055.043.057.045.058.044.058.042.055.04.057.036.058.037.058.034.058.032.055.03.058.028.058.023.055.02.058.022.056.016.058.014.055.016.06.018.062.026.065.032.066.034.065.036.066.042.065.042.062.047.06.047.058.05.052.047.05.05.042.05.037.05.03.047.02.032.008.038.003.047.003h.055l.06-.005.063-.008.065-.013.07-.018.064-.022.063-.026.06-.034.058-.04.05-.044.04-.05.033-.06.02-.066.006-.04v-.043l-.005-.05-.01-.053-.014-.055-.016-.057-.018-.058-.02-.06-.023-.06-.02-.058-.024-.057-.02-.055-.022-.053-.02-.05-.016-.045-.016-.04-.013-.033-.01-.037-.013-.04-.01-.04-.01-.046-.012-.045-.008-.045-.005-.047-.008-.047-.003-.047-.003-.05.003-.048.002-.047.005-.045.007-.044.014-.045.013-.036.012-.036.015-.037.016-.036.016-.04.015-.036.015-.04.02-.036.012-.036.015-.037.01-.038.014-.034.01-.034.007-.034.002-.03.002-.03.002-.044.008-.045.008-.04.01-.04.014-.04.013-.036.015-.034.016-.032.02-.03.017-.03.018-.026.018-.024.02-.023.018-.02.016-.02.016-.015.034-.032.03-.034.035-.036.03-.037.032-.036.03-.04.03-.038.03-.042.028-.04.026-.04.026-.043.026-.04.024-.043.023-.04.02-.04.022-.04.03-.055.033-.055.037-.055.036-.053.04-.05.04-.05.043-.047.045-.05.043-.045.047-.044.044-.045.045-.043.043-.042.045-.04.04-.038.043-.037.127-.126.11-.115.094-.11.08-.106.065-.096.052-.092.042-.084.03-.08.024-.074.02-.07.01-.067.007-.06.004-.062v-.055l.002-.052V14.598l.003-.097v-.395l.004-.1.003-.097.005-.097.005-.093.005-.092.01-.09.01-.085.012-.084.015-.076.018-.073.013-.055.017-.053.015-.053.02-.052.014-.05.02-.05.014-.047.02-.05.014-.044.016-.045.016-.045.013-.042.01-.04.01-.04.01-.036.005-.036z" fill="#D09E51"/><path fill="#fff" d="M32.223 11.8l-.003.002-.016.037-.02.038-.022.04-.023.034-.022.036-.02.037-.022.04-.02.036-.022.046-.018.04-.024.046-.015.04-.016.044-.012.044-.016.055-.008.053.163.026.007-.042.01-.04.014-.04.016-.043.015-.04.012-.032.02-.04.02-.033.02-.037.022-.04.02-.036.02-.036.025-.045.02-.038.02-.04.022-.04h-.003l-.147-.072z"/><path fill="#fff" d="M32.275 10.938l.018.045.013.04.01.043.01.058.01.05.004.06-.002.052.002.055-.005.064-.008.058-.013.055-.013.063-.015.057-.018.058-.02.052-.024.053.146.073.028-.057.026-.063.02-.063.02-.068.013-.063.013-.072.007-.068.006-.063.002-.07-.002-.07-.006-.06-.007-.064-.01-.058-.017-.06-.018-.06-.023-.05-.147.073z"/><path d="M32.69 9.254l-.072.094-.068.095-.066.094-.062.102-.058.1-.052.1-.045.108-.04.102-.033.11-.02.11-.014.113-.003.107.01.116.022.11.038.115.047.108.147-.073-.042-.097-.03-.094-.02-.095-.005-.095.002-.097.008-.09.02-.096.03-.094.034-.097.043-.096.048-.094.053-.097.057-.092.066-.093.068-.094.065-.09-.13-.1z" fill="#fff"/><path fill="#fff" d="M32.924 8.018l.016.063.013.066.01.08.003.072v.08l-.003.08-.005.08-.013.085-.016.084-.022.084-.026.082-.03.08-.035.085-.037.076-.042.07-.05.07.13.1.056-.075.053-.087.042-.085.035-.084.034-.09.025-.092.027-.095.015-.094.013-.09.01-.092.003-.09v-.09l-.007-.084-.01-.08-.014-.08-.02-.073-.158.048z"/><path fill="#fff" d="M33.133 7.125l-.03.042-.035.047-.03.044-.033.053-.023.045-.027.053-.018.047-.02.058-.016.06-.01.052-.005.06-.005.063.005.066.008.065.013.07.018.068.157-.047-.012-.062-.013-.055-.008-.055V7.7l.005-.043.01-.053.01-.044.017-.037.017-.047.02-.042.025-.045.023-.037.03-.045.028-.042.03-.042-.13-.1z"/><path d="M32.594 5.865h.003l.084.024.08.04.07.056.065.073.06.088.053.1.05.107.036.11.03.11.023.115.013.102.005.102v.084l-.008.068-.013.055-.01.025.13.1.037-.066.02-.077.012-.094v-.106l-.01-.107-.013-.118-.025-.122-.034-.125-.04-.12-.05-.12-.063-.114-.07-.1-.082-.095-.097-.076-.11-.058-.12-.03h.002l-.026.163z" fill="#fff"/><path fill="#fff" d="M31.75 5.506v.003l.05.05.05.043.046.037.047.034.055.03.05.028.046.02.053.022.05.015.05.012.06.016.052.01.054.008.055.01.062.01.062.01.026-.163-.062-.01-.058-.01-.055-.01-.055-.007-.052-.01-.045-.01-.044-.014-.05-.016-.038-.015-.047-.02-.04-.02-.038-.022-.042-.03-.045-.036-.04-.036-.04-.042v.002l-.12.11z"/><path fill="#fff" d="M31.01 5.517v-.003l.032-.03.037-.025.04-.022.048-.015.052-.014.055-.01.058-.006h.057l.058.002.058.008.052.013.057.016.042.013.034.018.03.02.03.022.12-.11-.04-.036-.05-.037-.06-.03-.063-.022-.057-.015-.068-.013-.068-.008-.074-.008-.073.005-.068.007-.072.01-.068.018-.062.027-.063.03-.053.038-.047.05v-.003l.126.11z"/><path d="M29.603 6.434l.086-.027.086-.034.09-.036.095-.045.09-.047.095-.05.094-.057.098-.06.092-.064.09-.062.09-.068.087-.07.086-.075.08-.07.075-.077.073-.076-.125-.11-.063.07-.075.07-.08.072-.075.064-.08.07-.087.06-.09.064-.09.063-.09.056-.09.053-.088.048-.094.047-.084.04-.087.036-.08.03-.077.026.047.158z" fill="#fff"/><path fill="#fff" d="M29.265 6.908l.01-.076.006-.068.004-.066.002-.047V6.59l.005-.03.004-.01.003-.002.007-.005.02-.015.028-.013.04-.016.054-.015.073-.02.083-.026-.047-.158-.09.027-.067.02-.07.02-.052.022-.047.024-.03.02-.034.037-.024.04-.013.043-.006.032-.005.047v.04l-.004.048.003.05-.007.057-.01.076.162.028z"/><path d="M28.687 8.008l.06-.055.063-.063.052-.06.052-.066.05-.07.042-.07.042-.072.037-.074.034-.075.03-.074.026-.074.024-.076.02-.068.02-.073.015-.062.01-.07-.162-.027-.01.056-.016.066-.013.063-.02.068-.025.065-.027.074-.026.068-.03.065-.036.068-.035.063-.042.068-.04.06-.046.06-.048.056-.053.052-.055.045.105.13z" fill="#fff"/><path d="M28.05 8.953V8.95l.017-.09.02-.085.027-.08.03-.075.032-.073.04-.06.04-.066.04-.05.045-.053.048-.053.048-.044.05-.047.05-.042.05-.04.05-.043.05-.04-.104-.13-.05.04-.05.04L28.43 8l-.055.047-.05.047-.052.055-.052.057-.054.057-.047.068-.046.066-.044.076-.037.078-.036.084-.027.092-.026.097-.015.104v-.003l.16.026z" fill="#fff"/><path fill="#fff" d="M27.734 9.938v-.003l.037-.05.035-.052.03-.058.025-.052.03-.063.02-.058.02-.057.02-.068.017-.063.016-.063.013-.062.013-.073.01-.063.01-.068.01-.066.01-.065-.16-.026-.012.065-.01.066-.01.068-.01.063-.014.056-.014.063-.015.062-.016.063-.017.052-.02.058-.02.057-.02.048-.026.052-.024.047-.028.04-.032.046v-.003l.13.105z"/><path d="M27.37 10.467v.002l.024-.053.026-.052.026-.045.026-.044.027-.04.022-.036.026-.037.02-.03.025-.03.023-.03.027-.028.02-.026.014-.017.026-.03.015-.02.016-.015-.13-.105-.016.02-.016.02-.01.015-.03.026-.02.026-.02.03-.025.028-.023.03-.032.04-.026.037-.03.042-.03.05-.026.045-.027.05-.026.052-.028.057v.004l.15.063z" fill="#fff"/><path fill="#fff" d="M27.046 10.946l.03-.03.04-.038.027-.03.026-.03.025-.032.026-.04.022-.03.02-.035.025-.04.015-.03.016-.028.016-.034.01-.024.008-.018.003-.01.015-.03-.15-.062v.003l-.015.026-.013.03-.01.022-.01.024-.016.027-.016.03-.013.02-.02.034-.022.033-.016.028-.027.033-.026.03-.026.03-.017.018-.032.025.106.13z"/><path d="M26.68 11.46v-.003l.02-.055.02-.05.02-.042.026-.047.023-.04.025-.04.02-.027.03-.037.026-.033.028-.03.023-.022.02-.016.026-.022.026-.028.013-.008.02-.016-.104-.13-.015.015-.028.024-.016.013-.025.02-.03.033-.033.03-.026.033-.026.03-.03.033-.036.05-.026.04-.03.048-.025.047-.026.06-.024.054-.02.06v-.002l.156.057z" fill="#fff"/><path d="M26.276 12.345v.002l.037-.06.03-.055.033-.055.03-.058.03-.06.026-.06.026-.054.026-.057.027-.06.022-.056.018-.053.02-.05.022-.056.018-.053.018-.048.02-.053-.156-.058-.015.047-.02.05-.017.05-.02.056-.022.052-.023.058-.02.055-.022.05-.026.058-.027.055-.026.058-.026.05-.03.058-.03.055-.032.055-.03.05v.003l.14.085z" fill="#fff"/><path fill="#fff" d="M25.978 13.42v-.002l.005-.09.003-.08.01-.08.008-.08.013-.068.013-.07.016-.07.016-.06.02-.062.02-.057.025-.062.026-.06.026-.055.03-.06.03-.056.036-.062-.14-.084-.038.064-.034.065-.03.06-.032.065-.027.06-.026.063-.024.068-.02.065-.022.075-.016.068-.013.07-.013.084-.008.08-.01.08-.008.092-.006.093v-.003l.168.01z"/><path fill="#fff" d="M25.936 15.663l-.008-.066-.002-.063-.006-.065-.002-.066v-.133l-.003-.068V14.7l.003-.077.005-.08V14.402l.003-.073.005-.073.003-.074.003-.073.005-.07.004-.074.003-.07.005-.07.002-.072.006-.067.002-.066.005-.068.003-.064.008-.065-.168-.01-.002.06-.003.07-.005.067-.003.065-.005.068-.002.07-.006.072-.002.07-.003.074-.006.07-.003.074v.073l-.007.074-.002.073-.004.08V14.615l-.003.075-.005.077v.436l.002.068v.07l.006.074.002.065.005.065.003.068.003.06.166-.01z"/><path d="M27.072 17.643v.002l-.058-.057-.057-.063-.058-.06-.058-.063-.055-.063-.053-.06-.052-.067-.05-.063-.052-.065-.045-.06-.044-.063-.046-.066-.042-.063-.042-.065-.042-.065-.036-.06-.037-.066-.037-.066-.03-.06-.035-.067-.032-.063-.022-.057-.026-.07-.024-.06-.02-.06-.02-.065-.015-.055-.013-.062-.013-.054-.01-.06-.008-.056-.004-.057-.167.01.006.063.008.066.01.06.014.07.013.063.022.066.018.066.026.068.024.063.026.063.03.073.03.063.03.063.036.07.036.065.037.066.042.072.042.065.04.066.048.068.047.066.05.068.05.066.052.065.05.063.052.065.056.066.055.062.06.063.056.06.058.063.063.063v.003l.115-.12z" fill="#fff"/><path d="M28.425 19.463v-.003l-.013-.057-.018-.066-.02-.055-.022-.057-.026-.06-.032-.063-.03-.058-.03-.055-.037-.064-.036-.058-.036-.057-.042-.062-.042-.055-.047-.06-.044-.058-.046-.058-.047-.055-.05-.057-.052-.058-.052-.057-.05-.055-.052-.055-.052-.055-.052-.055-.055-.058-.05-.052-.056-.055-.053-.053-.05-.052-.053-.053-.053-.052-.052-.052-.115.12.052.047.05.053.054.052.052.052.053.053.053.055.053.052.05.053.052.055.052.055.053.055.05.055.052.057.042.053.05.057.046.055.045.058.044.057.042.055.042.055.037.053.036.057.036.058.03.052.033.055.028.058.026.052.02.05.022.058.02.055.014.05.013.052v-.003l.162-.03z" fill="#fff"/><path d="M29.003 20.262h.003l-.037-.016-.048-.026-.04-.032-.043-.034-.043-.047-.047-.05-.048-.057-.047-.058-.04-.057-.038-.066-.034-.06-.032-.06-.03-.067-.024-.057-.015-.058-.015-.055-.162.03.016.067.02.068.028.073.032.067.036.07.04.07.044.067.045.068.047.063.047.057.05.055.053.053.055.05.06.04.053.033.06.026.053-.158z" fill="#fff"/><path fill="#fff" d="M29.715 19.953v-.003l-.015.052-.03.048-.025.036-.045.037-.05.034-.052.03-.057.025-.057.018-.063.016-.06.013-.058.007-.06.005-.047-.002h-.037l-.04-.003-.015-.005-.052.157.048.01.04.002.057.005.063-.002.06-.006.068-.01.07-.012.074-.02.073-.024.068-.03.07-.036.065-.044.055-.053.052-.06.04-.075.026-.078v-.003l-.163-.03z"/><path fill="#fff" d="M29.48 19.164l.016.04.018.05.02.047.022.053.018.052.024.058.02.058.024.058.018.063.016.05.016.058.013.05.01.053.006.042v.027l-.005.033.163.03.005-.043v-.063l-.005-.058-.01-.053-.014-.06-.016-.058-.02-.067-.02-.057-.022-.063-.02-.058-.025-.057-.022-.058-.02-.052-.022-.053-.013-.04-.016-.038-.157.057z"/><path fill="#fff" d="M29.417 18.405l-.016.052-.007.055-.005.045-.002.047-.006.055.006.057.002.047.008.047.005.048.01.055.01.044.01.048.01.042.014.04.01.038.016.04.157-.058-.01-.03-.01-.036-.014-.035-.01-.042-.01-.042-.012-.044-.006-.034-.006-.047-.008-.047-.002-.047v-.08l.002-.048.006-.044.008-.034.01-.037-.157-.052z"/><path fill="#fff" d="M29.608 17.857v.019l-.003.03-.007.025-.008.035-.013.034-.006.028-.014.036-.013.037-.02.038-.014.04-.017.036-.016.04-.016.036-.014.036-.013.037-.016.042.157.052.01-.03.014-.038.015-.038.016-.036.015-.04.015-.036.016-.04.018-.036.014-.037.015-.036.016-.044.012-.034.008-.034.008-.045.002-.03.006-.043v.003l-.168-.006z"/><path fill="#fff" d="M29.865 17.3l-.006.002-.014.016-.023.026-.01.013-.027.03-.018.023-.02.026-.02.034-.023.042-.016.03-.02.04-.012.037-.02.05-.01.038-.007.042-.007.058-.005.05.168.005v-.04l.007-.03.008-.043.012-.04.008-.028.013-.037.013-.028.015-.032.015-.02.015-.024.02-.026.017-.023.01-.017.027-.03.007-.01.02-.015-.006.002-.11-.12z"/><path d="M30.294 16.7l-.02.04-.022.04-.02.033-.025.04-.026.043-.025.042-.026.042-.025.034-.028.042-.032.04-.026.033-.032.036-.032.037-.034.036-.026.03-.03.03.108.12.037-.034.038-.037.034-.037.03-.037.033-.037.03-.045.032-.04.03-.04.033-.046.026-.043.027-.042.026-.042.022-.04.026-.05.02-.04.022-.04-.146-.073z" fill="#fff"/><path d="M30.964 15.93l.002-.003-.04.037-.046.044-.042.035-.044.04-.045.043-.048.05-.047.045-.047.048-.045.05-.042.047-.043.052-.042.055-.037.052-.04.058-.033.06-.03.058.145.073.032-.052.03-.05.033-.05.036-.054.038-.044.04-.047.04-.047.045-.05.037-.042.047-.045.042-.038.044-.042.044-.042.047-.044.04-.034.04-.037.004-.003-.116-.12z" fill="#fff"/><path d="M31.602 14.69v.05l-.002.053v.108l-.008.058-.01.06-.016.066-.024.07-.03.074-.038.08-.05.088-.06.09-.078.1-.09.108-.107.113-.126.123.115.12.125-.128.112-.118.1-.112.078-.108.07-.105.056-.095.045-.09.034-.088.023-.076.02-.075.01-.07.01-.07.004-.067v-.055l.003-.052v-.049h-.168z" fill="#fff"/><path fill="#fff" d="M31.697 13.196h.002l-.022.076-.015.078-.01.09-.01.086-.012.09-.007.096-.005.094-.005.097-.003.097-.002.105v.1l-.003.1v.195l-.003.097v.094h.168v-.093l.003-.097v-.197l.002-.1v-.098l.003-.095.002-.097.006-.097.005-.094.003-.086.01-.09.01-.086.012-.078.016-.074.016-.07h.003l-.163-.042z"/><path fill="#fff" d="M31.924 12.468l-.005.026-.01.036-.012.042-.01.04-.01.034-.017.047-.014.044-.016.045-.018.05-.016.047-.018.05-.016.05-.018.053-.016.053-.016.052-.015.058.162.042.01-.053.015-.052.016-.053.02-.052.015-.05.018-.047.016-.046.017-.05.016-.044.016-.045.014-.042.016-.05.01-.04.01-.035.01-.037.007-.046-.163-.026z"/><text fill="#000" font-family="Hiragino Kaku Gothic ProN" font-size="6" font-weight="313" transform="translate(.192 3.88)"><tspan x="18.069" y="23.256">台</tspan></text><text fill="#000" font-family="Hiragino Kaku Gothic ProN" font-size="6" font-weight="313" transform="translate(.192 3.88)"><tspan x="34.333" y="23.412">聯</tspan></text><path stroke-opacity="0" stroke="#000" stroke-width="11.111" fill="#D38D5F" d="M.192 30.764H60v8.523H.19z"/><text fill="#fff" font-family="Hiragino Kaku Gothic ProN" font-size="6.091" font-weight="313" transform="translate(.192 3.88)"><tspan x="9.06" y="32.091">台灣團結聯盟</tspan></text></g></g></g></g></svg>