<svg width="60" height="40" viewBox="0 0 60 40" xmlns="http://www.w3.org/2000/svg"><title>dpp</title><desc>Created with Sketch.</desc><g fill="none" fill-rule="evenodd"><g><path d="M60 26.683v1.102H40.684V40h-1.1V26.683H60z" id="Shape" fill="#fff"/><path d="M60 25.982v.7H39.583V40h-.7V25.982H60zM60 27.785V40H40.684V27.785H60zM60 .025V12.24H40.684V.025H60zM60 13.342v.7H38.882V.026h.7v13.317H60z" id="Shape" fill="#009A00"/><path d="M60 12.24v1.102H39.583V.025h1.1V12.24H60zM28.25 36.07c.487.135 1.387.315 1.8.2.158-1.25-.476-2.153-.4-3.404.035-.575.28-1.2.5-1.902.187-.6.26-1.388.5-1.903.22-.47.756-.92 1.1-1.4.768-1.068 1.28-2.105 1.803-3.305.267-.61.66-1.11.9-1.702.862-2.103.583-4.282 1.702-6.508-.247-.906-.43-1.583-.3-2.403.214-1.357 1.424-2.65 1.5-3.905.055-.87-.627-1.84-.5-2.703.104-.698.96-1.064.9-1.702-.08-.42-.35-.65-.4-1.102-1.44.04-2.08-.722-2.7-1.5-.486.05-1.21-.144-1.402.2-.783 1.453-2.61 1.86-3.904 2.802-.55 1.052-.657 2.276-1.402 3.405-.33.5-.99.774-1.3 1.3-.336.57-.347 1.555-.6 2.304-.347 1.016-1.04 1.887-1.603 2.704-.63.917-1.528 1.764-1.8 2.504-.49 1.317-.326 3.342-.4 5.006-.034.73-.33 1.622-.202 2.203.093.423.6.78.9 1.2.286.402.598.866.802 1.303.302.648.325 1.385.6 1.902.54 1.01 1.862 1.785 2.602 2.804.457.627.69 1.236 1.1 1.902-.247.57-.024 1.297.202 1.702zm31.725-22.027v11.914H38.857v14.018H21.143V25.957H.025V14.043h21.118V.025h17.714v14.018h21.118z" id="Shape" fill="#fff"/><path d="M33.253 3.03c.192-.344.916-.15 1.4-.2.623.778 1.263 1.54 2.703 1.5.048.453.32.68.4 1.102.058.638-.797 1.004-.9 1.702-.128.863.554 1.832.5 2.703-.077 1.254-1.287 2.548-1.5 3.905-.13.82.052 1.497.3 2.403-1.12 2.226-.84 4.405-1.702 6.508-.242.592-.634 1.092-.9 1.702-.525 1.2-1.036 2.237-1.803 3.305-.344.48-.88.93-1.1 1.4-.24.516-.313 1.305-.5 1.904-.22.702-.465 1.327-.5 1.902-.076 1.25.558 2.153.4 3.404-.413.115-1.313-.065-1.8-.2-.227-.405-.45-1.13-.202-1.702-.41-.666-.644-1.275-1.1-1.902-.74-1.02-2.064-1.795-2.603-2.804-.275-.517-.298-1.254-.6-1.902-.204-.437-.516-.9-.8-1.302-.302-.422-.81-.778-.902-1.2-.127-.582.168-1.473.2-2.204.076-1.664-.087-3.69.4-5.006.274-.74 1.172-1.587 1.802-2.504.563-.817 1.256-1.688 1.602-2.703.254-.748.265-1.732.6-2.302.31-.527.97-.8 1.3-1.3.746-1.13.854-2.354 1.402-3.406 1.292-.943 3.12-1.35 3.903-2.803zM21.143 39.975V40h-.7V26.683H.024v-.7h21.118v13.992zM21.143.025v14.018H.025v-.7h20.417V.024h.7z" id="Shape" fill="#009A00"/><path d="M20.442 26.683V40h-1.1V27.785H.024v-1.102h20.417zM20.442.025v13.317H.025V12.24H19.34V.025h1.102z" id="Shape" fill="#fff"/><path d="M19.34 27.785V40H.026V27.785H19.34zM19.34.025V12.24H.026V.025H19.34z" fill="#009A00"/></g></g></svg>