<svg width="60" height="40" viewBox="0 0 60 40" xmlns="http://www.w3.org/2000/svg"><title>npsu</title><desc>Created with Sketch.</desc><defs><linearGradient x1="38.988%" y1="73.021%" x2=".008%" y2="90.501%" id="a"><stop stop-color="#C20F51" offset="0%"/><stop stop-color="#C20F51" stop-opacity="0" offset="100%"/></linearGradient><linearGradient x1="62.151%" y1="26.552%" x2="99.771%" y2="9.073%" id="b"><stop stop-color="#8C8C8C" offset="0%"/><stop stop-color="#8C8C8C" stop-opacity="0" offset="100%"/></linearGradient><linearGradient x1="76.612%" y1="50%" y2="50%" id="c"><stop stop-color="#C20F51" offset="0%"/><stop stop-color="#C20F51" stop-opacity="0" offset="100%"/></linearGradient><linearGradient x1="75.898%" y1="50%" y2="50%" id="d"><stop stop-color="#C20F51" offset="0%"/><stop stop-color="#C20F51" stop-opacity="0" offset="100%"/></linearGradient></defs><g fill="none" fill-rule="evenodd"><g><path fill="#fff" d="M.018.018h59.97v39.968H.018z"/><g><path d="M29.444 28.685c-.257-.265-.314-.286-.773-.286-.27 0-.818.037-1.215.083-.68.077-.736.072-.97-.095-.137-.097-.305-.31-.372-.47-.336-.804.03-2.65.543-2.754.116-.024.476-.12.8-.216.49-.144.71-.164 1.35-.122 1.264.083 1.434.21 1.275.956-.032.157-.06.895-.06 1.64-.004 1.656-.065 1.79-.576 1.263zm.152-.64c.05-.06.077-.29.06-.512-.03-.392-.042-.38-.316-.427l-.283-.024-.01.456c-.01.403.01.466.172.53.25.102.273.1.376-.024zm-1.88-.054c.31 0 .344-.017.254-.124-.073-.09-.187-.11-.398-.076-.233.038-.27.03-.173-.046.092-.07.097-.104.02-.135-.057-.024-.103-.095-.103-.16 0-.123-.15-.15-.29-.052-.074.05-.098.355-.05.622.007.04.096.048.197.02.1-.026.345-.05.542-.05zm.812-.18c.054-.054.098-.22.098-.368 0-.27 0-.27-.414-.27-.255 0-.394.03-.363.082.027.045.12.082.204.082.2 0 .292.15.13.213-.098.036-.108.084-.044.203.095.177.245.2.388.057zm-.615-.896c.254-.136.032-.194-.267-.07-.13.054-.314.073-.41.042-.165-.052-.167-.065-.04-.205.103-.114.114-.186.048-.31-.072-.135-.04-.214.192-.466.153-.167.26-.352.238-.41-.026-.067.057-.127.23-.165.148-.033.31-.116.36-.185.064-.086.142-.104.248-.058.085.037.183.06.216.054.034-.006.062.098.062.233 0 .207.03.245.204.245.226 0 .273.17.09.32-.122.102-.128.226-.02.4.038.058.047.158.023.222-.045.117.143.367.275.367.133 0 .327-.257.33-.435 0-.098.023-.372.05-.608.03-.283.018-.43-.04-.43-.05 0-.07-.05-.045-.116.065-.167-.194-.277-.794-.337-.424-.042-.61-.018-.984.122-.255.096-.555.26-.668.365-.19.176-.334.255-.197.906l.007.715.356-.05c.195-.025.436-.09.535-.144zm.713-.07c0-.105-.14-.105-.204 0-.028.046.006.083.077.083.07 0 .126-.037.126-.082zm-.04-.244c.027-.045-.008-.082-.078-.082s-.127.037-.127.082c0 .105.14.105.205 0zm-.674-.415c-.03-.112-.07-.14-.126-.087-.097.098-.012.37.096.302.04-.025.054-.122.03-.215zm.73-.614c-.06-.035-.13-.03-.157.01-.028.042.02.07.107.066.095-.006.115-.035.05-.075zm-10.115 3.18c-.1-.02-.255-.127-.343-.24-.147-.186-.197-.2-.554-.145-.216.033-.632.065-.924.072-.293.007-.748.077-1.01.156-.454.134-.49.135-.635.002-.313-.284-.205-.36.967-.68.19-.05.367-.13.394-.173.09-.144-.325-.083-1.11.165-.424.134-.874.244-1 .245-.256 0-.376-.193-.246-.398.078-.123.293-.157 1.17-.182.207-.006.348-.135.275-.253-.023-.037-.168-.066-.322-.066-.22 0-.282-.034-.282-.15 0-.083.092-.193.205-.244.238-.108.25-.21.08-.62-.144-.347-.083-.52.265-.748.125-.082.295-.234.377-.338.21-.266.45-.236.79.096.274.266.313.28.577.2.578-.172 1.223-.076 1.223.183 0 .04-.11.114-.245.16-.23.08-.34.234-.167.234.043 0 .18.1.303.225l.225.224-.22.078c-.123.042-.222.103-.222.135 0 .1.5.237.865.237.38 0 .634.172.59.398-.02.11-.182.14-.976.174-.75.03-.985.07-1.11.182-.085.078-.273.183-.416.233-.323.112-.353.28-.036.197.124-.033.434-.054.69-.046.26.008.54-.032.633-.09.14-.09.206-.085.394.028.123.074.28.232.348.35.112.2.11.227-.036.335-.162.12-.19.123-.515.06zm-2.15-1.496c0-.09-.053-.164-.12-.164-.07 0-.124.073-.124.164 0 .09.055.163.123.163s.122-.072.122-.163zm.615-.164c0-.06-.046-.124-.102-.143-.06-.02-.103.038-.103.143 0 .106.042.164.103.143.056-.018.102-.083.102-.143zm.53-.127c0-.065-.035-.118-.08-.118s-.082.076-.082.168c0 .093.037.146.082.118.045-.027.08-.102.08-.167zm-1.225-.69c0-.045-.035-.082-.077-.082-.043 0-.1.038-.128.083-.028.045.007.08.077.08.07 0 .127-.035.127-.08zm.736-.205c0-.152-.077-.152-.282.003-.15.116-.15.12.063.12.14 0 .22-.043.22-.122zm.49.04c0-.044-.034-.08-.076-.08-.043 0-.1.036-.128.08-.03.046.006.083.076.083.07 0 .127-.036.127-.08zm7.336 2.638c-.1-.017-.278-.13-.398-.25-.194-.193-.288-.22-.804-.23-.322-.008-.723.025-.89.073-.255.07-.41.128-.59-.068l-.284-.152-.487.233c-.49.234-.71.236-.798.006-.084-.218.125-.38.42-.324.188.036.275.016.308-.07.025-.065.177-.144.338-.174.348-.065.36-.134.09-.49-.268-.35-.262-.582.02-.757l.25-.158c.015-.01-.02-.09-.077-.182-.084-.133-.083-.19.005-.296.154-.186.082-.218-.268-.12-.203.055-.365.175-.487.36-.347.532-.697.504-.84-.066-.044-.177-.014-.275.13-.43.192-.202.52-.266.61-.117.064.103.425.107.487.006.026-.042.003-.172-.05-.29-.08-.176-.075-.236.033-.343.105-.106.177-.114.385-.04.314.108.485.05.58-.203.095-.248.42-.258.643-.02.14.15.195.162.42.083.447-.156.78.142.368.33-.308.14-.167.23.358.23.393 0 .512.036.696.207.32.297.253.483-.19.515-.196.014-.397-.013-.444-.06-.062-.063-.053-.09.03-.09.102 0 .1-.013-.003-.08-.067-.044-.236-.08-.375-.08-.192-.002-.276.048-.348.206-.14.31-.12.365.14.365.352 0 .455.17.305.504-.186.415-.332.56-.57.56-.118 0-.215.04-.215.09 0 .052.077.07.184.045.164-.04.552.143.464.22-.02.016-.384.074-.812.127-1.032.13-1.172.27-.202.206.404-.028.79-.07.857-.097.28-.107.935-.018 1.114.15.34.32.276.73-.105.666zm-2.236-1.524c0-.018-.056-.054-.123-.08-.067-.025-.122-.01-.122.033 0 .043.055.08.123.08s.124-.016.124-.033zm.852-.1c.07-.027.13-.1.13-.16 0-.14-.217-.066-.278.094-.05.13-.036.137.148.066zm-.934-.277c-.16-.104-.35-.104-.286 0 .027.045.13.08.23.08.145 0 .156-.016.056-.08zm.948-.224c-.057-.056-.212.06-.212.158 0 .054.047.048.125-.016.068-.057.107-.12.087-.14zm-.54-.64c0-.145-.175-.12-.226.032-.018.053.026.097.097.097.073 0 .13-.06.13-.13zm16.76 2.724c-.082-.064-.167-.365-.232-.82-.06-.417-.14-.705-.188-.688-.047.015-.13.21-.188.43-.097.383-.276.61-.48.61-.113 0-.284-.352-.284-.586 0-.12-.037-.154-.13-.12-.07.03-.144.05-.163.05-.02 0-.034.203-.034.45 0 .248-.032.45-.073.45-.09 0-.335-.694-.335-.955 0-.25-.126-.24-.297.02-.158.24-.78.69-.956.69-.227 0-.225-.248.004-.475.194-.192.22-.273.197-.636-.013-.23.016-.568.066-.753.105-.39.04-.752-.133-.752-.07 0-.108-.06-.093-.142.02-.102.14-.158.427-.2.22-.03.438-.095.485-.143.096-.096.38-.114.58-.037.17.066.164.248-.014.353-.102.06-.116.102-.048.147.058.04.106.38.124.88.024.67.053.82.16.84.24.047.37-.19.387-.69.01-.262.034-.537.057-.61.026-.086-.018-.148-.125-.176-.27-.07-.22-.488.09-.75.32-.27.427-.185.387.304-.027.326-.016.355.11.277.076-.047.16-.066.184-.04.06.06-.118.56-.2.56-.067 0-.29.484-.237.515.017.01.11.084.203.163.097.082.23.122.307.093.22-.084.152-.204-.084-.145-.2.05-.19.03.117-.248.32-.29.406-.533.262-.744-.03-.045-.033-.265-.006-.49.043-.35.08-.417.275-.485.347-.12.437.02.308.484-.08.283-.083.4-.012.47.132.133.116.432-.028.552-.216.18-.044.265.417.207.532-.065.768-.002.768.21 0 .122-.058.157-.266.157-.146 0-.4.038-.563.083-.352.098-.395.212-.397 1.03 0 .637-.112.85-.347.664zm-2.19-1.955c0-.238-.138-.175-.252.115-.058.147-.122.303-.142.348-.02.045.06-.007.178-.117.12-.11.216-.265.216-.347zm-.297-.355c.028-.074 0-.122-.073-.122-.067 0-.12.055-.12.122 0 .068.032.123.072.123.04 0 .095-.055.12-.123zm.205-.442c.13-.082.055-.253-.112-.253-.14 0-.23.136-.164.246.062.1.13.1.276.007zm-4.017 2.61c-.028-.023-.172-.18-.318-.35-.42-.49-.322-.956.2-.96.08 0 .202-.036.268-.078.235-.148.007-.18-.554-.076-.503.092-.584.133-.704.356-.326.605-.932 1.008-.958.636-.018-.27.02-.39.162-.51.224-.194.266-.4.134-.656-.158-.306-.154-.482.014-.668.17-.188.087-.283-.156-.178-.272.117-.47.046-.47-.167 0-.2.134-.357.572-.662.157-.11.367-.258.466-.33.155-.115.21-.118.408-.02.176.084.223.157.202.312-.016.11-.063.214-.104.23-.042.015-.12.073-.177.13-.056.055-.144.086-.196.07-.052-.018-.122.012-.156.067-.037.06-.026.076.03.042.093-.058.08.287-.03.836-.07.342.082.47.35.294.1-.065.27-.12.378-.12.433 0 .69-.1.784-.304.122-.268.073-.306-.247-.195-.383.133-.81.118-.81-.028 0-.177.266-.29.683-.29.447 0 .625-.153.625-.54 0-.352.2-.85.343-.848.215.002.35.16.432.504.07.29.122.358.29.377.418.047.572.106.572.22 0 .108-.148.167-.828.33-.16.04-.215.105-.215.25 0 .18.035.2.35.2.366 0 .565.14.487.345-.03.078-.118.107-.25.082-.29-.056-.853.123-1.138.362-.21.175-.216.19-.042.1.245-.13.747-.315.854-.316.042 0 .006.053-.082.12-.15.11-.14.12.136.12.308.004.564.2.564.433 0 .176-.305.878-.385.885-.36.03-1.442.026-1.484-.006zm1.032-.717c.146-.112.266-.235.266-.275 0-.1-.286-.09-.686.025-.385.11-.566.23-.343.23.118 0 .13.025.053.116-.073.09-.07.125.01.157.158.062.402-.025.7-.25zm7.063.725c-.224-.145-.033-.325.375-.35l.393-.026-.027-.34c-.022-.282.005-.36.15-.437.097-.05.247-.165.333-.25.086-.088.21-.158.277-.158.09 0 .103-.047.05-.185-.08-.215-.167-.208-.776.06l-.45.2-.125-.178c-.178-.254-.073-.337.488-.382.053-.005.068-.2.04-.522-.023-.283-.03-.572-.017-.643.025-.13.48-.232 1.046-.232h.27l-.047.41c-.027.224-.024.408.007.408.168 0 .458-.288.458-.454 0-.206.083-.247.654-.32.588-.077.604-.045.553 1.126-.027.634-.013 1.054.038 1.105.055.054.03.167-.07.338-.132.224-.135.267-.03.334.068.042.227.077.353.078.288.002.547.135.547.282 0 .123-.22.235-.33.167-.04-.023-.49-.073-1.003-.112-.828-.06-1.906-.017-2.757.114-.157.024-.337.01-.4-.03zm1.694-.682c-.04-.27-.313-.295-.313-.027 0 .16.042.212.17.212s.162-.045.142-.184zm.648-.272c-.08-.08-.225.043-.225.192 0 .124.01.124.138-.003.077-.076.117-.16.088-.19zm.625.163c.083-.217.057-.28-.114-.28-.12 0-.164.054-.164.204 0 .228.198.28.277.075zm-.175-.555c.312-.014.076-.38-.245-.38-.228 0-.69.32-.62.43.027.046.19.053.384.018.186-.034.402-.064.48-.068zm-.677-.786c.212-.413.216-.582.01-.37-.146.153-.318.693-.22.693.025 0 .12-.146.21-.324zm1.144-.432c.063-.533-.008-.64-.317-.475-.216.116-.22.25-.006.25.09 0 .164.053.164.12 0 .065-.073.158-.163.206-.19.1-.213.29-.046.383.11.06.125.09.13.25.01.226.193-.337.24-.735zm-1.673.08c0-.212-.125-.21-.27.008-.122.185-.12.19.072.164.125-.018.2-.082.2-.17zm.124-.604c0-.14-.2-.228-.372-.162-.097.038-.106.085-.042.206.097.18.414.146.414-.044z" fill="#000"/><g fill="#C20F51"><path d="M17 29.28h.244l.59 1.115V29.28h.176v1.333h-.242l-.592-1.116v1.116H17V29.28"/><path d="M18.75 29.728c-.088 0-.158.034-.21.103-.05.07-.076.164-.076.284 0 .12.026.214.076.283.05.068.12.102.21.102.088 0 .157-.035.208-.104.052-.07.077-.163.077-.282 0-.12-.025-.213-.077-.282-.05-.07-.12-.104-.208-.104m0-.14c.143 0 .255.047.337.14.082.093.122.22.122.386 0 .163-.04.292-.123.385-.082.092-.194.14-.337.14-.143 0-.256-.048-.337-.14-.08-.094-.122-.223-.122-.386 0-.165.042-.293.123-.386.08-.093.194-.14.337-.14"/><path d="M20.313 30.01v.603h-.165v-.6c0-.093-.018-.164-.055-.21-.037-.048-.092-.072-.166-.072-.09 0-.16.03-.21.086-.05.057-.077.134-.077.232v.565h-.165v-1h.165v.155c.04-.06.085-.105.138-.135.054-.03.116-.045.185-.045.115 0 .202.036.26.108.06.07.09.175.09.313"/><path d="M20.56 30.04h.48v.145h-.48v-.146"/><path d="M21.49 29.428v.5h.228c.084 0 .15-.02.195-.064.045-.044.068-.106.068-.186s-.022-.142-.067-.185c-.046-.044-.11-.065-.195-.065h-.227m-.18-.15h.408c.15 0 .262.035.338.103.077.07.116.167.116.298 0 .13-.04.23-.116.298-.076.067-.19.1-.338.1h-.227v.537h-.18V29.28"/><path d="M22.78 30.11c-.133 0-.225.015-.276.046-.05.03-.077.082-.077.155 0 .06.02.106.057.14.04.034.092.05.158.05.09 0 .164-.03.218-.095.056-.065.084-.15.084-.258v-.037h-.164m.328-.068v.57h-.164v-.15c-.038.06-.085.105-.14.134-.057.028-.125.043-.206.043-.103 0-.184-.03-.245-.087-.06-.058-.09-.135-.09-.23 0-.114.037-.2.112-.256.076-.057.19-.086.338-.086h.23v-.015c0-.075-.024-.134-.074-.175-.05-.04-.12-.062-.21-.062-.058 0-.113.007-.168.02-.054.014-.106.035-.156.062v-.152c.06-.023.12-.04.175-.052.058-.012.113-.018.166-.018.145 0 .253.038.325.113.072.076.108.19.108.342"/><path d="M24.027 29.766c-.018-.01-.04-.018-.06-.023-.022-.005-.046-.008-.072-.008-.093 0-.164.03-.214.09-.05.06-.074.148-.074.26v.528h-.165v-1h.166v.155c.035-.06.08-.106.135-.135.057-.03.124-.045.203-.045.012 0 .024 0 .038.003l.046.007v.17"/><path d="M24.364 29.33v.283h.34v.127h-.34v.543c0 .082.01.134.033.157.023.024.068.035.137.035h.17v.138h-.17c-.127 0-.215-.024-.263-.07-.047-.048-.07-.135-.07-.26v-.543h-.122v-.127h.12v-.284h.166"/><path d="M26.065 29.642v.155c-.047-.023-.095-.04-.145-.053-.05-.012-.102-.018-.155-.018-.082 0-.143.013-.184.038-.04.025-.06.062-.06.112 0 .038.015.068.044.09.03.022.088.042.176.062l.056.012c.117.025.2.06.248.107.05.045.075.108.075.19 0 .093-.038.166-.112.22-.074.055-.174.082-.303.082-.054 0-.11-.007-.168-.017-.058-.01-.12-.026-.183-.047v-.17c.06.032.12.056.18.072.058.015.117.023.174.023.078 0 .137-.012.18-.038.04-.027.062-.064.062-.113 0-.045-.016-.08-.046-.103-.03-.024-.095-.047-.197-.07l-.057-.012c-.102-.022-.176-.055-.22-.1-.046-.043-.07-.104-.07-.182 0-.094.034-.167.1-.218.068-.05.162-.077.285-.077.06 0 .118.005.172.014.053.01.103.022.148.04"/><path d="M26.836 30.11c-.133 0-.225.015-.276.046-.05.03-.077.082-.077.155 0 .06.02.106.057.14.04.034.09.05.157.05.092 0 .164-.03.22-.095.055-.065.082-.15.082-.258v-.037h-.164m.328-.068v.57H27v-.15c-.038.06-.085.105-.14.134-.057.028-.125.043-.206.043-.103 0-.184-.03-.245-.087-.06-.058-.09-.135-.09-.23 0-.114.036-.2.11-.256.077-.057.19-.086.34-.086H27v-.015c0-.075-.026-.134-.076-.175-.05-.04-.12-.062-.21-.062-.056 0-.112.007-.166.02-.054.014-.106.035-.156.062v-.152c.06-.023.118-.04.175-.052.057-.012.112-.018.165-.018.145 0 .253.038.325.113.07.076.107.19.107.342"/><path d="M28.335 30.01v.603h-.164v-.6c0-.093-.018-.164-.055-.21-.037-.048-.092-.072-.166-.072-.09 0-.16.03-.21.086-.052.057-.078.134-.078.232v.565h-.165v-1h.165v.155c.04-.06.086-.105.14-.135.052-.03.114-.045.184-.045.115 0 .202.036.26.108.06.07.09.175.09.313"/><path d="M30.054 29.323v.176c-.07-.034-.133-.058-.194-.074-.06-.016-.12-.024-.176-.024-.098 0-.174.02-.228.057-.053.037-.08.09-.08.162 0 .058.018.103.053.133.035.03.102.054.2.073l.11.022c.135.026.234.07.298.136.064.064.096.15.096.26 0 .128-.043.226-.13.293-.087.065-.214.1-.38.1-.064 0-.13-.008-.203-.023-.07-.014-.143-.035-.22-.063v-.186c.074.04.146.072.216.093.07.022.14.032.207.032.103 0 .183-.02.24-.06.055-.04.083-.1.083-.174 0-.065-.02-.116-.06-.153-.04-.037-.107-.065-.2-.083L29.58 30c-.135-.027-.232-.07-.293-.126-.06-.057-.09-.136-.09-.238 0-.118.042-.21.124-.28.083-.067.197-.1.343-.1.063 0 .127.005.192.016.064.012.13.03.2.05"/><path d="M30.796 29.728c-.088 0-.158.034-.21.103-.05.07-.076.164-.076.284 0 .12.026.214.076.283.05.068.12.102.21.102.088 0 .157-.035.208-.104.05-.07.077-.163.077-.282 0-.12-.025-.213-.076-.282-.05-.07-.12-.104-.208-.104m0-.14c.143 0 .255.047.337.14.08.093.122.22.122.386 0 .163-.04.292-.122.385-.082.092-.194.14-.337.14-.143 0-.256-.048-.338-.14-.08-.094-.12-.223-.12-.386 0-.165.04-.293.12-.386.082-.093.195-.14.338-.14"/><path d="M31.527 29.223h.164v1.39h-.163v-1.39"/><path d="M33.2 29.764v-.54h.164v1.39H33.2v-.15c-.034.058-.078.103-.13.132-.054.028-.117.043-.19.043-.122 0-.22-.05-.296-.146-.076-.096-.114-.223-.114-.38 0-.158.038-.284.114-.38.076-.097.174-.146.295-.146.073 0 .136.015.19.044.052.03.096.073.13.132m-.56.35c0 .12.025.215.074.284.05.07.12.103.206.103.087 0 .155-.033.205-.102.05-.07.075-.164.075-.284 0-.12-.025-.216-.075-.284-.05-.07-.118-.104-.205-.104s-.156.035-.206.104c-.05.068-.074.163-.074.284"/><path d="M34.158 30.11c-.133 0-.225.015-.276.046-.05.03-.077.082-.077.155 0 .06.02.106.057.14.04.034.09.05.157.05.09 0 .163-.03.218-.095.056-.065.083-.15.083-.258v-.037h-.162m.328-.068v.57h-.165v-.15c-.036.06-.083.105-.14.134-.055.028-.123.043-.204.043-.103 0-.185-.03-.245-.087-.06-.058-.09-.135-.09-.23 0-.114.038-.2.113-.256.076-.057.188-.086.338-.086h.23v-.015c0-.075-.024-.134-.074-.175-.05-.04-.12-.062-.21-.062-.056 0-.112.007-.166.02-.054.014-.106.035-.156.062v-.152c.06-.023.118-.04.175-.052.055-.012.11-.018.164-.018.145 0 .253.038.324.113.072.076.108.19.108.342"/><path d="M35.405 29.766c-.02-.01-.04-.018-.06-.023-.022-.005-.046-.008-.072-.008-.093 0-.165.03-.215.09-.05.06-.074.148-.074.26v.528h-.165v-1h.164v.155c.035-.06.08-.106.135-.135.054-.03.122-.045.2-.045.012 0 .025 0 .038.003l.046.007v.17"/><path d="M36.25 29.33v.283h.338v.127h-.34v.543c0 .082.012.134.034.157.023.024.068.035.137.035h.168v.138h-.17c-.126 0-.214-.024-.262-.07-.048-.048-.072-.135-.072-.26v-.543h-.12v-.127h.12v-.284h.165"/><path d="M37.22 30.706c-.045.12-.09.196-.135.233-.044.035-.103.053-.177.053h-.13v-.137h.096c.045 0 .08-.01.105-.032.024-.022.052-.072.082-.152l.03-.075-.405-.984h.174l.314.782.312-.782h.175l-.44 1.093"/><path d="M38.457 29.28h.18v.81c0 .142.027.245.08.308.05.063.134.094.25.094.116 0 .2-.03.252-.094.05-.063.076-.166.076-.31v-.81h.182v.834c0 .174-.044.305-.13.394-.086.088-.212.133-.38.133-.17 0-.296-.046-.383-.134-.086-.09-.128-.22-.128-.394v-.833"/><path d="M40.642 30.01v.603h-.165v-.6c0-.093-.018-.164-.055-.21-.037-.048-.092-.072-.166-.072-.09 0-.16.03-.21.086-.05.057-.077.134-.077.232v.565h-.166v-1h.165v.155c.038-.06.084-.105.137-.135.054-.03.116-.045.185-.045.115 0 .202.036.26.108.06.07.09.175.09.313"/><path d="M41.866 29.728c-.088 0-.157.034-.21.103-.05.07-.075.164-.075.284 0 .12.026.214.077.283.05.068.12.102.21.102.087 0 .156-.035.208-.104.05-.07.076-.163.076-.282 0-.12-.024-.213-.075-.282-.052-.07-.12-.104-.21-.104m0-.14c.144 0 .257.047.338.14.082.093.123.22.123.386 0 .163-.04.292-.123.385-.08.092-.194.14-.337.14-.143 0-.256-.048-.337-.14-.082-.094-.123-.223-.123-.386 0-.165.04-.293.122-.386.08-.093.193-.14.336-.14"/><path d="M43.43 30.01v.603h-.165v-.6c0-.093-.02-.164-.056-.21-.038-.048-.093-.072-.167-.072-.09 0-.16.03-.21.086-.05.057-.077.134-.077.232v.565h-.165v-1h.166v.155c.04-.06.086-.105.14-.135.052-.03.114-.045.184-.045.115 0 .202.036.26.108.06.07.09.175.09.313"/></g><g><path d="M4.575 18.257c7.028.487 8.803-3.474 9.328-6.07.388-1.916-.416-3.803-1.94-4.55-.91-.465-1.8-.37-2.577.038-.295.154-.735.49-1.014.776l-.492.506-.058-.31c-.09-.472.01-1.432.212-2.033.503-1.506 1.934-2.984 3.635-3.755 1.195-.542 2.907-.722 4.222-.443 1.475.312 2.954 1.378 3.86 2.78 1.79 2.77 1.522 7.04-.648 10.323-.518.784-1.457 1.798-2.152 2.324-1.4 1.06-3.194 1.64-5.132 1.942-1.84.277-4.584.006-7.245-1.527z" fill="url(#a)" transform="translate(14.001 3.96) translate(6.164 .006)"/><path d="M16.364 1.63c-7.027-.49-8.802 3.473-9.328 6.068-.387 1.916.416 3.803 1.94 4.55.91.465 1.8.37 2.578-.038.295-.153.735-.49 1.013-.776l.493-.505.058.31c.088.472-.012 1.432-.213 2.033-.503 1.505-1.934 2.983-3.635 3.754-1.196.542-2.907.722-4.223.443-1.474-.312-2.953-1.378-3.86-2.78-1.79-2.77-1.522-7.04.648-10.323.52-.784 1.457-1.798 2.152-2.323C5.387.984 7.18.402 9.12.1c1.84-.276 4.583-.005 7.244 1.53z" fill="url(#b)" transform="translate(14.001 3.96) translate(6.164 .006)"/></g></g><path fill="url(#c)" d="M.018 34.59h27.986v1.4H.018z"/><path fill="url(#d)" transform="matrix(-1 0 0 1 91.99 0)" d="M32.002 34.59h27.986v1.4H32.002z"/></g></g></svg>