<?xml version="1.0" encoding="UTF-8" standalone="no"?>
<svg width="135px" height="36px" viewBox="0 0 135 36" version="1.1" xmlns="http://www.w3.org/2000/svg" xmlns:xlink="http://www.w3.org/1999/xlink" xmlns:sketch="http://www.bohemiancoding.com/sketch/ns">
    <!-- Generator: Sketch 3.2.2 (9983) - http://www.bohemiancoding.com/sketch -->
    <title>action-hovered</title>
    <desc>Created with Sketch.</desc>
    <defs></defs>
    <g id="Page-1" stroke="none" stroke-width="1" fill="none" fill-rule="evenodd" sketch:type="MSPage">
        <g id="action-hovered" sketch:type="MSArtboardGroup" fill="#96562A">
            <text id="行動與紀錄" sketch:type="MSTextLayer" font-family="Hiragino Kaku Gothic ProN" font-size="14" font-weight="313">
                <tspan x="45" y="35">行動與紀錄</tspan>
            </text>
            <g id="action" sketch:type="MSLayerGroup">
                <ellipse id="Oval-13" sketch:type="MSShapeGroup" cx="28.2816901" cy="5.07936479" rx="4.22535211" ry="4.66666666"></ellipse>
                <path d="M13.0857698,33.5264499 C12.6670911,32.5531777 13.059316,31.3943645 13.9534032,30.942427 L21.1065632,27.3266929 C22.0044226,26.8728487 23.0687686,27.2871427 23.4903663,28.2672004 L23.4903663,28.2672004 C23.9090449,29.2404725 23.5168201,30.3992857 22.6227329,30.8512232 L15.4695728,34.4669573 C14.5717135,34.9208015 13.5073675,34.5065075 13.0857698,33.5264499 L13.0857698,33.5264499 L13.0857698,33.5264499 Z" id="Rectangle-24" sketch:type="MSShapeGroup"></path>
                <path d="M25.0857698,23.5264499 C24.6670911,22.5531777 25.059316,21.3943645 25.9534032,20.942427 L33.1065632,17.3266929 C34.0044226,16.8728487 35.0687686,17.2871427 35.4903663,18.2672004 L35.4903663,18.2672004 C35.9090449,19.2404725 35.5168201,20.3992857 34.6227329,20.8512232 L27.4695728,24.4669573 C26.5717135,24.9208015 25.5073675,24.5065075 25.0857698,23.5264499 L25.0857698,23.5264499 L25.0857698,23.5264499 Z" id="Rectangle-24-2" sketch:type="MSShapeGroup"></path>
                <path d="M26.4850008,23.5219761 C25.5048665,23.5405214 24.6965488,22.7009234 24.6792999,21.6297304 L24.6171605,17.7707607 C24.6000337,16.707157 25.3738723,15.8300312 26.3608399,15.8113566 L26.3608399,15.8113566 C27.3409743,15.7928114 28.149292,16.6324094 28.1665409,17.7036024 L28.2286803,21.562572 C28.245807,22.6261757 27.4719685,23.5033016 26.4850008,23.5219761 L26.4850008,23.5219761 L26.4850008,23.5219761 Z" id="Rectangle-27" sketch:type="MSShapeGroup"></path>
                <path d="M0.779746697,35.2875205 C0.0856890324,34.5057636 0.110167725,33.2553159 0.820835676,32.5088376 L11.8892199,20.8827201 C12.6059704,20.1298527 13.7448175,20.147822 14.4437141,20.9350291 L14.4437141,20.9350291 C15.1377718,21.7167859 15.113293,22.9672336 14.4026251,23.7137119 L3.33424082,35.3398294 C2.61749034,36.0926968 1.4786432,36.0747276 0.779746697,35.2875205 L0.779746697,35.2875205 L0.779746697,35.2875205 Z" id="Rectangle-28" sketch:type="MSShapeGroup"></path>
                <path d="M12.9308777,6.94281402 C13.4418499,5.92919903 14.4126919,5.7339356 15.1100988,6.5188185 L15.1100988,6.5188185 C15.8026772,7.29826721 15.946029,8.75950748 15.4389259,9.7654475 L11.0644991,18.4429931 C10.553527,19.4566081 9.582685,19.6518715 8.8852781,18.8669886 L8.8852781,18.8669886 C8.1926997,18.0875399 8.0493478,16.6262997 8.5564511,15.6203595 L12.9308777,6.94281402 L12.9308777,6.94281402 Z" id="Rectangle-25" sketch:type="MSShapeGroup"></path>
                <path d="M13.6291375,10.6615538 C12.945124,9.845293 12.8103088,8.36155749 13.3361509,7.33161054 L13.3361509,7.33161054 C13.8583522,6.30879449 14.8413617,6.14752902 15.5201959,6.95760926 L21.3760264,13.9456084 C22.0600398,14.7618692 22.1948551,16.2456048 21.669013,17.2755518 L21.669013,17.2755518 C21.1468116,18.2983678 20.1638021,18.4596332 19.484968,17.649553 L13.6291375,10.6615538 L13.6291375,10.6615538 Z" id="Rectangle-26" sketch:type="MSShapeGroup"></path>
                <path d="M16.5207907,24.609583 C15.8767698,23.959648 15.7498369,22.7782465 16.2449343,21.9581671 L16.2449343,21.9581671 C16.7366038,21.1437656 17.6621392,21.0153605 18.3012836,21.6603744 L23.8147383,27.2244608 C24.4587591,27.8743959 24.5856921,29.0557974 24.0905947,29.8758768 L24.0905947,29.8758768 C23.5989251,30.6902783 22.6733897,30.8186834 22.0342454,30.1736695 L16.5207907,24.609583 L16.5207907,24.609583 Z" id="Rectangle-26-2" sketch:type="MSShapeGroup"></path>
            </g>
        </g>
    </g>
</svg>