<?xml version="1.0" encoding="UTF-8" standalone="no"?>
<svg width="135px" height="36px" viewBox="0 0 135 36" version="1.1" xmlns="http://www.w3.org/2000/svg" xmlns:xlink="http://www.w3.org/1999/xlink" xmlns:sketch="http://www.bohemiancoding.com/sketch/ns">
    <!-- Generator: Sketch 3.2.2 (9983) - http://www.bohemiancoding.com/sketch -->
    <title>action</title>
    <desc>Created with Sketch.</desc>
    <defs></defs>
    <g id="Page-1" stroke="none" stroke-width="1" fill="none" fill-rule="evenodd" sketch:type="MSPage">
        <g id="action" sketch:type="MSArtboardGroup" fill="#C57B46">
            <text id="行動與紀錄" sketch:type="MSTextLayer" font-family="Hiragino Kaku Gothic ProN" font-size="14" font-weight="313">
                <tspan x="45" y="35">行動與紀錄</tspan>
            </text>
            <g sketch:type="MSLayerGroup" id="Group">
                <g transform="translate(0.000000, 0.285714)" sketch:type="MSShapeGroup">
                    <ellipse id="Oval-13" cx="28.2816901" cy="4.79365079" rx="4.22535211" ry="4.66666666"></ellipse>
                    <path d="M13.0857698,33.2407359 C12.6670911,32.2674637 13.059316,31.1086505 13.9534032,30.656713 L21.1065632,27.0409789 C22.0044226,26.5871347 23.0687686,27.0014287 23.4903663,27.9814864 L23.4903663,27.9814864 C23.9090449,28.9547585 23.5168201,30.1135717 22.6227329,30.5655092 L15.4695728,34.1812433 C14.5717135,34.6350875 13.5073675,34.2207935 13.0857698,33.2407359 L13.0857698,33.2407359 L13.0857698,33.2407359 Z" id="Rectangle-24"></path>
                    <path d="M25.0857698,23.2407359 C24.6670911,22.2674637 25.059316,21.1086505 25.9534032,20.656713 L33.1065632,17.0409789 C34.0044226,16.5871347 35.0687686,17.0014287 35.4903663,17.9814864 L35.4903663,17.9814864 C35.9090449,18.9547585 35.5168201,20.1135717 34.6227329,20.5655092 L27.4695728,24.1812433 C26.5717135,24.6350875 25.5073675,24.2207935 25.0857698,23.2407359 L25.0857698,23.2407359 L25.0857698,23.2407359 Z" id="Rectangle-24-2"></path>
                    <path d="M26.4850008,23.2362621 C25.5048665,23.2548074 24.6965488,22.4152094 24.6792999,21.3440164 L24.6171605,17.4850467 C24.6000337,16.421443 25.3738723,15.5443172 26.3608399,15.5256426 L26.3608399,15.5256426 C27.3409743,15.5070974 28.149292,16.3466954 28.1665409,17.4178884 L28.2286803,21.276858 C28.245807,22.3404617 27.4719685,23.2175876 26.4850008,23.2362621 L26.4850008,23.2362621 L26.4850008,23.2362621 Z" id="Rectangle-27"></path>
                    <path d="M0.779746697,35.0018065 C0.0856890324,34.2200496 0.110167725,32.9696019 0.820835676,32.2231236 L11.8892199,20.5970061 C12.6059704,19.8441387 13.7448175,19.862108 14.4437141,20.6493151 L14.4437141,20.6493151 C15.1377718,21.4310719 15.113293,22.6815196 14.4026251,23.4279979 L3.33424082,35.0541154 C2.61749034,35.8069828 1.4786432,35.7890136 0.779746697,35.0018065 L0.779746697,35.0018065 L0.779746697,35.0018065 Z" id="Rectangle-28"></path>
                    <path d="M12.9308777,6.65710002 C13.4418499,5.64348503 14.4126919,5.4482216 15.1100988,6.2331045 L15.1100988,6.2331045 C15.8026772,7.01255321 15.946029,8.47379348 15.4389259,9.4797335 L11.0644991,18.1572791 C10.553527,19.1708941 9.582685,19.3661575 8.8852781,18.5812746 L8.8852781,18.5812746 C8.1926997,17.8018259 8.0493478,16.3405857 8.5564511,15.3346455 L12.9308777,6.65710002 L12.9308777,6.65710002 Z" id="Rectangle-25"></path>
                    <path d="M13.6291375,10.3758398 C12.945124,9.559579 12.8103088,8.07584349 13.3361509,7.04589654 L13.3361509,7.04589654 C13.8583522,6.02308049 14.8413617,5.86181502 15.5201959,6.67189526 L21.3760264,13.6598944 C22.0600398,14.4761552 22.1948551,15.9598908 21.669013,16.9898378 L21.669013,16.9898378 C21.1468116,18.0126538 20.1638021,18.1739192 19.484968,17.363839 L13.6291375,10.3758398 L13.6291375,10.3758398 Z" id="Rectangle-26"></path>
                    <path d="M16.5207907,24.323869 C15.8767698,23.673934 15.7498369,22.4925325 16.2449343,21.6724531 L16.2449343,21.6724531 C16.7366038,20.8580516 17.6621392,20.7296465 18.3012836,21.3746604 L23.8147383,26.9387468 C24.4587591,27.5886819 24.5856921,28.7700834 24.0905947,29.5901628 L24.0905947,29.5901628 C23.5989251,30.4045643 22.6733897,30.5329694 22.0342454,29.8879555 L16.5207907,24.323869 L16.5207907,24.323869 Z" id="Rectangle-26-2"></path>
                </g>
            </g>
        </g>
        <g id="Artboard-16" sketch:type="MSArtboardGroup" transform="translate(-595.000000, -74.000000)"></g>
    </g>
</svg>