<?xml version="1.0" encoding="UTF-8" standalone="no"?>
<svg width="115px" height="36px" viewBox="0 0 115 36" version="1.1" xmlns="http://www.w3.org/2000/svg" xmlns:xlink="http://www.w3.org/1999/xlink" xmlns:sketch="http://www.bohemiancoding.com/sketch/ns">
    <!-- Generator: Sketch 3.2.2 (9983) - http://www.bohemiancoding.com/sketch -->
    <title>action-hovered</title>
    <desc>Created with Sketch.</desc>
    <defs></defs>
    <g id="Page-1" stroke="none" stroke-width="1" fill="none" fill-rule="evenodd" sketch:type="MSPage">
        <g id="action-hovered" sketch:type="MSArtboardGroup" fill="#96562A">
            <g id="action" sketch:type="MSLayerGroup">
                <ellipse id="Oval-13" sketch:type="MSShapeGroup" cx="28.2816901" cy="5.07936479" rx="4.22535211" ry="4.66666666"></ellipse>
                <path d="M13.0857698,33.5264499 C12.6670911,32.5531777 13.059316,31.3943645 13.9534032,30.942427 L21.1065632,27.3266929 C22.0044226,26.8728487 23.0687686,27.2871427 23.4903663,28.2672004 L23.4903663,28.2672004 C23.9090449,29.2404725 23.5168201,30.3992857 22.6227329,30.8512232 L15.4695728,34.4669573 C14.5717135,34.9208015 13.5073675,34.5065075 13.0857698,33.5264499 L13.0857698,33.5264499 L13.0857698,33.5264499 Z" id="Rectangle-24" sketch:type="MSShapeGroup"></path>
                <path d="M25.0857698,23.5264499 C24.6670911,22.5531777 25.059316,21.3943645 25.9534032,20.942427 L33.1065632,17.3266929 C34.0044226,16.8728487 35.0687686,17.2871427 35.4903663,18.2672004 L35.4903663,18.2672004 C35.9090449,19.2404725 35.5168201,20.3992857 34.6227329,20.8512232 L27.4695728,24.4669573 C26.5717135,24.9208015 25.5073675,24.5065075 25.0857698,23.5264499 L25.0857698,23.5264499 L25.0857698,23.5264499 Z" id="Rectangle-24-2" sketch:type="MSShapeGroup"></path>
                <path d="M26.4850008,23.5219761 C25.5048665,23.5405214 24.6965488,22.7009234 24.6792999,21.6297304 L24.6171605,17.7707607 C24.6000337,16.707157 25.3738723,15.8300312 26.3608399,15.8113566 L26.3608399,15.8113566 C27.3409743,15.7928114 28.149292,16.6324094 28.1665409,17.7036024 L28.2286803,21.562572 C28.245807,22.6261757 27.4719685,23.5033016 26.4850008,23.5219761 L26.4850008,23.5219761 L26.4850008,23.5219761 Z" id="Rectangle-27" sketch:type="MSShapeGroup"></path>
                <path d="M0.779746697,35.2875205 C0.0856890324,34.5057636 0.110167725,33.2553159 0.820835676,32.5088376 L11.8892199,20.8827201 C12.6059704,20.1298527 13.7448175,20.147822 14.4437141,20.9350291 L14.4437141,20.9350291 C15.1377718,21.7167859 15.113293,22.9672336 14.4026251,23.7137119 L3.33424082,35.3398294 C2.61749034,36.0926968 1.4786432,36.0747276 0.779746697,35.2875205 L0.779746697,35.2875205 L0.779746697,35.2875205 Z" id="Rectangle-28" sketch:type="MSShapeGroup"></path>
                <path d="M12.9308777,6.94281402 C13.4418499,5.92919903 14.4126919,5.7339356 15.1100988,6.5188185 L15.1100988,6.5188185 C15.8026772,7.29826721 15.946029,8.75950748 15.4389259,9.7654475 L11.0644991,18.4429931 C10.553527,19.4566081 9.582685,19.6518715 8.8852781,18.8669886 L8.8852781,18.8669886 C8.1926997,18.0875399 8.0493478,16.6262997 8.5564511,15.6203595 L12.9308777,6.94281402 L12.9308777,6.94281402 Z" id="Rectangle-25" sketch:type="MSShapeGroup"></path>
                <path d="M13.6291375,10.6615538 C12.945124,9.845293 12.8103088,8.36155749 13.3361509,7.33161054 L13.3361509,7.33161054 C13.8583522,6.30879449 14.8413617,6.14752902 15.5201959,6.95760926 L21.3760264,13.9456084 C22.0600398,14.7618692 22.1948551,16.2456048 21.669013,17.2755518 L21.669013,17.2755518 C21.1468116,18.2983678 20.1638021,18.4596332 19.484968,17.649553 L13.6291375,10.6615538 L13.6291375,10.6615538 Z" id="Rectangle-26" sketch:type="MSShapeGroup"></path>
                <path d="M16.5207907,24.609583 C15.8767698,23.959648 15.7498369,22.7782465 16.2449343,21.9581671 L16.2449343,21.9581671 C16.7366038,21.1437656 17.6621392,21.0153605 18.3012836,21.6603744 L23.8147383,27.2244608 C24.4587591,27.8743959 24.5856921,29.0557974 24.0905947,29.8758768 L24.0905947,29.8758768 C23.5989251,30.6902783 22.6733897,30.8186834 22.0342454,30.1736695 L16.5207907,24.609583 L16.5207907,24.609583 Z" id="Rectangle-26-2" sketch:type="MSShapeGroup"></path>
            </g>
            <path d="M55.01,28.532 L55.01,34.594 C55.01,34.874 54.898,34.93 54.422,34.93 C53.848,34.93 53.246,34.874 52.448,34.762 C52.574,35.084 52.63,35.336 52.672,35.728 C53.274,35.77 53.932,35.798 54.38,35.798 C55.612,35.798 55.948,35.56 55.948,34.664 L55.948,28.532 L56.746,28.532 C57.39,28.532 57.908,28.56 58.272,28.616 L58.272,27.636 C57.95,27.692 57.446,27.72 56.732,27.72 L51.818,27.72 C51.146,27.72 50.6,27.692 50.264,27.636 L50.264,28.616 C50.6,28.56 51.16,28.532 51.818,28.532 L55.01,28.532 Z M48.92,23.352 C48.696,23.87 48.346,24.36 47.646,25.06 C47.086,25.634 46.582,26.04 45.798,26.544 C46.064,26.754 46.218,26.922 46.428,27.23 C47.688,26.32 48.696,25.34 49.536,24.192 C49.662,24.024 49.69,23.982 49.788,23.884 L48.92,23.352 Z M50.838,25.102 C51.258,25.046 51.734,25.018 52.294,25.018 L56.214,25.018 C56.774,25.018 57.236,25.046 57.656,25.102 L57.656,24.122 C57.264,24.178 56.844,24.206 56.214,24.206 L52.294,24.206 C51.664,24.206 51.216,24.178 50.838,24.122 L50.838,25.102 Z M47.856,34.314 C47.856,35.056 47.828,35.63 47.758,36.022 L48.864,36.022 C48.794,35.63 48.766,35.07 48.766,34.314 L48.766,28.658 C49.158,28.196 49.41,27.874 49.704,27.398 C49.914,27.076 49.956,27.006 50.124,26.796 L49.256,26.306 C49.116,26.684 48.906,27.076 48.584,27.51 C47.744,28.644 46.848,29.526 45.756,30.268 C45.98,30.492 46.134,30.716 46.302,31.066 C46.988,30.534 47.394,30.142 47.898,29.498 C47.87,30.17 47.856,30.576 47.856,31.178 L47.856,34.314 Z M62.934,25.9 L61.044,25.9 C60.484,25.9 60.148,25.872 59.77,25.816 L59.77,26.684 C60.134,26.628 60.442,26.614 61.03,26.614 L62.934,26.614 L62.934,27.482 L61.632,27.482 C61.044,27.482 60.666,27.468 60.302,27.44 C60.344,27.832 60.344,27.972 60.344,28.672 L60.344,30.31 C60.344,31.01 60.33,31.318 60.302,31.626 C60.638,31.598 61.016,31.584 61.604,31.584 L62.934,31.584 L62.934,32.522 L61.394,32.522 C60.792,32.522 60.442,32.508 60.106,32.452 L60.106,33.32 C60.484,33.278 60.946,33.25 61.38,33.25 L62.934,33.25 L62.934,34.342 C61.506,34.482 60.708,34.538 60.274,34.538 C60.148,34.538 59.91,34.524 59.686,34.51 L59.868,35.476 C60.134,35.42 60.246,35.406 60.61,35.364 C62.99,35.126 64.39,34.944 66.35,34.608 L66.35,33.866 C65.118,34.076 64.642,34.146 63.746,34.258 L63.746,33.25 L65.286,33.25 C65.944,33.25 66.14,33.264 66.434,33.306 L66.434,32.466 C66.126,32.508 65.888,32.522 65.16,32.522 L63.746,32.522 L63.746,31.584 L65.146,31.584 C65.734,31.584 66.098,31.598 66.434,31.626 C66.392,31.332 66.378,30.996 66.378,30.296 L66.378,28.672 C66.378,27.944 66.392,27.706 66.434,27.44 C66.098,27.468 65.748,27.482 65.202,27.482 L63.746,27.482 L63.746,26.614 L65.538,26.614 C66.21,26.614 66.406,26.628 66.658,26.67 L66.658,25.83 C66.392,25.886 66.042,25.9 65.426,25.9 L63.746,25.9 L63.746,24.794 C64.558,24.654 65.216,24.514 65.748,24.36 C66.252,24.234 66.252,24.234 66.448,24.192 L65.832,23.478 C64.88,23.954 62.248,24.402 59.994,24.444 C60.232,24.808 60.288,24.934 60.344,25.186 C61.408,25.102 61.926,25.06 62.934,24.92 L62.934,25.9 Z M62.934,28.154 L62.934,29.176 L61.142,29.176 L61.142,28.154 L62.934,28.154 Z M63.746,28.154 L65.594,28.154 L65.594,29.176 L63.746,29.176 L63.746,28.154 Z M62.934,29.82 L62.934,30.912 L61.142,30.912 L61.142,29.82 L62.934,29.82 Z M63.746,29.82 L65.594,29.82 L65.594,30.912 L63.746,30.912 L63.746,29.82 Z M69.388,26.558 C69.402,26.082 69.402,25.606 69.416,24.612 C69.416,24.108 69.43,23.814 69.5,23.548 L68.464,23.548 C68.534,23.926 68.548,24.164 68.548,25.158 C68.548,25.676 68.548,26.082 68.534,26.558 L68.072,26.558 C67.47,26.558 67.19,26.544 66.826,26.488 L66.826,27.44 C67.218,27.384 67.554,27.37 68.128,27.37 L68.492,27.37 C68.366,30.086 68.058,31.738 67.414,33.11 C66.98,34.034 66.588,34.566 65.79,35.378 C66.098,35.546 66.42,35.784 66.588,35.98 C67.764,34.58 68.352,33.488 68.786,31.864 C69.094,30.716 69.262,29.4 69.36,27.37 L71.082,27.37 C71.082,30.52 70.886,33.194 70.578,34.398 C70.48,34.818 70.326,34.916 69.808,34.916 C69.416,34.916 69.01,34.86 68.296,34.72 C68.394,35.042 68.436,35.35 68.45,35.658 C69.052,35.728 69.556,35.77 69.934,35.77 C70.704,35.77 71.082,35.588 71.278,35.084 C71.656,34.174 71.838,32.2 71.936,27.972 C71.964,27.09 71.978,26.81 72.006,26.502 C71.628,26.544 71.32,26.558 70.76,26.558 L69.388,26.558 Z M74.988,32.102 C74.372,32.102 73.966,32.074 73.644,32.032 L73.644,32.956 C74.092,32.9 74.624,32.872 75.184,32.872 L84.802,32.872 C85.404,32.872 85.894,32.9 86.356,32.956 L86.356,32.032 C85.992,32.074 85.614,32.102 85.012,32.102 L85.292,25.354 C85.32,24.696 85.348,24.36 85.39,23.982 C85.11,24.038 84.816,24.052 84.424,24.052 L83.164,24.052 C82.73,24.052 82.534,24.038 82.254,23.982 L82.254,24.864 C82.52,24.822 82.758,24.808 83.15,24.808 L84.48,24.808 L84.41,26.726 L83.136,26.726 C82.73,26.726 82.534,26.712 82.282,26.67 L82.282,27.482 C82.534,27.454 82.786,27.44 83.136,27.44 L84.368,27.44 L84.298,29.232 L83.136,29.232 C82.744,29.232 82.52,29.218 82.282,29.176 L82.282,29.988 C82.534,29.96 82.786,29.946 83.136,29.946 L84.27,29.946 L84.172,32.102 L81.456,32.102 L81.596,28.196 C81.61,27.664 81.638,27.3 81.694,26.95 C81.372,27.006 81.12,27.02 80.714,27.02 L79.356,27.02 L79.44,25.508 L81.064,25.508 C81.4,25.508 81.666,25.522 81.918,25.55 L81.918,24.71 C81.68,24.752 81.456,24.766 81.064,24.766 L79.482,24.766 L79.51,24.402 C79.538,23.982 79.566,23.688 79.594,23.492 L78.698,23.478 C78.712,23.716 78.726,23.842 78.726,24.038 C78.726,24.206 78.726,24.234 78.712,24.416 L78.586,26.852 C78.572,27.146 78.53,27.594 78.488,27.776 C78.782,27.748 79.118,27.734 79.524,27.734 L80.84,27.734 L80.658,32.102 L79.244,32.102 L79.356,29.414 C79.37,28.98 79.384,28.882 79.44,28.518 L78.558,28.504 C78.572,28.658 78.586,28.812 78.586,28.966 C78.586,29.288 78.586,29.316 78.572,29.414 L78.46,32.102 L75.828,32.102 L75.758,30.002 L76.962,30.002 C77.298,30.002 77.564,30.016 77.816,30.044 L77.816,29.232 C77.564,29.274 77.34,29.288 76.962,29.288 L75.744,29.288 L75.688,27.524 L76.962,27.524 C77.298,27.524 77.564,27.538 77.816,27.566 L77.816,26.754 C77.578,26.796 77.368,26.81 76.962,26.81 L75.66,26.81 L75.618,25.144 C76.43,24.878 77.116,24.584 77.858,24.206 L77.284,23.492 C76.71,23.94 75.842,24.318 74.708,24.584 C74.75,24.92 74.778,25.27 74.792,26.012 L74.988,32.102 Z M77.872,33.138 C77.34,33.656 76.976,33.908 76.388,34.23 C75.604,34.636 74.988,34.86 73.994,35.112 C74.232,35.336 74.414,35.602 74.568,35.91 C76.402,35.266 77.41,34.706 78.586,33.684 L77.872,33.138 Z M81.498,33.726 C82.758,34.706 84.088,35.392 85.712,35.868 C85.88,35.518 85.894,35.476 86.244,35.042 C84.606,34.678 83.332,34.104 82.142,33.18 L81.498,33.726 Z M87.896,30.296 C88.176,30.254 88.288,30.24 88.694,30.226 C89.156,30.198 89.884,30.142 90.22,30.114 L90.22,34.566 C90.22,35.154 90.192,35.602 90.136,36.008 L91.144,36.008 C91.088,35.616 91.06,35.168 91.06,34.566 L91.06,30.044 C91.298,30.016 91.298,30.016 91.76,29.974 C92.054,29.946 92.306,29.918 92.544,29.89 C92.67,30.212 92.712,30.366 92.866,30.828 L93.58,30.534 C93.216,29.512 92.852,28.7 92.362,27.832 L91.718,28.084 C91.998,28.602 92.082,28.784 92.278,29.218 C91.396,29.316 90.78,29.372 89.87,29.386 C90.64,28.504 91.494,27.37 92.46,25.97 C92.642,25.69 92.726,25.578 92.838,25.424 L92.012,24.948 C91.788,25.48 91.186,26.46 90.43,27.482 C90.122,27.118 89.912,26.866 89.52,26.46 C89.982,25.844 90.388,25.214 90.696,24.682 C91.116,23.94 91.172,23.842 91.298,23.66 L90.43,23.268 C90.276,23.814 89.758,24.78 88.988,25.928 C88.778,25.732 88.652,25.606 88.316,25.312 L87.854,25.998 C88.918,26.922 89.212,27.216 89.968,28.126 C89.408,28.854 89.324,28.966 88.946,29.414 L88.484,29.414 C88.19,29.414 88.078,29.414 87.77,29.386 L87.896,30.296 Z M88.652,30.968 C88.428,32.998 88.232,33.838 87.756,34.874 L88.554,35.238 C89.002,34.048 89.142,33.404 89.436,31.122 L88.652,30.968 Z M91.704,31.178 C92.152,32.312 92.278,32.802 92.614,34.664 L93.37,34.384 C93.034,32.788 92.824,32.032 92.404,30.968 L91.704,31.178 Z M94.98,29.204 L98.2,29.204 C98.774,29.204 99.18,29.218 99.558,29.26 C99.516,28.854 99.502,28.504 99.502,27.958 L99.502,25.452 C99.502,24.71 99.516,24.444 99.544,24.08 C99.138,24.122 98.802,24.136 98.214,24.136 L94.882,24.136 C94.35,24.136 93.944,24.108 93.538,24.052 L93.538,25.032 C93.888,24.99 94.336,24.962 94.882,24.962 L98.606,24.962 L98.606,28.406 L95.386,28.406 C94.812,28.406 94.462,28.392 94.014,28.35 C94.07,28.714 94.084,29.036 94.084,29.694 L94.084,34.552 C94.084,35.042 94.182,35.308 94.434,35.448 C94.77,35.63 95.386,35.714 96.52,35.714 C98.452,35.714 99.124,35.644 99.488,35.378 C99.936,35.056 100.132,34.412 100.328,32.718 C99.95,32.62 99.698,32.508 99.404,32.284 C99.362,32.9 99.32,33.306 99.25,33.726 C99.138,34.37 99.012,34.594 98.732,34.706 C98.466,34.804 97.948,34.86 97.192,34.86 C96.1,34.86 95.498,34.832 95.246,34.762 C95.05,34.706 94.98,34.594 94.98,34.342 L94.98,29.204 Z M106.082,33.124 C106.404,32.256 106.572,31.654 106.768,30.73 L106.068,30.464 C105.956,31.402 105.802,32.004 105.466,32.886 L106.082,33.124 Z M107.3,29.932 C107.874,30.646 108.182,31.178 108.56,32.102 L109.316,31.682 C108.91,30.842 108.588,30.338 108,29.582 L107.3,29.932 Z M104.15,27.622 L104.15,29.078 L103.156,29.078 C102.554,29.078 102.204,29.05 101.826,28.994 L101.826,29.89 C102.232,29.834 102.568,29.82 103.142,29.82 L104.15,29.82 L104.15,34.146 C103.044,34.44 102.372,34.58 101.77,34.608 L101.952,35.546 C102.204,35.462 102.358,35.42 102.806,35.308 C104.528,34.86 104.92,34.748 106.628,34.09 L106.992,34.832 C107.202,34.692 107.272,34.65 107.608,34.454 C108.574,33.88 109.302,33.376 110.03,32.802 L110.03,34.888 C110.03,35.182 109.918,35.252 109.526,35.252 C109.148,35.252 108.574,35.196 108.154,35.112 C108.294,35.434 108.336,35.63 108.378,36.008 C108.896,36.036 109.386,36.05 109.582,36.05 C110.576,36.05 110.842,35.812 110.842,34.972 L110.842,32.298 C110.842,32.116 110.8,31.066 110.772,30.562 C111.15,31.654 111.472,32.312 111.976,33.068 C112.564,33.922 113.11,34.524 114.062,35.308 C114.244,35 114.44,34.776 114.706,34.566 C113.362,33.53 113.04,33.194 112.284,32.13 C113.208,31.262 113.502,30.954 114.202,30.156 L113.474,29.596 C112.984,30.38 112.774,30.632 111.878,31.486 C111.416,30.73 111.122,30.03 110.856,29.092 L110.856,29.064 L113.166,29.064 C113.754,29.064 114.104,29.078 114.454,29.134 L114.454,28.21 C114.062,28.266 113.698,28.294 113.138,28.294 L112.158,28.294 C112.424,27.454 112.634,26.67 112.858,25.634 C113.082,24.668 113.152,24.374 113.222,24.15 C112.76,24.178 112.354,24.192 111.85,24.192 L109.456,24.192 C109.498,24.066 109.512,24.01 109.54,23.94 C109.61,23.674 109.61,23.674 109.652,23.576 C109.708,23.408 109.708,23.408 109.736,23.31 L108.812,23.268 C108.77,23.52 108.742,23.73 108.7,23.87 C108.448,24.906 107.986,26.194 107.468,27.258 C107.874,27.23 108.364,27.216 108.84,27.216 L111.64,27.216 C111.528,27.636 111.528,27.636 111.318,28.294 L108.098,28.294 C107.552,28.294 107.202,28.266 106.796,28.21 L106.796,29.008 C106.474,29.05 106.11,29.078 105.592,29.078 L104.948,29.078 L104.948,27.622 L105.41,27.622 C105.816,27.622 106.04,27.636 106.348,27.678 L106.348,26.852 C106.068,26.894 105.816,26.908 105.41,26.908 L103.688,26.908 C103.31,26.908 102.988,26.894 102.764,26.852 C103.562,26.054 104.094,25.284 104.612,24.164 C105.2,25.326 105.662,25.942 106.586,26.796 C106.754,26.488 106.866,26.334 107.104,26.068 C106.096,25.284 105.634,24.696 105.074,23.478 L104.08,23.478 C103.562,24.85 102.792,25.872 101.546,26.824 C101.77,27.02 101.882,27.174 102.05,27.496 C102.372,27.23 102.47,27.132 102.75,26.866 L102.75,27.678 C103.072,27.636 103.324,27.622 103.66,27.622 L104.15,27.622 Z M110.03,29.064 L110.03,31.906 C108.812,32.858 107.566,33.614 106.628,33.95 L106.6,33.32 C105.872,33.614 105.578,33.712 104.948,33.908 L104.948,29.82 L105.592,29.82 C106.138,29.82 106.474,29.834 106.824,29.89 L106.824,29.134 C107.174,29.078 107.51,29.064 108.098,29.064 L110.03,29.064 Z M112.172,24.934 C112.018,25.662 111.948,25.984 111.836,26.488 L108.658,26.488 C108.924,25.844 108.98,25.704 109.232,24.934 L112.172,24.934 Z M103.492,33.432 C103.31,32.228 103.156,31.57 102.834,30.59 L102.162,30.814 C102.498,31.92 102.624,32.48 102.778,33.684 L103.492,33.432 Z" id="行動與紀錄" sketch:type="MSShapeGroup"></path>
        </g>
    </g>
</svg>