<?xml version="1.0" encoding="UTF-8" standalone="no"?>
<svg width="115px" height="36px" viewBox="0 0 115 36" version="1.1" xmlns="http://www.w3.org/2000/svg" xmlns:xlink="http://www.w3.org/1999/xlink" xmlns:sketch="http://www.bohemiancoding.com/sketch/ns">
    <!-- Generator: Sketch 3.2.2 (9983) - http://www.bohemiancoding.com/sketch -->
    <title>alias</title>
    <desc>Created with Sketch.</desc>
    <defs></defs>
    <g id="Page-1" stroke="none" stroke-width="1" fill="none" fill-rule="evenodd" sketch:type="MSPage">
        <g id="alias" sketch:type="MSArtboardGroup" fill="#C57B46">
            <g sketch:type="MSLayerGroup" transform="translate(0.000000, 0.357143)">
                <path d="M38.5668874,23.3917143 C37.2437086,22.7104286 33.5748344,21.6891786 33.1887417,20.3985357 C35.5649007,20.0802857 37.5688742,19.4783929 38.5860927,18.7964286 C39.1384106,18.4259286 38.7384106,17.64625 38.3629139,17.0898214 C37.5410596,15.8711071 36.7642384,13.3264643 36.7642384,10.6427143 L36.7642384,8.30639286 C36.7642384,4.46839286 33.5543046,1.35714286 29.592053,1.35714286 C28.1264901,1.35714286 26.7649007,1.78396429 25.6291391,2.51410714 C26.6225166,4.17457143 27.1953642,6.12614286 27.1953642,8.21275 L27.1953642,10.2484643 C27.6,11.0844643 27.8099338,11.9774643 27.8099338,12.8731786 C27.8099338,14.8634286 26.8364238,16.6942143 25.0456954,18.1042857 C24.8,18.7604643 24.5331126,19.4349643 24.2364238,20.0979286 C24.7907285,20.2146429 25.3801325,20.3164286 25.994702,20.3985357 C25.7933775,21.0730357 24.6960265,21.6735714 23.505298,22.1899643 C23.5966887,22.2266071 23.7324503,22.2700357 23.9317881,22.3087143 L24.0470199,22.3311071 L24.1596026,22.3636786 C24.9443709,22.5916786 27.1450331,23.2213929 27.8913907,23.3964643 C31.5377483,24.2528214 34.318543,27.4020714 35.015894,31.2142857 L42.9470199,31.2142857 L42.9470199,29.3482143 C42.9470199,26.5586071 40.1927152,24.2290714 38.5668874,23.3917143" id="Fill-1" sketch:type="MSShapeGroup"></path>
                <path d="M27.1384106,26.0415357 C26.1701987,25.8128571 23.3019868,24.9761786 23.3019868,24.9761786 C21.794702,24.681 20.6953642,23.8925 20.6953642,22.2435714 L20.6953642,22.1180357 C20.6953642,21.6661071 20.697351,21.2284286 20.7192053,20.8036429 C21.5317881,19.5998571 22.1139073,18.0350714 22.7238411,16.3610357 C24.1423841,15.4449643 25.0152318,14.2221786 25.0152318,12.8731786 C25.0152318,12.2013929 24.7960265,11.5628571 24.4039735,10.9738571 L24.4039735,8.21342857 C24.4039735,3.67717857 20.8463576,0 16.4569536,0 C12.0675497,0 8.50993377,3.67717857 8.50993377,8.21342857 L8.50993377,10.9731786 C8.11721854,11.5615 7.89801325,12.2013929 7.89801325,12.8731786 C7.89801325,14.2221786 8.77284768,15.4449643 10.1913907,16.3610357 C10.8013245,18.0350714 11.3827815,19.5991786 12.1960265,20.8029643 C12.2165563,21.22775 12.2192053,21.6661071 12.2192053,22.1180357 L12.2192053,22.2435714 C12.2192053,23.8925 11.1192053,24.681 9.61258278,24.9761786 C9.61258278,24.9761786 6.74437086,25.8128571 5.77549669,26.0415357 C2.78675497,26.7479286 0.562913907,29.7831786 0.562913907,33.0803571 L0.562913907,35.2857143 L32.3509934,35.2857143 L32.3509934,33.0803571 C32.3509934,29.7831786 30.1284768,26.7486071 27.1384106,26.0415357" id="Fill-2" sketch:type="MSShapeGroup"></path>
            </g>
            <path d="M51.426,25.76 L47.87,25.76 C47.17,25.76 46.708,25.732 46.316,25.662 L46.316,26.712 C46.764,26.656 47.226,26.628 47.87,26.628 L56.074,26.628 C56.746,26.628 57.222,26.656 57.684,26.712 L57.684,25.662 C57.25,25.732 56.774,25.76 56.074,25.76 L52.336,25.76 L52.336,24.612 C52.336,24.234 52.364,23.884 52.434,23.478 L51.328,23.478 C51.398,23.912 51.426,24.22 51.426,24.626 L51.426,25.76 Z M47.38,34.244 C46.694,34.244 46.218,34.216 45.77,34.16 L45.77,35.224 C46.218,35.154 46.68,35.126 47.38,35.126 L56.704,35.126 C57.39,35.126 57.796,35.154 58.244,35.224 L58.244,34.16 C57.824,34.216 57.348,34.244 56.704,34.244 L53.47,34.244 C54.184,32.732 54.814,31.08 55.346,29.358 C55.766,28 55.766,28 55.906,27.664 L54.828,27.3 C54.618,28.868 53.554,31.99 52.476,34.244 L47.38,34.244 Z M48.192,27.79 C48.864,29.47 49.354,31.248 49.718,33.334 L50.628,32.984 C50.18,30.688 49.788,29.288 49.116,27.454 L48.192,27.79 Z M70.634,31.598 C71.208,31.598 71.656,31.626 72.048,31.682 L72.048,30.758 C71.698,30.814 71.32,30.842 70.746,30.842 L65.132,30.842 C65.622,30.114 65.734,29.96 65.86,29.82 L64.852,29.582 C64.726,29.96 64.558,30.254 64.138,30.842 L61.296,30.842 C60.722,30.842 60.344,30.814 59.994,30.758 L59.994,31.682 C60.386,31.626 60.834,31.598 61.408,31.598 L63.564,31.598 C62.962,32.34 62.724,32.592 62.038,33.25 C63.48,33.53 64.278,33.712 65.3,33.992 C63.886,34.65 62.332,34.972 60.078,35.07 C60.4,35.616 60.4,35.63 60.512,35.952 C63.172,35.658 64.95,35.168 66.392,34.314 C68.1,34.832 69.514,35.35 71.082,36.05 L71.768,35.28 C70.172,34.636 69.052,34.258 67.218,33.74 C68.016,33.068 68.408,32.578 68.926,31.598 L70.634,31.598 Z M67.932,31.598 C67.456,32.452 67.064,32.886 66.224,33.46 C65.538,33.278 65.09,33.18 63.536,32.83 C64.278,31.976 64.334,31.906 64.572,31.598 L67.932,31.598 Z M65.51,26.334 L61.45,26.334 C60.848,26.334 60.372,26.306 59.98,26.25 L59.98,27.16 C60.386,27.104 60.82,27.076 61.45,27.076 L64.81,27.076 C64.348,27.468 63.83,27.818 63.13,28.196 C62.024,28.812 61.226,29.106 59.742,29.498 C59.994,29.778 60.12,29.974 60.246,30.268 C62.682,29.47 64.278,28.588 65.552,27.314 C65.524,27.566 65.51,27.804 65.51,28.07 L65.51,28.532 C65.51,29.162 65.496,29.358 65.454,29.666 L66.42,29.666 C66.364,29.358 66.35,29.064 66.35,28.532 L66.35,28.056 C66.35,27.706 66.336,27.58 66.308,27.3 C67.022,27.986 67.638,28.448 68.548,28.924 C69.696,29.554 70.62,29.904 71.908,30.212 C72.034,29.876 72.16,29.666 72.384,29.4 C70.074,28.91 68.408,28.182 67.064,27.076 L70.55,27.076 C71.222,27.076 71.586,27.104 72.006,27.16 L72.006,26.25 C71.628,26.306 71.194,26.334 70.55,26.334 L66.35,26.334 L66.35,24.892 C68.142,24.71 68.702,24.626 70.816,24.206 L70.2,23.408 C69.01,23.912 65.174,24.346 61.884,24.346 C61.688,24.346 61.366,24.346 60.96,24.332 C61.142,24.64 61.24,24.864 61.338,25.13 C63.578,25.088 64.18,25.06 65.51,24.962 L65.51,26.334 Z M77.536,34.664 C76.668,34.832 76.08,34.902 75.464,34.93 L75.702,35.91 C75.884,35.854 76.136,35.798 76.36,35.742 C78.432,35.336 79.734,35.014 81.554,34.496 L81.554,33.642 C80.126,34.062 79.524,34.23 78.39,34.482 L78.39,31.206 C79.062,30.632 79.188,30.506 79.748,29.904 L79.902,29.904 C81.134,32.732 82.814,34.37 85.908,35.77 C86.076,35.462 86.244,35.21 86.51,34.93 C84.914,34.328 83.794,33.684 82.8,32.76 C83.584,32.172 84.242,31.598 84.83,31.024 C85.012,30.842 85.012,30.842 85.11,30.758 L84.298,30.212 C83.85,30.8 83.164,31.458 82.24,32.172 C81.554,31.374 81.246,30.898 80.784,29.904 L84.69,29.904 C85.292,29.904 85.782,29.932 86.216,29.988 L86.216,29.036 C85.866,29.092 85.432,29.12 84.69,29.12 L80.308,29.12 L80.308,27.762 L83.416,27.762 C84.256,27.762 84.564,27.776 84.9,27.818 L84.9,26.922 C84.564,26.964 84.242,26.978 83.416,26.978 L80.308,26.978 L80.308,25.662 L84.186,25.662 C84.886,25.662 85.306,25.676 85.698,25.732 L85.698,24.808 C85.32,24.864 84.872,24.892 84.158,24.892 L80.308,24.892 L80.308,24.57 C80.308,23.996 80.322,23.73 80.392,23.352 L79.37,23.352 C79.426,23.688 79.454,23.968 79.454,24.57 L79.454,24.892 L75.856,24.892 C75.156,24.892 74.708,24.864 74.344,24.808 L74.344,25.732 C74.708,25.676 75.142,25.662 75.828,25.662 L79.454,25.662 L79.454,26.978 L76.556,26.978 C75.772,26.978 75.45,26.964 75.128,26.922 L75.128,27.818 C75.436,27.776 75.758,27.762 76.556,27.762 L79.454,27.762 L79.454,29.12 L75.324,29.12 C74.526,29.12 74.134,29.106 73.77,29.036 L73.77,29.988 C74.19,29.932 74.694,29.904 75.324,29.904 L78.698,29.904 C77.438,31.206 75.758,32.214 73.644,32.942 C73.938,33.278 74.078,33.474 74.204,33.74 C75.702,33.068 76.43,32.662 77.536,31.878 L77.536,34.664 Z M87.854,26.278 C88.176,26.236 88.4,26.208 88.582,26.208 C90.85,26.082 91.172,26.054 93.104,25.816 C93.286,26.082 93.356,26.194 93.58,26.544 L94.266,26.11 C93.608,25.172 93.076,24.514 92.404,23.814 L91.76,24.192 C92.18,24.612 92.334,24.78 92.67,25.228 C91.466,25.34 91.088,25.368 89.842,25.41 C90.234,24.836 90.472,24.43 91.004,23.492 L90.08,23.24 C89.842,23.982 89.576,24.486 88.946,25.438 C88.652,25.452 88.596,25.452 88.456,25.452 C88.148,25.452 87.98,25.438 87.756,25.424 L87.854,26.278 Z M89.464,30.408 L92.614,30.408 L92.614,31.136 C92.614,31.444 92.544,31.5 92.124,31.5 C91.802,31.5 91.41,31.458 90.92,31.388 C91.046,31.654 91.088,31.864 91.102,32.144 C91.438,32.158 91.746,32.172 91.956,32.172 C92.418,32.172 92.824,32.116 93.034,32.018 C93.272,31.92 93.398,31.626 93.398,31.15 L93.398,28.112 C93.398,27.412 93.412,27.034 93.454,26.712 C93.146,26.754 92.81,26.768 92.222,26.768 L89.87,26.768 C89.296,26.768 88.932,26.754 88.624,26.726 C88.652,27.034 88.666,27.272 88.666,27.874 L88.666,30.898 C88.666,31.584 88.652,31.948 88.596,32.326 L89.52,32.326 C89.478,32.004 89.464,31.668 89.464,30.982 L89.464,30.408 Z M89.464,29.764 L89.464,28.924 L92.614,28.924 L92.614,29.764 L89.464,29.764 Z M89.464,28.28 L89.464,27.44 L92.614,27.44 L92.614,28.28 L89.464,28.28 Z M95.456,24.402 C95.456,23.94 95.47,23.716 95.54,23.394 L94.546,23.394 C94.616,23.716 94.63,23.968 94.63,24.43 L94.63,26.572 C94.63,27.37 95.078,27.552 97.024,27.552 C98.648,27.552 99.124,27.496 99.432,27.258 C99.768,27.02 99.894,26.656 99.992,25.62 C99.614,25.508 99.572,25.48 99.194,25.27 C99.124,26.824 99.096,26.838 97.444,26.838 C96.534,26.838 95.862,26.796 95.694,26.74 C95.498,26.67 95.456,26.6 95.456,26.39 L95.456,25.718 C96.52,25.494 96.926,25.396 97.85,25.116 C98.354,24.948 99.306,24.598 99.726,24.416 L99.054,23.73 C98.396,24.192 97.108,24.668 95.456,25.018 L95.456,24.402 Z M95.414,29.022 C95.414,28.56 95.428,28.308 95.498,28.014 L94.504,28.014 C94.574,28.336 94.588,28.588 94.588,29.05 L94.588,31.108 C94.588,31.892 95.05,32.074 97.08,32.074 C98.634,32.074 99.222,31.99 99.544,31.724 C99.824,31.472 99.922,31.178 100.034,30.128 C99.67,30.03 99.586,29.988 99.236,29.778 C99.194,30.674 99.124,31.01 98.956,31.15 C98.774,31.29 98.382,31.332 97.136,31.332 C95.666,31.332 95.414,31.262 95.414,30.898 L95.414,30.1 C96.954,29.778 97.976,29.498 98.956,29.092 C99.306,28.952 99.348,28.938 99.516,28.882 L98.886,28.196 C98.27,28.644 96.926,29.106 95.414,29.4 L95.414,29.022 Z M88.582,35.784 C89.338,34.846 89.604,34.384 90.094,33.138 L89.31,32.774 C88.904,33.894 88.61,34.356 87.812,35.252 L88.582,35.784 Z M91.088,32.69 C91.158,33.026 91.172,33.306 91.172,33.712 L91.172,34.944 C91.172,35.784 91.494,35.882 94.196,35.882 C95.876,35.882 96.52,35.812 96.828,35.588 C97.164,35.336 97.332,34.86 97.43,33.838 C97.08,33.754 96.87,33.684 96.562,33.502 C96.548,34.188 96.464,34.594 96.324,34.79 C96.156,35.042 95.68,35.098 93.818,35.098 C92.292,35.098 92.012,35.042 92.012,34.734 L92.012,33.642 C92.012,33.222 92.026,33.012 92.096,32.69 L91.088,32.69 Z M100.174,35.196 C99.642,34.258 99.18,33.642 98.34,32.69 L97.64,33.054 C98.368,33.866 98.858,34.608 99.404,35.672 L100.174,35.196 Z M95.512,33.712 C94.812,33.096 94.378,32.774 93.622,32.368 L93.034,32.858 C93.762,33.25 94.252,33.642 94.896,34.286 L95.512,33.712 Z M104.29,26.894 L102.974,26.894 L102.974,24.864 C102.974,24.332 102.988,24.052 103.03,23.8 L102.106,23.8 C102.148,24.052 102.162,24.402 102.162,24.906 L102.162,26.866 C102.162,27.16 102.148,27.426 102.134,27.692 C102.456,27.678 102.694,27.664 103.114,27.664 L104.29,27.664 L104.29,29.54 L102.806,29.54 C102.204,29.54 101.882,29.526 101.56,29.484 L101.56,30.366 C101.868,30.324 102.036,30.324 102.484,30.31 C102.47,31.976 102.456,32.032 102.33,32.942 C102.176,34.02 101.952,34.692 101.49,35.35 C101.77,35.532 101.882,35.63 102.162,35.966 C103.016,34.594 103.254,33.32 103.282,30.31 L104.29,30.31 L104.29,34.51 C104.29,35.266 104.276,35.644 104.206,36.064 L105.186,36.064 C105.13,35.644 105.116,35.266 105.116,34.524 L105.116,24.934 C105.116,24.178 105.13,23.828 105.186,23.394 L104.206,23.394 C104.276,23.8 104.29,24.164 104.29,24.92 L104.29,26.894 Z M109.4,25.186 L109.4,28.518 L106.922,28.518 C106.278,28.518 105.942,28.504 105.564,28.434 L105.564,29.344 C105.984,29.274 106.334,29.26 106.936,29.26 L112.998,29.26 C113.67,29.26 114.062,29.288 114.426,29.344 L114.426,28.434 C114.062,28.49 113.684,28.518 113.068,28.518 L110.212,28.518 L110.212,25.186 L112.76,25.186 C113.348,25.186 113.74,25.2 114.132,25.256 L114.132,24.374 C113.726,24.43 113.362,24.458 112.718,24.458 L110.212,24.458 C110.212,23.884 110.24,23.632 110.296,23.268 L109.316,23.268 C109.372,23.632 109.4,23.898 109.4,24.458 L107.272,24.458 C106.614,24.458 106.222,24.43 105.83,24.374 L105.83,25.256 C106.25,25.2 106.6,25.186 107.23,25.186 L109.4,25.186 Z M107.258,25.41 C107.104,26.068 106.978,26.334 106.67,26.796 C106.376,27.258 106.166,27.468 105.662,27.874 C105.9,28 106.082,28.154 106.236,28.364 C106.824,27.846 107.062,27.552 107.412,26.978 C107.72,27.412 108.112,27.79 108.686,28.224 C108.84,27.972 108.952,27.818 109.176,27.622 C108.49,27.216 108.126,26.894 107.734,26.348 C107.846,26.11 107.902,25.984 108.056,25.564 L107.258,25.41 Z M111.892,25.396 C111.724,26.026 111.626,26.292 111.304,26.796 C111.024,27.258 110.842,27.454 110.38,27.86 C110.688,28.056 110.814,28.168 110.968,28.364 C111.486,27.832 111.752,27.51 112.074,26.936 C112.48,27.468 112.942,27.874 113.628,28.322 C113.782,28.056 113.908,27.902 114.09,27.72 C113.32,27.314 112.83,26.894 112.382,26.32 C112.494,26.068 112.536,25.942 112.69,25.564 L111.892,25.396 Z M108.126,33.138 C108.126,33.348 108.126,33.544 108.098,33.922 C108.378,33.908 108.616,33.894 108.868,33.894 L110.744,33.894 C111.024,33.894 111.22,33.894 111.626,33.922 C111.612,33.726 111.598,33.474 111.598,33.222 L111.598,32.354 C111.598,32.116 111.612,31.892 111.626,31.556 C111.36,31.57 111.094,31.584 110.786,31.584 L108.882,31.584 C108.546,31.584 108.35,31.57 108.098,31.556 C108.112,31.892 108.126,32.074 108.126,32.298 L108.126,33.138 Z M108.812,32.214 L110.912,32.214 L110.912,33.264 L108.812,33.264 L108.812,32.214 Z M107.02,35.392 L112.746,35.392 L112.746,36.078 L113.642,36.078 C113.6,35.714 113.572,35.252 113.572,34.678 L113.572,31.192 C113.572,30.646 113.586,30.366 113.628,30.03 C113.306,30.072 112.998,30.086 112.438,30.086 L107.356,30.086 C106.796,30.086 106.46,30.072 106.138,30.03 C106.18,30.408 106.194,30.674 106.194,31.22 L106.194,34.734 C106.194,35.434 106.18,35.784 106.124,36.064 L107.02,36.064 L107.02,35.392 Z M107.006,30.814 L112.746,30.814 L112.746,34.664 L107.006,34.664 L107.006,30.814 Z" id="立委表態牆" sketch:type="MSShapeGroup"></path>
        </g>
        <g id="Artboard-16" sketch:type="MSArtboardGroup" transform="translate(-730.000000, -74.000000)"></g>
    </g>
</svg>