<?xml version="1.0" encoding="UTF-8" standalone="no"?>
<svg width="135px" height="36px" viewBox="0 0 135 36" version="1.1" xmlns="http://www.w3.org/2000/svg" xmlns:xlink="http://www.w3.org/1999/xlink" xmlns:sketch="http://www.bohemiancoding.com/sketch/ns">
    <!-- Generator: Sketch 3.2.2 (9983) - http://www.bohemiancoding.com/sketch -->
    <title>alias-hovered</title>
    <desc>Created with Sketch.</desc>
    <defs></defs>
    <g id="Page-1" stroke="none" stroke-width="1" fill="none" fill-rule="evenodd" sketch:type="MSPage">
        <g id="alias-hovered" sketch:type="MSArtboardGroup" fill="#96562A">
            <text id="立委聲援牆" sketch:type="MSTextLayer" font-family="Hiragino Kaku Gothic ProN" font-size="14" font-weight="313">
                <tspan x="45" y="35">立委聲援牆</tspan>
            </text>
            <g id="alias" sketch:type="MSLayerGroup" transform="translate(0.000000, 0.357143)">
                <path d="M38.5668874,23.3917143 C37.2437086,22.7104286 33.5748344,21.6891786 33.1887417,20.3985357 C35.5649007,20.0802857 37.5688742,19.4783929 38.5860927,18.7964286 C39.1384106,18.4259286 38.7384106,17.64625 38.3629139,17.0898214 C37.5410596,15.8711071 36.7642384,13.3264643 36.7642384,10.6427143 L36.7642384,8.30639286 C36.7642384,4.46839286 33.5543046,1.35714286 29.592053,1.35714286 C28.1264901,1.35714286 26.7649007,1.78396429 25.6291391,2.51410714 C26.6225166,4.17457143 27.1953642,6.12614286 27.1953642,8.21275 L27.1953642,10.2484643 C27.6,11.0844643 27.8099338,11.9774643 27.8099338,12.8731786 C27.8099338,14.8634286 26.8364238,16.6942143 25.0456954,18.1042857 C24.8,18.7604643 24.5331126,19.4349643 24.2364238,20.0979286 C24.7907285,20.2146429 25.3801325,20.3164286 25.994702,20.3985357 C25.7933775,21.0730357 24.6960265,21.6735714 23.505298,22.1899643 C23.5966887,22.2266071 23.7324503,22.2700357 23.9317881,22.3087143 L24.0470199,22.3311071 L24.1596026,22.3636786 C24.9443709,22.5916786 27.1450331,23.2213929 27.8913907,23.3964643 C31.5377483,24.2528214 34.318543,27.4020714 35.015894,31.2142857 L42.9470199,31.2142857 L42.9470199,29.3482143 C42.9470199,26.5586071 40.1927152,24.2290714 38.5668874,23.3917143" id="Fill-1" sketch:type="MSShapeGroup"></path>
                <path d="M27.1384106,26.0415357 C26.1701987,25.8128571 23.3019868,24.9761786 23.3019868,24.9761786 C21.794702,24.681 20.6953642,23.8925 20.6953642,22.2435714 L20.6953642,22.1180357 C20.6953642,21.6661071 20.697351,21.2284286 20.7192053,20.8036429 C21.5317881,19.5998571 22.1139073,18.0350714 22.7238411,16.3610357 C24.1423841,15.4449643 25.0152318,14.2221786 25.0152318,12.8731786 C25.0152318,12.2013929 24.7960265,11.5628571 24.4039735,10.9738571 L24.4039735,8.21342857 C24.4039735,3.67717857 20.8463576,0 16.4569536,0 C12.0675497,0 8.50993377,3.67717857 8.50993377,8.21342857 L8.50993377,10.9731786 C8.11721854,11.5615 7.89801325,12.2013929 7.89801325,12.8731786 C7.89801325,14.2221786 8.77284768,15.4449643 10.1913907,16.3610357 C10.8013245,18.0350714 11.3827815,19.5991786 12.1960265,20.8029643 C12.2165563,21.22775 12.2192053,21.6661071 12.2192053,22.1180357 L12.2192053,22.2435714 C12.2192053,23.8925 11.1192053,24.681 9.61258278,24.9761786 C9.61258278,24.9761786 6.74437086,25.8128571 5.77549669,26.0415357 C2.78675497,26.7479286 0.562913907,29.7831786 0.562913907,33.0803571 L0.562913907,35.2857143 L32.3509934,35.2857143 L32.3509934,33.0803571 C32.3509934,29.7831786 30.1284768,26.7486071 27.1384106,26.0415357" id="Fill-2" sketch:type="MSShapeGroup"></path>
            </g>
        </g>
    </g>
</svg>