<?xml version="1.0" encoding="UTF-8" standalone="no"?>
<svg width="150px" height="57px" viewBox="0 0 150 57" version="1.1" xmlns="http://www.w3.org/2000/svg" xmlns:xlink="http://www.w3.org/1999/xlink" xmlns:sketch="http://www.bohemiancoding.com/sketch/ns">
    <!-- Generator: Sketch 3.2.2 (9983) - http://www.bohemiancoding.com/sketch -->
    <title>claim-hovered</title>
    <desc>Created with Sketch.</desc>
    <defs></defs>
    <g id="Page-1" stroke="none" stroke-width="1" fill="none" fill-rule="evenodd" sketch:type="MSPage">
        <g id="claim-hovered" sketch:type="MSArtboardGroup" fill="#96562A">
            <path d="M89.652,11.876 C89.148,13.584 87.944,15.572 86.264,17.504 C85.48,15.516 85.004,13.472 84.668,10.56 L90.604,10.56 C91.78,10.56 92.676,10.616 93.488,10.728 L93.488,8.796 C92.676,8.908 91.864,8.964 90.688,8.964 L84.5,8.964 C84.332,6.892 84.276,5.688 84.276,3.784 C84.276,2.384 84.304,1.796 84.444,1.18 L82.316,1.18 C82.428,1.852 82.456,2.216 82.484,3.252 C82.54,6.472 82.568,6.948 82.736,8.964 L76.128,8.964 L76.128,4.12 C77.528,3.672 78.312,3.42 79.6,2.916 C80.216,2.692 80.216,2.692 80.328,2.664 C80.664,2.552 80.664,2.552 80.832,2.496 L79.768,0.928 C78.172,2.132 73.188,3.56 68.904,4.064 C69.268,4.596 69.492,5.044 69.688,5.604 C71.536,5.296 72.46,5.1 74.364,4.596 L74.364,8.964 L71.424,8.964 C70.164,8.964 69.268,8.908 68.54,8.796 L68.54,10.728 C69.352,10.616 70.248,10.56 71.424,10.56 L74.364,10.56 L74.364,15.516 C71.06,16.272 69.408,16.58 68.484,16.58 L68.96,18.512 C69.464,18.316 69.772,18.26 70.416,18.12 C71.284,17.952 71.564,17.896 74.364,17.196 L74.364,23.048 C74.364,23.552 74.224,23.664 73.636,23.664 C72.656,23.664 71.676,23.58 70.108,23.356 C70.388,24.056 70.5,24.56 70.556,25.288 C71.704,25.372 72.796,25.428 73.692,25.428 C75.512,25.428 76.128,24.952 76.128,23.496 L76.128,16.776 C78.004,16.272 78.844,16.02 81.224,15.236 L81.14,13.584 C78.956,14.34 78.172,14.592 76.128,15.096 L76.128,10.56 L82.876,10.56 C83.268,13.696 83.94,16.412 85.004,18.876 C82.82,20.948 80.608,22.348 77.332,23.608 C78.004,24.196 78.256,24.532 78.62,25.148 C81.672,23.748 83.744,22.404 85.788,20.472 C87.496,23.608 89.456,25.568 90.912,25.568 C91.668,25.568 92.256,25.12 92.676,24.224 C93.096,23.356 93.32,22.46 93.712,20.388 C93.124,20.052 92.788,19.8 92.2,19.184 C91.752,22.208 91.332,23.58 90.8,23.58 C90.016,23.58 88.392,21.676 87.076,19.184 C88.336,17.756 89.54,16.076 90.492,14.256 C90.8,13.696 91.052,13.304 91.388,12.828 L89.652,11.876 Z M86.236,2.692 C88.224,4.596 89.036,5.548 90.408,7.424 L91.752,6.276 C90.38,4.456 89.232,3.252 87.496,1.768 L86.236,2.692 Z M100.936,7.704 C101.58,6.22 102.252,4.288 102.728,2.72 C102.896,2.104 102.924,1.992 103.092,1.516 L101.188,0.9 C101.16,1.6 100.88,2.776 100.46,4.092 C99.34,7.62 97.716,10.56 95.56,13.108 C96.064,13.5 96.4,13.976 96.736,14.648 C97.996,12.996 98.64,11.96 99.34,10.42 C99.256,11.652 99.228,12.548 99.228,13.808 L99.228,22.432 C99.228,23.916 99.172,24.84 99.06,25.876 L101.076,25.876 C100.964,25.064 100.936,24.196 100.936,22.516 L100.936,7.704 Z M105.472,25.876 C105.36,25.232 105.332,24.448 105.332,22.796 L105.332,11.288 L108.552,11.288 C109.672,11.288 110.288,11.316 111.072,11.4 C111.016,10.644 111.016,9.944 111.016,8.768 L111.016,4.316 C111.016,3.14 111.016,2.552 111.1,1.684 C110.372,1.768 109.756,1.796 108.664,1.796 L105.976,1.796 C104.912,1.796 104.268,1.768 103.512,1.684 C103.568,2.608 103.596,3.504 103.596,4.82 L103.596,22.74 C103.596,24.168 103.54,24.98 103.456,25.876 L105.472,25.876 Z M105.332,5.772 L105.332,3.224 L109.448,3.224 L109.448,5.772 L105.332,5.772 Z M105.332,7.172 L109.448,7.172 L109.448,9.832 L105.332,9.832 L105.332,7.172 Z M115.44,1.796 C114.264,1.796 113.536,1.768 112.808,1.684 C112.864,2.44 112.892,3.196 112.892,4.316 L112.892,8.796 C112.892,9.86 112.864,10.588 112.808,11.4 C113.564,11.316 114.208,11.288 115.356,11.288 L118.884,11.288 L118.884,23.188 C118.884,23.832 118.716,23.944 117.736,23.944 C116.952,23.944 116.112,23.86 114.796,23.692 C115.104,24.42 115.188,24.756 115.3,25.512 C116.084,25.568 116.868,25.596 117.708,25.596 C120.032,25.596 120.592,25.176 120.592,23.3 L120.592,4.82 C120.592,3.252 120.62,2.58 120.732,1.684 C119.976,1.768 119.248,1.796 118.128,1.796 L115.44,1.796 Z M118.884,5.772 L114.46,5.772 L114.46,3.224 L118.884,3.224 L118.884,5.772 Z M118.884,7.172 L118.884,9.832 L114.46,9.832 L114.46,7.172 L118.884,7.172 Z M127.9,5.044 L127.088,5.044 C126.612,5.044 125.8,5.016 125.408,4.96 C125.492,5.66 125.52,6.304 125.52,7.62 L125.52,21.816 C125.52,23.468 125.492,24.504 125.38,25.232 L127.256,25.232 L127.256,22.768 L132.716,22.768 L132.716,24.56 L134.564,24.56 C134.48,23.888 134.424,22.936 134.424,21.676 L134.424,7.424 C134.424,6.416 134.452,5.688 134.508,4.96 C134.396,4.96 133.584,4.988 132.044,5.044 L130.224,5.044 C130.756,3.812 131.12,2.776 131.652,1.18 L129.664,0.816 C129.412,2.3 129.076,3.476 128.46,5.044 L127.9,5.044 Z M127.256,6.584 L132.716,6.584 L132.716,12.828 L127.256,12.828 L127.256,6.584 Z M127.256,14.368 L132.716,14.368 L132.716,21.2 L127.256,21.2 L127.256,14.368 Z M147.136,6.668 C147.108,10.784 147.08,12.716 146.94,14.956 C146.744,18.708 146.38,21.396 145.904,22.684 C145.568,23.58 145.176,23.832 144.14,23.832 C143.132,23.832 141.872,23.692 140.164,23.356 C140.472,24.056 140.584,24.532 140.64,25.344 C142.432,25.484 143.188,25.54 144.224,25.54 C145.876,25.54 146.772,25.036 147.332,23.748 C148.34,21.508 148.704,17.756 148.956,6.668 C148.984,5.632 148.984,5.408 149.068,4.904 C148.508,4.988 147.724,5.016 146.604,5.016 L139.828,5.016 C140.248,3.924 140.5,3.28 140.892,2.16 C141.088,1.572 141.2,1.264 141.284,1.096 L139.352,0.732 C139.296,1.348 139.016,2.384 138.624,3.448 C137.588,6.304 136.216,8.684 134.508,10.504 C134.984,10.812 135.488,11.288 135.852,11.764 C137.308,9.888 138.12,8.6 139.072,6.668 L147.136,6.668 Z M143.748,17.224 C142.264,14.228 141.088,12.38 139.324,10.252 L137.896,11.12 C139.52,13.08 140.584,14.844 142.152,18.204 L143.748,17.224 Z" id="我們的" sketch:type="MSShapeGroup"></path>
            <path d="M86.412,39.86 L86.412,44.732 C85.376,44.172 84.76,43.836 82.996,42.996 L82.1,44.312 C84.144,45.264 84.9,45.684 86.412,46.608 L86.412,53.188 C86.412,54.308 86.356,55.064 86.244,55.96 L88.288,55.96 C88.148,55.148 88.092,54.28 88.092,53.16 L88.092,47.672 C89.324,48.512 89.94,48.988 91.424,50.304 L92.404,48.736 C90.472,47.252 89.66,46.692 88.092,45.712 L88.092,39.86 L90.332,39.86 C91.312,39.86 92.04,39.888 92.88,40 L92.88,38.04 C92.124,38.152 91.424,38.208 90.276,38.208 L81.008,38.208 L81.008,37.48 L81.008,34.512 C84.928,34.12 87.728,33.532 91.004,32.384 C91.284,32.3 91.508,32.216 91.9,32.076 L90.444,30.536 C89.66,31.012 88.456,31.488 86.916,31.88 C84.732,32.468 81.456,32.972 79.72,32.972 L79.104,32.972 C79.216,34.008 79.272,35.156 79.272,36.416 C79.272,41.428 79.104,45.292 78.74,47.784 C78.292,51.06 77.592,53.02 76.248,54.952 C76.808,55.288 77.06,55.512 77.648,56.184 C80,52.544 80.812,48.596 80.98,39.86 L86.412,39.86 Z M68.604,33.476 C69.22,33.392 69.808,33.364 70.62,33.364 L74.316,33.364 C75.1,33.364 75.716,33.392 76.332,33.476 L76.332,31.712 C75.688,31.824 75.24,31.852 74.316,31.852 L70.62,31.852 C69.696,31.852 69.22,31.824 68.604,31.712 L68.604,33.476 Z M67.316,37.396 C68.044,37.312 68.576,37.284 69.556,37.284 L75.24,37.284 C76.192,37.284 76.696,37.312 77.256,37.396 L77.256,35.576 C76.64,35.688 76.164,35.716 75.016,35.716 L69.556,35.716 C68.492,35.716 67.96,35.688 67.316,35.576 L67.316,37.396 Z M68.576,41.26 C69.192,41.176 69.584,41.148 70.48,41.148 L74.372,41.148 C75.184,41.148 75.548,41.176 76.22,41.26 L76.22,39.552 C75.66,39.636 75.324,39.664 74.372,39.664 L70.48,39.664 C69.5,39.664 69.192,39.636 68.576,39.552 L68.576,41.26 Z M68.576,45.124 C69.164,45.04 69.584,45.012 70.452,45.012 L74.344,45.012 C75.212,45.012 75.66,45.04 76.22,45.124 L76.22,43.416 C75.716,43.5 75.268,43.528 74.344,43.528 L70.48,43.528 C69.528,43.528 69.136,43.5 68.576,43.416 L68.576,45.124 Z M70.256,55.932 L70.256,54.28 L74.652,54.28 L75.072,54.28 C75.212,54.308 75.38,54.308 75.548,54.308 C75.884,54.308 75.968,54.308 76.248,54.336 C76.22,53.804 76.192,53.328 76.192,52.516 L76.192,49.38 C76.192,48.344 76.22,47.812 76.276,47.196 C75.772,47.28 75.52,47.28 74.596,47.28 L70.312,47.28 C69.276,47.28 69.024,47.252 68.52,47.168 C68.604,47.896 68.632,48.596 68.632,49.464 L68.632,53.216 C68.632,54.084 68.576,55.12 68.492,55.932 L70.256,55.932 Z M70.228,48.708 L74.652,48.708 L74.652,52.824 L70.228,52.824 L70.228,48.708 Z M107.048,37.452 L107.048,53.16 C107.048,53.804 106.824,53.944 105.76,53.944 C104.724,53.944 103.464,53.832 102.092,53.608 C102.372,54.336 102.456,54.728 102.54,55.456 C103.688,55.568 104.948,55.624 106.068,55.624 C108.224,55.624 108.84,55.148 108.84,53.524 L108.84,45.264 C108.812,44.424 108.7,41.4 108.672,40.616 C109.288,42.52 109.68,43.36 110.464,44.732 C111.528,46.636 112.816,48.344 114.272,49.856 C115.952,51.564 117.1,52.488 119.144,53.748 C119.592,53.048 119.956,52.6 120.46,52.096 C118.388,51.004 117.212,50.192 115.644,48.708 C114.524,47.672 113.628,46.636 112.676,45.376 C114.188,44.144 115.616,42.828 116.54,41.792 C117.996,40.196 117.996,40.196 118.192,39.972 L116.624,38.768 C115.728,40.364 114.16,42.072 111.78,44.06 C110.464,41.988 109.456,39.692 108.896,37.452 L117.156,37.452 C118.416,37.452 119.284,37.508 120.04,37.62 L120.04,35.688 C119.256,35.8 118.416,35.856 117.156,35.856 L108.84,35.856 L108.84,33.7 C108.84,32.356 108.896,31.572 109.008,30.704 L106.88,30.704 C106.992,31.516 107.048,32.356 107.048,33.7 L107.048,35.856 L98.9,35.856 C97.612,35.856 96.8,35.8 96.016,35.688 L96.016,37.62 C96.8,37.508 97.668,37.452 98.844,37.452 L107.048,37.452 Z M111.248,32.02 C113.18,33.14 113.992,33.756 115.532,35.296 L116.792,34.092 C115.112,32.608 114.44,32.104 112.452,30.928 L111.248,32.02 Z M98.676,40.056 C100.272,41.624 101.224,42.828 102.484,44.984 L103.968,43.808 C102.596,41.764 101.784,40.756 100.048,38.992 L98.676,40.056 Z M105.76,45.516 C103.912,46.944 102.708,47.728 100.384,49.016 C98.564,50.024 97.472,50.5 96.184,50.864 L97.108,52.768 C97.584,52.46 97.892,52.264 98.48,51.956 C102.456,49.8 103.604,49.1 106.264,47.196 L105.76,45.516 Z" id="訴求" sketch:type="MSShapeGroup"></path>
            <g id="Rectangle-20-+-Rectangle-21-+-Rectangle-23" sketch:type="MSLayerGroup" transform="translate(29.890558, 28.511634) rotate(-15.000000) translate(-29.890558, -28.511634) translate(5.944154, 9.274289)">
                <path d="M8.97990168,17.0653867 L43.7021882,0 L47.892809,34.1307734 L10.1772219,26.6840592 L8.97990168,17.0653867 Z" id="Rectangle-20" sketch:type="MSShapeGroup"></path>
                <path d="M0,16.7551069 L7.78258146,16.7551069 L7.78258146,27.3046187 L1.79598034,28.5457377 L0,16.7551069 Z M2.39464045,18.6167855 L5.98660112,18.6167855 L5.98660112,24.8223807 L2.39464045,24.8223807 L2.39464045,18.6167855 Z" id="Rectangle-21" sketch:type="MSShapeGroup"></path>
                <path d="M13.1705225,24.8223807 L19.1571236,24.8223807 L19.1571236,38.47469 C19.1571236,38.47469 14.6671727,41.8877673 13.1705225,38.47469 C11.6738722,35.0616127 13.1705225,24.8223807 13.1705225,24.8223807 Z" id="Rectangle-23" sketch:type="MSShapeGroup"></path>
            </g>
        </g>
    </g>
</svg>