<?xml version="1.0" encoding="UTF-8" standalone="no"?>
<svg width="498px" height="247px" viewBox="0 0 498 247" version="1.1" xmlns="http://www.w3.org/2000/svg" xmlns:xlink="http://www.w3.org/1999/xlink" xmlns:sketch="http://www.bohemiancoding.com/sketch/ns">
    <!-- Generator: Sketch 3.2.2 (9983) - http://www.bohemiancoding.com/sketch -->
    <title>Artboard 1</title>
    <desc>Created with Sketch.</desc>
    <defs></defs>
    <g id="Page-1" stroke="none" stroke-width="1" fill="none" fill-rule="evenodd" sketch:type="MSPage">
        <g id="Artboard-1" sketch:type="MSArtboardGroup" fill="#CCBAAD">
            <g id="Imported-Layers" sketch:type="MSLayerGroup">
                <path d="M38.4615385,162.09375 L73.0730769,162.09375 L79.6461538,146.65625 L38.4615385,146.65625 L38.4615385,162.09375 L38.4615385,162.09375 Z M38.4615385,131.21875 L91.7576923,131.21875 L107.142308,115.78125 L38.4615385,115.78125 L38.4615385,131.21875 L38.4615385,131.21875 Z M38.4615385,84.90625 L38.4615385,100.34375 L122.530769,100.34375 L137.915385,84.90625 L38.4615385,84.90625 L38.4615385,84.90625 Z" id="Fill-1" sketch:type="MSShapeGroup"></path>
                <path d="M184.615385,231.5625 L15.3846154,231.5625 L15.3846154,75.8984687 C15.3846154,71.6415781 18.8346154,65.6055156 23.0769231,65.6055156 L38.4615385,65.6055156 C46.3346154,65.6055156 52.9307692,65.1655469 58.9307692,59.1372031 C64.9423077,53.1127187 65.3846154,46.4938906 65.3846154,38.59375 L65.3846154,23.1523906 C65.3846154,18.8916406 71.3961538,15.4297812 75.6423077,15.4297812 L184.615385,15.4297812 L184.615385,38.0495781 L200,22.6120781 L200,15.4375 C200,11.4893594 198.496154,7.5335 195.492308,4.5231875 C192.488462,1.50901562 188.55,0 184.615385,0 L76.9230769,0 C67.0961538,0 57.6115385,3.94042188 50.6615385,10.9143125 L10.8769231,50.8356875 C3.93076923,57.8095781 0,67.3229375 0,77.1875 L0,231.5625 C0,235.510641 1.50384615,239.4665 4.50769231,242.476813 C7.51153846,245.490984 11.45,247 15.3846154,247 L184.615385,247 C188.55,247 192.488462,245.490984 195.492308,242.476813 C198.496154,239.4665 200,235.510641 200,231.5625 L200,131.770641 L184.615385,147.208141 L184.615385,231.5625 L184.615385,231.5625 Z M234.384615,42.6846875 C225.376923,33.6383125 215.634615,28.7484844 212.630769,31.7626562 L92.9653846,151.84325 L93.0192308,151.893422 C96.3884615,149.566219 105.711538,154.398156 114.380769,163.097187 C123.05,171.796219 127.865385,181.147484 125.55,184.536016 L125.6,184.590047 L245.269231,64.5171719 C248.273077,61.503 243.4,51.7233438 234.384615,42.6846875 L234.384615,42.6846875 Z M79.3538462,198.221359 C79.3615385,198.225219 79.3653846,198.229078 79.3730769,198.236797 C79.3769231,198.240656 79.3769231,198.244516 79.3807692,198.244516 C81.3153846,200.174203 84.3923077,200.946078 87.7038462,199.633891 L103.796154,193.246625 C102.092308,189.503031 99.3384615,185.524016 95.6884615,181.865328 C92.0384615,178.198922 88.0692308,175.435609 84.3384615,173.725906 L77.9730769,189.869672 C76.6653846,193.188734 77.4346154,196.276234 79.3538462,198.221359 L79.3538462,198.221359 Z" id="Fill-2" sketch:type="MSShapeGroup"></path>
            </g>
            <path d="M287.78125,131.15625 C280.593714,131.15625 275.041686,129.046896 271.125,124.828125 C267.208314,120.609354 265.25,114.635455 265.25,106.90625 C265.25,99.1978781 267.244772,93.2187713 271.234375,88.96875 C275.223978,84.7187287 280.843714,82.59375 288.09375,82.59375 C292.239604,82.59375 297.093722,83.2708266 302.65625,84.625 L302.65625,90.78125 C296.322885,88.5937391 291.437517,87.5 288,87.5 C282.979142,87.5 279.093764,89.1978997 276.34375,92.59375 C273.593736,95.9896003 272.21875,100.781219 272.21875,106.96875 C272.21875,112.864613 273.687485,117.515608 276.625,120.921875 C279.562515,124.328142 283.572891,126.03125 288.65625,126.03125 C293.031272,126.03125 297.718725,124.687513 302.71875,122 L302.71875,127.625 C298.156227,129.979178 293.17711,131.15625 287.78125,131.15625 L287.78125,131.15625 Z M325.71875,130.78125 C320.864559,130.78125 316.989598,129.171891 314.09375,125.953125 C311.197902,122.734359 309.75,118.42711 309.75,113.03125 C309.75,107.572889 311.20311,103.255224 314.109375,100.078125 C317.01564,96.9010258 320.958308,95.3125 325.9375,95.3125 C330.916692,95.3125 334.85936,96.9010258 337.765625,100.078125 C340.67189,103.255224 342.125,107.552056 342.125,112.96875 C342.125,118.510444 340.666681,122.864567 337.75,126.03125 C334.833319,129.197932 330.822942,130.78125 325.71875,130.78125 L325.71875,130.78125 Z M325.8125,126.15625 C332.333366,126.15625 335.59375,121.760461 335.59375,112.96875 C335.59375,104.281207 332.375032,99.9375 325.9375,99.9375 C319.520801,99.9375 316.3125,104.30204 316.3125,113.03125 C316.3125,121.781294 319.479135,126.15625 325.8125,126.15625 L325.8125,126.15625 Z M351.75,130 L351.75,96.0625 L357.90625,96.0625 L357.90625,102.4375 C360.906265,97.6874763 364.760393,95.3125 369.46875,95.3125 C374.010439,95.3125 377.104158,97.6874763 378.75,102.4375 C381.666681,97.6666428 385.45831,95.28125 390.125,95.28125 C393.125015,95.28125 395.447908,96.1614495 397.09375,97.921875 C398.739592,99.6823005 399.5625,102.145818 399.5625,105.3125 L399.5625,130 L393.375,130 L393.375,106.28125 C393.375,102.406231 391.843765,100.46875 388.78125,100.46875 C385.593734,100.46875 382.250018,102.729144 378.75,107.25 L378.75,130 L372.5625,130 L372.5625,106.28125 C372.5625,102.385397 371.000016,100.4375 367.875,100.4375 C364.770818,100.4375 361.447934,102.708311 357.90625,107.25 L357.90625,130 L351.75,130 Z M411.5,130 L411.5,96.0625 L417.65625,96.0625 L417.65625,130 L411.5,130 Z M411.5,89.90625 L411.5,83.75 L417.65625,83.75 L417.65625,89.90625 L411.5,89.90625 Z M430,130 L430,96.0625 L436.15625,96.0625 L436.15625,102.4375 C439.406266,97.6874763 443.385393,95.3125 448.09375,95.3125 C451.031265,95.3125 453.374991,96.2447823 455.125,98.109375 C456.875009,99.9739677 457.75,102.479151 457.75,105.625 L457.75,130 L451.59375,130 L451.59375,107.625 C451.59375,105.104154 451.223962,103.307297 450.484375,102.234375 C449.744788,101.161453 448.520842,100.625 446.8125,100.625 C443.041648,100.625 439.4896,103.093725 436.15625,108.03125 L436.15625,130 L430,130 Z M469.84375,141.28125 L470.5625,135.9375 C474.125018,137.625008 477.635399,138.46875 481.09375,138.46875 C488.031285,138.46875 491.5,134.791703 491.5,127.4375 L491.5,122.09375 C489.229155,126.843774 485.500026,129.21875 480.3125,129.21875 C476.24998,129.21875 473.020845,127.739598 470.625,124.78125 C468.229155,121.822902 467.03125,117.833358 467.03125,112.8125 C467.03125,107.645807 468.39582,103.437516 471.125,100.1875 C473.85418,96.9374837 477.385395,95.3125 481.71875,95.3125 C485.510436,95.3125 488.77082,96.8541513 491.5,99.9375 L491.5,96.0625 L497.6875,96.0625 L497.6875,120.75 C497.6875,126.062527 497.411461,129.994779 496.859375,132.546875 C496.307289,135.098971 495.270841,137.187492 493.75,138.8125 C491.062487,141.666681 486.885445,143.09375 481.21875,143.09375 C477.260397,143.09375 473.468768,142.489589 469.84375,141.28125 L469.84375,141.28125 Z M491.5,118.25 L491.5,104.15625 C488.791653,101.343736 485.843766,99.9375 482.65625,99.9375 C479.822902,99.9375 477.604175,101.072905 476,103.34375 C474.395825,105.614595 473.59375,108.729147 473.59375,112.6875 C473.59375,120.125037 476.208307,123.84375 481.4375,123.84375 C485.000018,123.84375 488.354151,121.979185 491.5,118.25 L491.5,118.25 Z M277.03125,207.15625 C273.927068,207.15625 269.958357,206.479173 265.125,205.125 L265.125,198.625 C270.333359,201.041679 274.614567,202.25 277.96875,202.25 C280.552096,202.25 282.6302,201.572923 284.203125,200.21875 C285.77605,198.864577 286.5625,197.083344 286.5625,194.875 C286.5625,193.062491 286.04688,191.52084 285.015625,190.25 C283.98437,188.97916 282.083347,187.562508 279.3125,186 L276.125,184.15625 C272.18748,181.906239 269.411466,179.786468 267.796875,177.796875 C266.182284,175.807282 265.375,173.489597 265.375,170.84375 C265.375,167.281232 266.666654,164.34897 269.25,162.046875 C271.833346,159.74478 275.12498,158.59375 279.125,158.59375 C282.687518,158.59375 286.447897,159.187494 290.40625,160.375 L290.40625,166.375 C285.531226,164.458324 281.895845,163.5 279.5,163.5 C277.229155,163.5 275.354174,164.104161 273.875,165.3125 C272.395826,166.520839 271.65625,168.041657 271.65625,169.875 C271.65625,171.416674 272.197911,172.781244 273.28125,173.96875 C274.364589,175.156256 276.343736,176.572908 279.21875,178.21875 L282.53125,180.09375 C286.53127,182.364595 289.322909,184.510407 290.90625,186.53125 C292.489591,188.552093 293.28125,190.979152 293.28125,193.8125 C293.28125,197.833353 291.79689,201.062488 288.828125,203.5 C285.85936,205.937512 281.927108,207.15625 277.03125,207.15625 L277.03125,207.15625 Z M315.90625,206.78125 C311.052059,206.78125 307.177098,205.171891 304.28125,201.953125 C301.385402,198.734359 299.9375,194.42711 299.9375,189.03125 C299.9375,183.572889 301.39061,179.255224 304.296875,176.078125 C307.20314,172.901026 311.145808,171.3125 316.125,171.3125 C321.104192,171.3125 325.04686,172.901026 327.953125,176.078125 C330.85939,179.255224 332.3125,183.552056 332.3125,188.96875 C332.3125,194.510444 330.854181,198.864567 327.9375,202.03125 C325.020819,205.197933 321.010442,206.78125 315.90625,206.78125 L315.90625,206.78125 Z M316,202.15625 C322.520866,202.15625 325.78125,197.760461 325.78125,188.96875 C325.78125,180.281207 322.562532,175.9375 316.125,175.9375 C309.708301,175.9375 306.5,180.30204 306.5,189.03125 C306.5,197.781294 309.666635,202.15625 316,202.15625 L316,202.15625 Z M355.21875,206.78125 C350.364559,206.78125 346.489598,205.171891 343.59375,201.953125 C340.697902,198.734359 339.25,194.42711 339.25,189.03125 C339.25,183.572889 340.70311,179.255224 343.609375,176.078125 C346.51564,172.901026 350.458308,171.3125 355.4375,171.3125 C360.416692,171.3125 364.35936,172.901026 367.265625,176.078125 C370.17189,179.255224 371.625,183.552056 371.625,188.96875 C371.625,194.510444 370.166681,198.864567 367.25,202.03125 C364.333319,205.197933 360.322942,206.78125 355.21875,206.78125 L355.21875,206.78125 Z M355.3125,202.15625 C361.833366,202.15625 365.09375,197.760461 365.09375,188.96875 C365.09375,180.281207 361.875032,175.9375 355.4375,175.9375 C349.020801,175.9375 345.8125,180.30204 345.8125,189.03125 C345.8125,197.781294 348.979135,202.15625 355.3125,202.15625 L355.3125,202.15625 Z M381.25,206 L381.25,172.0625 L387.40625,172.0625 L387.40625,178.4375 C390.656266,173.687476 394.635393,171.3125 399.34375,171.3125 C402.281265,171.3125 404.624991,172.244782 406.375,174.109375 C408.125009,175.973968 409,178.479151 409,181.625 L409,206 L402.84375,206 L402.84375,183.625 C402.84375,181.104154 402.473962,179.307297 401.734375,178.234375 C400.994788,177.161453 399.770842,176.625 398.0625,176.625 C394.291648,176.625 390.7396,179.093725 387.40625,184.03125 L387.40625,206 L381.25,206 Z M448.1875,203.375 C448.1875,205.125009 447.250009,206 445.375,206 C443.43749,206 442.46875,205.093759 442.46875,203.28125 C442.46875,201.531241 443.406241,200.65625 445.28125,200.65625 C446.072921,200.65625 446.755205,200.911456 447.328125,201.421875 C447.901045,201.932294 448.1875,202.583329 448.1875,203.375 L448.1875,203.375 Z M435.875,203.375 C435.875,205.125009 434.937509,206 433.0625,206 C431.145824,206 430.1875,205.093759 430.1875,203.28125 C430.1875,201.531241 431.124991,200.65625 433,200.65625 C433.791671,200.65625 434.468747,200.911456 435.03125,201.421875 C435.593753,201.932294 435.875,202.583329 435.875,203.375 L435.875,203.375 Z M423.59375,203.375 C423.59375,205.125009 422.656259,206 420.78125,206 C418.84374,206 417.875,205.093759 417.875,203.28125 C417.875,201.531241 418.812491,200.65625 420.6875,200.65625 C421.479171,200.65625 422.161455,200.911456 422.734375,201.421875 C423.307295,201.932294 423.59375,202.583329 423.59375,203.375 L423.59375,203.375 Z" id="Coming" sketch:type="MSShapeGroup"></path>
        </g>
    </g>
</svg>