<?xml version="1.0" encoding="UTF-8" standalone="no"?>
<svg width="130px" height="64px" viewBox="0 0 130 64" version="1.1" xmlns="http://www.w3.org/2000/svg" xmlns:xlink="http://www.w3.org/1999/xlink" xmlns:sketch="http://www.bohemiancoding.com/sketch/ns">
    <!-- Generator: Sketch 3.2.2 (9983) - http://www.bohemiancoding.com/sketch -->
    <title>flyingV-hovered</title>
    <desc>Created with Sketch.</desc>
    <defs></defs>
    <g id="Page-1" stroke="none" stroke-width="1" fill="none" fill-rule="evenodd" sketch:type="MSPage">
        <g id="flyingV-hovered" sketch:type="MSArtboardGroup">
            <g id="test" sketch:type="MSLayerGroup" transform="translate(3.000000, 3.000000)">
                <g id="Page-1" sketch:type="MSShapeGroup">
                    <g>
                        <g id="Artboard-3">
                            <g id="Group-+-Group">
                                <g id="Group" transform="translate(4.991024, 4.957983)">
                                    <path d="M111.229449,0 L108.808189,41.1512605 L4.69401575,41.1512605 L3.0889853,0 L111.229449,0 L111.229449,0 Z" id="Rectangle-24" fill="#96562A"></path>
                                    <ellipse id="Oval-17" fill="#96562A" cx="3.24125984" cy="2.4789916" rx="2.42125984" ry="2.4789916"></ellipse>
                                    <ellipse id="Oval-19" fill="#B85442" cx="7.59952756" cy="45.2782578" rx="2.42125984" ry="2.4789916"></ellipse>
                                    <ellipse id="Oval-20" fill="#B85442" cx="106.871181" cy="45.2782578" rx="2.42125984" ry="2.4789916"></ellipse>
                                    <path d="M0.82,2.97478992 L112.682205,2.97478992 L109.050315,46.1092437 C109.050315,46.1092437 108.672266,48.5113643 105.660551,48.092437 C95.4830934,46.67676 70.2213771,40.9033613 56.7511024,40.9033613 C42.9407344,40.9033613 17.4664471,46.7619996 8.08377953,48.092437 C5.74805635,48.4236364 4.93614173,46.1092437 4.93614173,46.1092437 L0.82,2.97478992 L0.82,2.97478992 Z" id="Rectangle-24" fill="#96562A"></path>
                                    <ellipse id="Oval-18" fill="#96562A" cx="110.260945" cy="2.4789916" rx="2.42125984" ry="2.4789916"></ellipse>
                                </g>
                                <g id="Group">
                                    <path d="M0.509813136,9.88573994 C0.0945286157,4.42599653 4.09728961,0 9.4467368,0 L114.037516,0 C119.388527,0 123.372259,4.42283418 122.934864,9.88573994 L119.675373,50.5956121 C119.238231,56.0553556 114.646042,59.5312315 109.417016,58.4008109 C109.417016,58.4008109 78.1329675,51.0672269 61.7234368,51.0672269 C46.4138769,51.0672269 13.8375138,58.4516644 13.8375138,58.4516644 C8.60227076,59.5726302 4.02185363,56.0585178 3.60632857,50.5956121 L0.509813136,9.88573994 L0.509813136,9.88573994 Z" id="Rectangle-1" stroke="#96562A" stroke-width="5"></path>
                                    <path d="M27.1181102,13.3865546 L31.9606299,12.394958 L31.9606299,35.4495798 L27.1181102,36.6890756 L27.1181102,13.3865546 L27.1181102,13.3865546 Z" id="Rectangle-3" fill="#FEFEFE"></path>
                                    <path d="M15.496063,15.3697479 L20.3385827,14.3781513 L20.3385827,37.4327731 L15.496063,38.6722689 L15.496063,15.3697479 L15.496063,15.3697479 Z" id="Rectangle-5" fill="#FEFEFE"></path>
                                    <path d="M51.3307087,20.0444178 L56.1732283,19.3361345 L56.1732283,35.8037215 L51.3307087,36.6890756 L51.3307087,20.0444178 L51.3307087,20.0444178 Z" id="Rectangle-6" fill="#FEFEFE"></path>
                                    <path d="M51.3307087,12.637798 L56.1732283,12.394958 L56.1732283,18.0409878 L51.3307087,18.3445378 L51.3307087,12.637798 L51.3307087,12.637798 Z" id="Rectangle-13" fill="#FEFEFE"></path>
                                    <path d="M43.0984252,20.1253644 L47.9409449,19.3361345 L47.9409449,37.6857314 L43.0984252,38.6722689 L43.0984252,20.1253644 L43.0984252,20.1253644 Z" id="Rectangle-12" fill="#FEFEFE"></path>
                                    <path d="M35.3503937,19.8420511 L39.7086614,19.3361345 L39.7086614,31.0986966 L35.3503937,31.7310924 L35.3503937,19.8420511 L35.3503937,19.8420511 Z" id="Rectangle-14" fill="#FEFEFE"></path>
                                    <path d="M64.4055118,19.3361345 L64.4055118,35.8037215 L59.5629921,36.6890756 L59.5629921,20.0444178 L64.4055118,19.3361345 Z" id="Rectangle-7" fill="#FEFEFE"></path>
                                    <path d="M67.7952756,19.3361344 L72.6377953,21.5672269 L72.6377953,35.8037215 L67.7952756,36.6890756 L67.7952756,20.0444178 L67.7952756,19.3361344 Z" id="Rectangle-8" fill="#FEFEFE"></path>
                                    <path d="M92.007874,13.3865546 L96.8503937,12.394958 L96.8503937,36.6890756 L92.007874,36.6890756 L92.007874,13.3865546 L92.007874,13.3865546 Z" id="Rectangle-9" fill="#FEFEFE"></path>
                                    <path d="M83.7755906,20.1253644 L88.6181102,19.3361345 L88.6181102,37.6857314 L83.7755906,38.6722689 L83.7755906,20.1253644 L83.7755906,20.1253644 Z" id="Rectangle-10" fill="#D8D8D8"></path>
                                    <path d="M19.8543307,12.4012846 C19.7742153,12.3970863 19.6934852,12.394958 19.6122047,12.394958 C17.3389224,12.394958 15.496063,14.0597815 15.496063,16.1134454 C15.496063,18.1671092 17.3389224,19.8319328 19.6122047,19.8319328 C19.8597916,19.8319328 20.1022729,19.8121851 20.3378239,19.7743381 L20.3378239,19.7743381 C20.3121575,18.7843317 19.6483665,17.4779825 20.3385827,16.8571429 C20.9364631,16.319358 22.6921032,16.3514124 23.7194408,16.3600208 C23.725347,16.2785178 23.7283465,16.196298 23.7283465,16.1134454 C23.7283465,16.0301442 23.7253144,15.9474827 23.7193446,15.8655462 L24.2125984,15.8655462 L25.6653543,12.394958 L19.8543307,12.394958 L19.8543307,12.4012846 L19.8543307,12.4012846 Z" id="Oval-7" fill="#FEFEFE"></path>
                                    <path d="M83.7755906,20.1253644 L88.6181102,19.3361345 L88.6181102,37.6857314 L83.7755906,38.6722689 L83.7755906,20.1253644 L83.7755906,20.1253644 Z" id="Rectangle-11" fill="#FEFEFE"></path>
                                    <path d="M76.0275591,25.1946493 L80.8700787,24.789916 L80.8700787,34.1999657 L76.0275591,34.7058824 L76.0275591,25.1946493 L76.0275591,25.1946493 Z" id="Rectangle-15" fill="#FEFEFE"></path>
                                    <rect id="Rectangle-4" fill="#FEFEFE" x="13.0748031" y="19.8319328" width="11.6220472" height="3.47058824"></rect>
                                    <path d="M82.3228346,43.6302521 C85.5321744,43.6302521 88.6181102,40.1450689 88.6181102,37.6806723 C88.6181102,35.2162756 88.6798122,34.9537815 85.4704724,34.9537815 C84.437101,34.9537815 83.1636404,39.5486313 82.3228346,39.9117647 C81.508995,40.2632519 80.3354195,40.1249055 79.1751969,39.6638655 C77.8113908,39.1219273 79.1134949,43.6302521 82.3228346,43.6302521 L82.3228346,43.6302521 Z" id="Oval-3" fill="#FEFEFE"></path>
                                    <path d="M62.7106299,25.5336134 C62.8748877,25.5336134 66.6693026,23.580981 66.8267717,23.5504202 C68.3358509,23.2575459 70.7007874,25.2861123 70.7007874,23.302521 C70.7007874,21.1119462 69.291542,19.3361345 67.5531496,19.3361345 C65.8147572,19.3361345 64.1633858,21.1119462 64.1633858,23.302521 C64.1633858,25.4930958 60.9722375,25.5336134 62.7106299,25.5336134 L62.7106299,25.5336134 Z" id="Oval-6" fill="#FEFEFE"></path>
                                    <path d="M78.4488189,39.1680672 L82.8070866,41.6470588 L81.5964567,43.3823529 L77.7224409,42.1428571 L78.4488189,39.1680672 L78.4488189,39.1680672 Z" id="Rectangle-18" fill="#FEFEFE"></path>
                                    <path d="M106.051181,11.4033613 L112.104331,11.4033613 L97.0925197,36.4411765 L93.7027559,31.4831933 L106.051181,11.4033613 L106.051181,11.4033613 Z" id="Rectangle-16" fill="#FEFEFE"></path>
                                    <path d="M90.0708661,13.1386555 L96.6082677,12.1470588 L96.6082677,17.3529412 L90.0708661,17.8487395 L90.0708661,13.1386555 L90.0708661,13.1386555 Z" id="Rectangle-17" fill="#FEFEFE"></path>
                                    <path d="M80.1437008,28.2605042 C81.3543307,16.8571429 84.2598425,26.262716 84.2598425,23.7983193 C84.2598425,21.3339227 82.4169829,19.3361345 80.1437008,19.3361345 C77.8704187,19.3361345 76.0275591,21.3339227 76.0275591,23.7983193 C76.0275591,26.262716 78.9330709,39.6638655 80.1437008,28.2605042 L80.1437008,28.2605042 Z" id="Oval-1" fill="#FEFEFE"></path>
                                    <path d="M80.1437008,36.6890756 C82.4169829,36.6890756 84.7440945,33.5109345 84.7440945,31.7310924 C84.7440945,30.770287 81.9640756,33.3131217 81.1122047,32.7226891 C80.3860292,32.2193761 81.1898056,30.2436975 80.1437008,30.2436975 C77.8704187,30.2436975 76.0275591,31.6865445 76.0275591,33.4663866 C76.0275591,35.2462286 77.8704187,36.6890756 80.1437008,36.6890756 L80.1437008,36.6890756 Z" id="Oval-2" fill="#FEFEFE"></path>
                                    <path d="M39.4665354,36.6890756 C41.7398178,36.6890756 43.5826772,34.4693109 43.5826772,31.7310924 C43.5826772,29.9547484 42.0847848,33.5981868 40.9192913,32.7226891 C40.6670685,32.5332238 39.8549711,31.6099646 39.7086614,30.4915966 C39.4888796,28.8116187 39.945944,26.7731092 39.4665354,26.7731092 C37.1932531,26.7731092 35.3503937,28.9928739 35.3503937,31.7310924 C35.3503937,34.4693109 37.1932531,36.6890756 39.4665354,36.6890756 L39.4665354,36.6890756 Z" id="Oval-4" fill="#FEFEFE"></path>
                                    <path d="M37.2800651,42.1464776 C37.6505861,42.3968314 39.7217547,43.1380742 41.1540809,43.1380742 C42.1766987,43.1380742 43.8528886,42.8241301 45.0280966,42.1464776 C46.9264069,41.0518674 48.1757344,39.2063886 48.1757344,37.6842927 C48.1757344,35.6877386 46.2641681,36.7667151 44.3017186,36.1968977 C43.8418677,36.0633753 42.388178,39.667486 41.8804588,39.667486 C41.1336859,39.667486 39.9303488,40.002264 39.217073,39.667486 C37.3758637,38.8033094 38.248569,39.667486 37.2800651,41.154881 C36.6160732,42.174617 36.9587466,41.929369 37.2800651,42.1464776 L37.2800651,42.1464776 Z" id="Oval-5" fill="#FEFEFE"></path>
                                </g>
                            </g>
                        </g>
                    </g>
                </g>
            </g>
        </g>
    </g>
</svg>