<?xml version="1.0" encoding="UTF-8" standalone="no"?>
<svg width="352px" height="210px" viewBox="-250 0 528 630" version="1.1" xmlns="http://www.w3.org/2000/svg" xmlns:xlink="http://www.w3.org/1999/xlink" xmlns:sketch="http://www.bohemiancoding.com/sketch/ns">
    <!-- Generator: Sketch 3.2.2 (9983) - http://www.bohemiancoding.com/sketch -->
    <title>hand</title>
    <desc>Created with Sketch.</desc>
    <defs></defs>
    <g id="Page-1" stroke="none" stroke-width="1" fill="none" fill-rule="evenodd" sketch:type="MSPage">
        <g id="hand" sketch:type="MSArtboardGroup" fill="#FFFFFF">
            <g sketch:type="MSLayerGroup" transform="translate(55.000000, 0.000000)" id="Page-1">
                <g sketch:type="MSShapeGroup">
                    <g id="Artboard-1">
                        <g id="Imported-Layers">
                            <path d="M0,251.442776 L0,235.641814 C31.9699746,187.130444 63.9399492,138.619073 96.2803807,89.5455599 C141.182462,106.739463 186.425635,124.188476 231.788528,141.323682 C240.006345,144.427886 246.99533,148.371918 246.868832,158.002852 C246.760406,166.328891 245.149822,174.639127 244.153655,182.949363 C243.028731,192.318415 237.067538,197.300945 228.486041,199.520168 C210.719924,204.112132 192.983173,208.891478 175.036345,212.657159 C171.618655,213.372819 166.359975,210.722394 163.554442,207.983921 C153.12066,197.802132 143.355508,186.934032 133.341878,176.323299 C133.667157,189.631868 137.432716,200.486422 130.649289,212.871631 C124.263426,224.527635 117.875305,232.241864 103.052513,229.857835 C121.171015,237.215363 138.659289,243.812079 156.576751,248.893943 C164.848782,251.239592 169.696345,256.226637 173.825584,262.705957 C191.429061,290.343531 208.883452,318.078182 226.430457,345.754136 C240.537183,368.002812 254.700381,390.219882 269.130127,412.906533 C253.06269,420.496594 237.797157,427.709635 222.531624,434.922676 C222.563249,435.627048 222.597132,436.333678 222.631015,437.040308 C236.337919,438.697388 250.047081,440.356726 264.709492,442.131202 C267.115203,490.960894 269.500584,539.37293 271.97632,589.609109 C273.444594,583.960587 275.251701,579.910447 275.450482,575.785807 C277.164975,540.341442 278.798147,504.890304 280.029239,469.427878 C280.993782,441.598408 275.635711,449.369077 302.407995,440.11742 C266.995482,383.693152 231.686878,327.435946 195.61703,269.96415 C199.497792,269.96415 202.115838,269.424583 204.41764,270.047682 C229.608706,276.87693 254.869797,283.493964 279.837234,291.074995 C287.957919,293.542555 296.089898,297.601725 302.792005,302.77615 C318.238249,314.696293 332.812563,327.747496 347.999036,340.559392 C372.36335,317.245127 395.713426,294.901631 419.592081,272.052433 C419.81797,274.282945 420.217792,275.456898 420.003198,276.506683 C413.807081,306.756304 408.12599,337.125578 401.098604,367.183302 C396.45434,387.041177 395.211954,408.233295 381.694797,425.235302 C375.211802,433.392021 368.611345,441.487785 362.661447,450.026039 C355.819289,459.848869 345.697234,467.849814 345.480381,481.492508 C344.893071,518.225964 344.152157,554.957163 343.210203,591.683846 C342.878147,604.689896 341.791624,617.677886 341.048452,630.672648 L99.3773096,630.672648 C99.4405584,627.665521 99.0475127,624.568089 99.6325635,621.664812 C110.009873,570.087617 120.692132,518.566862 130.778046,466.933227 C132.311827,459.067739 135.386168,451.224826 129.436269,442.539828 C85.9550254,379.071839 43.0723858,315.192966 0,251.442776" id="Fill-1"></path>
                            <path d="M444.943528,233.384211 C412.469822,262.398923 379.998376,291.413635 346.578198,321.274948 C333.553477,311.709485 320.438401,302.080809 306.792487,292.061567 C337.551701,253.375284 368.103096,214.950884 400.429975,174.293714 C413.978756,189.385789 426.436497,203.331002 439.002665,217.181395 C440.710381,219.066494 442.951193,220.470723 444.943528,222.098454 L444.943528,233.384211" id="Fill-2"></path>
                            <path d="M182.946954,0.880465116 C194.980025,7.66004651 206.825609,14.803102 219.086827,21.1424508 C239.556827,31.7193202 239.873071,31.6199857 228.416015,51.5568766 C217.24132,70.9993524 205.804594,90.2995993 193.891244,109.290555 C192.373274,111.708447 186.522766,113.787699 183.936345,112.787581 C161.684086,104.168054 139.720964,94.803517 116.065939,84.9964902 C135.641421,56.5326333 154.776421,28.707678 173.911421,0.880465116 L182.946954,0.880465116" id="Fill-3"></path>
                            <path d="M232.780178,254.944318 C246.65198,232.738537 259.943249,210.629832 274.072563,189.069725 C289.225152,165.945098 305.450711,143.520329 320.612335,120.397961 C326.288909,111.742311 331.710228,109.394404 340.011624,116.478762 C355.259086,129.491585 370.463629,142.565363 386.025076,155.194394 C392.471929,160.425259 390.999137,165.308454 386.901523,170.47385 C357.969746,206.949939 329.015381,243.410225 299.780914,279.642494 C298.308122,281.468894 293.55769,282.559317 291.375609,281.606608 C271.838528,273.0819 252.536371,264.02214 232.780178,254.944318" id="Fill-4"></path>
                            <path d="M201.718274,117.682064 C219.78934,91.4712952 236.484746,67.2585045 253.415076,42.7070733 C276.067157,56.0878855 297.438452,68.3556995 318.251802,81.4994633 C320.637183,83.007542 321.976701,90.6630733 320.334492,93.3699392 C299.564061,127.601971 278.158883,161.447953 254.783959,194.810809 C256.042157,185.173102 257.451701,175.551199 258.499822,165.888658 C259.182005,159.608007 260.550888,153.015807 259.303985,147.044447 C258.454645,142.98302 254.311853,138.122401 250.424315,136.445002 C234.944188,129.776043 218.985178,124.215567 201.718274,117.682064" id="Fill-5"></path>
                            <path d="M214.819797,253.555893 C194.399492,247.717732 173.778147,241.818615 149.978553,235.011943 C183.030533,226.426279 212.759695,218.700762 243.171041,210.80141 C233.690508,225.096551 224.641421,238.746018 214.819797,253.555893" id="Fill-6"></path>
                        </g>
                    </g>
                </g>
            </g>
        </g>
    </g>
</svg>
