<?xml version="1.0" encoding="UTF-8" standalone="no"?>
<svg width="115px" height="36px" viewBox="0 0 115 36" version="1.1" xmlns="http://www.w3.org/2000/svg" xmlns:xlink="http://www.w3.org/1999/xlink" xmlns:sketch="http://www.bohemiancoding.com/sketch/ns">
    <!-- Generator: Sketch 3.2.2 (9983) - http://www.bohemiancoding.com/sketch -->
    <title>people</title>
    <desc>Created with Sketch.</desc>
    <defs></defs>
    <g id="Page-1" stroke="none" stroke-width="1" fill="none" fill-rule="evenodd" sketch:type="MSPage">
        <g id="people" sketch:type="MSArtboardGroup" fill="#C57B46">
            <g sketch:type="MSLayerGroup" transform="translate(0.000000, 0.631579)">
                <path d="M10.1705426,18.9473684 C10.1705426,11.4530526 17.2651318,5.33052632 26.103969,5.06589474 C23.6884651,2.03873684 19.1670233,0 13.9844961,0 C6.26124031,0 0,4.524 0,10.1052632 C0,13.2435789 1.97944186,16.0471579 5.08527132,17.9008421 L5.08527132,24.6442105 C5.08527132,25.1583158 5.68024806,25.4475789 6.08897674,25.1317895 L10.5029922,21.7237895 C10.2855969,20.8263158 10.1705426,19.8978947 10.1705426,18.9473684" id="Fill-1" sketch:type="MSShapeGroup"></path>
                <path d="M26.6976744,7.57894737 C18.9744186,7.57894737 12.7131783,12.6688421 12.7131783,18.9473684 C12.7131783,25.2258947 18.9744186,30.3157895 26.6976744,30.3157895 C27.1858605,30.3157895 27.6676899,30.2949474 28.1425271,30.2551579 L34.5931938,35.2370526 C35.0019225,35.5528421 35.5968992,35.2635789 35.5968992,34.7488421 L35.5968992,27.7174737 C38.7027287,25.632 40.6821705,22.4778947 40.6821705,18.9473684 C40.6821705,12.6688421 34.4209302,7.57894737 26.6976744,7.57894737 L26.6976744,7.57894737 L26.6976744,7.57894737 Z M34.1730233,25.6237895 L33.0542636,26.3747368 L33.0542636,30.8494737 L28.9173953,27.6536842 L27.9257674,27.7383158 C27.525938,27.7724211 27.112124,27.7901053 26.6976744,27.7901053 C20.388124,27.7901053 15.2545426,23.8237895 15.2545426,18.9473684 C15.2545426,14.0709474 20.388124,10.1046316 26.6976744,10.1046316 C33.0065891,10.1046316 38.1401705,14.0709474 38.1401705,18.9473684 C38.1401705,21.4970526 36.6940465,23.9311579 34.1730233,25.6237895 L34.1730233,25.6237895 L34.1730233,25.6237895 Z M33.0542636,17.0526316 C32.0009767,17.0526316 31.1472868,17.9014737 31.1472868,18.9473684 C31.1472868,19.9938947 32.0009767,20.8421053 33.0542636,20.8421053 C34.1069147,20.8421053 34.9612403,19.9938947 34.9612403,18.9473684 C34.9612403,17.9014737 34.1069147,17.0526316 33.0542636,17.0526316 L33.0542636,17.0526316 L33.0542636,17.0526316 Z M20.3404496,17.0526316 C19.2871628,17.0526316 18.4334729,17.9014737 18.4334729,18.9473684 C18.4334729,19.9938947 19.2871628,20.8421053 20.3404496,20.8421053 C21.3931008,20.8421053 22.2474264,19.9938947 22.2474264,18.9473684 C22.2474264,17.9014737 21.3931008,17.0526316 20.3404496,17.0526316 L20.3404496,17.0526316 L20.3404496,17.0526316 Z M26.6976744,17.0526316 C25.6437519,17.0526316 24.7906977,17.9014737 24.7906977,18.9473684 C24.7906977,19.9938947 25.6437519,20.8421053 26.6976744,20.8421053 C27.7503256,20.8421053 28.6046512,19.9938947 28.6046512,18.9473684 C28.6046512,17.9014737 27.7503256,17.0526316 26.6976744,17.0526316 L26.6976744,17.0526316 L26.6976744,17.0526316 Z" id="Fill-2" sketch:type="MSShapeGroup"></path>
            </g>
            <path d="M57.432,35.364 C56.494,33.656 55.374,32.004 53.988,30.282 L53.218,30.758 C54.198,31.948 54.618,32.522 55.332,33.628 C53.176,33.936 51.832,34.062 49.144,34.202 C50.026,32.648 51.062,30.436 51.888,28.378 C52,28.07 52.056,27.93 52.112,27.804 C52.126,27.79 52.14,27.762 52.154,27.734 L51.076,27.412 C50.964,27.972 50.726,28.672 50.264,29.82 C49.522,31.64 48.934,32.858 48.108,34.244 C47.646,34.258 47.492,34.258 47.198,34.258 C46.946,34.258 46.61,34.244 46.26,34.23 L46.484,35.322 C46.918,35.238 47.002,35.238 48.08,35.168 C50.81,35.014 53.358,34.762 55.78,34.384 C56.088,34.93 56.242,35.196 56.592,35.91 L57.432,35.364 Z M49.886,23.814 C49.816,24.276 49.564,24.864 49.13,25.592 C48.248,27.062 47.114,28.238 45.462,29.372 C45.756,29.61 45.924,29.82 46.134,30.156 C47.002,29.498 47.562,29.008 48.22,28.308 C49.088,27.384 49.97,26.11 50.572,24.906 C50.796,24.458 50.838,24.374 50.964,24.192 L49.886,23.814 Z M52.994,24.192 C53.064,24.29 53.092,24.36 53.204,24.584 C54.562,27.174 55.598,28.406 57.936,30.184 C58.132,29.834 58.286,29.624 58.594,29.33 C57.208,28.392 56.326,27.594 55.514,26.558 C54.744,25.578 54.17,24.556 53.932,23.786 L52.994,24.192 Z M69.43,27.86 C69.99,27.86 70.396,27.874 70.816,27.902 C70.788,27.65 70.774,27.384 70.774,26.866 L70.774,25.2 C70.774,24.57 70.774,24.36 70.816,24.08 C70.382,24.136 69.976,24.15 69.36,24.15 L63.13,24.15 C62.374,24.15 61.94,24.136 61.492,24.08 C61.534,24.612 61.548,24.976 61.548,25.662 L61.548,34.622 C60.792,34.762 60.302,34.832 59.938,34.846 L60.176,35.854 C60.33,35.798 60.61,35.728 60.946,35.658 C63.326,35.168 64.516,34.846 66.672,34.132 L66.644,33.264 C65.118,33.782 63.928,34.118 62.458,34.44 L62.458,30.716 L66.574,30.66 C66.938,31.808 67.386,32.704 68.072,33.656 C68.982,34.93 70.116,35.784 70.886,35.784 C71.628,35.784 71.992,35.154 72.3,33.292 C71.936,33.124 71.81,33.054 71.46,32.76 C71.334,34.16 71.124,34.776 70.802,34.776 C70.508,34.776 69.822,34.3 69.276,33.712 C68.464,32.844 67.876,31.822 67.498,30.646 L70.48,30.618 C71.432,30.618 71.432,30.618 71.95,30.66 L71.95,29.694 C71.6,29.764 71.278,29.792 70.466,29.792 L67.274,29.834 C67.078,29.05 67.036,28.728 66.952,27.86 L69.43,27.86 Z M66.042,27.86 C66.14,28.672 66.224,29.176 66.364,29.848 L62.458,29.89 L62.458,27.86 L66.042,27.86 Z M62.458,24.948 L69.892,24.948 L69.892,27.076 L62.458,27.076 L62.458,24.948 Z M76.738,24.738 L76.738,25.466 L75.492,25.466 C75.044,25.466 74.792,25.452 74.498,25.41 L74.498,26.11 C74.82,26.068 75.044,26.054 75.492,26.054 L78.726,26.054 C79.286,26.054 79.468,26.068 79.748,26.096 L79.748,25.424 C79.496,25.452 79.286,25.466 78.726,25.466 L77.536,25.466 L77.536,24.738 L79.174,24.738 C79.734,24.738 79.902,24.752 80.196,24.78 L80.196,24.066 C79.888,24.108 79.608,24.122 79.16,24.122 L77.536,24.122 C77.536,23.702 77.55,23.548 77.606,23.338 L76.668,23.338 C76.71,23.576 76.724,23.786 76.738,24.122 L74.974,24.122 C74.47,24.122 74.19,24.108 73.868,24.066 L73.868,24.794 C74.204,24.752 74.456,24.738 74.974,24.738 L76.738,24.738 Z M84.9,26.544 C84.69,26.586 84.494,26.6 84.046,26.6 L81.05,26.6 C80.546,26.6 80.434,26.6 80.168,26.558 L80.168,27.272 C80.392,27.244 80.434,27.244 80.84,27.23 C81.344,28 81.61,28.28 82.156,28.728 C81.274,29.148 80.588,29.344 79.51,29.512 C79.692,29.736 79.818,29.932 79.916,30.212 C81.176,29.918 81.904,29.638 82.772,29.162 C83.752,29.764 84.564,30.072 85.95,30.38 C86.062,30.058 86.146,29.89 86.342,29.624 C85.012,29.442 84.368,29.246 83.416,28.742 C83.976,28.35 84.606,27.79 84.97,27.356 C85.166,27.132 85.264,27.02 85.334,26.95 L84.9,26.544 Z M84.158,27.23 C83.668,27.762 83.416,27.972 82.8,28.364 C82.31,28.028 82.03,27.734 81.666,27.23 L84.158,27.23 Z M76.122,34.622 C75.184,34.622 75.114,34.622 75.016,34.636 L74.792,34.636 C74.442,34.636 73.966,34.608 73.686,34.566 L73.826,35.434 C74.106,35.392 74.316,35.378 74.736,35.378 C78.264,35.322 80.532,35.252 83.052,35.126 C83.052,35.518 83.024,35.77 82.968,36.092 L83.962,36.092 C83.906,35.756 83.878,35.49 83.878,35.084 C85.334,35.014 85.334,35.014 86.384,34.958 L86.398,34.244 C85.418,34.314 85.418,34.314 83.878,34.398 L83.878,31.15 C84.55,31.15 84.9,31.164 85.236,31.206 L85.236,30.408 C84.914,30.464 84.494,30.492 83.752,30.492 L76.248,30.492 C75.576,30.492 75.17,30.464 74.848,30.408 L74.848,31.234 C75.212,31.178 75.436,31.164 76.122,31.15 L76.122,34.622 Z M76.962,33.796 L83.052,33.796 L83.052,34.44 C81.19,34.538 78.908,34.608 76.962,34.608 L76.962,33.796 Z M76.962,33.194 L76.962,32.466 L83.052,32.466 L83.052,33.194 L76.962,33.194 Z M76.962,31.864 L76.962,31.15 L83.052,31.15 L83.052,31.864 L76.962,31.864 Z M78.6,28.826 C79.132,28.826 79.37,28.84 79.734,28.868 C79.706,28.7 79.706,28.56 79.706,28.14 L79.706,27.244 C79.706,27.006 79.706,26.852 79.748,26.642 C79.468,26.67 79.286,26.67 78.712,26.67 L75.66,26.67 C75.198,26.67 74.918,26.656 74.568,26.628 C74.596,26.81 74.61,27.034 74.61,27.37 C74.61,28.756 74.358,29.54 73.672,30.394 C74.008,30.562 74.134,30.66 74.344,30.898 C74.89,30.142 75.1,29.638 75.254,28.826 L78.6,28.826 Z M76.822,27.258 L76.822,28.224 L75.338,28.224 C75.352,27.944 75.366,27.72 75.366,27.258 L76.822,27.258 Z M77.494,28.224 L77.494,27.258 L78.978,27.258 L78.978,28.224 L77.494,28.224 Z M83.528,24.276 L83.528,25.466 C83.528,25.928 83.752,26.04 84.76,26.04 C86.006,26.04 86.188,25.886 86.286,24.71 C86.034,24.668 85.866,24.612 85.6,24.486 C85.558,25.41 85.544,25.424 84.774,25.424 C84.354,25.424 84.27,25.382 84.27,25.214 L84.27,24.304 C84.27,23.996 84.284,23.786 84.326,23.548 C84.06,23.59 83.836,23.604 83.374,23.604 L82.016,23.604 C81.554,23.604 81.358,23.59 81.064,23.548 C81.078,23.73 81.092,23.912 81.092,24.038 C81.092,24.892 80.728,25.396 79.888,25.732 C80.14,25.97 80.252,26.124 80.35,26.362 C81.316,25.83 81.708,25.284 81.806,24.276 L83.528,24.276 Z M93.916,28.14 C93.888,28.616 93.86,28.924 93.804,29.33 L93.23,29.33 C92.586,29.33 92.152,29.316 91.774,29.26 L91.774,30.142 C92.18,30.086 92.558,30.072 93.216,30.072 L93.664,30.072 C93.426,31.164 93.034,32.116 92.474,33.012 C91.9,33.936 91.368,34.538 90.444,35.28 C90.752,35.504 90.906,35.672 91.06,35.938 C92.362,34.776 93.174,33.67 93.846,32.13 C94.336,32.816 94.854,33.348 95.624,33.95 C94.546,34.622 93.65,34.972 92.292,35.28 C92.53,35.518 92.656,35.714 92.782,36.036 C94.224,35.644 95.246,35.182 96.338,34.454 C97.43,35.154 98.466,35.602 100.062,36.064 C100.23,35.686 100.314,35.518 100.524,35.196 C99.012,34.888 98.116,34.566 96.996,33.95 C97.598,33.446 98.382,32.606 98.718,32.102 C98.97,31.738 98.97,31.738 99.054,31.64 L98.606,31.066 C98.368,31.108 98.046,31.122 97.43,31.122 L94.224,31.122 C94.336,30.73 94.406,30.492 94.49,30.072 L98.69,30.072 C99.292,30.072 99.768,30.1 100.216,30.156 L100.216,29.246 C99.852,29.302 99.432,29.33 98.69,29.33 L94.63,29.33 C94.686,28.91 94.7,28.77 94.756,28.14 L98.662,28.14 C99.208,28.14 99.572,28.154 99.964,28.196 L99.964,27.342 C99.614,27.412 99.334,27.426 98.732,27.426 L98.074,27.426 C98.634,26.614 98.69,26.53 99.446,25.074 L98.592,24.78 C98.284,25.676 97.906,26.432 97.234,27.426 L93.258,27.426 C92.67,27.426 92.32,27.412 91.998,27.356 L91.998,28.196 C92.376,28.154 92.768,28.14 93.314,28.14 L93.916,28.14 Z M97.85,31.85 C97.374,32.536 96.968,32.97 96.282,33.502 C95.54,32.97 94.98,32.452 94.532,31.85 L97.85,31.85 Z M89.436,26.194 L88.638,26.194 C88.246,26.194 88.008,26.18 87.7,26.124 L87.7,27.034 C88.05,26.992 88.302,26.978 88.638,26.978 L89.436,26.978 L89.436,29.848 C88.218,30.338 88.008,30.408 87.532,30.478 L87.784,31.402 C88.008,31.29 88.148,31.234 88.386,31.15 C88.834,30.982 88.848,30.968 89.436,30.716 L89.436,34.874 C89.436,35.07 89.352,35.14 89.058,35.14 C88.75,35.14 88.316,35.098 87.854,35.028 C87.966,35.35 88.022,35.588 88.036,35.896 C88.414,35.924 88.568,35.924 88.862,35.924 C90.024,35.924 90.304,35.742 90.304,34.972 L90.304,30.338 C90.808,30.1 90.99,30.002 91.536,29.708 L91.494,28.882 C90.948,29.19 90.752,29.288 90.304,29.484 L90.304,26.978 L90.738,26.978 C91.088,26.978 91.312,26.992 91.62,27.034 L91.62,26.138 C91.34,26.18 91.102,26.194 90.738,26.194 L90.304,26.194 L90.304,24.836 C90.304,24.192 90.332,23.786 90.388,23.422 L89.352,23.422 C89.422,23.842 89.436,24.192 89.436,24.85 L89.436,26.194 Z M99.096,23.352 C98.018,23.842 94.602,24.29 91.872,24.29 L91.522,24.29 C91.718,24.654 91.76,24.738 91.816,25.088 C94.406,25.018 97.318,24.696 99.04,24.29 C99.488,24.192 99.488,24.192 99.74,24.15 L99.096,23.352 Z M94.014,26.992 C93.762,26.278 93.538,25.83 93.146,25.242 L92.432,25.522 C92.866,26.124 93.076,26.544 93.342,27.3 L94.014,26.992 Z M96.394,26.908 C96.142,26.096 95.96,25.704 95.568,25.032 L94.854,25.242 C95.246,25.942 95.47,26.432 95.666,27.16 L96.394,26.908 Z M104.29,26.894 L102.974,26.894 L102.974,24.864 C102.974,24.332 102.988,24.052 103.03,23.8 L102.106,23.8 C102.148,24.052 102.162,24.402 102.162,24.906 L102.162,26.866 C102.162,27.16 102.148,27.426 102.134,27.692 C102.456,27.678 102.694,27.664 103.114,27.664 L104.29,27.664 L104.29,29.54 L102.806,29.54 C102.204,29.54 101.882,29.526 101.56,29.484 L101.56,30.366 C101.868,30.324 102.036,30.324 102.484,30.31 C102.47,31.976 102.456,32.032 102.33,32.942 C102.176,34.02 101.952,34.692 101.49,35.35 C101.77,35.532 101.882,35.63 102.162,35.966 C103.016,34.594 103.254,33.32 103.282,30.31 L104.29,30.31 L104.29,34.51 C104.29,35.266 104.276,35.644 104.206,36.064 L105.186,36.064 C105.13,35.644 105.116,35.266 105.116,34.524 L105.116,24.934 C105.116,24.178 105.13,23.828 105.186,23.394 L104.206,23.394 C104.276,23.8 104.29,24.164 104.29,24.92 L104.29,26.894 Z M109.4,25.186 L109.4,28.518 L106.922,28.518 C106.278,28.518 105.942,28.504 105.564,28.434 L105.564,29.344 C105.984,29.274 106.334,29.26 106.936,29.26 L112.998,29.26 C113.67,29.26 114.062,29.288 114.426,29.344 L114.426,28.434 C114.062,28.49 113.684,28.518 113.068,28.518 L110.212,28.518 L110.212,25.186 L112.76,25.186 C113.348,25.186 113.74,25.2 114.132,25.256 L114.132,24.374 C113.726,24.43 113.362,24.458 112.718,24.458 L110.212,24.458 C110.212,23.884 110.24,23.632 110.296,23.268 L109.316,23.268 C109.372,23.632 109.4,23.898 109.4,24.458 L107.272,24.458 C106.614,24.458 106.222,24.43 105.83,24.374 L105.83,25.256 C106.25,25.2 106.6,25.186 107.23,25.186 L109.4,25.186 Z M107.258,25.41 C107.104,26.068 106.978,26.334 106.67,26.796 C106.376,27.258 106.166,27.468 105.662,27.874 C105.9,28 106.082,28.154 106.236,28.364 C106.824,27.846 107.062,27.552 107.412,26.978 C107.72,27.412 108.112,27.79 108.686,28.224 C108.84,27.972 108.952,27.818 109.176,27.622 C108.49,27.216 108.126,26.894 107.734,26.348 C107.846,26.11 107.902,25.984 108.056,25.564 L107.258,25.41 Z M111.892,25.396 C111.724,26.026 111.626,26.292 111.304,26.796 C111.024,27.258 110.842,27.454 110.38,27.86 C110.688,28.056 110.814,28.168 110.968,28.364 C111.486,27.832 111.752,27.51 112.074,26.936 C112.48,27.468 112.942,27.874 113.628,28.322 C113.782,28.056 113.908,27.902 114.09,27.72 C113.32,27.314 112.83,26.894 112.382,26.32 C112.494,26.068 112.536,25.942 112.69,25.564 L111.892,25.396 Z M108.126,33.138 C108.126,33.348 108.126,33.544 108.098,33.922 C108.378,33.908 108.616,33.894 108.868,33.894 L110.744,33.894 C111.024,33.894 111.22,33.894 111.626,33.922 C111.612,33.726 111.598,33.474 111.598,33.222 L111.598,32.354 C111.598,32.116 111.612,31.892 111.626,31.556 C111.36,31.57 111.094,31.584 110.786,31.584 L108.882,31.584 C108.546,31.584 108.35,31.57 108.098,31.556 C108.112,31.892 108.126,32.074 108.126,32.298 L108.126,33.138 Z M108.812,32.214 L110.912,32.214 L110.912,33.264 L108.812,33.264 L108.812,32.214 Z M107.02,35.392 L112.746,35.392 L112.746,36.078 L113.642,36.078 C113.6,35.714 113.572,35.252 113.572,34.678 L113.572,31.192 C113.572,30.646 113.586,30.366 113.628,30.03 C113.306,30.072 112.998,30.086 112.438,30.086 L107.356,30.086 C106.796,30.086 106.46,30.072 106.138,30.03 C106.18,30.408 106.194,30.674 106.194,31.22 L106.194,34.734 C106.194,35.434 106.18,35.784 106.124,36.064 L107.02,36.064 L107.02,35.392 Z M107.006,30.814 L112.746,30.814 L112.746,34.664 L107.006,34.664 L107.006,30.814 Z" id="公民聲援牆" sketch:type="MSShapeGroup"></path>
        </g>
        <g id="Artboard-16" sketch:type="MSArtboardGroup" transform="translate(-865.000000, -74.000000)"></g>
    </g>
</svg>