<?xml version="1.0" encoding="UTF-8" standalone="no"?>
<svg width="135px" height="36px" viewBox="0 0 135 36" version="1.1" xmlns="http://www.w3.org/2000/svg" xmlns:xlink="http://www.w3.org/1999/xlink" xmlns:sketch="http://www.bohemiancoding.com/sketch/ns">
    <!-- Generator: Sketch 3.2.2 (9983) - http://www.bohemiancoding.com/sketch -->
    <title>people</title>
    <desc>Created with Sketch.</desc>
    <defs></defs>
    <g id="Page-1" stroke="none" stroke-width="1" fill="none" fill-rule="evenodd" sketch:type="MSPage">
        <g id="people" sketch:type="MSArtboardGroup" fill="#C57B46">
            <text id="公民表態牆" sketch:type="MSTextLayer" font-family="Hiragino Kaku Gothic ProN" font-size="14" font-weight="313">
                <tspan x="45" y="35">公民表態牆</tspan>
            </text>
            <g sketch:type="MSLayerGroup" transform="translate(0.000000, 0.631579)">
                <path d="M10.1705426,18.9473684 C10.1705426,11.4530526 17.2651318,5.33052632 26.103969,5.06589474 C23.6884651,2.03873684 19.1670233,0 13.9844961,0 C6.26124031,0 0,4.524 0,10.1052632 C0,13.2435789 1.97944186,16.0471579 5.08527132,17.9008421 L5.08527132,24.6442105 C5.08527132,25.1583158 5.68024806,25.4475789 6.08897674,25.1317895 L10.5029922,21.7237895 C10.2855969,20.8263158 10.1705426,19.8978947 10.1705426,18.9473684" id="Fill-1" sketch:type="MSShapeGroup"></path>
                <path d="M26.6976744,7.57894737 C18.9744186,7.57894737 12.7131783,12.6688421 12.7131783,18.9473684 C12.7131783,25.2258947 18.9744186,30.3157895 26.6976744,30.3157895 C27.1858605,30.3157895 27.6676899,30.2949474 28.1425271,30.2551579 L34.5931938,35.2370526 C35.0019225,35.5528421 35.5968992,35.2635789 35.5968992,34.7488421 L35.5968992,27.7174737 C38.7027287,25.632 40.6821705,22.4778947 40.6821705,18.9473684 C40.6821705,12.6688421 34.4209302,7.57894737 26.6976744,7.57894737 L26.6976744,7.57894737 L26.6976744,7.57894737 Z M34.1730233,25.6237895 L33.0542636,26.3747368 L33.0542636,30.8494737 L28.9173953,27.6536842 L27.9257674,27.7383158 C27.525938,27.7724211 27.112124,27.7901053 26.6976744,27.7901053 C20.388124,27.7901053 15.2545426,23.8237895 15.2545426,18.9473684 C15.2545426,14.0709474 20.388124,10.1046316 26.6976744,10.1046316 C33.0065891,10.1046316 38.1401705,14.0709474 38.1401705,18.9473684 C38.1401705,21.4970526 36.6940465,23.9311579 34.1730233,25.6237895 L34.1730233,25.6237895 L34.1730233,25.6237895 Z M33.0542636,17.0526316 C32.0009767,17.0526316 31.1472868,17.9014737 31.1472868,18.9473684 C31.1472868,19.9938947 32.0009767,20.8421053 33.0542636,20.8421053 C34.1069147,20.8421053 34.9612403,19.9938947 34.9612403,18.9473684 C34.9612403,17.9014737 34.1069147,17.0526316 33.0542636,17.0526316 L33.0542636,17.0526316 L33.0542636,17.0526316 Z M20.3404496,17.0526316 C19.2871628,17.0526316 18.4334729,17.9014737 18.4334729,18.9473684 C18.4334729,19.9938947 19.2871628,20.8421053 20.3404496,20.8421053 C21.3931008,20.8421053 22.2474264,19.9938947 22.2474264,18.9473684 C22.2474264,17.9014737 21.3931008,17.0526316 20.3404496,17.0526316 L20.3404496,17.0526316 L20.3404496,17.0526316 Z M26.6976744,17.0526316 C25.6437519,17.0526316 24.7906977,17.9014737 24.7906977,18.9473684 C24.7906977,19.9938947 25.6437519,20.8421053 26.6976744,20.8421053 C27.7503256,20.8421053 28.6046512,19.9938947 28.6046512,18.9473684 C28.6046512,17.9014737 27.7503256,17.0526316 26.6976744,17.0526316 L26.6976744,17.0526316 L26.6976744,17.0526316 Z" id="Fill-2" sketch:type="MSShapeGroup"></path>
            </g>
        </g>
        <g id="Artboard-16" sketch:type="MSArtboardGroup" transform="translate(-865.000000, -74.000000)"></g>
    </g>
</svg>