<?xml version="1.0" encoding="UTF-8" standalone="no"?>
<svg width="150px" height="64px" viewBox="0 0 150 64" version="1.1" xmlns="http://www.w3.org/2000/svg" xmlns:xlink="http://www.w3.org/1999/xlink" xmlns:sketch="http://www.bohemiancoding.com/sketch/ns">
    <!-- Generator: Sketch 3.2.2 (9983) - http://www.bohemiancoding.com/sketch -->
    <title>people-hovered</title>
    <desc>Created with Sketch.</desc>
    <defs></defs>
    <g id="Page-1" stroke="none" stroke-width="1" fill="none" fill-rule="evenodd" sketch:type="MSPage">
        <g id="people-hovered" sketch:type="MSArtboardGroup" fill="#96562A">
            <g id="聲援牆-+-公民" sketch:type="MSLayerGroup" transform="translate(67.000000, 4.000000)">
                <path d="M26.0505974,23.504 C24.1745974,19.976 21.9345974,16.588 19.1905974,13.06 L16.4465974,14.6 C18.0425974,16.588 18.7145974,17.512 20.0025974,19.584 C16.2785974,20.116 14.2905974,20.312 9.8665974,20.508 C11.2945974,18.184 13.7865974,13.06 15.1025974,9.728 C15.3825974,9.056 15.4945974,8.832 15.6625974,8.496 L11.9665974,7.544 C11.6585974,9.056 11.2665974,10.204 10.3425974,12.36 C9.1105974,15.272 7.7105974,18.1 6.2265974,20.648 C5.4425974,20.676 5.2745974,20.676 4.6305974,20.676 C3.8465974,20.676 3.2025974,20.648 2.5865974,20.592 L3.1465974,24.176 C3.9865974,24.008 4.2105974,24.008 6.4225974,23.868 C11.8265974,23.588 16.7265974,23.084 21.5705974,22.328 C22.0745974,23.28 22.3265974,23.756 23.0265974,25.268 L26.0505974,23.504 Z M9.4745974,0.096 C9.3065974,1.076 8.8585974,2.084 7.9905974,3.568 C6.2545974,6.48 4.1545974,8.664 1.0745974,10.792 C1.9425974,11.716 2.5025974,12.444 3.2025974,13.704 C5.2465974,12.052 6.1705974,11.212 7.5145974,9.672 C9.3345974,7.6 11.0985974,5.024 12.1625974,2.812 C12.3585974,2.364 12.3585974,2.364 12.5265974,2.084 C12.6105974,1.944 12.6385974,1.86 12.6665974,1.804 C12.8065974,1.552 12.8065974,1.552 12.9185974,1.384 L9.4745974,0.096 Z M15.8585974,1.384 C15.9425974,1.552 15.9425974,1.552 16.0825974,1.832 C16.2785974,2.196 16.2785974,2.196 16.3625974,2.392 C16.5025974,2.7 16.6145974,2.896 16.6705974,3.036 C17.3425974,4.408 18.2105974,5.836 19.2465974,7.264 C21.0105974,9.7 22.5225974,11.184 25.7145974,13.732 C26.4145974,12.416 26.8625974,11.716 27.7865974,10.652 C26.2185974,9.616 25.8545974,9.336 25.1265974,8.748 C23.8945974,7.684 22.9145974,6.676 22.0465974,5.584 C20.6185974,3.792 19.3305974,1.524 18.9385974,0.068 L15.8585974,1.384 Z M49.5145974,9.308 C50.8025974,9.308 51.6425974,9.336 52.5665974,9.392 C52.4825974,8.748 52.4545974,8.02 52.4545974,6.816 L52.4545974,3.596 C52.4545974,2.196 52.4545974,1.636 52.5665974,0.908 C51.6425974,1.02 50.8865974,1.048 49.4305974,1.048 L36.0185974,1.048 C34.3665974,1.048 33.6385974,1.02 32.6305974,0.908 C32.7145974,1.888 32.7705974,2.812 32.7705974,4.296 L32.7705974,21.684 C31.1465974,21.908 30.5585974,21.992 29.8025974,21.992 L30.4745974,25.296 C30.8665974,25.212 30.9785974,25.184 31.4545974,25.072 C32.1545974,24.932 32.1545974,24.932 32.6025974,24.848 C33.0505974,24.736 34.1145974,24.54 34.9545974,24.372 C38.2305974,23.7 40.4705974,23.14 43.6625974,22.16 L43.6625974,19.192 C40.5545974,20.088 39.0145974,20.452 35.8785974,21.124 L35.8785974,15.132 L42.9065974,15.076 C43.5785974,17.316 44.5865974,19.332 45.9025974,21.096 C47.8065974,23.588 50.1305974,25.156 51.9505974,25.156 C53.7145974,25.156 54.6385974,23.56 55.2545974,19.472 C54.1905974,18.968 53.6025974,18.604 52.5665974,17.82 C52.2305974,20.704 51.9505974,21.684 51.5025974,21.684 C51.0265974,21.684 49.8225974,20.844 49.0105974,19.976 C47.6945974,18.576 46.7705974,16.98 46.0985974,15.048 L51.1105974,14.992 L51.8385974,14.992 C52.6505974,14.992 53.4905974,15.048 54.5825974,15.132 L54.5265974,11.94 C53.6865974,12.08 53.0425974,12.136 51.1105974,12.136 L45.3705974,12.22 C45.1185974,10.792 45.0345974,10.26 44.9785974,9.308 L49.5145974,9.308 Z M41.9265974,9.308 C42.0665974,10.652 42.1785974,11.632 42.2905974,12.22 L35.8785974,12.276 L35.8785974,9.308 L41.9265974,9.308 Z M35.8785974,3.764 L49.4585974,3.764 L49.4585974,6.648 L35.8785974,6.648 L35.8785974,3.764 Z" id="公民" sketch:type="MSShapeGroup"></path>
                <path d="M6.132,43.508 C5.32,43.508 4.648,43.48 4.088,43.452 C4.564,42.388 4.704,41.968 4.928,40.932 L11.312,40.932 C12.516,40.932 12.964,40.932 13.636,41.016 C13.58,40.68 13.58,40.26 13.58,39.42 L13.58,37.656 C13.58,36.984 13.58,36.648 13.664,36.2 C13.076,36.256 12.74,36.256 11.396,36.256 L4.844,36.256 C3.668,36.256 3.164,36.228 2.52,36.172 C2.576,36.62 2.604,36.872 2.604,37.6 C2.604,40.26 2.184,41.632 0.924,43.256 C1.96,43.844 2.38,44.18 3.08,44.992 L3.08,45.832 C3.78,45.72 4.396,45.692 5.684,45.664 L5.684,51.656 L3.276,51.656 C2.576,51.656 1.764,51.6 1.204,51.544 L1.568,54.12 C2.184,54.036 2.436,54.036 3.332,54.008 C4.088,53.98 4.088,53.98 5.628,53.952 C10.192,53.868 11.06,53.84 13.72,53.756 C15.792,53.672 16.996,53.616 19.32,53.504 C19.292,54.4 19.264,54.764 19.152,55.38 L22.344,55.38 C22.26,54.708 22.204,54.148 22.204,53.364 C24.052,53.28 25.564,53.196 26.712,53.112 L26.74,50.816 C24.5,51.012 24.5,51.012 22.204,51.152 L22.204,45.664 C23.464,45.664 24.136,45.72 24.836,45.804 L24.836,43.368 C25.312,43.452 25.452,43.48 26.012,43.564 C26.292,42.472 26.516,41.912 27.048,41.016 C24.92,40.96 23.492,40.764 21.952,40.344 C22.988,39.588 23.912,38.748 24.668,37.852 C25.06,37.404 25.256,37.18 25.424,36.984 L24.22,35.864 C23.772,35.92 23.436,35.948 22.512,35.948 L16.044,35.948 C15.12,35.948 14.896,35.948 14.392,35.892 L14.392,38.076 C14.924,37.992 15.204,37.992 16.184,37.992 L16.688,37.992 L15.064,38.916 C15.876,39.644 16.24,39.924 17.052,40.456 C15.68,40.904 14.644,41.072 12.964,41.212 C13.552,41.912 13.86,42.528 14.14,43.452 C16.352,43.032 17.864,42.584 19.488,41.8 C21.196,42.556 22.848,43.032 24.724,43.368 C24.024,43.452 23.072,43.508 21.672,43.508 L6.132,43.508 Z M21.56,37.992 C20.86,38.608 20.328,38.972 19.516,39.42 C18.592,38.972 17.976,38.58 17.36,37.992 L21.56,37.992 Z M8.596,50.62 L19.32,50.62 L19.32,51.292 C16.24,51.46 15.624,51.488 8.596,51.628 L8.596,50.62 Z M8.596,48.94 L8.596,48.128 L19.32,48.128 L19.32,48.94 L8.596,48.94 Z M8.596,46.448 L8.596,45.664 L19.32,45.664 L19.32,46.448 L8.596,46.448 Z M7.084,37.908 L7.084,39.14 L5.096,39.14 C5.124,38.916 5.124,38.664 5.152,37.908 L7.084,37.908 Z M9.212,39.14 L9.212,37.908 L11.2,37.908 L11.2,39.14 L9.212,39.14 Z M6.832,32.672 L6.832,33.596 L4.676,33.596 C3.668,33.596 3.136,33.568 2.52,33.484 L2.52,35.5 C3.136,35.416 3.528,35.388 4.648,35.388 L11.508,35.388 C12.768,35.388 13.104,35.388 13.692,35.472 L13.692,33.512 C13.132,33.568 12.656,33.596 11.536,33.596 L9.576,33.596 L9.576,32.672 L12.236,32.672 C13.468,32.672 13.804,32.672 14.42,32.756 L14.42,30.628 C13.692,30.712 13.104,30.74 12.18,30.74 L9.576,30.74 C9.604,30.096 9.632,29.816 9.716,29.396 L6.692,29.396 C6.776,29.844 6.776,30.068 6.804,30.74 L3.892,30.74 C2.828,30.74 2.24,30.712 1.484,30.628 L1.484,32.784 C2.24,32.7 2.716,32.672 3.892,32.672 L6.832,32.672 Z M20.58,32.056 L20.58,33.82 C20.58,34.8 21.196,35.08 23.352,35.08 C26.292,35.08 26.824,34.632 26.908,32.028 C26.068,31.888 25.62,31.748 24.836,31.412 C24.78,33.092 24.78,33.092 23.828,33.092 C23.128,33.092 23.016,33.036 23.016,32.7 L23.016,31.3 C23.016,30.656 23.044,30.236 23.1,29.76 C22.596,29.844 22.176,29.872 21.056,29.872 L17.724,29.872 C16.744,29.872 16.408,29.844 15.764,29.76 C15.82,30.18 15.848,30.46 15.848,30.74 C15.848,31.58 15.68,32.196 15.372,32.728 C15.064,33.232 14.728,33.484 13.804,33.876 C14.588,34.576 14.896,34.996 15.288,35.836 C17.164,34.744 17.836,33.876 18.088,32.056 L20.58,32.056 Z M41.636,39.728 C41.58,40.288 41.552,40.484 41.468,41.24 L40.544,41.24 C39.424,41.24 38.612,41.212 37.856,41.1 L37.856,43.9 C38.584,43.788 39.34,43.76 40.488,43.76 L40.964,43.76 C39.9,47.456 37.996,50.396 35.336,52.412 L35.336,44.18 C36.176,43.844 36.316,43.76 37.212,43.396 L37.184,40.652 C36.288,41.016 35.952,41.156 35.336,41.38 L35.336,37.432 L36.064,37.432 C36.624,37.432 36.988,37.46 37.52,37.516 L37.52,34.632 C36.988,34.688 36.624,34.716 36.064,34.716 L35.336,34.716 L35.336,32.392 C35.336,30.992 35.364,30.32 35.476,29.536 L32.228,29.536 C32.368,30.348 32.396,31.02 32.396,32.42 L32.396,34.716 L31.192,34.716 C30.408,34.716 29.904,34.688 29.26,34.576 L29.26,37.544 C30.016,37.46 30.492,37.432 31.164,37.432 L32.396,37.432 L32.396,42.304 C30.66,42.864 29.764,43.06 28.924,43.116 L29.512,46.224 C30.268,45.944 30.268,45.944 30.856,45.776 C31.528,45.58 31.612,45.552 32.396,45.272 L32.396,51.684 C32.396,52.3 32.256,52.44 31.696,52.44 C31.024,52.44 30.324,52.384 29.288,52.244 C29.68,53.28 29.848,53.98 29.932,55.1 C30.856,55.156 31.276,55.184 31.612,55.184 C34.328,55.184 35.112,54.736 35.308,53.084 C35.952,53.756 36.232,54.12 36.82,55.128 C37.884,54.26 38.276,53.868 39.004,53.056 C39.592,53.868 40.012,54.596 40.348,55.408 C42.952,54.764 44.94,53.952 46.956,52.692 C49.028,53.98 50.624,54.568 54.04,55.436 C54.46,54.176 54.768,53.448 55.3,52.412 C52.724,52.104 51.1,51.712 49.336,50.956 C50.428,50.004 51.38,48.968 52.08,47.988 C52.78,47.036 52.78,47.036 53.06,46.728 L51.576,44.908 C51.072,44.992 50.456,45.02 49.196,45.02 L43.512,45.02 C43.68,44.488 43.736,44.292 43.876,43.76 L51.576,43.76 C52.78,43.76 54.012,43.816 54.796,43.928 L54.796,41.072 C54.012,41.212 53.144,41.24 51.576,41.24 L44.352,41.24 C44.436,40.652 44.464,40.4 44.548,39.728 L51.716,39.728 C52.808,39.728 53.592,39.756 54.404,39.84 L54.404,37.18 C53.788,37.292 53.256,37.32 52.22,37.32 L51.576,37.32 C52.276,36.256 52.78,35.416 53.788,33.372 L50.96,32.644 C50.456,34.38 49.98,35.416 48.804,37.32 L45.612,37.32 L47.656,36.564 C47.236,35.136 46.9,34.352 46.256,33.204 L43.82,33.96 C44.492,35.136 44.912,36.116 45.22,37.32 L41.16,37.32 L42.784,36.62 C42.476,35.556 42.056,34.688 41.384,33.624 L39.004,34.408 C39.704,35.388 40.124,36.228 40.488,37.32 L40.348,37.32 C39.424,37.32 38.808,37.292 38.22,37.208 L38.22,39.84 C38.976,39.756 39.788,39.728 40.712,39.728 L41.636,39.728 Z M42.056,48.604 C42.644,49.304 43.4,50.032 44.52,50.956 C42.98,51.74 41.244,52.3 39.396,52.636 C40.488,51.32 41.244,50.172 42.056,48.604 L42.056,48.604 Z M48.832,47.512 C48.188,48.324 47.684,48.8 46.76,49.528 C45.78,48.828 45.052,48.212 44.324,47.512 L48.832,47.512 Z M52.136,29.34 C50.064,30.236 43.428,31.048 38.136,31.048 L37.212,31.048 C37.744,32.028 37.912,32.504 38.108,33.456 C43.428,33.288 49.112,32.7 53.396,31.888 C53.9,31.776 53.9,31.776 54.152,31.748 L52.136,29.34 Z M82.488,31.16 C81.648,31.272 80.892,31.328 79.548,31.328 L75.376,31.328 C75.376,30.488 75.432,29.956 75.544,29.34 L72.324,29.34 C72.436,29.956 72.464,30.404 72.492,31.328 L69.076,31.328 C67.676,31.328 67.004,31.3 66.136,31.16 L66.136,33.96 C66.78,33.876 67.116,33.876 68.236,33.848 C67.732,35.724 66.976,36.956 65.716,38.02 C66.304,38.356 66.864,38.832 67.312,39.504 C66.556,39.476 66.276,39.448 65.688,39.364 L65.688,42.248 C66.444,42.136 67.088,42.108 68.236,42.108 L79.884,42.108 C81.48,42.108 82.208,42.136 82.992,42.248 L82.992,39.364 C82.404,39.448 82.04,39.476 81.256,39.504 C81.508,38.944 82.04,38.16 82.572,37.544 C81.368,36.816 80.416,36.06 79.8,35.248 C79.94,34.828 79.968,34.744 80.22,33.848 C81.116,33.848 81.816,33.904 82.488,33.988 L82.488,31.16 Z M80.5,39.504 L77.336,39.504 C77.924,38.776 78.288,38.3 78.82,37.348 C79.576,38.328 80.304,39.056 80.948,39.504 L80.5,39.504 Z M75.376,39.504 L75.376,33.848 L77.728,33.848 C77.196,35.612 76.608,36.648 75.432,37.908 C76.076,38.328 76.776,39.028 77.056,39.504 L75.376,39.504 Z M72.492,33.848 L72.492,39.504 L67.732,39.504 C68.404,38.86 68.74,38.412 69.3,37.46 C69.832,38.188 70.28,38.692 71.008,39.336 C71.484,38.384 71.988,37.656 72.464,37.236 C71.512,36.648 70.98,36.144 70.308,35.248 C70.504,34.688 70.56,34.464 70.728,33.848 L72.492,33.848 Z M62.272,36.144 L60.536,36.144 L60.536,32.56 C60.536,31.412 60.564,30.88 60.648,30.376 L57.68,30.376 C57.792,30.936 57.82,31.692 57.82,32.812 L57.82,37.012 C57.82,37.656 57.792,38.244 57.736,38.832 C58.464,38.776 58.856,38.776 59.808,38.776 L62.272,38.776 L62.272,41.576 L59.388,41.576 C58.072,41.576 57.512,41.548 56.868,41.464 L56.868,44.376 C57.372,44.292 57.624,44.292 58.352,44.264 C58.324,47.148 58.296,47.428 58.1,48.912 C57.848,50.872 57.484,51.964 56.672,53.252 C57.54,53.756 57.904,54.064 58.968,55.24 C60.004,53.448 60.452,52.104 60.732,49.752 C60.9,48.408 60.984,46.616 61.012,44.264 L62.272,44.264 L62.272,52.02 C62.272,53.728 62.244,54.372 62.132,55.352 L65.184,55.352 C65.072,54.512 65.044,53.784 65.044,52.02 L65.044,32.784 C65.044,30.796 65.072,30.236 65.184,29.452 L62.132,29.452 C62.244,30.32 62.272,30.74 62.272,32.784 L62.272,36.144 Z M70.644,49.388 C70.644,49.892 70.616,50.396 70.588,50.9 C71.064,50.872 71.624,50.844 72.156,50.844 L75.852,50.844 C76.384,50.844 76.944,50.872 77.56,50.9 C77.532,50.508 77.504,50.06 77.504,49.5 L77.504,47.792 C77.504,47.26 77.504,46.98 77.56,46.28 C77.112,46.308 76.468,46.336 75.88,46.336 L72.156,46.336 C71.54,46.336 71.036,46.308 70.588,46.28 C70.616,46.728 70.644,47.26 70.644,47.764 L70.644,49.388 Z M72.688,48.044 L75.404,48.044 L75.404,49.164 L72.688,49.164 L72.688,48.044 Z M69.468,54.176 L78.68,54.176 L78.68,55.352 L81.648,55.352 C81.564,54.4 81.508,53.448 81.508,52.272 L81.508,45.412 C81.508,44.264 81.536,43.676 81.62,43.004 C80.92,43.088 80.332,43.116 79.268,43.116 L69.104,43.116 C68.068,43.116 67.312,43.088 66.612,43.004 C66.696,43.76 66.724,44.208 66.724,45.468 L66.724,52.412 C66.724,54.036 66.696,54.68 66.612,55.352 L69.468,55.352 L69.468,54.176 Z M69.44,45.44 L78.68,45.44 L78.68,51.712 L69.44,51.712 L69.44,45.44 Z" id="聲援牆" sketch:type="MSShapeGroup"></path>
            </g>
            <g id="Imported-Layers" sketch:type="MSLayerGroup" transform="translate(-1.000000, 6.000000)">
                <path d="M58.236,34.472 C56.238,33.468 50.698,31.963 50.115,30.061 C53.703,29.592 56.729,28.705 58.265,27.7 C59.099,27.154 58.495,26.005 57.928,25.185 C56.687,23.389 55.514,19.639 55.514,15.684 L55.514,12.241 C55.514,6.585 50.667,2 44.684,2 C42.471,2 40.415,2.629 38.7,3.705 C40.2,6.152 41.065,9.028 41.065,12.103 L41.065,15.103 C41.676,16.335 41.993,17.651 41.993,18.971 C41.993,21.904 40.523,24.602 37.819,26.68 C37.448,27.647 37.045,28.641 36.597,29.618 C37.434,29.79 38.324,29.94 39.252,30.061 C38.948,31.055 37.291,31.94 35.493,32.701 C35.631,32.755 35.836,32.819 36.137,32.876 L36.311,32.909 L36.481,32.957 C37.666,33.293 40.989,34.221 42.116,34.479 C47.622,35.741 51.821,40.382 52.874,46 L64.85,46 L64.85,43.25 C64.85,39.139 60.691,35.706 58.236,34.472" id="Fill-1" sketch:type="MSShapeGroup"></path>
                <path d="M40.979,38.377 C39.517,38.04 35.186,36.807 35.186,36.807 C32.91,36.372 31.25,35.21 31.25,32.78 L31.25,32.595 C31.25,31.929 31.253,31.284 31.286,30.658 C32.513,28.884 33.392,26.578 34.313,24.111 C36.455,22.761 37.773,20.959 37.773,18.971 C37.773,17.981 37.442,17.04 36.85,16.172 L36.85,12.104 C36.85,5.419 31.478,0 24.85,0 C18.222,0 12.85,5.419 12.85,12.104 L12.85,16.171 C12.257,17.038 11.926,17.981 11.926,18.971 C11.926,20.959 13.247,22.761 15.389,24.111 C16.31,26.578 17.188,28.883 18.416,30.657 C18.447,31.283 18.451,31.929 18.451,32.595 L18.451,32.78 C18.451,35.21 16.79,36.372 14.515,36.807 C14.515,36.807 10.184,38.04 8.721,38.377 C4.208,39.418 0.85,43.891 0.85,48.75 L0.85,52 L48.85,52 L48.85,48.75 C48.85,43.891 45.494,39.419 40.979,38.377" id="Fill-2" sketch:type="MSShapeGroup"></path>
            </g>
        </g>
    </g>
</svg>