<?xml version="1.0" encoding="UTF-8" standalone="no"?>
<svg width="115px" height="36px" viewBox="0 0 115 36" version="1.1" xmlns="http://www.w3.org/2000/svg" xmlns:xlink="http://www.w3.org/1999/xlink" xmlns:sketch="http://www.bohemiancoding.com/sketch/ns">
    <!-- Generator: Sketch 3.2.2 (9983) - http://www.bohemiancoding.com/sketch -->
    <title>statement-hovered</title>
    <desc>Created with Sketch.</desc>
    <defs></defs>
    <g id="Page-1" stroke="none" stroke-width="1" fill="none" fill-rule="evenodd" sketch:type="MSPage">
        <g id="statement-hovered" sketch:type="MSArtboardGroup" fill="#96562A">
            <g id="claim" sketch:type="MSLayerGroup" transform="translate(16.563785, 20.126054) rotate(-15.000000) translate(-16.563785, -20.126054) translate(-0.436215, 4.126054)">
                <path d="M7.17830366,13.5777508 L31.0644404,0.00797677928 L33.94725,27.1475249 L8.00196354,21.2261689 L7.17830366,13.5777508 L7.17830366,13.5777508 Z" id="Rectangle-20" sketch:type="MSShapeGroup"></path>
                <path d="M1.00085452,13.3310276 L6.35464378,13.3310276 L6.35464378,21.7196153 L2.23634435,22.7065079 L1.00085452,13.3310276 L1.00085452,13.3310276 Z M2.64817429,14.8113667 L5.11915394,14.8113667 L5.11915394,19.74583 L2.64817429,19.74583 L2.64817429,14.8113667 L2.64817429,14.8113667 Z" id="Rectangle-21" sketch:type="MSShapeGroup"></path>
                <path d="M10.0611133,19.74583 L14.1794127,19.74583 L14.1794127,30.6016492 C14.1794127,30.6016492 11.0906881,33.315604 10.0611133,30.6016492 C9.03153841,27.8876944 10.0611133,19.74583 10.0611133,19.74583 L10.0611133,19.74583 Z" id="Rectangle-23" sketch:type="MSShapeGroup"></path>
            </g>
            <path d="M56.206,27.93 L56.206,30.366 C55.688,30.086 55.38,29.918 54.498,29.498 L54.05,30.156 C55.072,30.632 55.45,30.842 56.206,31.304 L56.206,34.594 C56.206,35.154 56.178,35.532 56.122,35.98 L57.144,35.98 C57.074,35.574 57.046,35.14 57.046,34.58 L57.046,31.836 C57.662,32.256 57.97,32.494 58.712,33.152 L59.202,32.368 C58.236,31.626 57.83,31.346 57.046,30.856 L57.046,27.93 L58.166,27.93 C58.656,27.93 59.02,27.944 59.44,28 L59.44,27.02 C59.062,27.076 58.712,27.104 58.138,27.104 L53.504,27.104 L53.504,26.74 L53.504,25.256 C55.464,25.06 56.864,24.766 58.502,24.192 C58.642,24.15 58.754,24.108 58.95,24.038 L58.222,23.268 C57.83,23.506 57.228,23.744 56.458,23.94 C55.366,24.234 53.728,24.486 52.86,24.486 L52.552,24.486 C52.608,25.004 52.636,25.578 52.636,26.208 C52.636,28.714 52.552,30.646 52.37,31.892 C52.146,33.53 51.796,34.51 51.124,35.476 C51.404,35.644 51.53,35.756 51.824,36.092 C53,34.272 53.406,32.298 53.49,27.93 L56.206,27.93 Z M47.302,24.738 C47.61,24.696 47.904,24.682 48.31,24.682 L50.158,24.682 C50.55,24.682 50.858,24.696 51.166,24.738 L51.166,23.856 C50.844,23.912 50.62,23.926 50.158,23.926 L48.31,23.926 C47.848,23.926 47.61,23.912 47.302,23.856 L47.302,24.738 Z M46.658,26.698 C47.022,26.656 47.288,26.642 47.778,26.642 L50.62,26.642 C51.096,26.642 51.348,26.656 51.628,26.698 L51.628,25.788 C51.32,25.844 51.082,25.858 50.508,25.858 L47.778,25.858 C47.246,25.858 46.98,25.844 46.658,25.788 L46.658,26.698 Z M47.288,28.63 C47.596,28.588 47.792,28.574 48.24,28.574 L50.186,28.574 C50.592,28.574 50.774,28.588 51.11,28.63 L51.11,27.776 C50.83,27.818 50.662,27.832 50.186,27.832 L48.24,27.832 C47.75,27.832 47.596,27.818 47.288,27.776 L47.288,28.63 Z M47.288,30.562 C47.582,30.52 47.792,30.506 48.226,30.506 L50.172,30.506 C50.606,30.506 50.83,30.52 51.11,30.562 L51.11,29.708 C50.858,29.75 50.634,29.764 50.172,29.764 L48.24,29.764 C47.764,29.764 47.568,29.75 47.288,29.708 L47.288,30.562 Z M48.128,35.966 L48.128,35.14 L50.326,35.14 L50.536,35.14 C50.606,35.154 50.69,35.154 50.774,35.154 C50.942,35.154 50.984,35.154 51.124,35.168 C51.11,34.902 51.096,34.664 51.096,34.258 L51.096,32.69 C51.096,32.172 51.11,31.906 51.138,31.598 C50.886,31.64 50.76,31.64 50.298,31.64 L48.156,31.64 C47.638,31.64 47.512,31.626 47.26,31.584 C47.302,31.948 47.316,32.298 47.316,32.732 L47.316,34.608 C47.316,35.042 47.288,35.56 47.246,35.966 L48.128,35.966 Z M48.114,32.354 L50.326,32.354 L50.326,34.412 L48.114,34.412 L48.114,32.354 Z M66.524,26.726 L66.524,34.58 C66.524,34.902 66.412,34.972 65.88,34.972 C65.362,34.972 64.732,34.916 64.046,34.804 C64.186,35.168 64.228,35.364 64.27,35.728 C64.844,35.784 65.474,35.812 66.034,35.812 C67.112,35.812 67.42,35.574 67.42,34.762 L67.42,30.632 C67.406,30.212 67.35,28.7 67.336,28.308 C67.644,29.26 67.84,29.68 68.232,30.366 C68.764,31.318 69.408,32.172 70.136,32.928 C70.976,33.782 71.55,34.244 72.572,34.874 C72.796,34.524 72.978,34.3 73.23,34.048 C72.194,33.502 71.606,33.096 70.822,32.354 C70.262,31.836 69.814,31.318 69.338,30.688 C70.094,30.072 70.808,29.414 71.27,28.896 C71.998,28.098 71.998,28.098 72.096,27.986 L71.312,27.384 C70.864,28.182 70.08,29.036 68.89,30.03 C68.232,28.994 67.728,27.846 67.448,26.726 L71.578,26.726 C72.208,26.726 72.642,26.754 73.02,26.81 L73.02,25.844 C72.628,25.9 72.208,25.928 71.578,25.928 L67.42,25.928 L67.42,24.85 C67.42,24.178 67.448,23.786 67.504,23.352 L66.44,23.352 C66.496,23.758 66.524,24.178 66.524,24.85 L66.524,25.928 L62.45,25.928 C61.806,25.928 61.4,25.9 61.008,25.844 L61.008,26.81 C61.4,26.754 61.834,26.726 62.422,26.726 L66.524,26.726 Z M68.624,24.01 C69.59,24.57 69.996,24.878 70.766,25.648 L71.396,25.046 C70.556,24.304 70.22,24.052 69.226,23.464 L68.624,24.01 Z M62.338,28.028 C63.136,28.812 63.612,29.414 64.242,30.492 L64.984,29.904 C64.298,28.882 63.892,28.378 63.024,27.496 L62.338,28.028 Z M65.88,30.758 C64.956,31.472 64.354,31.864 63.192,32.508 C62.282,33.012 61.736,33.25 61.092,33.432 L61.554,34.384 C61.792,34.23 61.946,34.132 62.24,33.978 C64.228,32.9 64.802,32.55 66.132,31.598 L65.88,30.758 Z M75.988,32.102 C75.372,32.102 74.966,32.074 74.644,32.032 L74.644,32.956 C75.092,32.9 75.624,32.872 76.184,32.872 L85.802,32.872 C86.404,32.872 86.894,32.9 87.356,32.956 L87.356,32.032 C86.992,32.074 86.614,32.102 86.012,32.102 L86.292,25.354 C86.32,24.696 86.348,24.36 86.39,23.982 C86.11,24.038 85.816,24.052 85.424,24.052 L84.164,24.052 C83.73,24.052 83.534,24.038 83.254,23.982 L83.254,24.864 C83.52,24.822 83.758,24.808 84.15,24.808 L85.48,24.808 L85.41,26.726 L84.136,26.726 C83.73,26.726 83.534,26.712 83.282,26.67 L83.282,27.482 C83.534,27.454 83.786,27.44 84.136,27.44 L85.368,27.44 L85.298,29.232 L84.136,29.232 C83.744,29.232 83.52,29.218 83.282,29.176 L83.282,29.988 C83.534,29.96 83.786,29.946 84.136,29.946 L85.27,29.946 L85.172,32.102 L82.456,32.102 L82.596,28.196 C82.61,27.664 82.638,27.3 82.694,26.95 C82.372,27.006 82.12,27.02 81.714,27.02 L80.356,27.02 L80.44,25.508 L82.064,25.508 C82.4,25.508 82.666,25.522 82.918,25.55 L82.918,24.71 C82.68,24.752 82.456,24.766 82.064,24.766 L80.482,24.766 L80.51,24.402 C80.538,23.982 80.566,23.688 80.594,23.492 L79.698,23.478 C79.712,23.716 79.726,23.842 79.726,24.038 C79.726,24.206 79.726,24.234 79.712,24.416 L79.586,26.852 C79.572,27.146 79.53,27.594 79.488,27.776 C79.782,27.748 80.118,27.734 80.524,27.734 L81.84,27.734 L81.658,32.102 L80.244,32.102 L80.356,29.414 C80.37,28.98 80.384,28.882 80.44,28.518 L79.558,28.504 C79.572,28.658 79.586,28.812 79.586,28.966 C79.586,29.288 79.586,29.316 79.572,29.414 L79.46,32.102 L76.828,32.102 L76.758,30.002 L77.962,30.002 C78.298,30.002 78.564,30.016 78.816,30.044 L78.816,29.232 C78.564,29.274 78.34,29.288 77.962,29.288 L76.744,29.288 L76.688,27.524 L77.962,27.524 C78.298,27.524 78.564,27.538 78.816,27.566 L78.816,26.754 C78.578,26.796 78.368,26.81 77.962,26.81 L76.66,26.81 L76.618,25.144 C77.43,24.878 78.116,24.584 78.858,24.206 L78.284,23.492 C77.71,23.94 76.842,24.318 75.708,24.584 C75.75,24.92 75.778,25.27 75.792,26.012 L75.988,32.102 Z M78.872,33.138 C78.34,33.656 77.976,33.908 77.388,34.23 C76.604,34.636 75.988,34.86 74.994,35.112 C75.232,35.336 75.414,35.602 75.568,35.91 C77.402,35.266 78.41,34.706 79.586,33.684 L78.872,33.138 Z M82.498,33.726 C83.758,34.706 85.088,35.392 86.712,35.868 C86.88,35.518 86.894,35.476 87.244,35.042 C85.606,34.678 84.332,34.104 83.142,33.18 L82.498,33.726 Z M91.738,24.738 L91.738,25.466 L90.492,25.466 C90.044,25.466 89.792,25.452 89.498,25.41 L89.498,26.11 C89.82,26.068 90.044,26.054 90.492,26.054 L93.726,26.054 C94.286,26.054 94.468,26.068 94.748,26.096 L94.748,25.424 C94.496,25.452 94.286,25.466 93.726,25.466 L92.536,25.466 L92.536,24.738 L94.174,24.738 C94.734,24.738 94.902,24.752 95.196,24.78 L95.196,24.066 C94.888,24.108 94.608,24.122 94.16,24.122 L92.536,24.122 C92.536,23.702 92.55,23.548 92.606,23.338 L91.668,23.338 C91.71,23.576 91.724,23.786 91.738,24.122 L89.974,24.122 C89.47,24.122 89.19,24.108 88.868,24.066 L88.868,24.794 C89.204,24.752 89.456,24.738 89.974,24.738 L91.738,24.738 Z M99.9,26.544 C99.69,26.586 99.494,26.6 99.046,26.6 L96.05,26.6 C95.546,26.6 95.434,26.6 95.168,26.558 L95.168,27.272 C95.392,27.244 95.434,27.244 95.84,27.23 C96.344,28 96.61,28.28 97.156,28.728 C96.274,29.148 95.588,29.344 94.51,29.512 C94.692,29.736 94.818,29.932 94.916,30.212 C96.176,29.918 96.904,29.638 97.772,29.162 C98.752,29.764 99.564,30.072 100.95,30.38 C101.062,30.058 101.146,29.89 101.342,29.624 C100.012,29.442 99.368,29.246 98.416,28.742 C98.976,28.35 99.606,27.79 99.97,27.356 C100.166,27.132 100.264,27.02 100.334,26.95 L99.9,26.544 Z M99.158,27.23 C98.668,27.762 98.416,27.972 97.8,28.364 C97.31,28.028 97.03,27.734 96.666,27.23 L99.158,27.23 Z M91.122,34.622 C90.184,34.622 90.114,34.622 90.016,34.636 L89.792,34.636 C89.442,34.636 88.966,34.608 88.686,34.566 L88.826,35.434 C89.106,35.392 89.316,35.378 89.736,35.378 C93.264,35.322 95.532,35.252 98.052,35.126 C98.052,35.518 98.024,35.77 97.968,36.092 L98.962,36.092 C98.906,35.756 98.878,35.49 98.878,35.084 C100.334,35.014 100.334,35.014 101.384,34.958 L101.398,34.244 C100.418,34.314 100.418,34.314 98.878,34.398 L98.878,31.15 C99.55,31.15 99.9,31.164 100.236,31.206 L100.236,30.408 C99.914,30.464 99.494,30.492 98.752,30.492 L91.248,30.492 C90.576,30.492 90.17,30.464 89.848,30.408 L89.848,31.234 C90.212,31.178 90.436,31.164 91.122,31.15 L91.122,34.622 Z M91.962,33.796 L98.052,33.796 L98.052,34.44 C96.19,34.538 93.908,34.608 91.962,34.608 L91.962,33.796 Z M91.962,33.194 L91.962,32.466 L98.052,32.466 L98.052,33.194 L91.962,33.194 Z M91.962,31.864 L91.962,31.15 L98.052,31.15 L98.052,31.864 L91.962,31.864 Z M93.6,28.826 C94.132,28.826 94.37,28.84 94.734,28.868 C94.706,28.7 94.706,28.56 94.706,28.14 L94.706,27.244 C94.706,27.006 94.706,26.852 94.748,26.642 C94.468,26.67 94.286,26.67 93.712,26.67 L90.66,26.67 C90.198,26.67 89.918,26.656 89.568,26.628 C89.596,26.81 89.61,27.034 89.61,27.37 C89.61,28.756 89.358,29.54 88.672,30.394 C89.008,30.562 89.134,30.66 89.344,30.898 C89.89,30.142 90.1,29.638 90.254,28.826 L93.6,28.826 Z M91.822,27.258 L91.822,28.224 L90.338,28.224 C90.352,27.944 90.366,27.72 90.366,27.258 L91.822,27.258 Z M92.494,28.224 L92.494,27.258 L93.978,27.258 L93.978,28.224 L92.494,28.224 Z M98.528,24.276 L98.528,25.466 C98.528,25.928 98.752,26.04 99.76,26.04 C101.006,26.04 101.188,25.886 101.286,24.71 C101.034,24.668 100.866,24.612 100.6,24.486 C100.558,25.41 100.544,25.424 99.774,25.424 C99.354,25.424 99.27,25.382 99.27,25.214 L99.27,24.304 C99.27,23.996 99.284,23.786 99.326,23.548 C99.06,23.59 98.836,23.604 98.374,23.604 L97.016,23.604 C96.554,23.604 96.358,23.59 96.064,23.548 C96.078,23.73 96.092,23.912 96.092,24.038 C96.092,24.892 95.728,25.396 94.888,25.732 C95.14,25.97 95.252,26.124 95.35,26.362 C96.316,25.83 96.708,25.284 96.806,24.276 L98.528,24.276 Z M113.858,31.43 L113.858,34.482 C113.858,34.86 113.76,34.958 113.41,34.958 C112.934,34.958 112.458,34.916 111.674,34.776 C111.814,35.112 111.87,35.35 111.912,35.742 C112.78,35.798 112.99,35.812 113.298,35.812 C113.886,35.812 114.208,35.756 114.39,35.616 C114.642,35.42 114.74,35.126 114.74,34.608 L114.74,25.41 C114.74,24.78 114.754,24.374 114.796,24.038 C114.46,24.08 114.096,24.094 113.466,24.094 L110.442,24.094 C109.812,24.094 109.49,24.08 109.084,24.038 C109.14,24.444 109.154,25.102 109.154,26.446 C109.154,30.156 108.986,31.64 108.454,32.914 C108.02,33.936 107.488,34.608 106.452,35.42 C106.788,35.63 106.956,35.784 107.18,36.078 C108.034,35.336 108.44,34.86 108.874,34.076 C109.308,33.278 109.588,32.438 109.756,31.43 L113.858,31.43 Z M113.858,28.07 L113.858,30.646 L109.854,30.646 C109.938,29.792 109.98,29.288 110.022,28.07 L113.858,28.07 Z M113.858,27.286 L110.036,27.286 L110.036,26.712 L110.036,24.892 L113.858,24.892 L113.858,27.286 Z M103.33,31.948 C103.33,32.508 103.302,33.012 103.246,33.418 L104.198,33.418 L104.198,32.326 L106.9,32.326 L106.9,32.97 L107.796,32.97 C107.768,32.564 107.754,32.284 107.754,31.612 L107.754,25.718 C107.754,24.962 107.768,24.71 107.796,24.374 C107.46,24.402 107.208,24.416 106.536,24.416 L105.01,24.416 C104.072,24.416 103.722,24.402 103.274,24.374 C103.316,24.738 103.33,25.102 103.33,25.718 L103.33,31.948 Z M104.198,25.214 L106.9,25.214 L106.9,27.832 L104.198,27.832 L104.198,25.214 Z M104.198,28.616 L106.9,28.616 L106.9,31.542 L104.198,31.542 L104.198,28.616 Z" id="訴求與聲明" sketch:type="MSShapeGroup"></path>
        </g>
    </g>
</svg>