<?xml version="1.0" encoding="UTF-8" standalone="no"?>
<svg width="135px" height="36px" viewBox="0 0 135 36" version="1.1" xmlns="http://www.w3.org/2000/svg" xmlns:xlink="http://www.w3.org/1999/xlink" xmlns:sketch="http://www.bohemiancoding.com/sketch/ns">
    <!-- Generator: Sketch 3.2.2 (9983) - http://www.bohemiancoding.com/sketch -->
    <title>statement-hovered</title>
    <desc>Created with Sketch.</desc>
    <defs></defs>
    <g id="Page-1" stroke="none" stroke-width="1" fill="none" fill-rule="evenodd" sketch:type="MSPage">
        <g id="statement-hovered" sketch:type="MSArtboardGroup" fill="#96562A">
            <text id="訴求與聲明" sketch:type="MSTextLayer" font-family="Hiragino Kaku Gothic ProN" font-size="14" font-weight="313">
                <tspan x="46" y="35">訴求與聲明</tspan>
            </text>
            <g id="claim" sketch:type="MSLayerGroup" transform="translate(16.563785, 20.126054) rotate(-15.000000) translate(-16.563785, -20.126054) translate(-0.436215, 4.126054)">
                <path d="M7.17830366,13.5777508 L31.0644404,0.00797677928 L33.94725,27.1475249 L8.00196354,21.2261689 L7.17830366,13.5777508 L7.17830366,13.5777508 Z" id="Rectangle-20" sketch:type="MSShapeGroup"></path>
                <path d="M1.00085452,13.3310276 L6.35464378,13.3310276 L6.35464378,21.7196153 L2.23634435,22.7065079 L1.00085452,13.3310276 L1.00085452,13.3310276 Z M2.64817429,14.8113667 L5.11915394,14.8113667 L5.11915394,19.74583 L2.64817429,19.74583 L2.64817429,14.8113667 L2.64817429,14.8113667 Z" id="Rectangle-21" sketch:type="MSShapeGroup"></path>
                <path d="M10.0611133,19.74583 L14.1794127,19.74583 L14.1794127,30.6016492 C14.1794127,30.6016492 11.0906881,33.315604 10.0611133,30.6016492 C9.03153841,27.8876944 10.0611133,19.74583 10.0611133,19.74583 L10.0611133,19.74583 Z" id="Rectangle-23" sketch:type="MSShapeGroup"></path>
            </g>
        </g>
    </g>
</svg>