<?xml version="1.0" encoding="UTF-8" standalone="no"?>
<svg width="60px" height="40px" viewBox="0 0 60 40" version="1.1" xmlns="http://www.w3.org/2000/svg" xmlns:xlink="http://www.w3.org/1999/xlink" xmlns:sketch="http://www.bohemiancoding.com/sketch/ns">
    <!-- Generator: Sketch 3.2.2 (9983) - http://www.bohemiancoding.com/sketch -->
    <title>tsu</title>
    <desc>Created with Sketch.</desc>
    <defs></defs>
    <g id="Page-1" stroke="none" stroke-width="1" fill="none" fill-rule="evenodd" sketch:type="MSPage">
        <g id="tsu" sketch:type="MSArtboardGroup">
            <g id="layer1-+-layer2" sketch:type="MSLayerGroup">
                <g id="layer1" stroke="#000000" stroke-opacity="0" stroke-width="11.11111" fill="#FFFFFF" sketch:type="MSShapeGroup">
                    <rect id="rect3154" x="0.0023360238" y="0.000804941547" width="59.9967131" height="39.0144892"></rect>
                </g>
                <g id="layer2" transform="translate(0.191559, 3.880495)">
                    <path d="M29.2830252,0.00213894749 L29.7358052,0.0126148811 L30.1833499,0.0492804151 L30.6256596,0.10427895 L31.0601176,0.182848218 L31.4867287,0.282369354 L31.9054836,0.400223491 L32.3163892,0.541648127 L32.7194409,0.698786664 L33.1094059,0.876877302 L33.4915216,1.07330047 L33.8605505,1.28805688 L34.2191115,1.51852672 L34.5672045,1.76471069 L34.8995896,2.02922743 L35.2215091,2.30683897 L35.5303395,2.60016464 L35.8208527,2.90920352 L36.1008978,3.23133743 L36.3626188,3.56656683 L36.6112576,3.91227147 L36.8415722,4.27107162 L37.0535695,4.64296633 L37.2498591,5.02533697 L37.427829,5.41818355 L37.5848653,5.81888695 L37.7261937,6.2300663 L37.8439698,6.64910271 L37.9434239,7.07861482 L38.0219397,7.51336513 L38.0769008,7.95597251 L38.1135446,8.40381645 L38.124015,8.85951863 L38.1135446,9.3126017 L38.0769008,9.76044682 L38.0219397,10.2030537 L37.9434239,10.637804 L37.8439698,11.064697 L37.7261937,11.4837337 L37.5848653,11.8949128 L37.427829,12.2956164 L37.2498591,12.688463 L37.0535695,13.0708337 L36.8415722,13.4401093 L36.6112576,13.7989092 L36.3626188,14.1472332 L36.1008978,14.4798432 L35.8208527,14.8019774 L35.5303395,15.1083976 L35.2215091,15.4017231 L34.8995896,15.6819537 L34.5672045,15.9438513 L34.2191115,16.1926544 L33.8605505,16.4231242 L33.4915216,16.6352613 L33.1094059,16.8316845 L32.7194409,17.0097751 L32.3163892,17.1669139 L31.9054836,17.3083383 L31.4867287,17.4261924 L31.0601176,17.5257133 L30.6256596,17.6042831 L30.1833499,17.6592814 L29.7358052,17.6959471 L29.2830252,17.7064228 L28.8276265,17.6959471 L28.3800818,17.6592814 L27.9377698,17.6042831 L27.5033095,17.5257133 L27.0740843,17.4261924 L26.6553271,17.3083383 L26.2444214,17.1669139 L25.8439861,17.0097751 L25.4514024,16.8316845 L25.0692891,16.6352613 L24.6976413,16.4231242 L24.339085,16.1926544 L23.9936108,15.9438513 L23.6586046,15.6819537 L23.3366874,15.4017231 L23.0278545,15.1083976 L22.7347249,14.8019774 L22.4572987,14.4798432 L22.192959,14.1472332 L21.9469394,13.7989092 L21.7166239,13.4401093 L21.5020111,13.0708337 L21.305719,12.688463 L21.1277479,12.2956164 L20.9707141,11.8949128 L20.8293838,11.4837337 L20.7116087,11.064697 L20.6121541,10.637804 L20.5336374,10.2030537 L20.4786758,9.76044682 L20.4420346,9.3126017 L20.4315656,8.85951863 L20.4420346,8.40381645 L20.4786758,7.95597251 L20.5336374,7.51336513 L20.6121541,7.07861482 L20.7116087,6.64910271 L20.8293838,6.2300663 L20.9707141,5.81888695 L21.1277479,5.41818355 L21.305719,5.02533697 L21.5020111,4.64296633 L21.7166239,4.27107162 L21.9469394,3.91227147 L22.192959,3.56656683 L22.4572987,3.23133743 L22.7347249,2.90920352 L23.0278545,2.60016464 L23.3366874,2.30683897 L23.6586046,2.02922743 L23.9936108,1.76471069 L24.339085,1.51852672 L24.6976413,1.28805688 L25.0692891,1.07330047 L25.4514024,0.876877302 L25.8439861,0.698786664 L26.2444214,0.541648127 L26.6553271,0.400223491 L27.0740843,0.282369354 L27.5033095,0.182848218 L27.9377698,0.10427895 L28.3800818,0.0492804151 L28.8276265,0.0126148811 L29.2830252,0.00213894749 L29.2830252,0.00213894749 Z" id="path4" fill="#FFFFFF" sketch:type="MSShapeGroup"></path>
                    <path d="M38.082136,9.63735495 L36.475162,10.4806653 L34.5227091,10.8630361 L34.5436474,10.8054185 L34.5672045,10.7451818 L34.5881405,10.6875646 L34.6064601,10.6273281 L34.6273984,10.5670916 L34.6457203,10.5068551 L34.6640422,10.4466186 L34.6823594,10.3863823 L34.6980626,10.3261458 L34.7137681,10.26329 L34.7294713,10.2030537 L34.7451744,10.1428172 L34.7608753,10.0799616 L34.773962,10.0171065 L34.7870511,9.95425112 L34.8001378,9.89139528 L34.8106058,9.83115878 L34.8210738,9.76568478 L34.8315418,9.70282895 L34.8420098,9.63997381 L34.8498614,9.57711844 L34.857713,9.51164374 L34.8655669,9.44878861 L34.8708021,9.38331391 L34.8786536,9.31783944 L34.8838888,9.2523652 L34.8865052,9.1895096 L34.8917404,9.12403537 L34.8943568,9.05856066 L34.8943568,8.99046733 L34.8969732,8.92499286 L34.8969732,8.85951863 L34.8891216,8.57143115 L34.8681856,8.28596255 L34.8315418,8.00573214 L34.7818136,7.7281213 L34.7190033,7.45836659 L34.6431039,7.19123099 L34.5541154,6.92933311 L34.4546613,6.67529254 L34.3395063,6.4238706 L34.2164928,6.18292483 L34.0803971,5.94721679 L33.9338335,5.71936559 L33.7767996,5.49675281 L33.6092976,5.28461574 L33.4313277,5.0803355 L33.2455015,4.8839121 L33.0518307,4.69796463 L32.8476873,4.51987446 L32.6356876,4.35225999 L32.4132246,4.19512122 L32.1855264,4.04845838 L31.9499766,3.91227147 L31.7091941,3.78917961 L31.4605575,3.67656367 L31.2066835,3.57442367 L30.9449626,3.48537847 L30.6806206,3.4094283 L30.4084317,3.3465727 L30.1336217,3.29681213 L29.8535765,3.26014636 L29.5709173,3.23919449 L29.2830252,3.23133743 L28.9951285,3.23919449 L28.7098505,3.26014636 L28.4271889,3.29681213 L28.1497648,3.3465727 L27.88019,3.4094283 L27.6132339,3.48537847 L27.3515083,3.57442367 L27.0950226,3.67656367 L26.8463837,3.78917961 L26.6029824,3.91227147 L26.3674326,4.04845838 L26.1397345,4.19512122 L25.9198855,4.35225999 L25.7078905,4.51987446 L25.5037471,4.69796463 L25.3074552,4.8839121 L25.1216337,5.0803355 L24.9436614,5.28461574 L24.7761595,5.49675281 L24.6217443,5.71936559 L24.4751807,5.94721679 L24.339085,6.18292483 L24.2134574,6.4238706 L24.1009165,6.67529254 L24.0014624,6.92933311 L23.9124762,7.19123099 L23.8365769,7.45836659 L23.7737642,7.7281213 L23.724036,8.00573214 L23.6873945,8.28596255 L23.6664562,8.57143115 L23.6586046,8.85951863 L23.6586046,8.89356506 L23.6586046,8.9276122 L23.6586046,8.96427773 L23.6586046,8.99832416 L23.6586046,9.03237106 L23.6586046,9.06641773 L23.6612233,9.10046463 L23.6612233,9.1318922 L23.6612233,9.16593863 L23.6638397,9.19998577 L23.6664562,9.2340322 L23.6664562,9.2680791 L23.6690749,9.29950667 L23.6716913,9.33355334 L23.6769265,9.36498114 L23.6795429,9.39902781 L20.5467236,10.3025751 L20.5310205,10.2161485 L20.517934,10.1271033 L20.5048479,10.0380584 L20.494379,9.95163179 L20.4839101,9.86258658 L20.4734411,9.77354162 L20.4655895,9.68187755 L20.4577377,9.59283211 L20.4525033,9.50378691 L20.4446517,9.41212284 L20.4420346,9.32045854 L20.4368001,9.22879447 L20.4341828,9.13712993 L20.4341828,9.04546586 L20.4315656,8.95380156 L20.4315656,8.85951863 L20.4420346,8.40381645 L20.4786758,7.95597251 L20.5336374,7.51336513 L20.6121541,7.07861482 L20.7116087,6.64910271 L20.8293838,6.2300663 L20.9707141,5.81888695 L21.1277479,5.41818355 L21.305719,5.02533697 L21.5020111,4.64296633 L21.7166239,4.27107162 L21.9469394,3.91227147 L22.192959,3.56656683 L22.4572987,3.23133743 L22.7347249,2.90920352 L23.0278545,2.60016464 L23.3366874,2.30683897 L23.6586046,2.02922743 L23.9936108,1.76471069 L24.339085,1.51852672 L24.6976413,1.28805688 L25.0692891,1.07330047 L25.4514024,0.876877302 L25.8439861,0.698786664 L26.2444214,0.541648127 L26.6553271,0.400223491 L27.0740843,0.282369354 L27.5033095,0.182848218 L27.9377698,0.10427895 L28.3800818,0.0492804151 L28.8276265,0.0126148811 L29.2830252,0.00213894749 L29.7358052,0.0126148811 L30.1833499,0.0492804151 L30.6256596,0.10427895 L31.0601176,0.182848218 L31.4867287,0.282369354 L31.9054836,0.400223491 L32.3163892,0.541648127 L32.7194409,0.698786664 L33.1094059,0.876877302 L33.4915216,1.07330047 L33.8605505,1.28805688 L34.2191115,1.51852672 L34.5672045,1.76471069 L34.8995896,2.02922743 L35.2215091,2.30683897 L35.5303395,2.60016464 L35.8208527,2.90920352 L36.1008978,3.23133743 L36.3626188,3.56656683 L36.6112576,3.91227147 L36.8415722,4.27107162 L37.0535695,4.64296633 L37.2498591,5.02533697 L37.427829,5.41818355 L37.5848653,5.81888695 L37.7261937,6.2300663 L37.8439698,6.64910271 L37.9434239,7.07861482 L38.0219397,7.51336513 L38.0769008,7.95597251 L38.1135446,8.40381645 L38.124015,8.85951863 L38.124015,8.90927896 L38.124015,8.95903976 L38.1213962,9.01141943 L38.1213962,9.05856066 L38.1187798,9.10832147 L38.1161634,9.1580818 L38.1135446,9.2078426 L38.1109282,9.25498407 L38.1083118,9.30474487 L38.1056907,9.35188634 L38.1004555,9.40164667 L38.0978391,9.44878861 L38.092604,9.49593008 L38.0899875,9.54307154 L38.0847524,9.59021301 L38.082136,9.63735495 L38.082136,9.63735495 Z" id="path6" fill="#F58310" sketch:type="MSShapeGroup"></path>
                    <path d="M37.7392828,11.4549248 L37.7602188,11.3894503 L37.7785384,11.3239761 L37.7994767,11.2585016 L37.8177986,11.1930269 L37.8361182,11.1249335 L37.8544378,11.0594593 L37.8701409,10.991366 L37.8884629,10.9258915 L37.904166,10.8577982 L37.9198692,10.7897046 L37.9355723,10.7216113 L37.9486568,10.6535179 L37.9643622,10.5854246 L37.977449,10.5147122 L37.9905357,10.4466186 L38.0036202,10.3759062 L38.0167046,10.3078126 L38.0271749,10.2371006 L38.0376452,10.1690071 L38.0481156,10.0982949 L38.0585836,10.0275822 L38.0690515,9.95686999 L38.0769008,9.88615732 L38.0847524,9.81544512 L38.092604,9.74473292 L38.1004555,9.67402025 L38.1083118,9.60330781 L38.1135446,9.53259584 L38.1213962,9.45926407 L38.1266314,9.38855211 L38.1292478,9.31522034 L38.1344829,9.24450837 L37.8047095,9.41997967 L37.4775572,9.58235618 L37.1556401,9.73425675 L36.8337206,9.87306275 L36.5144175,9.99877349 L36.1977332,10.1166276 L35.8862841,10.2187674 L35.5748349,10.3130508 L35.2660022,10.3942392 L34.9597882,10.4649514 L34.6561906,10.5278067 L34.3552095,10.5775675 L34.0568447,10.6168519 L33.7610964,10.6482797 L33.4679668,10.6692316 L33.1748373,10.6823266 L32.8869428,10.6849453 L32.5990508,10.6797078 L32.3137728,10.6639936 L32.0311089,10.6404227 L31.7484496,10.6089951 L31.4710255,10.5697107 L31.1935968,10.522569 L30.9187891,10.4675702 L30.6466002,10.4047149 L30.3744043,10.3366215 L30.1048341,10.2606711 L29.8378734,10.1768641 L29.5709173,10.0878187 L29.3091941,9.99353575 L29.0474708,9.89139528 L28.7857499,9.78401732 L28.5580494,9.69235325 L28.3277348,9.60592691 L28.0948014,9.52735764 L27.859254,9.45402611 L27.6184691,9.38855211 L27.3776818,9.32831561 L27.1316617,9.27331684 L26.885644,9.22617514 L26.6370098,9.1868905 L26.3857522,9.15284383 L26.1318829,9.12403537 L25.8753948,9.10046463 L25.6189044,9.0847505 L25.3597999,9.07427457 L25.0980766,9.0716557 L24.833737,9.0716557 L24.5693996,9.07951277 L24.30506,9.09522643 L24.0381039,9.1135592 L23.768529,9.13974927 L23.4989542,9.17117683 L23.2293794,9.2078426 L22.9571879,9.2497461 L22.6849967,9.29950667 L22.4128056,9.35450521 L22.1406144,9.41474147 L21.8658056,9.48021618 L21.5909967,9.55092838 L21.3188052,9.62687878 L21.0439964,9.70806715 L20.7691878,9.79711235 L20.494379,9.88877665 L20.507465,9.99353575 L20.5231687,10.0982949 L20.5414892,10.2030537 L20.5598097,10.3078126 L20.5781302,10.4125717 L20.5964507,10.517331 L20.6173886,10.6220901 L20.6409435,10.7242301 L20.6644988,10.828989 L20.6880537,10.9311295 L20.7142261,11.0332692 L20.7403981,11.1354097 L20.7691878,11.2375495 L20.7979773,11.33969 L20.8267667,11.4392111 L20.8581735,11.538732 L21.1198963,11.4549248 L21.3816186,11.3763555 L21.6459585,11.3030242 L21.9076813,11.2323118 L22.1694043,11.1694561 L22.433744,11.1092196 L22.695467,11.0542213 L22.9571879,11.0044605 L23.2189114,10.9599382 L23.4806346,10.9206533 L23.7397391,10.8839875 L23.998846,10.8551791 L24.2579505,10.8316083 L24.517055,10.8132753 L24.7709243,10.8001803 L25.0274124,10.7923235 L25.2812841,10.7897046 L25.532537,10.7923235 L25.7811735,10.8001803 L26.0298123,10.8158942 L26.2758301,10.8368461 L26.5218478,10.8630361 L26.7626328,10.8944637 L27.0008013,10.9311295 L27.2389698,10.9756521 L27.4745219,11.0254124 L27.7048365,11.0804112 L27.9325347,11.1432665 L28.1602352,11.2113599 L28.3826982,11.2873103 L28.5999284,11.3684987 L28.8171562,11.4549248 L29.0605599,11.5544459 L29.3013425,11.6513482 L29.5447438,11.7430122 L29.7881475,11.8320574 L30.0315512,11.9158649 L30.2749525,11.9918151 L30.5183538,12.0651464 L30.7643716,12.1332399 L31.0130104,12.1960953 L31.2616469,12.2510936 L31.5128975,12.3008544 L31.7667692,12.3427581 L32.0232596,12.3794234 L32.2823641,12.4082324 L32.5440874,12.4291842 L32.8110435,12.4448981 L33.0806183,12.452755 L33.3528119,12.4501361 L33.6302336,12.442279 L33.9128952,12.4239463 L34.1981755,12.3951373 L34.4913051,12.3610909 L34.7870511,12.3165683 L35.0906487,12.2615698 L35.3994814,12.1960953 L35.7135493,12.1227638 L36.0328477,12.0389565 L36.3600023,11.9446736 L36.6950086,11.8372954 L37.0352453,11.7220604 L37.3833383,11.5937303 L37.7392828,11.4549248 L37.7392828,11.4549248 Z" id="path8" fill="#2D79BE" sketch:type="MSShapeGroup"></path>
                    <path d="M36.4646916,14.0110463 L36.506566,13.95081 L36.5484449,13.8905735 L36.5903169,13.830337 L36.6321959,13.7701005 L36.6740679,13.709864 L36.7133281,13.6470086 L36.7525884,13.5867721 L36.7918439,13.5239167 L36.8311042,13.4610614 L36.8703598,13.3982058 L36.9070036,13.3353504 L36.9462591,13.2724946 L36.982903,13.2096394 L37.0195421,13.144165 L37.056186,13.0786905 L37.0902087,13.0158351 L37.1268478,12.9503607 L37.1608753,12.8848862 L37.1948957,12.8194117 L37.2263067,12.7513184 L37.2603271,12.6858439 L37.2917357,12.6177506 L37.3257584,12.5522761 L37.3545507,12.4841828 L37.385957,12.4160894 L37.417361,12.3479959 L37.4461532,12.2799025 L37.4749385,12.2118092 L37.5037284,12.1437159 L37.5299042,12.0730034 L37.5586918,12.0049101 L37.5848653,11.9341974 L37.2367746,12.0625273 L36.8939145,12.1803814 L36.5589106,12.2877596 L36.2291419,12.3820428 L35.9072201,12.4684689 L35.5905357,12.5444193 L35.2790866,12.6098938 L34.9728726,12.6648923 L34.6745079,12.7120338 L34.3787619,12.7486995 L34.0882487,12.7775082 L33.8055918,12.7984601 L33.525549,12.8115549 L33.2481202,12.814174 L32.9785477,12.8115549 L32.7115893,12.801079 L32.4472473,12.7827462 L32.1881428,12.7565564 L31.9342735,12.7251286 L31.6804018,12.6858439 L31.4317653,12.6439404 L31.1857475,12.5915605 L30.9449626,12.5365622 L30.7041754,12.4763259 L30.4660092,12.4108515 L30.2304571,12.340139 L29.9975238,12.2641886 L29.7645927,12.1856194 L29.5368922,12.1018121 L29.3091941,12.0127669 L29.0814959,11.9237217 L28.8564141,11.8294386 L28.6444191,11.7430122 L28.4298053,11.664443 L28.2125798,11.5911117 L27.9927309,11.5230183 L27.7728843,11.4627818 L27.5504213,11.4077833 L27.3253395,11.3580225 L27.0976413,11.3134999 L26.8699408,11.2742155 L26.6396262,11.2427877 L26.4040765,11.2165976 L26.1711408,11.1956462 L25.9329723,11.1799323 L25.6921874,11.1694561 L25.4514024,11.1668373 L25.2080011,11.1668373 L24.961981,11.1746943 L24.7133445,11.18517 L24.4620939,11.2035031 L24.2082222,11.2270738 L23.9543529,11.2532634 L23.6952461,11.2873103 L23.4361416,11.3239761 L23.1718019,11.3684987 L22.907462,11.4156401 L22.6405036,11.4706387 L22.3683126,11.5282563 L22.0961213,11.5911117 L21.8213127,11.659205 L21.5438868,11.7325363 L21.2638437,11.8111058 L20.9811831,11.8922939 L21.0204414,11.997053 L21.0623172,12.1018121 L21.1041926,12.2039521 L21.1460684,12.3060924 L21.1905612,12.4082324 L21.235054,12.5103726 L21.282164,12.6098938 L21.3318915,12.7094149 L21.3790015,12.808936 L21.4287288,12.9058381 L21.4810732,13.0027403 L21.5334178,13.0996424 L21.5857623,13.1965444 L21.640724,13.2908278 L21.695686,13.3851112 L21.7506476,13.4793941 L21.9521741,13.4191576 L22.1537011,13.3641591 L22.3552258,13.3117794 L22.5593716,13.2620189 L22.7635148,13.2174963 L22.9676582,13.1782116 L23.1744183,13.1415461 L23.3837969,13.1101183 L23.5905568,13.0839285 L23.7999354,13.0603575 L24.009314,13.0394059 L24.221309,13.0263111 L24.433304,13.013216 L24.6479178,13.0079783 L24.8625269,13.0053592 L25.0771406,13.0079783 L25.2917521,13.013216 L25.5115987,13.023692 L25.7288288,13.0394059 L25.9486754,13.0577386 L26.168522,13.0839285 L26.388371,13.1127372 L26.610834,13.144165 L26.8359157,13.180831 L27.0583788,13.2227342 L27.2860793,13.2698759 L27.511161,13.3222554 L27.7388592,13.3772539 L27.9665574,13.4374904 L28.1968743,13.5029649 L28.4271889,13.5736773 L28.6601223,13.6470086 L28.895672,13.7255781 L29.1286077,13.8015285 L29.3641575,13.8774787 L29.5970908,13.9534288 L29.8300241,14.0241413 L30.0629551,14.0922346 L30.2958885,14.160328 L30.5288218,14.2231836 L30.7617552,14.2834201 L30.9946885,14.3410375 L31.2276219,14.3934169 L31.463174,14.4405586 L31.6961073,14.4850812 L31.9316571,14.5243658 L32.1698256,14.5557936 L32.4079894,14.5846023 L32.6461579,14.6055542 L32.8869428,14.6212681 L33.1277301,14.6317438 L33.3711314,14.6343629 L33.6171492,14.6291249 L33.863167,14.6160301 L34.1118058,14.5950785 L34.363061,14.5662696 L34.616928,14.5296038 L34.8734185,14.4850812 L35.132523,14.4300827 L35.3916275,14.3672273 L35.6559671,14.293896 L35.9229279,14.2100888 L36.1924981,14.1158054 L36.4646916,14.0110463 L36.4646916,14.0110463 Z" id="path10" fill="#2D79BE" sketch:type="MSShapeGroup"></path>
                    <path d="M33.6930486,16.5226454 L33.7741808,16.4755037 L33.8579341,16.4257433 L33.9390663,16.3759825 L34.0175845,16.3262222 L34.098719,16.2738428 L34.1772349,16.2214631 L34.2557507,16.1690837 L34.3342711,16.1140851 L34.4127869,16.0590864 L34.4886863,16.0040878 L34.5645857,15.9490895 L34.6404851,15.8914719 L34.7137681,15.8338543 L34.7896675,15.7736178 L34.8629505,15.7160006 L34.9362335,15.6557639 L35.0068953,15.5929087 L35.0775596,15.5326722 L35.1508425,15.4698166 L35.2188904,15.406961 L35.2895569,15.3414865 L35.3576047,15.2786312 L35.4256525,15.2131567 L35.4937027,15.1450634 L35.5591318,15.0795891 L35.6245632,15.0114958 L35.6899922,14.9434025 L35.7554213,14.8753089 L35.8182363,14.8045965 L35.8836653,14.733884 L35.9438639,14.6631718 L36.0066789,14.5924592 L35.7554213,14.6710287 L35.5094035,14.7391222 L35.2607694,14.8019774 L35.0173657,14.854357 L34.7713456,14.8988796 L34.5305607,14.9355454 L34.2897781,14.9669732 L34.0489931,14.9879251 L33.8108246,15.0036387 L33.5726561,15.0141144 L33.3344876,15.0141144 L33.0989379,15.0114958 L32.8633881,15.0010196 L32.6278383,14.9853057 L32.3922886,14.9643539 L32.1593552,14.9355454 L31.9238055,14.9041176 L31.6908721,14.8674521 L31.45532,14.8255481 L31.2223867,14.7810255 L30.9894534,14.7312652 L30.7539036,14.6762664 L30.5209703,14.6186492 L30.2854205,14.5584127 L30.0498707,14.4955571 L29.814321,14.4274638 L29.5761548,14.3593702 L29.3406004,14.2860392 L29.1024342,14.2127076 L28.8616493,14.1367572 L28.6208644,14.0581882 L28.3800818,13.9796187 L28.1916392,13.922001 L28.0032012,13.8670025 L27.8121399,13.8146231 L27.6184691,13.7648625 L27.4221749,13.7203399 L27.225883,13.6758173 L27.0269748,13.6365327 L26.8280642,13.5998669 L26.6265371,13.5684393 L26.4250125,13.5370113 L26.2234854,13.5108217 L26.019342,13.487251 L25.8151986,13.4689182 L25.6110528,13.4532045 L25.4069094,13.4401093 L25.2001495,13.4296336 L24.9933897,13.4243956 L24.7892439,13.4217765 L24.5824864,13.4217765 L24.3757265,13.4270145 L24.1715808,13.4374904 L23.9648209,13.4505852 L23.7606775,13.4662991 L23.556534,13.487251 L23.3523906,13.5108217 L23.1508633,13.5370113 L22.9493363,13.5710582 L22.7478116,13.6051051 L22.5489013,13.6470086 L22.349993,13.6915312 L22.1537011,13.7386727 L21.9574083,13.7910523 L22.0280737,13.8931923 L22.1013565,13.9953326 L22.1746395,14.0948537 L22.2479201,14.1969937 L22.3264382,14.293896 L22.4023376,14.3907983 L22.4808534,14.4877001 L22.561988,14.5819832 L22.6431223,14.6762664 L22.7242546,14.7705498 L22.8080079,14.8622139 L22.8943753,14.9512593 L22.9781262,15.0403043 L23.0671124,15.1267306 L23.1534798,15.2131567 L23.2424661,15.2969639 L23.4099681,15.2602986 L23.5748536,15.2262517 L23.7423579,15.1974428 L23.9098598,15.1686341 L24.0773618,15.1476825 L24.2448637,15.1267306 L24.4123657,15.1110167 L24.57987,15.0979217 L24.749986,15.0900648 L24.9174879,15.0848269 L25.0876086,15.082208 L25.2551106,15.0848269 L25.4252313,15.0900648 L25.5953496,15.0979217 L25.7654703,15.1110167 L25.935591,15.1267306 L26.1057117,15.1450634 L26.2758301,15.1686341 L26.4459485,15.1948239 L26.6160691,15.2236329 L26.7861898,15.2576793 L26.9589246,15.2943451 L27.1290453,15.3362488 L27.3017824,15.3781523 L27.4719031,15.425294 L27.6446379,15.4776735 L27.817375,15.5326722 L27.9901145,15.5902894 L28.1628516,15.6505259 L28.3355864,15.7160006 L28.5083235,15.7840939 L28.6810629,15.8574252 L28.8354781,15.9255188 L28.9925121,15.9883742 L29.1495437,16.0512293 L29.3039589,16.1088472 L29.4609928,16.1664643 L29.6154104,16.218844 L29.7724443,16.2686046 L29.9294759,16.315746 L30.0865099,16.3602686 L30.2435438,16.4021726 L30.3979614,16.4414572 L30.554993,16.4781228 L30.7120293,16.5121694 L30.8690632,16.5409781 L31.0260972,16.5671677 L31.1831311,16.5907389 L31.3401627,16.6116906 L31.4971944,16.6300236 L31.6542283,16.6431181 L31.8112623,16.6562132 L31.9682962,16.6614514 L32.1253302,16.6666891 L32.2823641,16.6693082 L32.4393957,16.6666891 L32.5964297,16.6614514 L32.753466,16.6509754 L32.9104999,16.6378804 L33.0675339,16.6221665 L33.2219491,16.6038335 L33.378983,16.5802628 L33.5360146,16.5540732 L33.6930486,16.5226454 L33.6930486,16.5226454 Z" id="path12" fill="#2D79BE" sketch:type="MSShapeGroup"></path>
                    <path d="M32.5938133,17.0516789 L32.4969755,17.0909635 L32.4027566,17.1276293 L32.3059212,17.1642946 L32.2064647,17.1983415 L32.109627,17.2323879 L32.0101729,17.266435 L31.9107164,17.2978624 L31.8112623,17.3292902 L31.7118105,17.3580991 L31.6123563,17.3869078 L31.5102811,17.4130974 L31.4082129,17.4392875 L31.3061377,17.4628582 L31.2040671,17.4864289 L31.1019966,17.5099997 L30.9973049,17.5309515 L30.8926156,17.5492843 L30.7905474,17.5676173 L30.6858558,17.5859498 L30.5811688,17.6016637 L30.4738608,17.6173776 L30.3691715,17.6304727 L30.2618681,17.6435677 L30.1571765,17.6540434 L30.0498707,17.6645193 L29.9425627,17.6723764 L29.835257,17.6802332 L29.7279536,17.685471 L29.6180268,17.6907092 L29.5107234,17.693328 L29.4034154,17.6959471 L29.2934932,17.6959471 L29.0893475,17.693328 L28.8878204,17.685471 L28.6889145,17.6749953 L28.4900016,17.6592814 L28.2910933,17.6383295 L28.0948014,17.6147588 L27.8985096,17.5859498 L27.7048365,17.5519034 L27.511161,17.5152379 L27.3201043,17.4733339 L27.1290453,17.4261924 L26.9406074,17.3764316 L26.7547812,17.3240524 L26.5715784,17.266435 L26.388371,17.2035794 L26.2051635,17.138105 L26.0271959,17.0673928 L25.8492213,16.9940612 L25.6738678,16.9181111 L25.4985143,16.8369225 L25.3283936,16.7531152 L25.1582729,16.66407 L24.9907709,16.5724057 L24.8258854,16.4781228 L24.6610022,16.3786014 L24.5013518,16.2790805 L24.3417014,16.1717023 L24.1846675,16.0643243 L24.0328687,15.9517082 L23.8810699,15.8364736 L23.7318876,15.7186192 L23.5853239,15.5981465 L23.7266524,15.5719569 L23.8706019,15.5457668 L24.0171656,15.5248152 L24.1611128,15.5038635 L24.3076787,15.4881496 L24.4568587,15.4724357 L24.6060411,15.4593407 L24.7552211,15.4514839 L24.9070199,15.4462457 L25.0588187,15.4410077 L25.2132363,15.4410077 L25.3676515,15.4462457 L25.522069,15.4514839 L25.6817194,15.4619596 L25.8387533,15.4750546 L25.9984037,15.4907683 L26.1606705,15.5117204 L26.3229396,15.5352909 L26.4878274,15.5614807 L26.6527106,15.5929087 L26.8202126,15.629574 L26.9903309,15.6662398 L27.160454,15.7107624 L27.3305747,15.7579041 L27.5059259,15.8102835 L27.6812794,15.8652823 L27.8566353,15.9255188 L28.0346052,15.990993 L28.2151962,16.0590864 L28.3957826,16.1324179 L28.5789877,16.2109869 L28.7648139,16.2947942 L28.8799689,16.3471738 L28.9977449,16.3995533 L29.1129022,16.4493141 L29.2306782,16.4990744 L29.3458355,16.543597 L29.4636116,16.5881196 L29.5813876,16.6300236 L29.6991613,16.6719268 L29.8169374,16.7112115 L29.9347111,16.7478773 L30.0524895,16.7819242 L30.1702609,16.8133517 L30.2906533,16.8447795 L30.4084317,16.8735885 L30.5288218,16.9023972 L30.6492166,16.9259679 L30.7669903,16.9495386 L30.8873828,16.9704905 L31.0077729,16.9888233 L31.1281654,17.0071563 L31.2485602,17.0228702 L31.3689503,17.0359647 L31.4919615,17.0464409 L31.6123563,17.0542977 L31.7353629,17.0621548 L31.8557577,17.0673928 L31.9787642,17.0700116 L32.1017754,17.0700116 L32.2247866,17.0673928 L32.3477932,17.0647734 L32.4708067,17.0595357 L32.5938133,17.0516789 L32.5938133,17.0516789 Z" id="path14" fill="#2D79BE" sketch:type="MSShapeGroup"></path>
                    <path d="M31.8138787,8.60023962 L31.8217303,8.55309815 L31.834817,8.50595645 L31.8479061,8.46405295 L31.8636093,8.41953035 L31.8793101,8.38024572 L31.897632,8.34096108 L31.9159516,8.30167645 L31.9368922,8.26239205 L31.9578282,8.22572604 L31.9787642,8.18644164 L31.9997049,8.14977564 L32.0206432,8.11311011 L32.0441956,8.07382547 L32.0651339,8.03454084 L32.0860746,7.99525597 L32.1043918,7.95597251 L32.130563,7.90097374 L32.1541224,7.84335634 L32.172442,7.78311984 L32.1907592,7.72026423 L32.203846,7.65740887 L32.2169327,7.5945535 L32.2247866,7.5316979 L32.2300218,7.46884253 L32.2300218,7.40598693 L32.2300218,7.34575066 L32.2247866,7.28551416 L32.2169327,7.22789652 L32.2064647,7.17027935 L32.193378,7.11789969 L32.1776748,7.06813888 L32.1567388,7.02099742 L32.1122434,6.91885741 L32.0782207,6.81409831 L32.0572824,6.71195808 L32.0494308,6.60719897 L32.0520472,6.50505874 L32.0625152,6.40291874 L32.0834558,6.3007785 L32.1148598,6.19863873 L32.1515037,6.0991176 L32.1959944,5.99697736 L32.245725,5.90007509 L32.300686,5.80055419 L32.3608799,5.70365168 L32.4263113,5.60936875 L32.4943591,5.51508535 L32.5624069,5.42342128 L32.6147539,5.35009021 L32.6618611,5.27152071 L32.7011213,5.19033257 L32.7377605,5.1065251 L32.7691691,5.020099 L32.7953403,4.93367267 L32.818895,4.84462746 L32.8346005,4.75558226 L32.8476873,4.66915616 L32.8555365,4.58272982 L32.8581529,4.49630372 L32.8581529,4.41249625 L32.8529201,4.33392675 L32.8424521,4.25535772 L32.8293654,4.18202618 L32.8110435,4.11393285 L32.7953403,4.04845838 L32.7822535,3.98560301 L32.7744043,3.92536651 L32.7717879,3.86774911 L32.7744043,3.81275034 L32.7796371,3.7603709 L32.7901051,3.70799124 L32.8031919,3.6556118 L32.8215114,3.6084701 L32.8398357,3.56132887 L32.8633881,3.51418717 L32.8869428,3.46966456 L32.9157351,3.42514196 L32.9445203,3.38061913 L32.9759313,3.33609653 L33.0073353,3.29419326 L33.03089,3.24967066 L33.0465932,3.18419596 L33.0570635,3.10300759 L33.0570635,3.00872465 L33.0492096,2.90396532 L33.0361252,2.79396872 L33.0125681,2.67611458 L32.9811641,2.55826068 L32.9419039,2.44302564 L32.8921757,2.3304097 L32.8346005,2.22303173 L32.7691691,2.12874857 L32.6958862,2.0449411 L32.6121352,1.97946686 L32.5179139,1.92970629 L32.415841,1.90351646 L32.3530283,1.89304053 L32.2928321,1.88518369 L32.2378734,1.87470776 L32.1829076,1.86685069 L32.130563,1.85637476 L32.0782207,1.84327996 L32.0311089,1.83018516 L31.981383,1.81447126 L31.9368922,1.79613849 L31.8897781,1.77518662 L31.8452897,1.75161566 L31.7981755,1.72542606 L31.7536824,1.69399826 L31.7091941,1.65733249 L31.6646986,1.61804785 L31.6175892,1.57090639 L31.5835641,1.54209769 L31.5443085,1.51328875 L31.4971944,1.48971802 L31.4448497,1.47138525 L31.3872746,1.45567135 L31.3270783,1.44257655 L31.2642634,1.43471948 L31.198832,1.42948152 L31.1334006,1.43210062 L31.0705879,1.43733858 L31.0077729,1.44781452 L30.947579,1.46352842 L30.8926156,1.48448005 L30.840271,1.51066988 L30.7957803,1.54209769 L30.75652,1.58138232 L30.6884722,1.65471362 L30.6125728,1.72804492 L30.534057,1.79875736 L30.4529224,1.86946979 L30.3691715,1.93756313 L30.2801877,2.0030376 L30.1912015,2.06589296 L30.0995966,2.12874857 L30.0053753,2.18636597 L29.9137728,2.2413645 L29.8221726,2.29112507 L29.73057,2.33826654 L29.6415815,2.38017027 L29.5525954,2.41683581 L29.4688444,2.44826361 L29.3877122,2.47445344 L29.3013425,2.50064327 L29.2306782,2.52159491 L29.170482,2.53992791 L29.1233702,2.55826068 L29.086731,2.57659344 L29.0605599,2.59492644 L29.0396192,2.61587831 L29.0265348,2.63683018 L29.0186832,2.66301955 L29.0134481,2.69444735 L29.0108316,2.72849425 L29.0108316,2.77039751 L29.0082129,2.81753945 L29.0082129,2.87515662 L29.0029777,2.93801198 L28.9925121,3.01396262 L28.9820441,3.07681822 L28.9663386,3.13967336 L28.9506354,3.20776669 L28.9296971,3.27586003 L28.9061447,3.3465727 L28.8799689,3.41990376 L28.8511789,3.49061643 L28.8197726,3.56132887 L28.7831311,3.63204107 L28.7438732,3.7001344 L28.7019989,3.76822774 L28.6575058,3.83370244 L28.6077799,3.89655757 L28.5580494,3.95417544 L28.5004719,4.01179284 L28.4428921,4.06155318 L28.3931662,4.10083781 L28.3434379,4.14274178 L28.2910933,4.18464505 L28.238751,4.22916765 L28.1890204,4.27630958 L28.1392968,4.32606992 L28.0895686,4.38106845 L28.0398404,4.43606722 L27.9953496,4.49630372 L27.9534706,4.56177772 L27.9115987,4.62987129 L27.8775713,4.70582146 L27.8435508,4.7843912 L27.817375,4.87081706 L27.7938203,4.96248137 L27.7781195,5.05938364 L27.7676515,5.1248581 L27.7571788,5.19033257 L27.7467108,5.25842591 L27.7362405,5.32128128 L27.7231561,5.38675551 L27.7100716,5.44961135 L27.6943685,5.51246671 L27.678663,5.57532185 L27.6603411,5.63555835 L27.6394051,5.69317598 L27.6184691,5.75079362 L27.594912,5.80579215 L27.5687385,5.85817159 L27.5425697,5.91055126 L27.511161,5.95769272 L27.4771383,6.00483443 L27.4614351,6.02316719 L27.4457296,6.04149996 L27.4274077,6.06507093 L27.4064741,6.08602256 L27.3855357,6.11221216 L27.3619787,6.1410211 L27.3384239,6.1698298 L27.3148715,6.2012576 L27.2886957,6.23530426 L27.2625245,6.27197003 L27.2363534,6.31125467 L27.2075611,6.35577727 L27.18139,6.40029987 L27.1552165,6.44744157 L27.1290453,6.499821 L27.1028742,6.55481954 L27.0950226,6.57053344 L27.087171,6.58886621 L27.0767007,6.61243694 L27.0662327,6.63600791 L27.0531459,6.66481661 L27.0374428,6.69362531 L27.0217419,6.72243401 L27.0034177,6.75386181 L26.9824794,6.78790848 L26.9615434,6.81933628 L26.9406074,6.85338295 L26.9144316,6.88481051 L26.8882604,6.91623831 L26.8620892,6.94504702 L26.8332993,6.97385595 L26.801893,7.00004555 L26.7835734,7.01575945 L26.7626328,7.03147335 L26.7416944,7.05242522 L26.7155256,7.07337685 L26.6919685,7.09694782 L26.6631786,7.12313742 L26.6370098,7.15456522 L26.610834,7.18599302 L26.5820441,7.22003969 L26.5532542,7.25932432 L26.527083,7.29860919 L26.5009119,7.34313156 L26.4747384,7.39027326 L26.4511836,7.44003383 L26.4302453,7.49241326 L26.4093093,7.55003066 L26.3909874,7.59979123 L26.3726678,7.6495518 L26.3543459,7.70193147 L26.3334099,7.75693 L26.3124716,7.80930944 L26.2915333,7.86430797 L26.2705973,7.91930674 L26.2470402,7.97430457 L26.2208667,8.03192174 L26.1946979,8.08692027 L26.168522,8.14453768 L26.1397345,8.19953621 L26.1109469,8.25715385 L26.0795382,8.31215215 L26.0481319,8.36715092 L26.0141068,8.42214945 L25.9774653,8.48500482 L25.946059,8.54524132 L25.9146527,8.60547759 L25.8858628,8.66571409 L25.8596893,8.72595059 L25.8335181,8.78880596 L25.8125798,8.85166179 L25.7916415,8.91451693 L25.7733219,8.98261026 L25.7576188,9.05070383 L25.744532,9.12141603 L25.7314453,9.19736643 L25.7235937,9.27593594 L25.7131257,9.35712431 L25.7078905,9.44355041 L25.7026577,9.53521448 L25.6974225,9.59806984 L25.6948061,9.66354431 L25.6895709,9.73163788 L25.6869545,9.79711235 L25.6817194,9.86520592 L25.6791006,9.93591789 L25.6738678,10.0066303 L25.671249,10.077343 L25.6686326,10.1506741 L25.6633974,10.2213867 L25.660781,10.294718 L25.6581646,10.3680491 L25.6529295,10.4413809 L25.650313,10.5147122 L25.6476943,10.5906623 L25.6476943,10.6639936 L25.6450779,10.7373249 L25.6424615,10.8132753 L25.6398427,10.8866069 L25.6398427,10.9599382 L25.6398427,11.0332692 L25.6398427,11.106601 L25.6398427,11.177313 L25.6398427,11.2506448 L25.6398427,11.3213567 L25.6424615,11.3894503 L25.6424615,11.4601627 L25.6450779,11.5282563 L25.6476943,11.5937303 L25.6529295,11.659205 L25.6555459,11.7246795 L25.660781,11.7875348 L25.6660162,11.8477713 L25.6738678,11.9080078 L25.6843358,11.9682443 L25.6974225,12.0310997 L25.7105093,12.0939553 L25.7288288,12.1541918 L25.7471508,12.219666 L25.7707055,12.2825216 L25.7942602,12.345377 L25.8204314,12.4108515 L25.8466049,12.4763259 L25.8780112,12.5391811 L25.9094175,12.6046558 L25.9434426,12.6701303 L25.9800818,12.7356043 L26.0167233,12.801079 L26.0559812,12.8665534 L26.0978578,12.9320277 L26.1397345,12.9975024 L26.1842299,13.0629766 L26.231337,13.1284513 L26.2784465,13.1939255 L26.325556,13.2567809 L26.3779006,13.3222554 L26.4276289,13.3851112 L26.4799759,13.4505852 L26.5349346,13.513441 L26.5898957,13.5762962 L26.6474778,13.6391515 L26.7050576,13.699388 L26.7626328,13.7622436 L26.822829,13.8224799 L26.875176,13.8722405 L26.9275183,13.9246201 L26.9798629,13.9769996 L27.0322076,14.0293793 L27.0845546,14.0817589 L27.1395133,14.1367572 L27.191858,14.1891369 L27.244205,14.2441352 L27.2965473,14.2991337 L27.3488919,14.3541325 L27.4012389,14.4091308 L27.4509648,14.4641293 L27.5033095,14.521747 L27.5504213,14.5767453 L27.6001448,14.6343629 L27.6472567,14.6893614 L27.6917521,14.7469791 L27.7362405,14.8045965 L27.7807359,14.8622139 L27.8226102,14.9172124 L27.8618704,14.97483 L27.8985096,15.0324474 L27.9351534,15.0900648 L27.9691738,15.1476825 L28.0005825,15.2026808 L28.02937,15.2602986 L28.0581599,15.3179158 L28.081717,15.3729144 L28.102653,15.4305318 L28.1235913,15.4855303 L28.1392968,15.5431479 L28.1523836,15.5981465 L28.1680844,15.658383 L28.186404,15.7212386 L28.2125798,15.7867128 L28.2439838,15.8521873 L28.2780065,15.9176617 L28.3146504,15.983136 L28.3565247,16.0486107 L28.398399,16.1114658 L28.4455132,16.1717023 L28.4926203,16.2293202 L28.5423485,16.2816996 L28.589458,16.3314599 L28.6391839,16.3733639 L28.6889145,16.4100294 L28.7386381,16.4388379 L28.7857499,16.4597898 L28.8171562,16.4676468 L28.8564141,16.4702659 L28.9035259,16.4728848 L28.958487,16.4728848 L29.0186832,16.4676468 L29.0814959,16.4597898 L29.1469273,16.4466952 L29.2149774,16.428362 L29.2804065,16.4074103 L29.3432191,16.3812207 L29.4034154,16.3471738 L29.4609928,16.3078892 L29.5107234,16.2633666 L29.549979,16.2136063 L29.5840064,16.1533698 L29.6049424,16.0878951 L29.6101752,16.0486107 L29.6101752,16.0040878 L29.6049424,15.9543273 L29.5944744,15.9019481 L29.5813876,15.8469493 L29.5656821,15.7893319 L29.5473626,15.7317143 L29.5290406,15.6714778 L29.5054882,15.6112413 L29.4845476,15.5536239 L29.4609928,15.4960065 L29.4400568,15.4410077 L29.4191185,15.3886285 L29.3981802,15.3388677 L29.382477,15.2943451 L29.3667762,15.2550604 L29.3536895,15.2210138 L29.3432191,15.1843482 L29.3301324,15.1450634 L29.319662,15.1031599 L29.3091941,15.058637 L29.2987261,15.0141144 L29.2908768,14.9695918 L29.2856416,14.9224504 L29.2777901,14.8753089 L29.2751736,14.8281672 L29.2725526,14.7784066 L29.2751736,14.7312652 L29.2777901,14.6841235 L29.2830252,14.6396009 L29.2908768,14.5950785 L29.3039589,14.5505559 L29.3170456,14.5138899 L29.3301324,14.4772244 L29.3458355,14.4405586 L29.361541,14.4038928 L29.3772419,14.3646082 L29.392945,14.3279427 L29.4086482,14.288658 L29.4269724,14.2519923 L29.4400568,14.2153265 L29.45576,14.1786612 L29.466228,14.1419954 L29.4793147,14.1079485 L29.4871663,14.0739021 L29.4950179,14.0398552 L29.4976343,14.0084274 L29.5002507,13.9796187 L29.5028718,13.9350961 L29.5107234,13.8905735 L29.518575,13.8486697 L29.5290406,13.8093853 L29.5421274,13.7701005 L29.5552141,13.7334349 L29.5709173,13.699388 L29.5866228,13.6679605 L29.6049424,13.6365327 L29.623262,13.607724 L29.6415815,13.5815341 L29.6599058,13.5579634 L29.6782254,13.5343924 L29.6965426,13.513441 L29.7122481,13.4951078 L29.7279536,13.4793941 L29.761974,13.4479663 L29.7933803,13.4139197 L29.8274077,13.3772539 L29.8588117,13.3405884 L29.8902204,13.3039226 L29.9190079,13.2646377 L29.9504143,13.2253533 L29.9792065,13.1834496 L30.0079941,13.144165 L30.0341676,13.1022615 L30.0603387,13.0603575 L30.0865099,13.018454 L30.110067,12.9765505 L30.1336217,12.9372659 L30.1545577,12.8953621 L30.175496,12.8560773 L30.2069047,12.801079 L30.2383087,12.7460804 L30.2749525,12.6910819 L30.3115917,12.6387025 L30.3508519,12.5889419 L30.3927262,12.5391811 L30.4346029,12.4920396 L30.4790936,12.442279 L30.5209703,12.3977564 L30.5680821,12.3532338 L30.6125728,12.3087112 L30.6570682,12.2668075 L30.7015589,12.224904 L30.746052,12.1856194 L30.7879287,12.1463347 L30.829803,12.109669 L30.955433,11.9839582 L31.0653527,11.8687232 L31.1595764,11.7587261 L31.2380922,11.6539668 L31.3035213,11.557065 L31.3558659,11.4654005 L31.3977426,11.3815932 L31.4291466,11.3004051 L31.4527013,11.2270738 L31.4710255,11.1563616 L31.4814935,11.0908871 L31.4893451,11.0280315 L31.4919615,10.9677952 L31.4919615,10.9127965 L31.4945779,10.8604168 L31.4945779,10.8106565 L31.4945779,10.7163731 L31.4971944,10.6194713 L31.4971944,10.522569 L31.4971944,10.4230479 L31.4998131,10.3235265 L31.4998131,10.2240054 L31.5024295,10.1244845 L31.5050459,10.0275822 L31.5102811,9.93067992 L31.5155163,9.83639698 L31.5207514,9.74473292 L31.5312194,9.65568748 L31.5416898,9.56926138 L31.5521601,9.48545391 L31.5678609,9.40950351 L31.5861805,9.33617244 L31.5992672,9.28117367 L31.6149727,9.22879447 L31.6306759,9.1764148 L31.6489955,9.12403537 L31.6646986,9.07427457 L31.6830182,9.02451423 L31.6987237,8.9773723 L31.7170433,8.9276122 L31.7327465,8.88308936 L31.7484496,8.83856653 L31.7641528,8.79404392 L31.7772419,8.75214042 L31.7877099,8.71285579 L31.7981755,8.67357116 L31.8086458,8.63690539 L31.8138787,8.60023962 L31.8138787,8.60023962 Z" id="path16" fill="#D09E51" sketch:type="MSShapeGroup"></path>
                    <path id="path18" fill="#FFFFFF" sketch:type="MSShapeGroup" d="M32.0311089,7.91930674 L32.0284924,7.92192537 L32.0127916,7.95859114 L31.991851,7.99787531 L31.9709126,8.03715971 L31.9473602,8.07120637 L31.9264219,8.10787214 L31.9054836,8.14453768 L31.8845452,8.18382231 L31.8636093,8.22048808 L31.8426686,8.26501068 L31.824349,8.30429531 L31.8007943,8.35143725 L31.7850934,8.39072188 L31.7693903,8.43524448 L31.7563012,8.47976685 L31.740598,8.53476562 L31.7327465,8.58714505 L31.8950132,8.61333465 L31.9028648,8.57143115 L31.9133352,8.53214629 L31.9264219,8.49286165 L31.9421251,8.44833905 L31.9578282,8.40905442 L31.9709126,8.37762661 L31.9892345,8.33834221 L32.0101729,8.30429531 L32.0311089,8.26762955 L32.0520472,8.22834491 L32.0729879,8.19167938 L32.0939262,8.15501361 L32.1174786,8.11049124 L32.1384146,8.07120637 L32.1593552,8.03192174 L32.1802912,7.99001824 L32.1776748,7.99263711 L32.0311089,7.91930674 Z"></path>
                    <path id="path20" fill="#FFFFFF" sketch:type="MSShapeGroup" d="M32.0834558,7.05766318 L32.0834558,7.05766318 L32.1017754,7.10218602 L32.1148598,7.14147042 L32.1253302,7.18599302 L32.1357982,7.24361042 L32.1436497,7.29337099 L32.1488872,7.35360749 L32.1462708,7.40598693 L32.1488872,7.46098546 L32.1436497,7.52384106 L32.1357982,7.58145846 L32.1227114,7.636457 L32.109627,7.6993126 L32.0939262,7.75693 L32.0756043,7.8145474 L32.0546636,7.86692707 L32.0311089,7.91930674 L32.1776748,7.99263711 L32.2064647,7.93502041 L32.2326382,7.8721648 L32.2509578,7.80930944 L32.2718938,7.7412161 L32.2849805,7.67836073 L32.2980696,7.6076483 L32.3059212,7.53955473 L32.311154,7.47669936 L32.3137728,7.40598693 L32.311154,7.33789359 L32.3059212,7.27765709 L32.2980696,7.21218262 L32.2875969,7.15456522 L32.2718938,7.09432872 L32.2535742,7.03409222 L32.2300218,6.98433165 L32.0834558,7.05766318 Z"></path>
                    <path d="M32.4969755,5.37366094 L32.4969755,5.37366094 L32.4263113,5.46794411 L32.3582635,5.56222728 L32.2928321,5.65651045 L32.2300218,5.75865045 L32.172442,5.86079069 L32.120095,5.96031159 L32.0756043,6.06768979 L32.036344,6.1698298 L32.0023213,6.27982687 L31.981383,6.38982394 L31.9682962,6.50243987 L31.9656798,6.60981807 L31.9761478,6.72505311 L31.9970885,6.83504995 L32.036344,6.95028498 L32.0834558,7.05766318 L32.2300218,6.98433165 L32.1881428,6.88742961 L32.1593552,6.79314645 L32.1384146,6.69886328 L32.1331817,6.60458011 L32.1357982,6.50767784 L32.1436497,6.41601377 L32.1645904,6.3217306 L32.193378,6.22744743 L32.2274031,6.13054516 L32.2718938,6.03364313 L32.3190056,5.93935996 L32.3713479,5.84245769 L32.4289277,5.75079362 L32.4943591,5.65651045 L32.5624069,5.56222728 L32.6278383,5.47318208 L32.4969755,5.37366094 Z" id="path22" fill="#FFFFFF" sketch:type="MSShapeGroup"></path>
                    <path id="path24" fill="#FFFFFF" sketch:type="MSShapeGroup" d="M32.7325253,4.13750358 L32.7325253,4.13750358 L32.7482285,4.20035918 L32.7613176,4.26583342 L32.7717879,4.34440292 L32.7744043,4.41773399 L32.7744043,4.49630372 L32.7717879,4.57749162 L32.7665527,4.65867999 L32.753466,4.74248723 L32.7377605,4.82629446 L32.7168221,4.9101017 L32.6906533,4.9912903 L32.6618611,5.07247844 L32.6252219,5.15628591 L32.5885781,5.23223607 L32.5467061,5.30294828 L32.4969755,5.37366094 L32.6278383,5.47318208 L32.6828017,5.39723168 L32.7351441,5.31080511 L32.7770207,5.22437924 L32.8136599,5.14057201 L32.8476873,5.0489077 L32.8738561,4.95724363 L32.9000319,4.86296023 L32.9157351,4.7686773 L32.9288195,4.67963209 L32.9392875,4.58796779 L32.9419039,4.49630372 L32.9419039,4.40725852 L32.9340523,4.32345105 L32.9235867,4.24488155 L32.9104999,4.16369365 L32.8895593,4.09036211 L32.7325253,4.13750358 Z"></path>
                    <path id="path26" fill="#FFFFFF" sketch:type="MSShapeGroup" d="M32.9419039,3.24443246 L32.9419039,3.24443246 L32.9104999,3.28633619 L32.8764725,3.33347789 L32.8476873,3.3780005 L32.8136599,3.43037993 L32.7901051,3.47490253 L32.763934,3.5272822 L32.7456121,3.57442367 L32.7246737,3.63204107 L32.7089706,3.69227757 L32.6985049,3.744657 L32.6932697,3.80489351 L32.6880346,3.86774911 L32.6932697,3.93322334 L32.7011213,3.99869804 L32.7142057,4.06941025 L32.7325253,4.13750358 L32.8895593,4.09036211 L32.8764725,4.02750674 L32.8633881,3.97250798 L32.8555365,3.91750944 L32.8555365,3.86774911 L32.8555365,3.82060741 L32.8607694,3.77608481 L32.8712397,3.72370514 L32.8817077,3.67918277 L32.8974108,3.64251724 L32.9157351,3.59537553 L32.9366687,3.5534718 L32.9602258,3.5089492 L32.9837829,3.47228343 L33.0125681,3.42776083 L33.041358,3.38585733 L33.0727667,3.34395359 L32.9419039,3.24443246 Z"></path>
                    <path d="M32.4027566,1.98470483 L32.405373,1.98470483 L32.489124,2.00827556 L32.5676398,2.05017906 L32.6383063,2.1051776 L32.7037377,2.1785089 L32.763934,2.26755434 L32.8162763,2.36707547 L32.8660045,2.47445344 L32.9026483,2.58445051 L32.9314359,2.69444735 L32.9549907,2.80968238 L32.9680774,2.91182238 L32.9733102,3.01396262 L32.9733102,3.09776986 L32.9654587,3.16586342 L32.9523719,3.22086173 L32.9419039,3.24443246 L33.0727667,3.34395359 L33.1094059,3.27847936 L33.1277301,3.20252896 L33.1408145,3.10824556 L33.1408145,3.00348645 L33.1303465,2.89610848 L33.1172574,2.77825458 L33.0937027,2.65778158 L33.0596823,2.53207084 L33.0178033,2.41159807 L32.9680774,2.29374394 L32.9052648,2.1785089 L32.8346005,2.078988 L32.753466,1.98470483 L32.6566259,1.90875443 L32.5467061,1.85113679 L32.4263113,1.82232809 L32.4289277,1.82232809 L32.4027566,1.98470483 Z" id="path28" fill="#FFFFFF" sketch:type="MSShapeGroup"></path>
                    <path id="path30" fill="#FFFFFF" sketch:type="MSShapeGroup" d="M31.5573929,1.62590492 L31.5573929,1.62852379 L31.6097352,1.68090346 L31.6594635,1.72280696 L31.7039589,1.75947272 L31.751066,1.79351939 L31.8060271,1.82494719 L31.8557577,1.85113679 L31.9028648,1.87208866 L31.9552095,1.89304053 L32.00494,1.90875443 L32.0546636,1.92184923 L32.1148598,1.93756313 L32.1672068,1.94803906 L32.2221702,1.95589589 L32.277129,1.96637183 L32.3399416,1.9742289 L32.4027566,1.98470483 L32.4289277,1.82232809 L32.3661151,1.81185216 L32.3085376,1.80399532 L32.2535742,1.79351939 L32.1986108,1.78566256 L32.1462708,1.77518662 L32.1017754,1.76471069 L32.0572824,1.75161566 L32.0075565,1.73590199 L31.9709126,1.72018809 L31.9238055,1.69923622 L31.8845452,1.67828435 L31.8452897,1.65733249 L31.8034107,1.62852379 L31.7589176,1.59185825 L31.7196597,1.55519249 L31.6777831,1.51328875 L31.6777831,1.51590785 L31.5573929,1.62590492 Z"></path>
                    <path id="path32" fill="#FFFFFF" sketch:type="MSShapeGroup" d="M30.8193327,1.63638085 L30.8193327,1.63376175 L30.8507413,1.60495305 L30.8873828,1.57876322 L30.9292571,1.55781159 L30.9763666,1.54209769 L31.0287136,1.52900265 L31.083677,1.51852672 L31.1412521,1.51328875 L31.198832,1.51328875 L31.2564118,1.51590785 L31.3139916,1.52376468 L31.3663339,1.53685972 L31.4239137,1.55257362 L31.4657904,1.56566842 L31.4998131,1.58400119 L31.528603,1.60495305 L31.5573929,1.62590492 L31.6777831,1.51590785 L31.6385275,1.47924208 L31.5887993,1.44257655 L31.528603,1.41376785 L31.4657904,1.39019688 L31.4082129,1.37448298 L31.3401627,1.36138818 L31.2721149,1.35353135 L31.198832,1.34567428 L31.125549,1.35091225 L31.0575012,1.35615021 L30.9868369,1.36662615 L30.9187891,1.38495891 L30.8559741,1.41114875 L30.7931638,1.44257655 L30.7408169,1.47924208 L30.6937074,1.52900265 L30.6937074,1.52638378 L30.8193327,1.63638085 Z"></path>
                    <path d="M29.4112669,2.55302271 L29.4112669,2.55302271 L29.4976343,2.52683288 L29.5840064,2.49278621 L29.6756089,2.45612067 L29.7698256,2.41159807 L29.8588117,2.36445637 L29.9530354,2.3146958 L30.0472543,2.2570784 L30.1467061,2.1968419 L30.2383087,2.1339863 L30.3272948,2.07113093 L30.4188997,2.0030376 L30.5052694,1.93494426 L30.5916345,1.85899386 L30.6701526,1.78828142 L30.746052,1.71233102 L30.8193327,1.63638085 L30.6937074,1.52638378 L30.6308924,1.59709622 L30.554993,1.66780842 L30.4764772,1.73852086 L30.4005778,1.80399532 L30.3194432,1.87208866 L30.2330758,1.93494426 L30.1440897,1.99779963 L30.0524895,2.060655 L29.9635033,2.11565353 L29.8745149,2.1680332 L29.7855287,2.21779377 L29.6913098,2.26493524 L29.6075588,2.30421987 L29.5211914,2.34088564 L29.4400568,2.36969434 L29.3641575,2.39588417 L29.4112669,2.55302271 Z" id="path34" fill="#FFFFFF" sketch:type="MSShapeGroup"></path>
                    <path id="path36" fill="#FFFFFF" sketch:type="MSShapeGroup" d="M29.0736443,3.02705742 L29.0736443,3.02705742 L29.0841123,2.95110702 L29.0893475,2.88301368 L29.0919639,2.81753945 L29.0945826,2.77039751 L29.0945826,2.72849425 L29.0945826,2.70754215 L29.0998154,2.67611458 L29.1024342,2.66825775 L29.1050506,2.66563841 L29.1129022,2.66040068 L29.1338429,2.64468725 L29.1600117,2.63159198 L29.2018907,2.61587831 L29.254233,2.60016464 L29.327516,2.57921254 L29.4112669,2.55302271 L29.3641575,2.39588417 L29.2751736,2.42207377 L29.2071258,2.44302564 L29.139078,2.46397751 L29.086731,2.48492937 L29.0396192,2.50850011 L29.0082129,2.52945198 L28.9741925,2.56611751 L28.9506354,2.60540214 L28.9375487,2.64992474 L28.9323135,2.68135255 L28.9270783,2.72849425 L28.9270783,2.77039751 L28.9244619,2.81753945 L28.9270783,2.86729978 L28.9218455,2.92491742 L28.9113775,3.00086782 L29.0736443,3.02705742 Z"></path>
                    <path d="M28.4952367,4.12702788 L28.4952367,4.12702788 L28.555433,4.07202935 L28.6182479,4.00917374 L28.6705903,3.94893724 L28.7229349,3.88346301 L28.7726631,3.81275034 L28.8145375,3.744657 L28.8564141,3.67132594 L28.8930556,3.59799463 L28.9270783,3.52204423 L28.958487,3.4487127 L28.9846605,3.37538116 L29.0082129,3.29943099 L29.0291512,3.23133743 L29.0474708,3.15800636 L29.0631763,3.09776986 L29.0736443,3.02705742 L28.9113775,3.00086782 L28.9009095,3.05586612 L28.885204,3.12134082 L28.8721173,3.18419596 L28.8511789,3.25228929 L28.8276265,3.31776399 L28.801453,3.39109506 L28.7752796,3.4591884 L28.7464896,3.52466287 L28.7098505,3.59275643 L28.6732113,3.6556118 L28.6313323,3.72370514 L28.5920744,3.78394164 L28.544965,3.84417814 L28.4978531,3.89917691 L28.4455132,3.95155634 L28.3905498,3.99607871 L28.4952367,4.12702788 Z" id="path38" fill="#FFFFFF" sketch:type="MSShapeGroup"></path>
                    <path d="M27.859254,5.07247844 L27.859254,5.06985957 L27.8749548,4.98081437 L27.8958932,4.8943878 L27.9220667,4.8131999 L27.9534706,4.73986836 L27.984877,4.66653683 L28.0241372,4.60630032 L28.0633974,4.54082632 L28.1052694,4.48844666 L28.1497648,4.43606722 L28.1968743,4.38368755 L28.2439838,4.33916495 L28.2937097,4.29202348 L28.3434379,4.25011975 L28.3957826,4.20821625 L28.4455132,4.16631251 L28.4952367,4.12702788 L28.3905498,3.99607871 L28.3408215,4.03536358 L28.2910933,4.07726708 L28.238751,4.11917105 L28.1837876,4.16631251 L28.1340593,4.21345398 L28.081717,4.26845252 L28.02937,4.32606992 L27.974409,4.38368755 L27.9273018,4.45178112 L27.8828064,4.51725512 L27.8383157,4.59320576 L27.8016719,4.67177503 L27.7650327,4.75558226 L27.7388592,4.84724656 L27.7126881,4.9441486 L27.6969849,5.0489077 L27.6969849,5.0462886 L27.859254,5.07247844 Z" id="path40" fill="#FFFFFF" sketch:type="MSShapeGroup"></path>
                    <path id="path42" fill="#FFFFFF" sketch:type="MSShapeGroup" d="M27.5425697,6.05721386 L27.5425697,6.05459499 L27.5792088,6.00483443 L27.6132339,5.95245476 L27.6420215,5.89483736 L27.6681926,5.84245769 L27.6969849,5.77960209 L27.7179209,5.72198492 L27.7388592,5.66436728 L27.7597999,5.59627395 L27.775503,5.53341858 L27.7912039,5.47056298 L27.8042883,5.40770761 L27.817375,5.33437631 L27.8278454,5.27152071 L27.8383157,5.20342737 L27.8487837,5.1379529 L27.859254,5.07247844 L27.6969849,5.0462886 L27.6865169,5.1117633 L27.6760442,5.17723754 L27.6655762,5.24533111 L27.6551082,5.30818648 L27.6420215,5.36580388 L27.6289371,5.42865948 L27.6132339,5.49151461 L27.5975284,5.55437021 L27.5818253,5.60674988 L27.5608893,5.66436728 L27.5399509,5.72198492 L27.521629,5.76912639 L27.4954555,5.82150606 L27.4719031,5.86864752 L27.4431132,5.91055126 L27.4117069,5.95507386 L27.4117069,5.95245476 L27.5425697,6.05721386 Z"></path>
                    <path d="M27.1787736,6.58624734 L27.1787736,6.58886621 L27.2023283,6.53648677 L27.2284995,6.4841071 L27.2546753,6.4395845 L27.2808441,6.3950619 L27.3070153,6.35577727 L27.3305747,6.3191115 L27.3567435,6.28244597 L27.3776818,6.25363727 L27.4012389,6.22220946 L27.4247913,6.19340076 L27.4509648,6.16459183 L27.4719031,6.13840223 L27.4849899,6.12268833 L27.511161,6.09126053 L27.5268642,6.07292776 L27.5425697,6.05721386 L27.4117069,5.95245476 L27.3960037,5.97340663 L27.3802982,5.99173939 L27.3698302,6.00745329 L27.3410403,6.03364313 L27.3201043,6.05983296 L27.2991637,6.08864166 L27.2756089,6.11745036 L27.2520565,6.14887816 L27.2206479,6.1881628 L27.1944767,6.22482833 L27.1656891,6.26673207 L27.1342805,6.31649263 L27.108107,6.36101523 L27.0819382,6.4107758 L27.0557623,6.46315524 L27.0269748,6.52077287 L27.0269748,6.52339174 L27.1787736,6.58624734 Z" id="path44" fill="#FFFFFF" sketch:type="MSShapeGroup"></path>
                    <path id="path46" fill="#FFFFFF" sketch:type="MSShapeGroup" d="M26.8542353,7.06552002 L26.8542353,7.06552002 L26.885644,7.03671132 L26.9249019,6.99742668 L26.9510754,6.96861798 L26.9772465,6.93719018 L27.0034177,6.90576261 L27.0295912,6.86647775 L27.0505272,6.83504995 L27.0714655,6.80100328 L27.0950226,6.75909978 L27.1107234,6.73029108 L27.1264289,6.70148214 L27.1421321,6.66743548 L27.1526001,6.64386474 L27.160454,6.62553221 L27.1630704,6.61505604 L27.1787736,6.58624734 L27.0269748,6.52339174 L27.0269748,6.52601084 L27.0138904,6.55220044 L27.0008013,6.58100937 L26.9903309,6.60458011 L26.9798629,6.62815084 L26.9641598,6.65695954 L26.948459,6.68576824 L26.9353722,6.70672011 L26.9144316,6.74076678 L26.8934956,6.77219458 L26.8777924,6.80100328 L26.8516189,6.83243108 L26.8254477,6.86385888 L26.7992766,6.89266758 L26.780957,6.91100035 L26.7495484,6.93457108 L26.8542353,7.06552002 Z"></path>
                    <path d="M26.4878274,7.57883983 L26.4878274,7.5762205 L26.5087634,7.52122196 L26.527083,7.47146139 L26.5480213,7.42955789 L26.5741948,7.38241643 L26.5977472,7.34313156 L26.6239207,7.30384692 L26.6448614,7.27503822 L26.6736466,7.23837269 L26.6998201,7.20694465 L26.7259936,7.17551709 L26.7495484,7.15456522 L26.7678679,7.13885132 L26.7940414,7.11789969 L26.8202126,7.08909075 L26.8332993,7.08123392 L26.8542353,7.06552002 L26.7495484,6.93457108 L26.7338429,6.95028498 L26.7050576,6.97385595 L26.6893521,6.98695075 L26.6631786,7.00790262 L26.6343911,7.03933018 L26.600366,7.07075799 L26.5741948,7.10218602 L26.5480213,7.13361335 L26.5192314,7.16504115 L26.4825923,7.21480172 L26.4564188,7.25408659 L26.4276289,7.30384692 L26.4014554,7.35098839 L26.3752842,7.40860603 L26.3517295,7.46360456 L26.3307935,7.52384106 L26.3307935,7.52122196 L26.4878274,7.57883983 Z" id="path48" fill="#FFFFFF" sketch:type="MSShapeGroup"></path>
                    <path d="M26.0847711,8.46405295 L26.0847711,8.46667205 L26.1214149,8.40643555 L26.1528189,8.35143725 L26.1842299,8.29643848 L26.2130151,8.23882108 L26.2444214,8.17858458 L26.2705973,8.12096694 L26.2967661,8.06596864 L26.3229396,8.00835101 L26.3491131,7.94811521 L26.3700491,7.89311667 L26.388371,7.84073724 L26.4093093,7.78835757 L26.4302453,7.73335903 L26.4485672,7.6809796 L26.4668868,7.63121927 L26.4878274,7.57883983 L26.3307935,7.52122196 L26.315088,7.56836366 L26.2967661,7.61812423 L26.2784465,7.67050367 L26.2575105,7.7255022 L26.2365698,7.77788164 L26.2130151,7.8354995 L26.1920815,7.8904978 L26.1711408,7.94025837 L26.1449673,7.99787531 L26.1187985,8.05287361 L26.0926226,8.11049124 L26.0664515,8.16025158 L26.0376639,8.21786921 L26.0062553,8.27286751 L25.9748489,8.32786605 L25.9434426,8.37762661 L25.9434426,8.38024572 L26.0847711,8.46405295 Z" id="path50" fill="#FFFFFF" sketch:type="MSShapeGroup"></path>
                    <path id="path52" fill="#FFFFFF" sketch:type="MSShapeGroup" d="M25.7864087,9.54045268 L25.7864087,9.53783358 L25.7916415,9.44878861 L25.7942602,9.36760024 L25.8047282,9.28641164 L25.8125798,9.2078426 L25.8256666,9.13974927 L25.8387533,9.0690366 L25.8544565,9.00094326 L25.8701596,8.93808766 L25.891098,8.87785139 L25.9094175,8.82023376 L25.935591,8.75737839 L25.9617645,8.69714189 L25.9879333,8.64214335 L26.019342,8.58190685 L26.0481319,8.52690855 L26.0847711,8.46405295 L25.9434426,8.38024572 L25.9068011,8.44310132 L25.872776,8.50857555 L25.8413697,8.56881205 L25.8099634,8.63428652 L25.7837899,8.69452302 L25.7576188,8.75737839 L25.734064,8.82547173 L25.7131257,8.89094643 L25.6921874,8.96427773 L25.6764842,9.03237106 L25.6633974,9.10308327 L25.650313,9.1868905 L25.6424615,9.26545977 L25.6319911,9.34664814 L25.6241395,9.43831244 L25.6189044,9.53259584 L25.6189044,9.52997651 L25.7864087,9.54045268 Z"></path>
                    <path id="path54" fill="#FFFFFF" sketch:type="MSShapeGroup" d="M25.744532,11.7822966 L25.744532,11.7822966 L25.7366804,11.7168226 L25.734064,11.6539668 L25.7288288,11.5884926 L25.7262124,11.5230183 L25.7262124,11.4601627 L25.7262124,11.3894503 L25.7235937,11.3213567 L25.7235937,11.2506448 L25.7235937,11.177313 L25.7235937,11.106601 L25.7235937,11.0332692 L25.7235937,10.9599382 L25.7235937,10.8866069 L25.7235937,10.8185135 L25.7262124,10.7425631 L25.7314453,10.6639936 L25.7314453,10.5906623 L25.7314453,10.5199499 L25.734064,10.4466186 L25.7392968,10.3732873 L25.7419156,10.2999558 L25.744532,10.2266247 L25.7497672,10.155912 L25.7523836,10.082581 L25.7550023,10.0118683 L25.7602352,9.94115609 L25.7628539,9.87044365 L25.7680867,9.80235008 L25.7707055,9.73687585 L25.7759383,9.66878251 L25.7785571,9.60592691 L25.7864087,9.54045268 L25.6189044,9.52997651 L25.616288,9.59021301 L25.6136715,9.65830635 L25.6084364,9.72639991 L25.60582,9.79187415 L25.6005848,9.85996772 L25.5979684,9.93067992 L25.5927332,10.0013926 L25.5901168,10.0721048 L25.5874981,10.1454363 L25.5822652,10.2161485 L25.5796465,10.2894801 L25.5770301,10.3628114 L25.5717949,10.4361427 L25.5691785,10.5094742 L25.5639433,10.5906623 L25.5639433,10.6639936 L25.5639433,10.732087 L25.5613269,10.8080374 L25.5560917,10.8866069 L25.5560917,10.9599382 L25.5560917,11.0332692 L25.5560917,11.106601 L25.5560917,11.177313 L25.5560917,11.2506448 L25.5560917,11.3213567 L25.5587105,11.3894503 L25.5587105,11.4601627 L25.5639433,11.533494 L25.5665621,11.5989685 L25.5717949,11.664443 L25.5744136,11.7325363 L25.5770301,11.7927728 L25.744532,11.7822966 Z"></path>
                    <path d="M26.8804088,13.7622436 L26.8804088,13.7648625 L26.822829,13.7072451 L26.7652515,13.6443895 L26.707674,13.584153 L26.6500942,13.5212979 L26.5951308,13.4584423 L26.5427862,13.3982058 L26.4904439,13.3327315 L26.4407156,13.2698759 L26.388371,13.2044012 L26.3438802,13.144165 L26.2993848,13.0813096 L26.2522777,13.0158351 L26.2103987,12.9529798 L26.168522,12.8875053 L26.1266477,12.8220308 L26.0900062,12.7617943 L26.0533647,12.6963199 L26.0167233,12.6308454 L25.9853169,12.5706091 L25.9512965,12.5025155 L25.9198855,12.4396602 L25.8963308,12.3820428 L25.8701596,12.3139492 L25.8466049,12.2510936 L25.8256666,12.1934764 L25.8073447,12.128002 L25.7916415,12.0730034 L25.7785571,12.0101481 L25.7654703,11.9551495 L25.7550023,11.8949128 L25.7471508,11.8399145 L25.744532,11.7822966 L25.5770301,11.7927728 L25.5848816,11.8556284 L25.5927332,11.9211026 L25.6032012,11.9813391 L25.616288,12.0520516 L25.6293747,12.1149067 L25.650313,12.1803814 L25.6686326,12.2458559 L25.6948061,12.3139492 L25.7183608,12.3768048 L25.744532,12.4396602 L25.7733219,12.5129915 L25.8047282,12.5758468 L25.8335181,12.6387025 L25.8701596,12.7094149 L25.9068011,12.7748891 L25.9434426,12.8403636 L25.9853169,12.911076 L26.0271959,12.9765505 L26.0690679,13.042025 L26.1161797,13.1101183 L26.1632892,13.1755928 L26.2130151,13.2436861 L26.2627457,13.3091606 L26.315088,13.374635 L26.3648139,13.4374904 L26.4171609,13.5029649 L26.4747384,13.5684393 L26.5296994,13.6312947 L26.5872792,13.6941501 L26.6448614,13.7543866 L26.7024365,13.8172422 L26.7652515,13.8800975 L26.7652515,13.8827164 L26.8804088,13.7622436 Z" id="path56" fill="#FFFFFF" sketch:type="MSShapeGroup"></path>
                    <path d="M28.2335158,15.5824326 L28.2335158,15.5798137 L28.2204314,15.5221961 L28.2021071,15.4567218 L28.1811688,15.4017231 L28.1602352,15.3441059 L28.1340593,15.2838694 L28.102653,15.2210138 L28.0738654,15.1633964 L28.0424568,15.1083976 L28.0058176,15.0455422 L27.9691738,14.9879251 L27.9325347,14.9303072 L27.890658,14.8674521 L27.8487837,14.8124533 L27.8016719,14.7522168 L27.7571788,14.6945994 L27.7126881,14.6369818 L27.6655762,14.5819832 L27.6158503,14.5243658 L27.5635057,14.4667487 L27.511161,14.4091308 L27.4614351,14.3541325 L27.4090905,14.2991337 L27.3567435,14.2441352 L27.3043988,14.1891369 L27.2494401,14.1315193 L27.1970931,14.0791398 L27.1421321,14.0241413 L27.0897898,13.9717616 L27.0374428,13.9193822 L26.9850981,13.8670025 L26.9327558,13.8146231 L26.8804088,13.7622436 L26.7652515,13.8827164 L26.8175962,13.9298583 L26.8699408,13.9822376 L26.9222831,14.0346172 L26.9746278,14.0869967 L27.0269748,14.1393763 L27.0819382,14.1943751 L27.1342805,14.2467543 L27.1840064,14.2991337 L27.2363534,14.3541325 L27.2886957,14.4091308 L27.3410403,14.4641293 L27.3907709,14.5191281 L27.4431132,14.5767453 L27.4849899,14.6291249 L27.5347181,14.6867426 L27.5818253,14.7417409 L27.6263207,14.7993587 L27.6708114,14.8569759 L27.7126881,14.9119744 L27.7545624,14.9669732 L27.7912039,15.0193526 L27.8278454,15.07697 L27.8644868,15.1345874 L27.8958932,15.1869671 L27.9273018,15.2419654 L27.9560894,15.2995833 L27.9822606,15.3519627 L28.0032012,15.4017231 L28.0241372,15.4593407 L28.0450732,15.5143392 L28.0581599,15.5641 L28.071249,15.6164795 L28.071249,15.6138604 L28.2335158,15.5824326 Z" id="path58" fill="#FFFFFF" sketch:type="MSShapeGroup"></path>
                    <path d="M28.811921,16.3812207 L28.8145375,16.3812207 L28.7778983,16.3655068 L28.7307865,16.3393168 L28.6915309,16.3078892 L28.6470355,16.2738428 L28.6051635,16.2267008 L28.5580494,16.1769405 L28.5109399,16.1193229 L28.4638327,16.0617055 L28.4245725,16.0040878 L28.3853169,15.9386134 L28.3512895,15.8783769 L28.3198832,15.8181404 L28.2884769,15.7526664 L28.2649221,15.6950485 L28.2492166,15.6374311 L28.2335158,15.5824326 L28.071249,15.6138604 L28.0869522,15.6793346 L28.1078882,15.7474282 L28.1366804,15.8207597 L28.1680844,15.8862339 L28.2047259,15.9569464 L28.2439838,16.0276586 L28.2884769,16.0931333 L28.3329699,16.1612266 L28.3800818,16.224082 L28.4271889,16.2816996 L28.4795336,16.3366979 L28.5318805,16.3890776 L28.5868393,16.4388379 L28.6470355,16.4807416 L28.6993802,16.5121694 L28.7569623,16.5383593 L28.7595787,16.5383593 L28.811921,16.3812207 Z" id="path60" fill="#FFFFFF" sketch:type="MSShapeGroup"></path>
                    <path id="path62" fill="#FFFFFF" sketch:type="MSShapeGroup" d="M29.5238078,16.0721812 L29.5238078,16.0695625 L29.5081047,16.121942 L29.4793147,16.1690837 L29.4531413,16.2057492 L29.4086482,16.242415 L29.3589246,16.2764614 L29.3065776,16.3078892 L29.2489978,16.3314599 L29.191418,16.3497929 L29.1286077,16.3655068 L29.0684115,16.3786014 L29.0108316,16.3864587 L28.9506354,16.3916964 L28.9035259,16.3890776 L28.8668821,16.3890776 L28.8276265,16.3864587 L28.811921,16.3812207 L28.7595787,16.5383593 L28.8066859,16.548835 L28.8459461,16.5514541 L28.9035259,16.556692 L28.9663386,16.5540732 L29.0265348,16.548835 L29.0945826,16.5409781 L29.1652468,16.5278831 L29.2385298,16.5069317 L29.3118105,16.4833605 L29.3798583,16.454552 L29.4479084,16.4178865 L29.5133398,16.3733639 L29.5682986,16.3209842 L29.6206432,16.2581289 L29.6599058,16.1847976 L29.6860746,16.1062278 L29.6860746,16.103609 L29.5238078,16.0721812 Z"></path>
                    <path id="path64" fill="#FFFFFF" sketch:type="MSShapeGroup" d="M29.2882581,15.2838694 L29.2882581,15.2838694 L29.3039589,15.3231538 L29.3222808,15.3729144 L29.3432191,15.4200563 L29.3641575,15.4724357 L29.382477,15.5248152 L29.4060318,15.5824326 L29.4269724,15.6400502 L29.4505248,15.6976676 L29.4688444,15.7605232 L29.4845476,15.8102835 L29.5002507,15.8679009 L29.5133398,15.9176617 L29.5238078,15.9700412 L29.5290406,16.0119447 L29.5290406,16.0381345 L29.5238078,16.0721812 L29.6860746,16.103609 L29.6913098,16.0590864 L29.6913098,15.996231 L29.6860746,15.9386134 L29.6756089,15.8862339 L29.6625222,15.8259974 L29.6468167,15.76838 L29.6258784,15.7029056 L29.6075588,15.6452879 L29.5840064,15.5824326 L29.5630657,15.5248152 L29.539511,15.4671975 L29.5159586,15.4095801 L29.4950179,15.3572005 L29.4740796,15.304821 L29.4609928,15.2655364 L29.445292,15.2262517 L29.2882581,15.2838694 Z"></path>
                    <path id="path66" fill="#FFFFFF" sketch:type="MSShapeGroup" d="M29.2254431,14.5243658 L29.2254431,14.5243658 L29.2097423,14.5767453 L29.2018907,14.6317438 L29.1966532,14.6762664 L29.1940368,14.7234083 L29.1888016,14.7784066 L29.1940368,14.836024 L29.1966532,14.883166 L29.2045071,14.9303072 L29.2097423,14.9774489 L29.2175938,15.0324474 L29.2280595,15.07697 L29.2385298,15.1241117 L29.2489978,15.1660152 L29.2620846,15.207919 L29.2725526,15.2445845 L29.2882581,15.2838694 L29.445292,15.2262517 L29.434824,15.1974428 L29.4243513,15.1607773 L29.4112669,15.1241117 L29.4007966,15.082208 L29.3903286,15.0403043 L29.3798583,14.9957819 L29.372009,14.961735 L29.3667762,14.9145933 L29.3589246,14.8674521 L29.3563059,14.8203101 L29.3563059,14.7784066 L29.3563059,14.7391222 L29.3589246,14.6919803 L29.3641575,14.6474577 L29.372009,14.613411 L29.382477,14.5767453 L29.2254431,14.5243658 Z"></path>
                    <path id="path68" fill="#FFFFFF" sketch:type="MSShapeGroup" d="M29.4164998,13.9769996 L29.4164998,13.9796187 L29.4164998,13.9953326 L29.4138834,14.0267602 L29.4060318,14.0503314 L29.3981802,14.0843778 L29.3850934,14.1184247 L29.3798583,14.1472332 L29.3641575,14.1838989 L29.351073,14.2205645 L29.3327488,14.2572302 L29.3170456,14.2965149 L29.3013425,14.3331806 L29.2856416,14.3724653 L29.2699361,14.4091308 L29.254233,14.4457966 L29.2411462,14.4824623 L29.2254431,14.5243658 L29.382477,14.5767453 L29.392945,14.5453177 L29.4060318,14.5086519 L29.4217349,14.4719864 L29.4374404,14.4353206 L29.4531413,14.396036 L29.4688444,14.3593702 L29.4845476,14.3200856 L29.5028718,14.2834201 L29.5159586,14.2467543 L29.5316594,14.2100888 L29.5473626,14.1655659 L29.560447,14.1315193 L29.5682986,14.0974726 L29.5761548,14.05295 L29.5787712,14.0215222 L29.5840064,13.9796187 L29.5840064,13.9822376 L29.4164998,13.9769996 Z"></path>
                    <path id="path70" fill="#FFFFFF" sketch:type="MSShapeGroup" d="M29.6729902,13.4191576 L29.6677574,13.4217765 L29.6546706,13.4374904 L29.6311135,13.4636802 L29.6206432,13.476775 L29.5944744,13.5055837 L29.5761548,13.5291545 L29.5578306,13.5553443 L29.5368922,13.589391 L29.5133398,13.6312947 L29.4976343,13.6627225 L29.4793147,13.7020071 L29.466228,13.7386727 L29.4479084,13.7884332 L29.4374404,13.8277179 L29.4295888,13.8696218 L29.4217349,13.927239 L29.4164998,13.9769996 L29.5840064,13.9822376 L29.5840064,13.9429529 L29.591858,13.9115251 L29.5997095,13.8696218 L29.6101752,13.830337 L29.6180268,13.8015285 L29.6311135,13.7648625 L29.6442003,13.7360538 L29.6599058,13.704626 L29.6729902,13.6836741 L29.688691,13.6601034 L29.7070129,13.6339136 L29.7253325,13.6103428 L29.7358052,13.5920101 L29.761974,13.5632014 L29.7698256,13.5527254 L29.7881475,13.5370113 L29.7829123,13.5396304 L29.6729902,13.4191576 Z"></path>
                    <path d="M30.1022131,12.8194117 L30.1022131,12.8194117 L30.0812771,12.8586966 L30.0603387,12.9006001 L30.0394027,12.9320277 L30.0158457,12.9739314 L29.9896722,13.0158351 L29.9635033,13.0577386 L29.9373275,13.0996424 L29.9137728,13.133689 L29.8849852,13.1755928 L29.8535765,13.2148774 L29.8274077,13.2489241 L29.7959991,13.2855898 L29.7645927,13.3222554 L29.73057,13.3589211 L29.7043965,13.3903487 L29.6729902,13.4191576 L29.7829123,13.5396304 L29.8195561,13.5055837 L29.8561953,13.4689182 L29.8902204,13.4322524 L29.9216244,13.3955867 L29.9530354,13.3589211 L29.9844393,13.3143985 L30.0158457,13.2751139 L30.0446379,13.2332102 L30.0786583,13.1886876 L30.1048341,13.1467841 L30.1310053,13.1048803 L30.1571765,13.0629766 L30.1807335,13.0210731 L30.2069047,12.9739314 L30.2278407,12.9320277 L30.248779,12.8927433 L30.1022131,12.8194117 Z" id="path72" fill="#FFFFFF" sketch:type="MSShapeGroup"></path>
                    <path d="M30.7722232,12.0494327 L30.7748419,12.0468134 L30.7329676,12.0834794 L30.6884722,12.128002 L30.6466002,12.1620486 L30.6021048,12.2039521 L30.5576141,12.2458559 L30.5105023,12.2956164 L30.4633904,12.340139 L30.4162833,12.3872805 L30.3717879,12.4370413 L30.3299159,12.4841828 L30.2854205,12.5365622 L30.2435438,12.5915605 L30.2069047,12.6439404 L30.1676444,12.7015578 L30.1336217,12.7617943 L30.1022131,12.8194117 L30.248779,12.8927433 L30.2801877,12.8403636 L30.3089752,12.790603 L30.3430003,12.7382236 L30.3796395,12.6858439 L30.4162833,12.6413213 L30.4555389,12.5941799 L30.4974178,12.5470379 L30.5419086,12.4972776 L30.5785524,12.4553738 L30.6256596,12.4108515 L30.6675339,12.3715666 L30.7120293,12.3296631 L30.75652,12.2877596 L30.8036318,12.2432368 L30.8428897,12.2091901 L30.8847664,12.1725246 L30.8873828,12.1699055 L30.7722232,12.0494327 Z" id="path74" fill="#FFFFFF" sketch:type="MSShapeGroup"></path>
                    <path d="M31.4108293,10.8106565 L31.4108293,10.8080374 L31.4108293,10.8604168 L31.4082129,10.9127965 L31.4082129,10.9677952 L31.4082129,11.0201747 L31.4003613,11.0777921 L31.389891,11.1380286 L31.3741855,11.2035031 L31.3506307,11.2742155 L31.3218432,11.3475468 L31.2825829,11.4261158 L31.2328547,11.5151613 L31.1726608,11.6042065 L31.094145,11.7063465 L31.0051565,11.8137247 L30.8978508,11.9263404 L30.7722232,12.0494327 L30.8873828,12.1699055 L31.0130104,12.0415756 L31.125549,11.9237217 L31.2250031,11.8111058 L31.3035213,11.7037276 L31.3741855,11.5989685 L31.4291466,11.5046853 L31.473642,11.4156401 L31.5076647,11.3265949 L31.5312194,11.2506448 L31.5521601,11.1746943 L31.5626281,11.1039819 L31.5704773,11.0358886 L31.5757125,10.9677952 L31.5757125,10.9127965 L31.5783289,10.8604168 L31.5783289,10.8132753 L31.5783289,10.8106565 L31.4108293,10.8106565 Z" id="path76" fill="#FFFFFF" sketch:type="MSShapeGroup"></path>
                    <path id="path78" fill="#FFFFFF" sketch:type="MSShapeGroup" d="M31.5050459,9.31522034 L31.5076647,9.31522034 L31.4867287,9.39117074 L31.4710255,9.46974001 L31.4605575,9.55878521 L31.4500849,9.64521178 L31.4396169,9.73425675 L31.4317653,9.83115878 L31.4265301,9.92544219 L31.421295,10.0223445 L31.4186786,10.1192463 L31.4160621,10.2240054 L31.4160621,10.3235265 L31.4134457,10.4230479 L31.4134457,10.522569 L31.4134457,10.6194713 L31.4108293,10.7163731 L31.4108293,10.8106565 L31.5783289,10.8106565 L31.5783289,10.7163731 L31.5809477,10.6194713 L31.5809477,10.522569 L31.5809477,10.4230479 L31.5835641,10.3235265 L31.5835641,10.2240054 L31.5861805,10.1297224 L31.5887993,10.0328204 L31.5940321,9.93591789 L31.5992672,9.84163495 L31.6018837,9.75520862 L31.6123563,9.66616341 L31.6228243,9.57973708 L31.6332923,9.50116804 L31.6489955,9.42783674 L31.6646986,9.35712431 L31.6673151,9.35712431 L31.5050459,9.31522034 Z"></path>
                    <path id="path80" fill="#FFFFFF" sketch:type="MSShapeGroup" d="M31.7327465,8.58714505 L31.7327465,8.58714505 L31.7275113,8.61333465 L31.7170433,8.65000019 L31.7065753,8.69190416 L31.6961073,8.73118879 L31.6856346,8.76523522 L31.6699315,8.81237693 L31.6542283,8.85689953 L31.6385275,8.90142213 L31.6202079,8.95118293 L31.6045024,8.99832416 L31.5861805,9.05070383 L31.5704773,9.10046463 L31.5521601,9.15284383 L31.5364569,9.2052235 L31.5207514,9.25760294 L31.5050459,9.31522034 L31.6673151,9.35712431 L31.6777831,9.30474487 L31.6934886,9.2523652 L31.7091941,9.19998577 L31.7275113,9.1476061 L31.7432145,9.0978453 L31.761534,9.05070383 L31.7772419,9.00356236 L31.7955591,8.95380156 L31.8112623,8.90927896 L31.8269654,8.86475636 L31.8426686,8.82285286 L31.8583741,8.77309229 L31.8688421,8.73380766 L31.8793101,8.69714189 L31.8897781,8.66047612 L31.8950132,8.61333465 L31.7327465,8.58714505 Z"></path>
                    <text id="tspan3065" fill="#000000" sketch:type="MSTextLayer" font-family="Hiragino Kaku Gothic ProN" font-size="6.00029585" font-weight="313">
                        <tspan x="18.0690257" y="23.2558046"></tspan>
                    </text>
                    <text id="tspan3069" fill="#000000" sketch:type="MSTextLayer" font-family="Hiragino Kaku Gothic ProN" font-size="6.00029585" font-weight="313">
                        <tspan x="34.3332923" y="23.4122914"></tspan>
                    </text>
                    <rect id="rect3071" stroke-opacity="0" stroke="#000000" stroke-width="11.1111107" fill="#D38D5F" sketch:type="MSShapeGroup" x="4.00848777e-05" y="26.8839962" width="59.8074599" height="8.52258227"></rect>
                    <text id="tspan3096" fill="#FFFFFF" sketch:type="MSTextLayer" font-family="Hiragino Kaku Gothic ProN" font-size="6.09116542" font-weight="313">
                        <tspan x="9.05972201" y="32.0906442" fill="#000000"></tspan>
                    </text>
                </g>
            </g>
        </g>
    </g>
</svg>