<?xml version="1.0" encoding="UTF-8" standalone="no"?>
<svg width="60px" height="40px" viewBox="0 0 60 40" version="1.1" xmlns="http://www.w3.org/2000/svg" xmlns:xlink="http://www.w3.org/1999/xlink" xmlns:sketch="http://www.bohemiancoding.com/sketch/ns">
    <!-- Generator: Sketch 3.2.2 (9983) - http://www.bohemiancoding.com/sketch -->
    <title>無黨籍</title>
    <desc>Created with Sketch.</desc>
    <defs></defs>
    <g id="Page-1" stroke="none" stroke-width="1" fill="none" fill-rule="evenodd" sketch:type="MSPage">
        <g id="無黨籍" sketch:type="MSArtboardGroup">
            <rect id="rect2391" fill="#000000" sketch:type="MSShapeGroup" x="-2.84217094e-15" y="0.0162710963" width="60" height="39.8671096"></rect>
            <path d="M29.8272294,8.77393946 L29.5593663,9.36919307 C28.9640979,9.40889781 28.3390827,10.0934384 27.6843164,11.422817 L27.5652657,11.5121061 L27.624791,11.6311568 L27.714078,11.6906821 L27.8331288,11.7204459 C27.932325,11.6807792 28.7359163,11.4724415 30.2439069,11.0954285 C30.720095,10.8771879 31.464161,10.5994029 32.4761069,10.2620735 C33.1110272,10.1033582 33.5078629,9.99422946 33.6666141,9.93468505 C34.0634308,9.79581159 34.420583,9.60731568 34.7380706,9.36919307 C34.6586844,9.34937245 35.0952037,9.33945049 36.0476286,9.33943145 C36.7222281,9.33945049 37.1686673,9.53786836 37.3869502,9.93468505 L37.4762372,10.5597003 C37.019855,10.8375044 36.3055506,11.0160804 35.3333242,11.0954285 C34.1229562,11.2144983 33.3392066,11.3137072 32.9820735,11.3930553 C31.9701255,11.789908 30.432388,12.2561911 28.3688591,12.7919024 L26.8509614,12.5240372 C25.1048735,13.8534517 23.5572163,14.6868068 22.2079832,15.0241024 L21.1365267,14.6669502 C22.6246523,13.0399406 23.5274525,11.9982478 23.8449317,11.5418677 C24.7774851,10.3116981 25.3528969,9.09142922 25.571165,7.88105905 C25.4521059,7.72234591 25.3330551,7.55369178 25.2140129,7.37509242 C25.0155865,7.11717247 24.9262974,6.96836013 24.9461498,6.92865327 L25.0056752,6.75007719 C25.0651899,6.69057511 25.1346373,6.66081137 25.2140129,6.66078809 C25.2735298,6.66081137 25.3776976,6.68561413 25.5265226,6.73519638 C25.6753244,6.78482307 25.7894141,6.80962583 25.868794,6.80960255 C25.987832,6.80962583 26.1068827,6.76994226 26.2259461,6.69055183 C27.9720086,6.86915119 29.1724356,7.56361162 29.8272294,8.77393946 L29.8272294,8.77393946 L29.8272294,8.77393946 Z M37.4762372,13.3276285 C38.1706765,13.3871708 38.6270376,13.4466962 38.8453226,13.5062067 C39.3611837,13.645114 39.7282557,13.922899 39.9465407,14.3395618 L39.7977284,14.8752879 C39.5397598,14.9745116 39.3413419,15.222535 39.2024748,15.619356 C40.5120052,15.9963626 41.2759151,16.2344641 41.4942001,16.3336603 C42.2680023,16.7503505 42.6945997,17.3852877 42.7739965,18.2384718 L42.2382661,19.1015906 L38.5476937,18.506337 C38.1905183,18.6650819 37.9325772,18.9825505 37.7738661,19.4587428 C37.5357414,20.1928974 37.386927,20.6095749 37.3274249,20.7087733 C37.9821806,21.0262524 38.6468794,21.3536409 39.3215255,21.6909428 C40.0358045,22.087787 40.3830347,22.6532768 40.3632183,23.3874166 L40.3632183,23.536229 L40.0953531,24.1910079 L39.2024748,24.369584 C38.9246644,24.310065 38.1905183,24.0918053 37.0000343,23.714805 C36.1071328,23.4568682 35.353147,23.3278976 34.7380706,23.3278891 C34.5991591,23.3278976 34.3908214,23.3130147 34.1130554,23.2832467 C33.8352513,23.2534893 33.6269136,23.2386085 33.4880402,23.2386022 C32.4364064,23.2386085 30.6903313,23.5263134 28.2498084,24.1017209 C26.642611,24.4787191 25.5711545,24.7565041 25.0354389,24.935076 C23.7853957,25.3517578 22.8329921,25.8676421 22.1782216,26.4827354 L20.9281869,25.1434137 L21.1067651,24.7267362 L20.9877144,24.3100586 L21.9103564,24.5779238 C22.2079769,24.4191938 22.649455,24.2455787 23.2347952,24.0570764 C23.8201205,23.8685847 24.231837,23.7247312 24.4699469,23.6255181 L23.3687288,21.9885696 L23.1008636,20.5301993 C22.2278186,20.7087838 21.5829595,20.9072017 21.1662883,21.1254529 C20.5908723,21.4230861 20.1146694,21.8893691 19.7376797,22.5242978 L19.2019535,22.6433485 C18.8051136,22.5044624 18.4181977,22.1274705 18.0412079,21.5123667 C17.6642119,20.8972798 17.2971378,20.5302078 16.9399898,20.4111486 L16.8507007,19.9944689 L17.386429,19.6373168 L18.1900203,19.8754182 L23.1306274,18.3872863 L23.0115766,16.9289139 L22.4460847,15.9765081 C22.8230701,15.9169976 23.0115682,15.8872338 23.0115766,15.8872211 C23.5869779,15.8872338 24.1078253,16.0757298 24.5741168,16.452711 C25.0403872,16.8297177 25.2735298,17.3059206 25.2735404,17.8813197 C25.7695723,17.7424399 26.5037184,17.5043384 27.4759766,17.1670153 L27.3271642,15.1431531 L26.6426215,14.309798 C28.0712175,14.5082307 28.954176,15.0638007 29.2915012,15.9765081 C29.1129103,16.0757298 29.0236233,16.244386 29.023636,16.4824748 C29.0236233,16.6412217 29.0732267,16.7701923 29.1724504,16.8693885 C29.3311699,16.7701923 29.7528084,16.6511416 30.4373638,16.5122364 C31.1218896,16.3733566 31.5832117,16.2543058 31.82133,16.1550842 L31.9701424,14.6074248 L31.166549,13.9228821 L31.9701424,13.7740698 C32.386803,13.8732935 32.8034805,13.9725025 33.220175,14.0716966 C33.775726,14.2106039 34.043589,14.5379944 34.0237663,15.0538661 L34.0237663,15.1133893 C33.6467554,15.2522967 33.4582574,15.4308727 33.4582764,15.6491197 L33.4880402,15.8276937 C33.686439,15.8872338 33.8947767,15.9169976 34.1130554,15.9169828 C34.2916124,15.9169976 34.698368,15.877314 35.3333242,15.797932 C35.8293498,15.7582633 36.2361054,15.7582633 36.5535952,15.797932 C36.7321501,15.4804783 36.8214371,15.034037 36.8214604,14.4586125 L36.2559684,13.8633589 L37.4762372,13.3276285 L37.4762372,13.3276285 Z M33.0713605,17.8813197 C32.753875,18.3178496 32.5951407,19.200808 32.5951576,20.5301993 C32.47609,20.7087838 32.4165646,20.8873599 32.4165837,21.0659254 C32.4165646,21.2246703 32.4959318,21.3734826 32.6546851,21.5123667 L35.1845119,20.9468747 C35.343225,20.5897331 35.4920395,20.1085693 35.6309531,19.5033852 C35.7698245,18.8982224 35.8888752,18.4765839 35.9881053,18.2384718 C35.5912484,17.9805413 34.9959948,17.8515686 34.2023445,17.8515559 C34.0832726,17.8515686 33.8947767,17.8614906 33.6368525,17.8813197 C33.398732,17.8813324 33.2102361,17.8813324 33.0713605,17.8813197 L33.0713605,17.8813197 L33.0713605,17.8813197 Z M29.0533997,18.506337 C28.9343342,19.5976438 28.8748088,20.143294 28.8748236,20.1432834 C28.8748088,20.2028193 28.8896917,20.3069871 28.9194682,20.455791 C28.9492171,20.6046139 28.9640979,20.7087838 28.9641127,20.7683007 C28.9640979,20.7683092 28.8946506,21.3734826 28.7557729,22.5838232 L28.934349,22.5838232 C29.231961,22.6036713 29.6238357,22.4995035 30.1099754,22.2713156 C30.5960833,22.0431424 30.9482745,21.9191307 31.166549,21.8992805 L31.0177366,21.3040269 L31.4344141,18.1491849 C31.1962958,18.0896701 30.9482745,18.0599085 30.6903461,18.0598958 C30.0355523,18.0599085 29.4899042,18.2087208 29.0533997,18.506337 L29.0533997,18.506337 L29.0533997,18.506337 Z M25.3925911,19.7563675 C25.2735298,20.510366 25.2140044,20.8873599 25.2140129,20.8873515 C25.2140044,20.8873599 25.243766,21.2246703 25.303302,21.8992805 C25.3032914,21.9984979 25.2784886,22.177074 25.2288958,22.4350108 C25.1792797,22.6929604 25.154479,22.8814563 25.1544896,23.0005007 C25.154479,23.2386085 25.1941626,23.4171846 25.2735404,23.536229 C25.888623,23.377501 26.7616617,23.1294797 27.8926562,22.792163 C27.6743818,22.5143843 27.5454112,22.1572322 27.5057403,21.7207065 C27.5057276,21.7207129 27.5057276,21.3337991 27.5057403,20.5599609 L27.5057403,19.9051819 C27.5057276,19.4686732 27.4263605,19.1016012 27.2676389,18.8039617 C26.6723726,18.8634998 26.0473573,19.1809662 25.3925911,19.7563675 L25.3925911,19.7563675 L25.3925911,19.7563675 Z M36.2559684,26.4529716 C37.565503,26.6315498 39.0139535,27.3160925 40.6013197,28.5065976 C42.3275277,29.8359953 43.1906443,31.0959477 43.1906719,32.286457 C43.1906443,32.8221831 42.853334,33.0900462 42.1787428,33.0900483 C41.4247274,32.7924194 40.7997122,32.3757419 40.3036929,31.8400179 C38.498067,29.9153624 37.1488255,28.1196839 36.2559684,26.4529716 L36.2559684,26.4529716 L36.2559684,26.4529716 Z M35.273801,32.0185918 L35.0059358,32.5840838 L34.5297329,32.7328962 L33.7856648,32.5543222 L32.2380055,30.8578483 C31.9006781,29.310189 31.3153465,27.9311858 30.4820084,26.7208368 L30.6010591,26.7208368 C31.1367704,26.7009972 31.821311,26.9787822 32.6546851,27.5541919 C33.6665972,28.2486544 34.3164152,28.848869 34.6041391,29.3548335 C34.8918249,29.860798 35.1150455,30.7487175 35.273801,32.0185918 L35.273801,32.0185918 L35.273801,32.0185918 Z M25.0056752,27.1375122 C25.9183868,27.6930844 26.5582828,28.2387346 26.9253675,28.7744607 C27.2924289,29.310189 27.565253,30.0939385 27.7438418,31.1257135 C27.7438291,31.165395 27.7686318,31.2794847 27.8182479,31.4679828 C27.8678408,31.6564787 27.8926414,31.7904102 27.8926562,31.8697795 C27.8926414,32.088037 27.7339071,32.3062967 27.4164533,32.5245585 C27.0196049,32.7626578 26.8112651,32.9114701 26.791436,32.9709976 C26.0572793,32.6138433 25.6009182,32.0781151 25.4223527,31.363815 C25.342975,31.0265025 25.3132133,30.3121981 25.3330636,29.220902 C25.3528969,28.3081798 25.243766,27.6137172 25.0056752,27.1375122 L25.0056752,27.1375122 L25.0056752,27.1375122 Z M21.2555774,27.2863267 L21.582968,27.5541919 C21.6424849,27.6930844 21.6821684,27.9907112 21.7020187,28.4470702 C21.721852,28.9034334 21.8012192,29.21098 21.9401201,29.3697143 L21.0472376,32.3162207 C20.5908723,32.4352672 20.2634817,32.742816 20.0650702,33.2388628 L19.2614768,33.1198121 C18.8844807,32.8023414 18.6959827,32.3559001 18.6959869,31.7804904 C18.6959827,31.1058696 18.8150334,30.5701414 19.0531391,30.1733078 C19.3507617,29.8756788 19.777359,29.4093979 20.3329333,28.7744607 C20.5313469,28.3577853 20.8388936,27.8617406 21.2555774,27.2863267 L21.2555774,27.2863267 L21.2555774,27.2863267 Z" id="flowRoot2383" fill="#FFFFFF" sketch:type="MSShapeGroup"></path>
        </g>
    </g>
</svg>