<?xml version="1.0" encoding="UTF-8" standalone="no"?>
<svg width="60px" height="40px" viewBox="0 0 60 40" version="1.1" xmlns="http://www.w3.org/2000/svg" xmlns:xlink="http://www.w3.org/1999/xlink" xmlns:sketch="http://www.bohemiancoding.com/sketch/ns">
    <!-- Generator: Sketch 3.2.2 (9983) - http://www.bohemiancoding.com/sketch -->
    <title>親民黨</title>
    <desc>Created with Sketch.</desc>
    <defs></defs>
    <g id="Page-1" stroke="none" stroke-width="1" fill="none" fill-rule="evenodd" sketch:type="MSPage">
        <g id="親民黨" sketch:type="MSArtboardGroup">
            <g id="path2904-+-g3056-+-76135552" sketch:type="MSLayerGroup">
                <path d="M0,0.0179835786 L59.9880018,0.0179835786 L59.9880018,39.986009 L0,39.986009 L0,0.0179835786 L0,0.0179835786 Z" id="path2904" fill="#FE6407" sketch:type="MSShapeGroup"></path>
                <g id="g3056" transform="translate(6.947013, 7.063398)" fill="#FFFFFF" sketch:type="MSShapeGroup">
                    <path d="M3.16117559,3.3940896 L3.28826909,3.41598904 L3.50301336,3.59994556 L3.7089928,3.90653959 L3.68269782,4.10801526 L3.53807367,4.24817242 L2.81495491,4.48906766 L2.62212272,4.61170518 L2.52570712,4.75186234 L1.21970985,5.03217715 L0.886636913,5.21613318 L0.636832332,5.24679268 L0.579859452,5.2073736 L0.4659132,5.29059204 L0.159135247,5.32563133 L0.00136385498,5.48768792 L0.124074938,5.72420338 L0.216108619,5.72420338 L0.803368556,5.95633855 L0.851576604,6.00889748 L0.939227378,6.01765755 L1.04440831,5.94757897 L1.14520682,5.95633855 L1.23724001,6.04831656 L1.39062898,6.09211592 L1.89900396,6.1008755 L2.91137052,5.92129926 L3.18747058,5.67602423 L3.56436915,5.48768792 L4.48908493,5.1153951 L4.61617892,4.91391942 L4.95363428,4.64236468 L5.17714388,4.62046525 L5.35682784,4.74748255 L5.50145198,4.64236468 L6.01859179,4.62922482 L6.38234263,4.63798489 L6.58393916,4.50658731 L6.88195179,4.15619441 L7.34650113,4.17809384 L7.52180268,4.15619441 L7.78037259,3.89777952 L7.78037259,3.78828186 L7.67519166,3.56052648 L7.42538708,3.38094975 L7.31582324,3.38970982 L7.09231365,3.55176641 L6.97836789,3.73572293 L6.62338188,3.70068364 L5.62854548,3.29335152 L5.56718969,3.05245628 L5.36997558,2.72396281 L5.27355997,2.6626443 L4.88789608,2.61008537 L4.58550103,2.53124672 L4.39705175,2.42174906 L4.22613261,2.47868778 L3.83170389,2.46116814 L3.23567863,2.42174906 L2.95519615,2.48744785 L2.81495491,2.56190622 L2.74045139,2.70644317 L2.76236445,2.83346096 L2.85878006,2.96485806 L2.98149114,3.06121635 L3.11734996,3.2057533 L3.16117559,3.3940896 L3.16117559,3.3940896 Z" id="path2906-7"></path>
                    <path d="M2.39861362,7.02941718 L2.49502922,6.86736058 L3.87552952,6.65274456 L3.95879788,6.58704577 L3.9982406,6.63522492 L3.88867726,6.74910285 L3.74405311,7.17395412 L3.61695962,7.39732972 L3.42851033,7.47178858 L3.23129621,7.73020347 L3.05161176,7.80466184 L2.78865944,7.65136482 L2.53447195,7.36229043 L2.39861362,7.02941718 L2.39861362,7.02941718 Z" id="path2908-4"></path>
                    <path d="M2.92013584,9.42522925 L3.18747058,9.20623393 L3.28826909,9.20623393 L3.28826909,9.08359641 L4.10342153,8.67188451 L4.21736778,8.68502437 L4.30501856,8.58428628 L4.98431217,8.20761367 L5.46639167,7.48930823 L5.80384703,6.86736058 L5.85205508,6.61332548 L5.9879139,6.47316832 L6.18512802,5.84246061 L6.43493309,5.69354387 L7.08793123,5.82932125 L7.25446795,6.11839514 L7.2719981,6.26731237 L7.17996491,6.40746953 L7.01781061,6.55200648 L6.76800603,7.27469221 L6.87756937,7.7521029 L6.97836789,7.87036063 L6.86442163,8.06307672 L6.52696628,8.19447381 L6.35604715,8.36967027 L6.01859179,8.46164877 L5.73810883,8.69816373 L5.66360579,9.37705059 L5.72934399,9.54786725 L5.8914978,9.65736491 L6.12377272,9.68802441 L6.61023464,9.68802441 L6.82059649,9.71430363 L6.97398547,9.8194215 L7.3377363,10.3274917 L7.06601866,10.607806 L6.52696628,10.6297055 L6.18512802,10.5859061 L5.88711539,10.6253257 L5.61101533,10.761103 L5.36997558,10.9844781 L5.19905645,11.3085918 L5.12455341,11.6765044 L5.14208357,11.9261597 L5.27355997,12.2896924 L5.18152629,12.6619848 L5.12455341,13.0605568 L5.13331824,13.4722687 L5.17714388,13.8927402 L5.22973434,14.1204961 L5.21220418,14.3920503 L5.11140567,14.7030242 L4.97554685,14.8738408 L4.92733929,15.1191158 L4.95363428,15.5527272 L4.92733929,15.9206402 L4.80901063,15.8242819 L4.61617892,15.4257099 L4.43211205,15.0315176 L4.27434066,14.8826009 L4.24804518,14.6767449 L4.30940097,14.3920503 L4.44964221,14.1423955 L4.60303119,13.7263038 L4.6074136,13.5029282 L4.55044072,13.354011 L4.58988345,13.1131158 L4.73889001,13.1875746 L4.79148047,13.0430372 L4.70821211,12.9948585 L4.53291057,12.9948585 L4.42334673,12.8853604 L4.46717236,12.6313258 L4.70821211,12.2196139 L4.71697695,11.961199 L4.60303119,11.7246835 L4.43211205,11.4925483 L4.27434066,11.3480109 L3.55122141,11.3742906 L2.94204841,11.5232078 L2.74921671,11.7159239 L2.44682117,11.8517013 L2.12689597,11.8779805 L1.87270848,11.9349193 L1.72370242,12.0400371 L1.64919889,12.1889544 L1.18026713,12.0969763 L0.623684593,12.0575568 L0.527268988,12.0093781 L0.549181558,11.7728627 L1.46951493,11.2253734 L2.0392452,11.1859543 L2.5520021,10.8662209 L3.14802785,10.5683865 L3.49863095,10.5946662 L3.72214054,10.5114477 L3.80102599,10.4019501 L3.92373757,10.3712906 L4.07274364,10.2179936 L4.09027379,10.0646965 L4.02453559,9.93767923 L3.90620741,9.86760065 L3.5161611,9.98585838 L3.1304977,10.1391554 L2.90260569,10.1216357 L2.63965288,10.1741947 L2.49064681,10.095356 L2.18825127,10.0471769 L1.8464135,10.0646965 L1.66672904,10.0252775 L1.53525313,9.93329944 L1.48266266,9.85884058 L1.2021797,9.79752207 L1.2021797,9.6924042 L1.25477065,9.63546548 L1.43445462,9.61794583 L1.53963554,9.53034712 L1.86394365,9.68802441 L2.19263418,9.69678399 L2.2627548,9.73620307 L2.36355331,9.73620307 L2.40299603,9.60480598 L2.51694179,9.50844768 L2.92013584,9.42522925 L2.92013584,9.42522925 Z" id="path2910-0"></path>
                    <path d="M1.72370242,14.173055 L1.87270848,13.9847187 L1.98227232,13.9540592 L2.28466737,13.752583 L2.4555865,13.4985484 L2.51694179,13.3145919 L2.60021015,13.262033 L2.72292123,13.2883127 L3.02531677,13.507308 L3.06914191,13.7876223 L3.01655145,14.0066181 L2.90260569,14.1204961 L2.79742476,14.2168539 L2.70100866,14.4446093 L2.69224334,14.7249241 L2.63527046,14.7950027 L2.33725783,14.8475616 L2.24084173,14.8037622 L2.18825127,14.7249241 L2.18825127,14.624186 L2.03047988,14.5322075 L1.88147381,14.4621289 L1.75437982,14.3482515 L1.72370242,14.173055 L1.72370242,14.173055 Z" id="path2912-9"></path>
                    <path d="M13.8019829,2.97799791 L13.6222985,2.90791933 L13.4995874,2.97799791 L13.2760778,2.96923834 L13.162132,2.83784075 L12.9035621,2.79404139 L12.8159114,2.83784075 L12.7501732,2.76338238 L12.3688922,2.69768359 L12.1147047,2.78528182 L11.7860142,2.62760501 L11.6852161,2.70644317 L11.3039352,2.76338238 L10.9577145,2.68454374 L10.7561175,3.06121635 L10.4361923,3.13567472 L10.2696555,3.26269202 L10.1600922,3.2364128 L10.1469445,3.34591046 L10.0461459,3.38094975 L9.96287759,3.31525096 L9.90590471,3.38094975 L9.7744283,3.37219017 L9.54215387,3.50796754 L9.15649047,3.90215931 L8.90230298,3.97661817 L8.86286025,4.03355689 L8.9066854,4.09049562 L9.02063165,4.11677533 L9.02063165,4.37957001 L9.12581258,4.53286702 L9.13457741,4.75186234 L9.04692663,4.89201999 L9.04254422,5.34315097 L9.11266484,5.50082778 L9.11266484,5.64536473 L9.15210756,5.72858316 L9.11704725,5.80742132 L9.11266484,6.11839514 L9.06007437,6.24103266 L9.06007437,6.41184932 L8.91983313,6.56514634 L8.91106781,6.63084513 L8.98995375,6.72282314 L8.98118892,7.17395412 L8.8760075,7.28345227 L8.8453301,7.39732972 L8.98557134,7.69954397 L8.95927586,7.84408091 L8.92859846,7.89663985 L8.95927586,8.01489758 L8.95927586,8.08497616 L8.90230298,8.15067495 L8.91106781,8.19009403 L8.98557134,8.23389338 L8.95051103,8.34777083 L8.80150447,8.53610714 L8.87162509,8.9609589 L8.76644416,9.04417684 L8.72700143,9.00475777 L8.69632354,9.16681485 L8.80150447,9.2806923 L8.87162509,9.54348697 L8.83218236,9.73182328 L8.71823611,9.82380129 L8.71385369,9.86322086 L8.76206174,9.92015959 L8.74453159,10.2223733 L8.63935066,10.3187316 L8.67441097,10.3975703 L8.56484762,10.5640067 L8.61305518,10.6297055 L8.47281394,10.7567228 L8.25368726,10.997618 L8.139741,11.0633168 L8.05647265,11.058937 L7.98196961,10.9406793 L7.8811711,10.9362995 L7.5919233,11.0414174 L7.42100417,10.997618 L7.43415191,11.1903341 L7.3333534,11.2866924 L7.2719981,11.2779323 L7.20187748,11.3786704 L7.25885036,11.5407275 L7.25008553,11.6765044 L7.3377363,11.7465834 L7.3377363,11.8604609 L7.25885036,12.000618 L7.42538708,12.0093781 L7.59630621,12.1889544 L7.8811711,12.2108538 L8.1704189,12.0487972 L8.30627772,12.0838365 L8.48596168,11.9743388 L8.56046472,12.0225175 L8.58676019,11.8779805 L8.96365877,11.6195656 L9.11266484,11.6327055 L9.44135536,11.3348715 L9.60350917,11.39619 L9.68677753,11.4224698 L9.65610012,11.5451073 L9.57721418,11.5538669 L9.60350917,11.6677448 L9.44573778,11.8823603 L9.44135536,11.9874782 L9.33617443,11.9349193 L9.23537592,11.9349193 L9.16087288,12.0093781 L9.23537592,12.0969763 L9.19593319,12.206474 L9.0995171,12.3510109 L9.08198694,12.5174478 L8.91106781,12.8853604 L8.27121741,13.5554872 L8.2668345,13.660605 L8.11344553,13.8270419 L7.76284243,14.378911 L7.40785692,14.6811247 L7.39032677,14.8388015 L7.3333534,14.9920985 L7.21064231,15.1716748 L7.34650113,15.3030724 L7.67080924,15.013998 L7.81105048,14.9964783 L8.139741,14.6329456 L8.28436466,14.5935265 L8.29312998,14.5146878 L8.47281394,14.5891467 L8.58676019,14.326352 L8.63496824,14.4227098 L8.74453159,14.3657711 L8.8453301,14.2168539 L8.98995375,14.203714 L9.08198694,14.0942164 L9.11266484,13.7438235 L9.23537592,13.6430854 L9.27481864,13.4810288 L9.73936799,12.9992383 L9.67363028,12.8941204 L9.79195845,12.7539633 L9.7744283,12.5262079 L9.79634136,12.4386092 L9.96726,12.3904305 L10.1250319,12.0794567 L10.3047158,11.8648407 L10.3047158,11.7947621 L10.3529239,11.7728627 L10.7692652,11.0633168 L11.1943713,10.761103 L11.6150955,10.6822644 L11.7641016,10.4764084 L12.0971745,10.3187316 L12.2111208,10.3187316 L12.4477781,10.1960941 L12.4916033,10.1041161 L12.5967842,10.1216357 L12.7107304,10.3450113 L12.6143143,10.4369894 L12.6099319,10.5158275 L12.8904144,10.7654828 L12.8991797,11.0545572 L12.8334415,11.1465352 L12.8728842,11.2516531 L12.8816496,11.5626269 L12.7414083,11.7422032 L12.7764686,11.9392995 L12.9210923,12.0181377 L12.9999782,12.2853126 L12.9780652,12.3948103 L13.0832461,12.6795044 L13.113924,12.9817187 L13.1402195,13.0693169 L13.039421,13.2050943 L13.039421,13.3014521 L12.9210923,13.3496312 L12.9868305,13.6387056 L13.0963938,13.6737449 L13.113924,13.8358015 L13.2804607,14.019758 L13.2366351,14.0985962 L13.6354462,14.5146878 L13.7625402,14.5103081 L13.8238955,14.6066663 L13.9159287,14.5935265 L13.9290764,14.4971682 L13.9772845,14.4139503 L13.9071639,14.3482515 L13.9772845,14.0766967 L14.1613514,13.8401813 L14.1219081,13.7920026 L14.2095589,13.6518454 L14.2446192,13.4328496 L14.1175257,13.2007145 L14.0342574,13.2050943 L13.9772845,12.9685788 L13.8808684,12.9291597 L13.8326608,12.8065222 L13.8326608,12.5393473 L13.924694,12.2853126 L14.0649353,12.1758145 L14.2095589,12.0356573 L14.2139418,11.9261597 L14.104378,11.8035222 L14.0123448,11.8035222 L13.9729021,11.602046 L13.9729021,11.3436311 L13.850191,11.1465352 L13.7669226,10.8530811 L13.7669226,10.5508668 L13.850191,10.3406311 L13.8721036,10.2136138 L13.7625402,10.0165179 L13.7888352,9.97709831 L13.7143322,9.78000243 L13.8370433,9.58728633 L13.7669226,9.50844768 L13.6354462,9.03541727 L13.7143322,8.92591961 L13.6792719,8.85146075 L13.7669226,8.67188451 L13.6880367,8.40032977 L13.8238955,8.06307672 L13.7669226,7.82218148 L13.7187146,7.8484607 L13.6705065,7.80466184 L13.7143322,7.69954397 L13.6222985,7.55938681 L13.4995874,7.59880588 L13.4995874,7.54186716 L13.6047683,7.4980678 L13.6354462,7.13453505 L13.7143322,7.19147377 L13.8370433,7.05569689 L13.6617417,6.75786243 L13.7055668,6.59580584 L13.7537749,6.56952613 L13.6880367,6.46878853 L13.8019829,5.68478381 L13.6880367,5.52272721 L13.7143322,5.30811168 L13.8940161,5.16357424 L13.7800704,5.04531652 L13.8238955,5.01903729 L13.876486,4.90953964 L13.7669226,4.72120333 L13.924694,4.37080994 L13.9071639,3.94157888 L14.0123448,3.68316399 L14.0474051,3.38094975 L13.8063654,3.07873599 L13.8019829,2.97799791 L13.8019829,2.97799791 Z M9.85769666,4.18685391 L10.0636761,4.44088901 L10.0987364,4.64674447 L10.0724414,5.08911587 L9.92343486,5.36067062 L9.92343486,5.50520757 L10.0067032,5.55338671 L9.99355548,5.76362245 L10.0724414,5.85998026 L10.5545204,5.75486239 L10.6859968,5.7811421 L10.8350034,5.72858316 L10.9708617,5.61032544 L11.2031366,5.55338671 L11.4441764,5.53586707 L11.6150955,5.37380998 L11.7509539,5.37819026 L11.8561353,5.28183197 L12.0402017,5.26869211 L12.2856238,5.07597602 L12.3908047,5.05845637 L12.4433952,4.90953964 L12.4521605,4.68616404 L12.6406098,4.68616404 L12.6756701,4.54600688 L12.6143143,4.50658731 L12.7896159,4.40146944 L12.7896159,4.27883192 L12.6932003,4.05545633 L12.7720857,3.93281881 L12.7589385,3.8101813 L12.6449922,3.82332115 L12.303154,3.61308541 L12.1716781,3.61308541 L11.8911956,3.46854797 L11.7115111,3.48168783 L11.6545383,3.41160925 L11.5493573,3.39846939 L11.4704714,3.48168783 L11.1812241,3.56052648 L10.8744461,3.56052648 L10.7429697,3.69192357 L10.5895807,3.67878371 L10.5326079,3.77076222 L10.3353937,3.80580151 L10.3090983,3.90215931 L10.1820048,3.92405924 L10.0023203,4.03793668 L10.0023203,4.1605742 L9.91028712,4.11677533 L9.85769666,4.18685391 L9.85769666,4.18685391 Z M9.87960923,6.3855701 L10.1381791,6.22789329 L10.9577145,6.21913322 L11.0146874,6.31549152 L11.0804256,6.23227308 L12.2242685,5.95633855 L12.351362,6.05269684 L12.531046,6.0351772 L12.6362274,5.9388189 L12.7764686,5.96509862 L12.807146,6.07897606 L12.8641194,6.10963557 L12.7589385,6.47316832 L12.579254,6.47754811 L12.4959857,6.55200648 L12.5266636,6.65274456 L12.6099319,6.63522492 L12.732643,6.68778385 L12.811529,6.94619874 L12.7589385,7.05569689 L12.2812414,7.28783206 L12.1848253,7.28783206 L12.0796444,7.41046958 L11.768484,7.39732972 L11.6720684,7.55500653 L11.2732573,7.55938681 L11.2469618,7.5944261 L11.0804256,7.63822496 L11.0585125,7.72582319 L10.883211,7.78714219 L10.7736476,7.78714219 L10.5369903,7.92729935 L10.50193,8.07621658 L10.2696555,8.07621658 L10.168857,8.17695417 L10.2389776,8.2952119 L10.5545204,8.33025119 L10.9358014,8.28645232 L11.133016,8.33901125 L11.2557271,8.34777083 L11.3959683,8.2295131 L11.466089,8.1638148 L11.6370081,8.11125587 L12.1935906,8.17695417 L12.2549464,8.13753509 L12.3688922,8.19009403 L12.6099319,8.18133445 L12.6055495,8.58866607 L12.4916033,8.77700238 L12.048967,9.2806923 L11.9350207,9.2806923 L11.8605177,9.3420113 L11.7728669,9.35515067 L11.5362096,9.58290654 L11.2995523,9.60042619 L11.0935728,9.68802441 L11.0409823,9.77124236 L10.9401843,9.76686257 L10.142562,10.1391554 L10.0286158,10.2880721 L9.90590471,10.2924524 L9.79634136,10.2223733 L9.94534743,10.095356 L9.93219969,9.98585838 L10.0110856,9.90263994 L10.0023203,9.67926434 L9.93219969,9.58290654 L9.93219969,9.35515067 L9.87960923,9.29383215 L9.92343486,8.97847854 L10.0110856,8.88650004 L9.94096501,8.7069238 L10.0067032,8.47478863 L9.81387152,8.25579282 L9.81825393,8.14191488 L9.89713938,8.07621658 L9.92343486,7.93605893 L9.82701876,7.73458326 L9.89713938,7.50244759 L9.90590471,7.28783206 L9.96726,7.22213327 L9.92343486,6.74910285 L9.96726,6.70092371 L9.96287759,6.59580584 L9.87960923,6.3855701 L9.87960923,6.3855701 Z" id="path2914-4"></path>
                    <path d="M6.75047587,12.657605 L6.86442163,12.6970241 L6.9170121,12.8328014 L6.99589804,12.7408234 L7.26761568,12.8415615 L7.3377363,13.0255175 L7.3377363,13.3671508 L7.31582324,13.6430854 L7.42100417,13.8927402 L7.3333534,14.0460372 L7.11860912,14.0022384 L6.92139501,13.8226616 L6.7899186,13.6518454 L6.68473767,13.5773866 L6.64529495,13.4065699 L6.6628251,13.0255175 L6.71103266,12.810902 L6.75047587,12.657605 L6.75047587,12.657605 Z" id="path2916-8"></path>
                    <path d="M16.2912659,12.3159717 L16.3613865,12.4429895 L16.3613865,12.7890026 L16.3044131,12.8547014 L16.3044131,12.9598192 L16.1466417,13.2488931 L16.0896689,13.4416092 L16.1378769,13.4854086 L16.2211448,13.4854086 L16.308796,13.6124259 L16.2956483,13.6912645 L16.2912659,14.3920503 L16.1729372,14.6636051 L16.2386754,14.7731027 L16.0283131,15.0665569 L15.7916562,15.4695092 L15.14304,15.6403254 L14.840645,15.6403254 L14.8187324,15.7279236 L14.735464,15.7454438 L14.6828736,15.6753647 L14.5820751,15.6490855 L14.5820751,15.7629634 L14.4768941,15.7542033 L14.4681288,15.6753647 L14.3235052,15.7060242 L14.2139418,15.6359456 L13.8107478,15.5790069 L13.7493925,15.4519896 L13.6354462,15.3731509 L13.4820572,15.3906706 L13.2191049,15.2067141 L13.0788637,15.1366355 L12.9824481,15.0008581 L12.807146,14.9045003 L12.6274621,14.9176402 L12.4828384,14.6942646 L12.4258651,14.6986444 L11.7641016,14.1248759 L11.7641016,13.9409193 L11.5931825,13.752583 L11.7115111,13.752583 L11.742189,13.5949062 L11.6194779,13.5204479 L11.5449749,13.3671508 L11.5055317,13.1306354 L11.4134985,13.0430372 L11.3696729,12.810902 L11.4266462,12.5524871 L11.5668875,12.3115919 L11.5055317,12.0137579 L11.5362096,11.89988 L11.4354111,11.7860025 L11.5800352,11.663365 L11.5055317,11.4443692 L11.5931825,11.2341335 L11.3696729,11.0107579 L11.1987542,11.4575091 L10.9840095,11.6546049 L10.9577145,12.0400371 L10.7911778,12.359771 L10.729822,12.7714829 L10.7342049,13.170055 L10.9182713,13.5423473 L10.883211,13.5817669 L10.883211,13.7306836 L10.979627,13.8226616 L10.9840095,14.203714 L10.8744461,14.3132122 L10.9445667,14.3920503 L11.0278351,14.3832908 L11.1286336,14.4621289 L11.111103,14.6285658 L11.2425794,14.6986444 L11.2031366,14.9088801 L11.2776397,15.1015962 L11.4573236,15.2461336 L11.4310287,15.473889 L11.4792367,15.526448 L11.514297,15.4870289 L11.6238604,15.5571075 L11.6457729,15.6928843 L11.7246589,15.679745 L12.1672952,16.0476575 L12.2374163,16.069557 L12.2549464,16.1790551 L12.2900067,16.1615355 L12.4039525,16.1965747 L12.3995701,16.2535135 L12.5748716,16.2359938 L12.6932003,16.3980504 L12.9517702,16.4155701 L13.3549637,16.5206879 L13.876486,16.4506094 L14.104378,16.4900289 L14.4155384,16.4593694 L14.4418338,16.5250682 L14.5426323,16.4593694 L14.5470148,16.5601075 L14.989651,16.5951468 L15.0992149,16.4900289 L15.2394561,16.4944087 L15.2263084,16.3849106 L15.3008114,16.314832 L15.5287039,16.3411117 L16.0195482,16.262273 L16.1028166,16.170295 L16.2956483,16.1965747 L16.3745338,16.0870766 L16.9311163,16.0607974 L17.0012374,15.9469194 L17.0801229,15.9688189 L17.049445,15.8680813 L17.0757404,15.7629634 L17.0757404,15.5045485 L17.1853038,15.3249718 L17.1633912,15.228614 L17.1896862,15.0840766 L16.9968545,14.7687229 L16.9661771,14.3832908 L16.869761,14.3307318 L16.7733449,14.0942164 L16.795258,13.8182818 L16.6637816,13.5598669 L16.6550167,13.170055 L16.5892785,12.8897406 L16.6462514,12.605046 L16.5848956,12.3860502 L16.5103926,12.3948103 L16.4797147,12.3334913 L16.5761308,12.3159717 L16.5761308,12.1451555 L16.6243388,12.0356573 L16.4446544,11.89988 L16.4534197,11.6195656 L16.2518227,11.4837883 L16.3832991,12.0356573 L16.2912659,12.3159717 L16.2912659,12.3159717 Z M10.9577145,13.3189717 L11.0409823,13.2269937 L11.0804256,13.3583913 L11.159311,13.3583913 L11.1417809,13.262033 L11.2425794,13.1043562 L11.2820221,13.2007145 L11.2206668,13.2795526 L11.2644919,13.3759109 L11.2031366,13.41533 L11.2601095,13.507308 L11.2206668,13.5773866 L11.2557271,13.6693651 L11.1286336,13.8401813 L11.0804256,13.6036663 L11.1768412,13.5773866 L11.1943713,13.5029282 L11.1812241,13.4591289 L10.9971572,13.5029282 L11.0322175,13.3715306 L10.9577145,13.3189717 L10.9577145,13.3189717 Z" id="path2918-8"></path>
                    <path d="M18.3291467,4.93143907 L18.6753674,4.62922482 L18.9646152,4.74748255 L19.1092389,4.57666589 L19.354661,4.53724681 L19.635144,4.62046525 L19.7490898,4.52848723 L20.0690155,4.57666589 L20.1479009,4.51096759 L20.4108532,4.49782773 L20.5598598,4.62922482 L20.778987,4.51096759 L21.1471202,4.49782773 L21.3750122,4.31387121 L21.7387631,4.30511164 L21.8088837,4.17809384 L21.9447425,4.32701107 L22.4837949,4.31387121 L22.6415663,4.13867476 L23.0973503,4.11677533 L23.3208599,3.9985176 L23.5093092,3.9985176 L23.6758459,3.78828186 L23.8993555,3.90653959 L24.2017505,3.84960038 L24.1666902,3.71382349 L24.5786491,3.2364128 L24.6882125,3.37219017 L24.9555477,3.29335152 L24.9555477,3.16195443 L25.0300507,3.16195443 L25.170292,3.41598904 L25.5910157,3.4904479 L25.6041634,3.61308541 L25.7487876,3.59994556 L25.8583509,3.67002414 L26.0248871,3.70068364 L25.9898268,3.78828186 L26.0687128,3.93281881 L26.2396319,3.98975754 L26.4061681,4.15619441 L26.3974033,4.29197178 L26.2703098,4.52848723 L26.134451,4.53724681 L25.9460017,4.7956617 L25.8583509,4.7956617 L25.6786664,5.10663552 L25.6961966,5.17233431 L25.398184,5.60156586 L25.0957889,5.64536473 L24.8678969,5.86436054 L24.8503668,5.79866174 L24.8021587,5.78990168 L24.7583331,5.87312011 L24.6882125,5.85998026 L24.5786491,5.97385819 L24.6049441,6.08773613 L24.5874139,6.25417251 L24.4603204,6.55200648 L24.5786491,6.84546066 L24.6443873,6.88049995 L24.6049441,6.96371838 L24.7013602,7.19585405 L24.8021587,7.2440327 L24.8810442,7.37981008 L24.8547492,7.4980678 L24.9511648,7.64260475 L25.0431985,7.63822496 L25.2053523,7.83970113 L25.827673,7.77838212 L26.1037731,7.79590177 L26.1738937,7.74334283 L26.1607459,7.65574461 L26.3141349,7.54624695 L26.3141349,7.39732972 L26.664738,7.50682787 L27.1599653,7.33601121 L27.5061859,7.1476749 L27.5500116,7.05131661 L28.0320906,7.05131661 L28.2030097,6.94181895 L28.3520163,6.74034279 L28.7201495,6.70968378 L28.7990355,6.44688861 L28.8779209,6.31111173 L28.7858877,5.80742132 L28.820948,5.67164444 L28.7552098,5.61908551 L28.847243,5.54024686 L28.8866862,5.24241289 L28.77274,5.11101531 L28.6894716,5.08911587 L28.6105862,5.13291474 L28.5667605,5.08911587 L28.6324987,4.84822063 L28.7552098,4.7650022 L28.9129812,4.93581886 L29.0400752,4.93143907 L29.0313099,5.05407658 L29.0839003,5.05407658 L29.3030275,5.29935162 L29.3074099,5.33439091 L29.4257386,5.41760934 L29.4914768,5.63222487 L29.5177718,5.83808082 L29.631718,6.01327727 L29.6054226,6.06583621 L29.885905,6.53886711 L30.0918845,6.60894569 L30.144475,6.53886711 L30.2145956,6.53886711 L30.3241594,6.70092371 L30.346072,6.91991952 L30.4556353,7.03379696 L30.3285418,7.28783206 L30.5608162,7.53310709 L30.6090243,7.71706361 L30.4556353,8.04993687 L30.1839182,8.11563566 L30.0568242,8.19885409 L30.012999,8.46164877 L29.9384955,8.54924699 L29.8815226,8.54486721 L29.7149859,8.64998508 L29.4169733,8.62808515 L29.2329069,8.53610714 L29.2854974,8.39157019 L29.0926657,7.95795885 L28.847243,7.72582319 L28.8384782,7.5944261 L28.7639751,7.62508511 L28.571143,7.52434752 L28.4791098,7.55500653 L28.4703449,7.63384517 L28.3739288,7.59880588 L28.1986273,7.76086248 L28.0627685,7.73458326 L28.010178,7.79590177 L27.7866684,7.76962255 L27.7779036,7.80466184 L27.7121654,7.80904162 L27.6639573,7.78714219 L27.3221191,7.80904162 L27.2651462,7.76086248 L27.1950256,7.76962255 L27.1599653,7.86160056 L26.945221,7.92729935 L26.7655365,8.04993687 L26.6778858,8.01489758 L26.6033827,8.01051779 L26.4982018,8.08497616 L26.4017857,7.99299814 L26.3272827,8.01051779 L26.2045716,8.17695417 L25.7882303,8.15067495 L25.7137268,8.19447381 L25.7224921,8.2952119 L25.9985921,8.4528887 L25.8977936,8.49668806 L25.8495856,8.58866607 L25.8977936,8.68940416 L25.9766796,8.68940416 L26.2615445,9.30259173 L26.3974033,9.32449166 L26.3141349,9.44274889 L26.410551,9.43398931 L26.4631415,9.53034712 L26.4499937,9.6617447 L26.5551747,9.87636023 L26.6472079,9.88950008 L26.6954159,9.84570122 L26.7260938,10.0296572 L26.6778858,10.1610548 L26.6165305,10.2004739 L26.6340606,10.301212 L26.743624,10.1960941 L26.8619526,10.3669108 L26.9627511,10.4194697 L27.0504019,10.4194697 L27.0810793,10.4326096 L27.0810793,10.5070679 L27.1292874,10.4588888 L27.173113,10.4851685 L27.2037909,10.5683865 L27.4667432,10.5640067 L27.2519984,10.9581989 L27.4579779,11.0633168 L27.6069844,11.0720769 L27.6814875,11.0151376 L27.7384604,11.1158757 L27.6376623,11.2823126 L27.6771051,11.3786704 L27.7735207,11.3786704 L27.8918493,11.4575091 L28.0189433,11.7684829 L28.1504192,11.89988 L28.2687479,11.9173996 L28.5579957,12.1363954 L28.6105862,12.3904305 L28.7113847,12.4167097 L28.6850892,12.4648889 L28.5886731,12.4605091 L28.5842907,12.5174478 L28.8823033,12.9379193 L29.1452561,13.1919544 L29.5002416,13.3759109 L29.5791276,13.5861467 L29.8026372,13.6211859 L30.2365086,13.5335877 L30.3241594,13.4328496 L30.5695816,13.4328496 L30.6659972,13.3583913 L30.7142052,13.4416092 L30.7887083,13.4240896 L30.8632118,13.354011 L30.9245671,13.4065699 L31.0341309,13.4021901 L30.9815405,13.8401813 L31.0823385,14.0066181 L31.0735736,14.0942164 L31.1612244,14.1336354 L31.1524591,14.2518932 L31.3934988,14.2606532 L31.3715863,14.3657711 L31.4285592,14.4358497 L31.6257738,14.4533693 L31.7572497,14.5935265 L31.6433039,14.7555831 L31.6783642,15.1147361 L31.2883179,15.0315176 L31.1962847,15.0402777 L31.1217817,15.1278759 L31.108634,15.2811729 L31.003453,15.3643909 L30.8412992,15.3862908 L30.6659972,15.5133081 L30.648467,15.3731509 L30.3898971,15.1716748 L30.2584212,15.1629152 L29.9735558,14.8650812 L29.8026372,14.7731027 L29.736899,14.6285658 L29.6185703,14.6285658 L29.3775306,14.41833 L29.2153768,14.3394914 L29.127726,14.3526313 L29.0751355,14.2737926 L29.127726,14.0985962 L29.0926657,14.0285176 L29.000632,14.0416574 L28.9085988,13.9321598 L28.9173636,13.7876223 L28.847243,13.7657229 L28.8078003,13.8226616 L27.7121654,12.7408234 L27.5675417,12.451749 L27.475508,12.4035699 L27.3834748,12.4429895 L27.2870588,12.2371335 L27.2037909,12.3072121 L26.9364557,11.9217799 L26.8882476,11.5232078 L26.7699189,11.4093299 L26.6954159,11.4268495 L26.4236983,11.0764566 L26.0161223,10.7085441 L25.9635318,10.4676489 L25.7487876,10.4413691 L25.6874318,10.546487 L25.3850367,10.3055918 L25.2579427,10.1741947 L24.990608,10.2355132 L25.0431985,10.3274917 L25.016903,10.5508668 L24.2017505,11.1465352 L24.0308314,11.3523912 L23.9563284,11.356771 L23.6977585,11.8429412 L23.2814172,12.0268978 L23.0579076,12.2415133 L23.0447598,12.359771 L22.9746392,12.4035699 L22.7949553,12.4210895 L22.6897743,12.5393473 L22.7248346,12.657605 L22.5670632,12.6400853 L22.4969426,12.7101639 L22.1638697,12.7233038 L22.0367757,12.9685788 L21.9578902,13.0386574 L21.8088837,12.9860984 L21.5897565,13.1218758 L21.537166,13.2226139 L21.5546962,13.3145919 L21.0945298,13.4854086 L20.9542885,13.4459895 L20.8841679,13.6737449 L20.8973151,13.7438235 L20.805282,13.8401813 L20.673806,13.7920026 L20.5204171,13.9671991 L20.4020884,13.9102598 L20.1610486,14.1161158 L19.9725994,14.1599152 L19.9243913,14.2694128 L19.841123,14.2606532 L19.7447074,14.4752688 L19.4949023,14.4402295 L19.5518757,14.5190681 L19.5255802,14.5716271 L19.0303534,14.1423955 L19.0172057,14.0372776 L18.8769644,13.8839806 L18.8156087,13.5949062 L18.9164072,13.4328496 L18.8857293,13.1569151 L18.898877,12.8897406 L18.9646152,12.8328014 L18.9251725,12.6970241 L19.0084404,12.5962865 L18.8901122,12.3685306 L18.9514675,12.2765526 L18.9120248,11.6546049 L18.9909102,11.5232078 L18.9865278,11.4268495 L18.898877,11.356771 L18.9120248,11.2866924 L19.052266,11.2472733 L19.1442992,11.150915 L19.1574469,11.0238977 L19.078561,10.8881203 L19.0873263,10.8092817 L19.126769,10.7567228 L19.0347358,10.4764084 L19.0566484,10.2048537 L19.1399168,10.0077578 L18.9646152,9.88950008 L18.9909102,9.74934292 L19.0566484,9.69678399 L19.052266,9.49530783 L19.2757756,9.22375357 L19.2231851,9.12739528 L19.3108359,8.65436487 L19.2670103,8.52734756 L19.280158,8.34777083 L19.3196007,8.2952119 L19.2757756,8.21637374 L19.2976882,8.0718363 L19.3415138,7.98423807 L19.3678088,7.70830354 L19.2012726,7.13015526 L19.4203992,6.78852193 L19.4729897,6.5125874 L19.4510771,6.3855701 L19.5474932,6.24103266 L19.5781706,5.89502004 L19.5124329,5.80742132 L19.3897214,5.78552189 L19.3765741,5.69354387 L19.3108359,5.68478381 L18.9164072,5.36067062 L18.7936961,5.36067062 L18.6052468,5.48768792 L18.5570388,5.41760934 L18.5833342,5.25993254 L18.5132136,5.09787545 L18.3291467,4.93143907 L18.3291467,4.93143907 Z M22.7818075,5.03217715 L22.9571091,4.83946106 L22.9045186,4.74748255 L22.9658744,4.68178376 L23.0140824,4.76062241 L23.2770348,4.56352652 L23.3252428,4.6029456 L23.4041283,4.54600688 L23.5093092,4.55038667 L23.5618996,4.52848723 L23.5618996,4.4452688 L23.8204696,4.40146944 L23.8379997,4.32263128 L24.0527445,4.29635157 L24.2236631,4.47154802 L24.0045364,4.76062241 L24.000154,4.87450035 L24.0483616,4.93581886 L24.1403952,4.94895871 L24.1491601,5.03655694 L24.1316299,5.09349566 L24.1623078,5.18109389 L24.1228651,5.25993254 L24.0089188,5.25117247 L23.9431806,5.35191055 L24.0878048,5.57966594 L24.1886028,5.57090636 L24.2587234,5.59718558 L24.2017505,5.72858316 L24.2631063,5.80304153 L24.228046,5.90377961 L24.2674887,6.01765755 L24.2017505,6.09211592 L24.1403952,6.09211592 L24.0176842,6.24979273 L23.7941746,6.08773613 L23.6802283,6.07459628 L23.5268393,5.90377961 L23.5312222,5.80304153 L23.4128936,5.78990168 L23.1543237,5.62784508 L23.0535252,5.42198913 L23.0579076,5.32125105 L23.0053171,5.22927304 L22.7993377,5.17233431 L22.7555125,5.11101531 L22.7818075,5.03217715 L22.7818075,5.03217715 Z M19.7797677,5.78990168 L19.9988948,5.73296295 L20.1391361,5.61032544 L20.1566662,5.55338671 L20.2530818,5.57090636 L20.3100552,5.4964475 L20.2793773,5.36067062 L20.4152361,5.37380998 L20.5335643,5.32125105 L20.5861548,5.36067062 L20.651893,5.36067062 L20.7220136,5.29935162 L20.8403423,5.29935162 L20.9104629,5.22927304 L20.9236106,5.13291474 L21.1558851,5.18547417 L21.309274,5.12853495 L21.6554947,5.10663552 L21.8045013,5.06283616 L21.8483264,5.1460546 L21.9841852,5.1153951 L21.997333,5.21613318 L22.1375742,5.43950878 L22.3917617,5.67164444 L22.4662647,5.67164444 L22.4881773,5.72420338 L22.4443522,5.7504826 L22.5363853,5.93005933 L22.4969426,6.00013791 L22.6284185,5.99575763 L22.6021236,6.07021649 L22.8168678,6.21475344 L22.7204522,6.23227308 L22.8212507,6.40308974 L22.8124854,6.64836477 L22.7379824,6.75786243 L22.5845934,6.85422072 L22.5320029,6.82356122 L22.1068963,7.05131661 L22.045541,7.03817724 L22.0367757,7.12139519 L21.9403601,7.01627732 L21.8264138,7.10387554 L21.537166,7.0863559 L21.4714283,7.16081476 L21.5021057,7.22651306 L21.4538982,7.2440327 L21.4100725,7.32725114 L21.4100725,7.44550887 L21.5634615,7.61194574 L21.66426,7.62508511 L21.7124681,7.60318567 L21.7913535,7.61194574 L21.9535073,7.48492795 L22.0806013,7.37543029 L22.2033124,7.37981008 L22.426822,7.48492795 L22.5933582,7.48492795 L22.8212507,7.47178858 L22.9834045,7.32287135 L23.0403774,7.32725114 L23.0973503,7.41484937 L23.1937664,7.30535171 L23.4873966,7.32725114 L23.5662826,7.44988866 L23.6407856,7.37981008 L23.7634967,7.39732972 L23.7941746,7.50244759 L23.9738585,7.65574461 L24.0308314,7.82656127 L24.1228651,7.90101964 L24.1097173,8.04555708 L23.9431806,8.18133445 L23.8204696,8.20761367 L23.6802283,8.02365715 L23.4873966,8.19447381 L23.3734504,8.22513332 L23.2770348,8.21199346 L22.9746392,8.52734756 L22.7993377,8.60618572 L22.8124854,8.66750472 L22.5758281,8.65436487 L22.3435536,8.76824231 L22.3172582,8.88650004 L22.2515205,8.87336067 L22.1813998,8.93905897 L22.023628,8.98285833 L21.7738234,8.98723812 L21.6204344,9.06169649 L21.5809917,9.14929471 L20.8578724,9.18871428 L20.5116517,9.29821194 L20.5335643,9.57852626 L20.7877518,9.90263994 L20.9148453,9.93767923 L21.0726172,9.76248278 L21.1865629,9.74496314 L21.3837776,9.63984527 L21.4582806,9.56100662 L21.616052,9.59604591 L21.7256153,9.48654825 L21.7387631,9.40332981 L21.7080852,9.32011138 L21.8132661,9.30259173 L21.8614741,9.39018996 L21.9622727,9.41646967 L22.0849837,9.36829052 L22.2383727,9.21937379 L22.3873788,9.16243457 L22.6897743,9.17119464 L22.9351965,9.07045656 L23.1148805,9.0573167 L23.2244443,9.01789762 L23.3252428,9.01789762 L23.4304237,9.08359641 L23.4479539,8.98723812 L23.618873,8.84708096 L24.0352143,8.76824231 L24.1316299,8.79452203 L24.0834219,8.89526011 L24.4471727,8.86460061 L24.5172933,8.74196309 L24.7758632,8.74196309 L24.7670984,8.90401968 L24.9818427,9.1843345 L25.2667081,9.2806923 L25.3762714,9.43398931 L25.3105332,9.49530783 L25.3280633,9.90263994 L25.2491779,9.96833873 L25.1264668,9.95519888 L25.016903,10.0646965 L24.9686949,10.0646965 L24.9686949,9.97709831 L24.8196889,9.75372271 L24.7670984,9.77124236 L24.7408029,9.84570122 L24.8678969,9.99023817 L24.8591316,10.0865965 L24.7758632,10.1172555 L24.7451858,10.1785745 L24.2850189,10.6910245 L24.228046,10.6910245 L23.9913887,10.9450591 L23.9607108,11.0895965 L23.7941746,11.2516531 L23.342773,11.4618888 L23.2200619,11.5801466 L23.0403774,11.5626269 L22.7730427,11.847321 L22.6415663,11.8517013 L22.4355868,12.0093781 L22.2690506,11.9874782 L21.5284012,12.2940722 L21.3574821,12.4648889 L21.1646504,12.4648889 L21.055087,12.3685306 L20.9893488,12.5174478 L20.6694231,12.6795044 L20.4765914,12.6970241 L20.2048738,12.7933824 L20.1216059,12.6225657 L20.0471024,12.5393473 L19.9725994,12.5393473 L19.8016802,12.2721728 L19.7666199,12.1057359 L19.8016802,11.2516531 L19.841123,11.203474 L19.8455059,11.0895965 L19.7534722,10.997618 L19.6439088,10.9538191 L19.7271772,10.8311816 L19.8937139,10.7786227 L19.8718009,10.6691245 L19.9725994,10.4895483 L20.1479009,10.3537709 L20.2048738,10.1829543 L20.1610486,9.86760065 L20.1391361,9.73620307 L19.9243913,9.55662683 L19.7666199,9.29383215 L19.7841501,9.07045656 L19.7227948,8.94781904 L19.7271772,8.77262259 L19.6745867,8.65436487 L19.8060626,8.49668806 L19.7797677,8.0718363 L19.8937139,7.92729935 L19.7534722,7.67326425 L19.7666199,7.57252617 L19.8279757,7.51996724 L19.9725994,6.97247845 L20.1610486,6.78852193 L20.04272,6.58704577 L20.0471024,6.40746953 L19.8718009,6.24979273 L19.8718009,5.96509862 L19.8279757,5.96509862 L19.7447074,5.89502004 L19.7797677,5.78990168 L19.7797677,5.78990168 Z" id="path2920-2"></path>
                    <g id="g3157" transform="translate(33.160717, 0.001637)">
                        <path d="M0.074677447,2.82722664 L0.995010815,2.98052366 L1.20537267,3.16885996 L1.36752697,3.33529684 L1.5033853,3.38785577 L1.55597577,3.72510882 L1.54721093,4.05798207 L1.42888227,4.12806114 L1.54721093,4.28135767 L1.33684908,4.82884694 L1.38943954,5.02156304 L1.26672846,5.12230112 L1.23166815,5.43327494 L1.28425861,5.68731004 L1.18784252,6.00266365 L1.04760128,6.19099996 L0.95556809,6.55015244 L1.03007112,6.59833158 L1.03007112,6.79980774 L0.806561529,7.15458043 L0.486636328,7.08888213 L0.249978994,6.86550654 L0.0965900175,6.35305655 L0.00017441229,6.01142323 L0.074677447,5.45955416 L0.232448839,5.19675949 L0.153563389,5.00842318 L0.276274472,4.52225291 L0.219301101,4.38647554 L0.276274472,4.1762398 L0.276274472,3.97914391 L0.337629768,3.90468555 L0.276274472,3.23017897 L0.074677447,2.82722664 L0.074677447,2.82722664 Z" id="path2922-4"></path>
                        <path d="M3.11616052,1.57895156 L3.42293798,1.43441461 L3.7516285,1.98628368 L4.02334615,2.13082063 L4.26000348,2.10454141 L4.32574119,2.27097779 L4.28629847,2.47683374 L4.13729191,2.5863314 L4.11099692,2.74838848 L4.21617785,2.88416585 L4.14605723,3.09002181 L3.67274305,3.05060224 L3.60700485,2.76152834 L3.3659651,2.5863314 L3.15998566,2.24907835 L3.09424746,1.86802595 L3.11616052,1.57895156 L3.11616052,1.57895156 Z" id="path2924-5"></path>
                        <path d="M2.49383978,4.53101298 L2.76993984,4.53101298 L3.51935408,4.24631838 L3.9093999,4.23317901 L4.14605723,4.09302185 L4.78590812,4.04484271 L5.31619567,4.07112193 L5.53093994,3.98790349 L5.50902737,4.08864157 L5.5484701,4.18937965 L5.37755097,4.30763738 L5.03133029,4.34267667 L4.69825735,4.34267667 L4.51857339,4.41275525 L4.40462713,4.59671177 L4.04525872,4.67117014 L3.9444602,4.67992971 L3.74286367,4.75438857 L3.63768274,4.84636659 L2.96277154,4.8419868 L2.68228857,4.76752794 L2.5332825,4.66241007 L2.49383978,4.53101298 L2.49383978,4.53101298 Z" id="path2926-5"></path>
                        <path d="M6.02178427,5.83622678 L6.85446687,5.73986898 L6.95088297,5.82308692 L6.9289704,5.90630536 L6.97279554,6.35305655 L6.79749399,6.65089052 L6.5433065,6.58081194 L6.40306526,6.56329229 L6.32417981,6.63775115 L6.21023356,6.6552708 L6.19270341,6.74286902 L6.32856223,6.99252384 L6.33732706,7.13706079 L6.0962878,7.57067213 L6.56521956,7.46555426 L6.92458749,7.01004349 L7.20945287,6.81732739 L7.2488956,6.81732739 L7.49870067,6.62461129 L7.49870067,6.49321371 L7.58196854,6.50635357 L7.73535751,6.29611783 L7.85368618,5.85812621 L7.83177361,5.52525296 L7.75288767,5.34567672 L7.634559,5.27559814 L7.48555293,5.1617202 L7.33654637,5.1617202 L7.24013076,5.20113977 L7.17001015,5.17486006 L7.05168148,5.19675949 L6.64848743,5.40699523 L6.22776372,5.52525296 L6.15326068,5.61285118 L6.02178427,5.52087317 L6.45565573,4.69306957 L6.49509894,4.49597369 L6.44689089,4.32077724 L6.20146873,4.03608264 L7.380372,3.75576832 L7.25766092,3.57619208 L7.31901621,3.40537542 L7.20945287,3.25645819 L7.26642575,2.8403665 L7.4110494,2.69582955 L7.79233039,2.62137118 L7.75727008,2.50311345 L8.19552444,2.21403906 L8.31823552,1.93372474 L8.73457682,1.87678553 L9.21665632,1.37309561 L9.49275491,1.0884015 L10.0055123,1.17599973 L10.1895787,1.12782058 L10.3736451,0.812466971 L10.1764314,0.295637197 L9.59355538,0.0240824537 L8.97999899,0.0678818117 L8.86167032,0.203659183 L8.7915497,0.501493149 L8.62939589,0.707349101 L8.57242301,0.921964629 L8.45847676,1.03584257 L8.21743701,1.46069384 L8.21743701,1.61399085 L8.00707516,1.70596936 L8.02898773,1.81984681 L7.69591479,2.08702176 L7.64770674,2.26221821 L7.42419714,2.51187303 L7.05168148,2.76152834 L6.84570204,2.76152834 L6.74490353,2.67393011 L6.70984322,2.26221821 L6.79749399,1.64465035 L6.78872916,1.37309561 L6.97279554,0.733628323 L6.8325543,0.295637197 L6.34609238,0.00218302014 L5.43014143,0.11168117 L5.25483988,0.260597907 L5.47834948,0.602231231 L5.58353041,1.119061 L5.74568422,1.19789916 L5.76759728,1.32929674 L5.68871134,1.62713071 L5.72815406,1.79794737 L5.78950985,1.84174624 L5.78074452,1.99942354 L5.68871134,2.10454141 L5.75006712,2.35857601 L5.74568422,2.74838848 L5.60544298,3.3790957 L5.60106056,3.64627066 L5.68871134,3.7951874 L5.67118118,3.90906533 L5.59667815,3.9528642 L5.80265759,4.05798207 L5.84648273,4.21127909 L5.68871134,4.72810886 L5.70624149,4.95586425 L5.58353041,5.10040169 L5.36002081,5.59533154 L5.34687307,5.68731004 L5.11021623,6.10778152 L5.14527654,6.27421839 L5.14527654,6.46693449 L5.20224942,6.56329229 L5.29866552,6.56329229 L5.29866552,6.69468987 L5.36002081,6.76914824 L5.39946354,6.71658931 L5.41699369,6.59833158 L5.6142083,6.41437555 L5.58353041,6.23041904 L5.64926861,6.1165411 L5.76321437,6.10340173 L5.77197969,6.00266365 L5.90345561,5.93258507 L6.02178427,5.83622678 L6.02178427,5.83622678 Z" id="path2928-1"></path>
                        <path id="path2930-7" d="M8.31385311,3.65867243 L8.44532902,3.55867243 L8.45409435,3.65867243 L8.31385311,3.65867243 L8.31385311,3.65867243 Z"></path>
                        <path id="path2932-1" d="M8.84852258,3.61123137 L9.05450202,3.5061135 L9.24733372,3.5061135 L9.34374786,3.55867243 L9.22542115,3.65065045 L8.99752914,3.65065045 L8.84852258,3.61123137 L8.84852258,3.61123137 Z"></path>
                        <path d="M13.4063653,4.00104335 L13.3318593,3.87402604 L13.3537763,3.71634924 L13.2617406,3.61123137 L13.2617406,3.54991237 L13.1302632,3.42727485 L13.0207028,3.42727485 L12.6481828,3.23017897 L12.1617248,3.2520784 L11.9908056,3.37033613 L10.9083145,3.23455875 L9.55411364,3.53239272 L9.56287847,3.57619208 L10.7067185,3.46231414 L11.7760574,3.5061135 L11.8242689,3.58057187 L11.8242689,3.73386888 L11.9382117,3.76014811 L11.7278509,4.4302749 L10.7593124,5.05222254 L10.8162838,5.15734041 L10.9039321,5.14420055 L11.5262548,5.48145409 L11.5437845,5.52525296 L11.6226729,5.52525296 L11.6533498,5.43327494 L11.7103212,5.49897373 L12.8015722,5.59533154 L13.2222989,5.49897373 L13.5860492,5.49897373 L13.7964101,5.2536987 L14.0637473,5.00842318 L14.1251011,4.92082496 L14.0944242,4.77190822 L13.8796809,4.57043206 L13.8446167,4.49597369 L13.8752985,4.40399518 L13.8314694,4.31639696 L13.7394387,4.32077724 L13.6561679,4.2682183 L13.647403,4.1762398 L13.4063653,4.00104335 L13.4063653,4.00104335 Z" id="path2934-1"></path>
                        <path d="M10.5883933,9.09050195 L10.6190702,9.23065911 L10.3122912,9.54601272 L10.2509374,9.69492994 L10.0537238,9.91392575 L9.91348157,10.1066418 L9.79515143,9.97962454 L9.6812037,10.0278032 L9.64176196,10.3212574 L9.58479055,10.7066901 L9.33936544,10.9300652 L9.22103874,11.1797205 L9.01944171,11.4687949 L8.75648939,11.8104277 L8.73019441,11.9724848 L8.80031502,12.0819824 L7.77041782,12.1301616 L7.49431776,12.1301616 L7.22260061,12.3228777 L7.20507045,12.4936943 L7.29710364,12.6382313 L7.49431776,12.8440872 L7.71782736,12.8440872 L7.7309751,12.7696289 L7.82300829,12.7433492 L7.96324952,12.7521092 L8.03775305,12.8046682 L8.27440989,13.0149039 L8.35329583,13.0630831 L8.60310042,13.0368033 L8.73019441,13.1200218 L8.87043564,13.4178557 L8.86167032,13.5842926 L8.73457682,13.7069301 L8.5023019,13.750729 L8.19552444,13.8164278 L7.82739119,13.8908862 L7.4417273,13.9960045 L7.12618451,14.2281397 L6.88952718,14.6135719 L6.87199702,14.9771046 L6.75805126,15.1260219 L6.61342712,15.1435415 L6.49509894,15.0866028 L6.32417981,15.1435415 L5.92975109,15.4063362 L5.78950985,15.4019564 L5.48273189,15.6603713 L5.3556384,15.6340916 L5.03133029,15.6078123 L4.79905586,15.6603713 L4.34765425,15.7260696 L3.3659651,15.7917684 L3.53688423,15.5683928 L3.80860187,15.4413755 L4.22932559,15.2793189 L4.4265397,15.1041224 L4.47474775,14.9114058 L4.51857339,14.8413273 L4.71140509,14.8106683 L4.96559208,14.8632272 L5.22854441,14.9858647 L5.44767159,14.9376856 L5.58791282,14.8106683 L5.43890675,14.4602749 L5.16280669,14.2675588 L4.70263976,14.3332576 L4.23809042,14.3595373 L4.02334615,14.2850784 L3.97952051,13.9697248 L4.14167481,13.9828647 L4.45283518,13.8602271 L4.47474775,13.7945284 L4.86479357,13.5755325 L4.96997499,13.6018123 L5.24169214,13.4222355 L5.43452385,13.0324235 L5.47834948,12.511214 L5.25483988,12.3403973 L4.99626998,12.357917 L4.92176694,12.449895 L4.66319704,12.4586551 L4.44406986,12.5681527 L4.19426528,12.3009782 L4.19864769,12.1257818 L3.89625265,11.762249 L3.54564906,11.1446812 L3.39664299,11.096502 L3.25201885,10.9475848 L3.21257612,10.8030479 L3.03289216,10.4745544 L2.79185241,10.0891222 L2.6910539,9.9621049 L2.66914133,9.76938831 L2.74802678,9.65551087 L3.05480473,9.67303051 L3.13807309,9.88326625 L3.27393191,10.0672228 L3.59385711,10.3037377 L3.84366218,10.6147116 L3.86119234,10.7110698 L3.9444602,10.8249473 L3.9444602,10.9475848 L3.88310491,11.1665806 L3.89625265,11.4600348 L4.05402404,11.7184497 L4.588694,12.0863622 L4.73331766,12.1257818 L5.18910168,12.0644628 L5.43014143,11.8498473 L5.72377164,11.70093 L5.84648273,11.6045717 L5.88592545,11.4337556 L5.8377179,11.0658425 L5.69747666,10.7110698 L5.14965896,10.4351353 L4.96120967,10.4088556 L4.81220311,10.4395151 L4.69387493,10.5665324 L4.38709698,10.4657948 L4.53172063,10.2993579 L4.60622416,10.1723406 L4.61498899,10.0278032 L5.01818255,9.90954547 L5.43890675,9.69055016 L5.54408768,9.550393 L5.87716062,9.25693882 L5.89907319,9.08174237 L6.02616718,8.44665487 L5.78074452,8.36343643 L5.58353041,8.17072034 L5.55723493,7.99552389 L5.41261128,7.92982509 L5.01818255,7.92982509 L4.47474775,8.03056318 L4.28629847,8.13568105 L3.99705067,8.13568105 L2.41495384,8.72696919 L1.84522356,8.67003047 L1.77072053,8.50797387 L2.00299496,8.25831856 L2.26594728,8.19261977 L3.07233489,8.13130126 L3.29584448,8.17072034 L3.77792398,7.8641263 L3.98390342,7.8641263 L4.13729191,7.98238403 L4.69387493,7.85098694 L4.85164633,7.58819177 L4.99626998,7.50059355 L5.34687307,7.72834893 L6.16202551,7.75462864 L6.416213,7.60571142 L7.380372,7.57505241 L7.49870067,7.70206971 L7.70906253,7.71082929 L8.21743701,7.5137334 L8.71266425,7.58381198 L8.91426078,7.70206971 L9.01944171,7.85974651 L8.94932109,7.92982509 L8.75210698,7.94296495 L8.12102092,8.14444111 L7.75288767,8.13568105 L7.48555293,8.07874232 L7.35845894,8.13130126 L7.20945287,8.13130126 L7.18315739,8.24079892 L7.37598909,8.91968528 L7.59511627,9.27883825 L7.75288767,9.34453704 L7.88436407,9.29197811 L7.87559875,9.43213527 L7.73535751,9.57229243 L7.57758612,9.59419186 L7.48555293,9.7080698 L7.46802278,9.84384717 L7.0911242,10.0672228 L6.86761461,10.3431573 L6.79311157,10.605952 L6.80625931,10.7942883 L6.73613869,10.9563449 L6.79311157,11.2848383 L6.9289704,11.5914324 L7.4110494,11.7053098 L7.59073386,11.70093 L7.84053844,11.8016681 L8.08157819,11.7315895 L8.24373249,11.9243056 L8.36644357,11.9243056 L8.66007379,11.6439913 L8.76087181,11.6308515 L8.97123416,11.4206157 L9.10709249,11.1928603 L9.18597843,10.6015717 L9.26048146,10.0278032 L9.24733372,9.80880788 L9.28239452,9.66427044 L9.35251269,9.60733172 L9.31307094,9.51535371 L9.32621819,9.27007868 L9.47084283,8.70944954 L9.42701867,8.26269835 L9.52343182,8.18823998 L9.88280466,8.33715721 L10.2334078,8.28021799 L10.3648802,8.35029658 L10.4043269,8.45979472 L10.3561154,8.63937096 L10.5182697,8.85836677 L10.5138873,8.94158521 L10.3824099,9.03794301 L10.426239,9.12554124 L10.5883933,9.09050195 L10.5883933,9.09050195 Z M10.1808138,9.06422272 L10.3079088,9.1343013 L10.3122912,9.23065911 L10.1238424,9.35329662 L10.066871,9.27007868 L10.1413721,9.18247996 L10.1808138,9.06422272 L10.1808138,9.06422272 Z" id="path2936-5"></path>
                        <path d="M7.37598909,14.9333058 L7.48555293,14.867607 L7.59073386,14.5653927 L7.75727008,14.4996944 L7.98077968,14.5829124 L8.10349076,14.7318296 L8.69075119,14.72307 L8.87920048,14.8106683 L8.97123416,14.9201659 L9.04135477,14.9333058 L9.13338796,14.8544671 L9.24733372,14.9508254 L9.31307094,14.8895064 L9.31307094,15.0340439 L8.20867218,15.0953624 L7.95010228,15.1041224 L7.54690823,15.0077641 L7.37598909,14.9333058 L7.37598909,14.9333058 Z" id="path2938-2"></path>
                        <path d="M0.442810696,17.8590875 L0.451576019,17.6488517 L0.67946803,17.5875327 L1.16592995,17.5962928 L1.45079484,17.3860566 L1.76195521,17.3860566 L1.96355223,17.6400917 L2.04243817,17.5349738 L2.45877947,17.5349738 L2.3711287,17.8240482 L2.18706183,18.0123845 L2.04243817,18.380297 L1.75319037,18.7306899 L1.45079484,18.7219304 L1.25796314,18.9321661 L1.09580933,18.8620875 L1.12210431,18.2007203 L0.999393231,17.9992446 L0.797796697,17.8766071 L0.442810696,17.8590875 L0.442810696,17.8590875 Z" id="path2940-7"></path>
                        <path d="M8.08157819,17.7101702 L8.19552444,17.4473756 L8.73457682,17.3685369 L9.07203218,17.4824149 L9.29115936,17.2809387 L9.61108505,17.4210959 L9.60232022,17.6313321 L9.07203218,17.9642053 L8.78716729,17.981725 L8.28317521,17.73645 L8.08157819,17.7101702 L8.08157819,17.7101702 Z" id="path2942-6"></path>
                        <path d="M10.2114908,17.4035762 L10.1764314,17.2458994 L10.7593124,17.0531833 L11.0923858,17.0882226 L11.1931814,17.315978 L11.6489674,17.3334976 L11.9338293,17.8152881 L11.8900052,17.9729649 L11.6884091,18.0430435 L11.1581221,18.0430435 L10.7593124,17.6488517 L10.553329,17.6400917 L10.3955571,17.5962928 L10.3867923,17.4824149 L10.2114908,17.4035762 L10.2114908,17.4035762 Z" id="path2944-1"></path>
                        <path d="M4.17235271,17.6488517 L4.18988286,17.4648952 L4.36956682,17.2896988 L4.43092212,17.1495416 L4.78152571,17.1495416 L4.91738453,17.079463 L5.32934292,17.0619434 L5.5177922,17.2634191 L5.48273189,17.8590875 L5.29428261,17.981725 L4.92614936,17.981725 L4.54486837,17.7714892 L4.17235271,17.6488517 L4.17235271,17.6488517 Z" id="path2946-4"></path>
                    </g>
                </g>
                <path d="M1.73735757,35.9400647 L1.73735757,32.6803777 L2.73715753,32.6803777 C2.98301014,32.6803777 3.16330186,32.6967572 3.26164283,32.7458993 C3.42554451,32.7950396 3.54027552,32.9097032 3.63861668,33.0571259 C3.73695765,33.2045486 3.76973791,33.4011133 3.76973791,33.6140576 C3.76973791,33.9089029 3.7041772,34.1546079 3.55666575,34.3347914 C3.40915429,34.5149748 3.14691164,34.6132572 2.76993779,34.6132572 L2.09794121,34.6132572 L2.09794121,35.9400647 L1.73735757,35.9400647 L1.73735757,35.9400647 Z M2.09794121,34.2201295 L2.78632801,34.2201295 C2.99940018,34.2201295 3.16330186,34.1709892 3.26164283,34.0727068 C3.3599838,33.9744245 3.40915429,33.8270018 3.40915429,33.6304371 C3.40915429,33.4993939 3.39276407,33.4011133 3.34359358,33.3028309 C3.2944231,33.2045486 3.22886257,33.1554083 3.16330186,33.1226475 C3.08135093,33.0735054 2.96661992,33.0571259 2.76993779,33.0571259 L2.09794121,33.0571259 L2.09794121,34.2201295 L2.09794121,34.2201295 Z M5.21207259,35.9400647 L5.21207259,32.6803777 L7.14611176,32.6803777 L7.14611176,33.0571259 L5.55626563,33.0571259 L5.55626563,34.0563255 L7.04777079,34.0563255 L7.04777079,34.4494532 L5.55626563,34.4494532 L5.55626563,35.5469371 L7.19528224,35.5469371 L7.19528224,35.9400647 L5.21207259,35.9400647 L5.21207259,35.9400647 Z M8.62122651,34.3511727 C8.62122651,33.794241 8.75234775,33.3683525 8.99820018,33.0735054 C9.24405279,32.7786601 9.53907588,32.6148561 9.91604955,32.6148561 C10.1455118,32.6148561 10.3585837,32.6967572 10.5552657,32.8278004 C10.7519478,32.9588435 10.8994593,33.1554083 11.0141906,33.4011133 C11.1289215,33.6631978 11.178092,33.958045 11.178092,34.3020306 C11.178092,34.7934424 11.079751,35.1865701 10.8502888,35.4977968 C10.6208266,35.8254029 10.2930234,35.9892068 9.89965933,35.9892068 C9.50629526,35.9892068 9.1948823,35.8254029 8.94902969,35.4814155 C8.73595735,35.1701888 8.62122651,34.7934424 8.62122651,34.3511727 L8.62122651,34.3511727 Z M8.99820018,34.3511727 C8.99820018,34.7606817 9.08015093,35.0719083 9.26044265,35.2848507 C9.44073491,35.5141763 9.65380672,35.6288381 9.89965933,35.6288381 C10.1619016,35.6288381 10.374974,35.5141763 10.5552657,35.2848507 C10.7355574,35.0719083 10.8175087,34.7279209 10.8175087,34.3020306 C10.8175087,34.0235647 10.768338,33.7778597 10.6863869,33.548536 C10.6208266,33.384732 10.5060952,33.2536906 10.374974,33.139027 C10.2274625,33.0407446 10.079951,32.9916043 9.91604955,32.9916043 C9.63741632,32.9916043 9.42434451,33.1062662 9.26044265,33.3192104 C9.08015093,33.548536 8.99820018,33.8925234 8.99820018,34.3511727 L8.99820018,34.3511727 Z M12.6695971,35.9400647 L12.6695971,32.6803777 L13.6857871,32.6803777 C13.9152493,32.6803777 14.0955414,32.6967572 14.2102722,32.7458993 C14.3577839,32.7950396 14.4889049,32.9097032 14.5708562,33.0571259 C14.6691972,33.2045486 14.7183677,33.4011133 14.7183677,33.6140576 C14.7183677,33.9089029 14.6364166,34.1546079 14.4889049,34.3347914 C14.3413935,34.5149748 14.0791512,34.6132572 13.7021773,34.6132572 L13.0301806,34.6132572 L13.0301806,35.9400647 L12.6695971,35.9400647 L12.6695971,35.9400647 Z M13.0301806,34.2201295 L13.7185677,34.2201295 C13.9316395,34.2201295 14.0955414,34.1709892 14.1938824,34.0727068 C14.2922235,33.9744245 14.3413935,33.8270018 14.3413935,33.6304371 C14.3413935,33.4993939 14.3250036,33.4011133 14.2758331,33.3028309 C14.2266626,33.2045486 14.1611017,33.1554083 14.0955414,33.1226475 C14.0135903,33.0735054 13.8988594,33.0571259 13.7021773,33.0571259 L13.0301806,33.0571259 L13.0301806,34.2201295 L13.0301806,34.2201295 Z M16.1115313,35.9400647 L16.1115313,32.6803777 L16.4721153,32.6803777 L16.4721153,35.5469371 L17.7833282,35.5469371 L17.7833282,35.9400647 L16.1115313,35.9400647 L16.1115313,35.9400647 Z M19.1273215,35.9400647 L19.1273215,32.6803777 L21.0449712,32.6803777 L21.0449712,33.0571259 L19.4715153,33.0571259 L19.4715153,34.0563255 L20.9466299,34.0563255 L20.9466299,34.4494532 L19.4715153,34.4494532 L19.4715153,35.5469371 L21.1105321,35.5469371 L21.1105321,35.9400647 L19.1273215,35.9400647 L19.1273215,35.9400647 Z M24.749147,35.9400647 L24.749147,32.6803777 L26.552066,32.6803777 L26.552066,33.0571259 L25.0933407,33.0571259 L25.0933407,34.0727068 L26.3553833,34.0727068 L26.3553833,34.4494532 L25.0933407,34.4494532 L25.0933407,35.9400647 L24.749147,35.9400647 L24.749147,35.9400647 Z M28.1091308,35.9400647 L28.1091308,32.6803777 L28.4533245,32.6803777 L28.4533245,35.9400647 L28.1091308,35.9400647 L28.1091308,35.9400647 Z M30.1087325,35.9400647 L30.1087325,32.6803777 L31.288823,32.6803777 C31.5510666,32.6803777 31.7313581,32.7131385 31.8460888,32.7786601 C31.9608194,32.8278004 32.0591608,32.9260827 32.1411128,33.0735054 C32.2066719,33.2209281 32.2394523,33.384732 32.2394523,33.5649155 C32.2394523,33.8106205 32.1902825,34.0071853 32.0591608,34.1709892 C31.928039,34.3184119 31.7477475,34.4166942 31.501895,34.4494532 C31.6002364,34.5149748 31.6657972,34.5804964 31.714967,34.6296385 C31.8296995,34.7606817 31.928039,34.891723 31.9935999,35.055527 L32.4689154,35.9400647 L32.0263803,35.9400647 L31.6657972,35.2520917 C31.5346755,34.9900054 31.4199448,34.8098219 31.3543839,34.7279209 C31.288823,34.6296385 31.2232621,34.5641169 31.1577031,34.5313561 C31.0921422,34.4985953 30.9938008,34.4985953 30.8790684,34.4985953 L30.4693155,34.4985953 L30.4693155,35.9400647 L30.1087325,35.9400647 L30.1087325,35.9400647 Z M30.4693155,34.1218471 L31.2232621,34.1218471 C31.3871644,34.1218471 31.5182861,34.0890863 31.6002364,34.0563255 C31.6821866,34.0235647 31.7641386,33.958045 31.8133083,33.8761421 C31.8624799,33.7778597 31.8788692,33.6795791 31.8788692,33.5649155 C31.8788692,33.4011133 31.8296995,33.2700701 31.7313581,33.1881691 C31.6494061,33.0898867 31.501895,33.0407446 31.3052142,33.0407446 L30.4693155,33.0407446 L30.4693155,34.1218471 L30.4693155,34.1218471 Z M33.730958,34.891723 L34.0587606,34.8589622 C34.0751518,35.0391457 34.1243215,35.1701888 34.1734913,35.2684712 C34.2390522,35.3667536 34.3373935,35.4486547 34.4521242,35.5141763 C34.5668566,35.5796978 34.6979766,35.6124586 34.8454895,35.6124586 C35.0585615,35.6124586 35.2224619,35.5469371 35.3371944,35.4486547 C35.451925,35.3503723 35.5174859,35.2193309 35.5174859,35.055527 C35.5174859,34.9572446 35.4847055,34.8753435 35.451925,34.7934424 C35.4027552,34.7279209 35.3371944,34.6623993 35.2552424,34.6296385 C35.1732921,34.5804964 34.9930006,34.5149748 34.6979766,34.4330737 C34.4521242,34.3511727 34.2718326,34.2856511 34.1734913,34.20375 C34.0587606,34.1218471 33.9768104,34.039946 33.9112496,33.9089029 C33.8620798,33.794241 33.8292993,33.6631978 33.8292993,33.5157752 C33.8292993,33.2536906 33.9112496,33.0407446 34.0751518,32.8769424 C34.2554433,32.7131385 34.4849046,32.6312374 34.7799286,32.6312374 C34.9766095,32.6312374 35.1405117,32.6639982 35.2880228,32.7458993 C35.4355339,32.8278004 35.5502663,32.9260827 35.6486077,33.0735054 C35.7305579,33.2209281 35.7633383,33.4011133 35.7797277,33.5976763 L35.4355339,33.6304371 C35.4191446,33.4174928 35.3535837,33.2536906 35.238853,33.1554083 C35.1405117,33.0571259 34.9766095,33.0079838 34.7799286,33.0079838 C34.583246,33.0079838 34.4357349,33.0571259 34.3210042,33.139027 C34.2226629,33.2209281 34.1734913,33.3519712 34.1734913,33.4830144 C34.1734913,33.6140576 34.2062717,33.7123399 34.2882238,33.794241 C34.3537846,33.8597626 34.5340762,33.9416637 34.7963179,34.0071853 C35.0749508,34.0890863 35.2552424,34.1546079 35.3535837,34.20375 C35.5174859,34.2856511 35.6486077,34.4003129 35.7305579,34.5313561 C35.8125081,34.6623993 35.8452885,34.8262014 35.8452885,35.0227662 C35.8452885,35.2029496 35.8125081,35.3667536 35.7141686,35.5305576 C35.6322166,35.6779802 35.5174859,35.7926421 35.3699748,35.8745432 C35.2224619,35.956446 35.025781,35.9892068 34.8290984,35.9892068 C34.4849046,35.9892068 34.2226629,35.8909245 34.0259802,35.6943597 C33.8292993,35.4977968 33.730958,35.2357104 33.730958,34.891723 L33.730958,34.891723 Z M37.9924013,35.9400647 L37.9924013,33.0571259 L37.1073311,33.0571259 L37.1073311,32.6803777 L39.2380528,32.6803777 L39.2380528,33.0571259 L38.3529844,33.0571259 L38.3529844,35.9400647 L37.9924013,35.9400647 L37.9924013,35.9400647 Z M42.6472064,35.9400647 L42.6472064,32.6803777 L43.6470072,32.6803777 C43.8764703,32.6803777 44.0567618,32.6967572 44.1714925,32.7458993 C44.3190036,32.7950396 44.4501254,32.9097032 44.5320756,33.0571259 C44.6304169,33.2045486 44.6795867,33.4011133 44.6795867,33.6140576 C44.6795867,33.9089029 44.5976365,34.1546079 44.4501254,34.3347914 C44.3026143,34.5149748 44.0403707,34.6132572 43.6797876,34.6132572 L42.9914001,34.6132572 L42.9914001,35.9400647 L42.6472064,35.9400647 L42.6472064,35.9400647 Z M42.9914001,34.2201295 L43.6797876,34.2201295 C43.909249,34.2201295 44.0567618,34.1709892 44.1551014,34.0727068 C44.2698338,33.9744245 44.3190036,33.8270018 44.3190036,33.6304371 C44.3190036,33.4993939 44.2862232,33.4011133 44.2370534,33.3028309 C44.1878818,33.2045486 44.1223227,33.1554083 44.0567618,33.1226475 C43.991201,33.0735054 43.8600792,33.0571259 43.6797876,33.0571259 L42.9914001,33.0571259 L42.9914001,34.2201295 L42.9914001,34.2201295 Z M45.5974373,35.9400647 L46.6300168,32.6803777 L47.006991,32.6803777 L48.1051314,35.9400647 L47.6953767,35.9400647 L47.3839652,34.9572446 L46.2694337,34.9572446 L45.9744097,35.9400647 L45.5974373,35.9400647 L45.5974373,35.9400647 Z M46.3677732,34.5968777 L47.2856239,34.5968777 L47.006991,33.6959586 C46.9086497,33.4174928 46.8594799,33.1881691 46.8103083,33.0243651 C46.7775279,33.2373094 46.7283581,33.4338741 46.6627972,33.6468183 L46.3677732,34.5968777 L46.3677732,34.5968777 Z M49.2196647,35.9400647 L49.2196647,32.6803777 L50.3997516,32.6803777 C50.6456041,32.6803777 50.8258974,32.7131385 50.957021,32.7786601 C51.0717499,32.8278004 51.1700948,32.9260827 51.2356539,33.0735054 C51.3176041,33.2209281 51.3503827,33.384732 51.3503827,33.5649155 C51.3503827,33.8106205 51.2848236,34.0071853 51.1700948,34.1709892 C51.0389712,34.3184119 50.8422885,34.4166942 50.5964361,34.4494532 C50.6947792,34.5149748 50.7767295,34.5804964 50.8258974,34.6296385 C50.9406317,34.7606817 51.0225819,34.891723 51.1045303,35.055527 L51.5798458,35.9400647 L51.1373107,35.9400647 L50.7767295,35.2520917 C50.6292148,34.9900054 50.5308752,34.8098219 50.4653161,34.7279209 C50.3833623,34.6296385 50.3178032,34.5641169 50.2522442,34.5313561 C50.1866851,34.4985953 50.1047295,34.4985953 49.9736113,34.4985953 L49.5638548,34.4985953 L49.5638548,35.9400647 L49.2196647,35.9400647 L49.2196647,35.9400647 Z M49.5638548,34.1218471 L50.3341926,34.1218471 C50.4980966,34.1218471 50.6292148,34.0890863 50.7111686,34.0563255 C50.7931188,34.0235647 50.8586779,33.958045 50.9078476,33.8761421 C50.957021,33.7778597 50.9898014,33.6795791 50.9898014,33.5649155 C50.9898014,33.4011133 50.9406317,33.2700701 50.8422885,33.1881691 C50.743949,33.0898867 50.6128254,33.0407446 50.4161464,33.0407446 L49.5638548,33.0407446 L49.5638548,34.1218471 L49.5638548,34.1218471 Z M53.5794457,35.9400647 L53.5794457,33.0571259 L52.6943791,33.0571259 L52.6943791,32.6803777 L54.8087079,32.6803777 L54.8087079,33.0571259 L53.9236431,33.0571259 L53.9236431,35.9400647 L53.5794457,35.9400647 L53.5794457,35.9400647 Z M56.8246989,35.9400647 L56.8246989,34.5641169 L55.8085087,32.6803777 L56.2346545,32.6803777 L56.7591398,33.6631978 C56.8574775,33.8597626 56.9558224,34.039946 57.0377708,34.2201295 C57.1033299,34.039946 57.2016749,33.8433813 57.3164037,33.6304371 L57.840889,32.6803777 L58.2506437,32.6803777 L57.1852855,34.5641169 L57.1852855,35.9400647 L56.8246989,35.9400647 L56.8246989,35.9400647 Z" id="76135552" fill="#FFFFFF" sketch:type="MSShapeGroup"></path>
            </g>
        </g>
    </g>
</svg>