<?xml version="1.0" encoding="UTF-8" standalone="no"?>
<svg width="150px" height="64px" viewBox="0 0 150 64" version="1.1" xmlns="http://www.w3.org/2000/svg" xmlns:xlink="http://www.w3.org/1999/xlink" xmlns:sketch="http://www.bohemiancoding.com/sketch/ns">
    <!-- Generator: Sketch 3.2.2 (9983) - http://www.bohemiancoding.com/sketch -->
    <title>alias-selected</title>
    <desc>Created with Sketch.</desc>
    <defs></defs>
    <g id="Page-1" stroke="none" stroke-width="1" fill="none" fill-rule="evenodd" sketch:type="MSPage">
        <g id="alias-selected" sketch:type="MSArtboardGroup">
            <g id="聲援牆-+-公民" sketch:type="MSLayerGroup" transform="translate(67.000000, 3.000000)" fill="#6C2628">
                <path d="M12.6105974,4.652 L6.2265974,4.652 C4.7145974,4.652 3.5385974,4.596 2.6985974,4.456 L2.6985974,7.816 C3.5945974,7.704 4.8265974,7.648 6.2265974,7.648 L22.4945974,7.648 C23.9505974,7.648 25.1825974,7.704 26.1065974,7.816 L26.1065974,4.456 C25.2385974,4.596 24.0065974,4.652 22.4945974,4.652 L15.7465974,4.652 L15.7465974,2.748 C15.7465974,1.964 15.8025974,1.264 15.9425974,0.592 L12.4145974,0.592 C12.5545974,1.376 12.6105974,1.964 12.6105974,2.776 L12.6105974,4.652 Z M5.3305974,21.872 C3.8185974,21.872 2.6705974,21.816 1.6905974,21.704 L1.6905974,25.064 C2.6145974,24.924 3.8465974,24.868 5.3305974,24.868 L23.5865974,24.868 C25.0705974,24.868 26.1625974,24.924 27.1425974,25.064 L27.1425974,21.704 C26.1905974,21.816 25.0145974,21.872 23.5865974,21.872 L18.5465974,21.872 C19.6385974,19.492 21.1225974,15.544 22.1305974,12.184 C22.7465974,10.252 22.7745974,10.084 23.0825974,9.496 L19.4705974,8.46 C19.1345974,11.372 16.9785974,18.316 15.2705974,21.872 L5.3305974,21.872 Z M5.9745974,9.776 C7.3185974,13.108 8.3265974,16.748 9.0545974,20.724 L12.1905974,19.604 C10.9025974,14.312 10.2305974,12.072 8.9985974,8.712 L5.9745974,9.776 Z M54.3585974,24.168 C51.7545974,23.104 49.8505974,22.432 46.4625974,21.424 C47.7225974,20.22 48.5065974,19.212 49.2905974,17.784 L51.7545974,17.784 C52.9865974,17.784 53.9665974,17.84 54.8065974,17.952 L54.8065974,15.04 C54.1345974,15.152 53.4905974,15.208 52.4825974,15.208 L41.7305974,15.208 C42.4025974,14.228 42.5985974,13.976 42.8785974,13.612 L43.8305974,13.612 C43.7185974,12.996 43.6905974,12.52 43.6905974,11.568 L43.6905974,10.784 C43.6905974,10.224 43.6905974,10.056 43.6345974,9.608 C45.0905974,10.896 45.9585974,11.484 48.0025974,12.548 C50.0185974,13.612 51.6145974,14.2 54.0225974,14.816 C54.4705974,13.64 54.8345974,12.968 55.5065974,12.072 C53.8825974,11.82 51.6705974,11.232 50.1025974,10.616 C48.8145974,10.14 47.3025974,9.328 46.3225974,8.628 L51.4745974,8.628 C52.9305974,8.628 53.8265974,8.684 54.7505974,8.796 L54.7505974,5.884 C53.8825974,5.996 52.8185974,6.052 51.4185974,6.052 L43.7185974,6.052 L43.7185974,4.064 C48.7585974,3.616 49.0665974,3.588 51.1665974,3.308 C52.2025974,3.14 52.2025974,3.14 52.7065974,3.084 L50.6905974,0.368 C47.4145974,1.264 40.6385974,1.908 34.4225974,1.908 L31.6785974,1.88 C32.2105974,2.804 32.4065974,3.224 32.8265974,4.456 C37.1385974,4.456 38.3425974,4.428 40.7505974,4.288 L40.7505974,6.052 L33.4705974,6.052 C32.1545974,6.052 30.9785974,5.996 30.0545974,5.884 L30.0545974,8.796 C30.9225974,8.684 31.9865974,8.628 33.4145974,8.628 L38.3705974,8.628 C36.0745974,10.252 32.9945974,11.484 29.4665974,12.268 C30.1385974,13.08 30.6425974,13.92 31.0065974,14.872 C35.5705974,13.444 38.6225974,11.82 40.8065974,9.664 C40.7785974,10.084 40.7505974,10.392 40.7505974,10.84 L40.7505974,11.596 C40.7505974,12.436 40.7505974,12.716 40.6665974,13.248 L39.5185974,13.108 C39.3225974,13.696 39.0425974,14.172 38.3425974,15.208 L32.3785974,15.208 C31.3705974,15.208 30.6985974,15.152 30.0545974,15.04 L30.0545974,17.952 C30.9225974,17.84 31.9025974,17.784 33.1345974,17.784 L36.3825974,17.784 C35.2065974,19.24 34.8705974,19.604 33.6385974,20.78 C36.3265974,21.284 37.5025974,21.564 39.7985974,22.124 C37.3065974,22.964 33.7785974,23.496 30.8945974,23.496 L30.1385974,23.496 C30.8665974,24.616 31.1745974,25.26 31.5385974,26.352 C37.1665974,25.848 40.9185974,24.924 43.8585974,23.272 C46.9105974,24.224 48.7865974,24.952 52.1465974,26.436 L54.3585974,24.168 Z M45.8185974,17.784 C45.2865974,18.736 44.4465974,19.604 43.1585974,20.528 C39.6025974,19.66 39.6025974,19.66 38.4265974,19.408 C39.0985974,18.68 39.3225974,18.428 39.8545974,17.784 L45.8185974,17.784 Z" id="立委" sketch:type="MSShapeGroup"></path>
                <path d="M13.86,44.256 C14.784,46.524 15.876,48.428 17.164,50.024 C19.152,52.46 21.7,54.308 25.508,55.96 C25.956,54.84 26.46,54.028 27.356,52.936 C24.78,52.068 23.212,51.256 21.224,49.772 C22.512,48.764 23.716,47.672 24.528,46.86 C24.976,46.412 24.976,46.412 25.172,46.216 L22.372,44.48 C21.7,45.404 20.524,46.608 19.096,47.7 C18.06,46.44 17.444,45.46 16.912,44.256 L23.436,44.256 C24.696,44.256 25.704,44.312 26.656,44.424 L26.656,41.4 C25.9,41.54 25.032,41.568 23.436,41.568 L15.344,41.568 L15.344,39.776 L21.252,39.776 C22.876,39.776 23.548,39.804 24.36,39.888 L24.36,37.088 C23.604,37.172 22.932,37.2 21.252,37.2 L15.344,37.2 L15.344,35.492 L22.568,35.492 C24.08,35.492 24.948,35.52 25.704,35.632 L25.704,32.692 C24.864,32.804 23.912,32.86 22.372,32.86 L15.344,32.86 C15.344,31.6 15.372,31.152 15.512,30.452 L12.068,30.452 C12.208,31.124 12.236,31.656 12.236,32.86 L5.656,32.86 C4.228,32.86 3.22,32.804 2.38,32.692 L2.38,35.632 C3.136,35.52 3.976,35.492 5.516,35.492 L12.236,35.492 L12.236,37.2 L6.776,37.2 C5.152,37.2 4.48,37.172 3.696,37.088 L3.696,39.888 C4.508,39.804 5.18,39.776 6.776,39.776 L12.236,39.776 L12.236,41.568 L4.564,41.568 C2.912,41.568 2.156,41.54 1.316,41.4 L1.316,44.424 C2.268,44.312 3.304,44.256 4.592,44.256 L9.884,44.256 C7.532,46.356 4.592,47.868 0.868,48.876 C1.68,49.94 2.1,50.668 2.604,51.872 C5.236,50.78 6.692,50.052 8.568,48.792 L8.568,52.628 C6.804,52.852 5.824,52.936 4.704,52.964 L5.376,56.24 C5.628,56.184 6.16,56.072 6.72,55.96 C7.364,55.876 7.364,55.876 8.036,55.764 C9.576,55.512 9.688,55.484 11.592,55.12 C14.7,54.476 15.344,54.336 17.444,53.748 L17.444,50.808 C14.98,51.452 13.804,51.732 11.648,52.124 L11.648,46.356 C12.768,45.32 13.02,45.068 13.692,44.256 L13.86,44.256 Z M31.332,34.176 L30.632,34.176 C30.128,34.176 29.764,34.148 29.344,34.12 L29.624,36.836 C30.464,36.724 31.024,36.668 31.556,36.64 C35.812,36.36 37.296,36.22 40.04,35.884 C40.236,36.248 40.404,36.5 40.712,37.088 L42.98,35.884 L42.98,36.864 C42.98,37.956 43.372,38.544 44.324,38.908 C44.996,39.16 46.144,39.244 48.58,39.244 C51.492,39.244 52.724,39.076 53.396,38.572 C54.152,38.04 54.404,37.228 54.6,35.128 C53.396,34.904 53.088,34.82 51.94,34.344 C51.884,35.8 51.8,36.248 51.52,36.528 C51.268,36.808 50.54,36.92 49.028,36.92 C46.172,36.92 45.808,36.836 45.808,36.08 L45.808,35.38 C47.74,35.016 48.72,34.792 50.4,34.344 C51.072,34.148 53.76,33.308 54.264,33.112 L52.08,30.872 C51.296,31.376 51.072,31.46 49.784,31.964 C48.328,32.496 47.6,32.692 45.808,33.056 L45.808,32.552 C45.808,31.572 45.836,31.124 45.948,30.48 L42.84,30.48 C42.952,31.124 42.98,31.684 42.98,32.692 L42.98,35.744 C41.692,33.784 40.74,32.524 39.48,31.124 L37.352,32.16 C38.024,32.972 38.248,33.252 38.668,33.812 C36.596,34.008 36.596,34.008 34.608,34.092 C35.28,33.084 35.28,33.084 36.68,30.704 L33.656,30.172 C33.236,31.488 32.648,32.636 31.612,34.176 L31.332,34.176 Z M33.572,45.124 L38.556,45.124 L38.556,45.6 C38.556,46.16 38.444,46.216 37.492,46.216 C37.016,46.216 36.288,46.16 35.56,46.076 C35.896,46.888 36.092,47.588 36.148,48.316 C36.708,48.344 37.016,48.344 37.212,48.344 C38.5,48.344 39.48,48.204 40.04,47.952 C40.908,47.532 41.216,47 41.216,45.768 L41.216,39.804 C41.216,38.432 41.244,37.732 41.328,37.172 C40.544,37.256 39.9,37.284 38.836,37.284 L33.012,37.284 C32.144,37.284 31.584,37.256 30.8,37.172 C30.856,37.844 30.884,38.348 30.884,39.412 L30.884,45.684 C30.884,47.028 30.856,47.756 30.744,48.624 L33.684,48.624 C33.6,47.952 33.572,47.42 33.572,46.188 L33.572,45.124 Z M33.572,43.248 L33.572,42.268 L38.556,42.268 L38.556,43.248 L33.572,43.248 Z M33.572,40.392 L33.572,39.468 L38.556,39.468 L38.556,40.392 L33.572,40.392 Z M42.784,39.776 C42.896,40.392 42.924,40.98 42.924,41.988 L42.924,45.992 C42.924,47.924 43.932,48.372 48.104,48.372 C51.296,48.372 52.752,48.176 53.452,47.644 C54.236,47.084 54.46,46.356 54.656,44.144 C53.424,43.92 53.032,43.836 51.968,43.388 C51.884,44.9 51.772,45.432 51.464,45.656 C51.128,45.88 50.652,45.936 48.384,45.936 C46.172,45.936 45.752,45.796 45.752,45.096 L45.752,44.172 C48.664,43.668 50.96,43.136 52.668,42.548 C53.396,42.296 53.424,42.296 53.872,42.184 L51.856,39.944 C50.708,40.728 48.356,41.484 45.752,41.904 C45.752,40.812 45.78,40.448 45.892,39.776 L42.784,39.776 Z M31.696,55.848 C33.18,53.804 33.768,52.656 34.58,50.164 L32.06,49.1 C31.276,51.34 30.688,52.32 29.12,54.112 L31.696,55.848 Z M35.756,48.904 C35.868,49.548 35.896,50.08 35.896,50.864 L35.896,53.748 C35.896,55.68 36.68,55.988 41.552,55.988 C45.752,55.988 47.012,55.876 47.768,55.456 C48.664,54.924 49.056,53.86 49.224,51.396 C48.076,51.228 47.376,51.004 46.34,50.528 C46.312,51.872 46.2,52.544 45.976,52.88 C45.668,53.3 44.772,53.412 41.888,53.412 C39.228,53.412 38.78,53.3 38.78,52.712 L38.78,50.528 C38.78,49.828 38.808,49.492 38.92,48.904 L35.756,48.904 Z M54.796,54.084 C53.76,52.18 52.752,50.724 51.156,48.848 L48.748,50.024 C50.064,51.62 51.072,53.3 52.136,55.652 L54.796,54.084 Z M45.22,50.78 C44.184,49.604 43.54,48.988 42.14,47.868 L40.124,49.296 C41.384,50.36 42.056,51.088 43.12,52.432 L45.22,50.78 Z M82.488,32.16 C81.648,32.272 80.892,32.328 79.548,32.328 L75.376,32.328 C75.376,31.488 75.432,30.956 75.544,30.34 L72.324,30.34 C72.436,30.956 72.464,31.404 72.492,32.328 L69.076,32.328 C67.676,32.328 67.004,32.3 66.136,32.16 L66.136,34.96 C66.78,34.876 67.116,34.876 68.236,34.848 C67.732,36.724 66.976,37.956 65.716,39.02 C66.304,39.356 66.864,39.832 67.312,40.504 C66.556,40.476 66.276,40.448 65.688,40.364 L65.688,43.248 C66.444,43.136 67.088,43.108 68.236,43.108 L79.884,43.108 C81.48,43.108 82.208,43.136 82.992,43.248 L82.992,40.364 C82.404,40.448 82.04,40.476 81.256,40.504 C81.508,39.944 82.04,39.16 82.572,38.544 C81.368,37.816 80.416,37.06 79.8,36.248 C79.94,35.828 79.968,35.744 80.22,34.848 C81.116,34.848 81.816,34.904 82.488,34.988 L82.488,32.16 Z M80.5,40.504 L77.336,40.504 C77.924,39.776 78.288,39.3 78.82,38.348 C79.576,39.328 80.304,40.056 80.948,40.504 L80.5,40.504 Z M75.376,40.504 L75.376,34.848 L77.728,34.848 C77.196,36.612 76.608,37.648 75.432,38.908 C76.076,39.328 76.776,40.028 77.056,40.504 L75.376,40.504 Z M72.492,34.848 L72.492,40.504 L67.732,40.504 C68.404,39.86 68.74,39.412 69.3,38.46 C69.832,39.188 70.28,39.692 71.008,40.336 C71.484,39.384 71.988,38.656 72.464,38.236 C71.512,37.648 70.98,37.144 70.308,36.248 C70.504,35.688 70.56,35.464 70.728,34.848 L72.492,34.848 Z M62.272,37.144 L60.536,37.144 L60.536,33.56 C60.536,32.412 60.564,31.88 60.648,31.376 L57.68,31.376 C57.792,31.936 57.82,32.692 57.82,33.812 L57.82,38.012 C57.82,38.656 57.792,39.244 57.736,39.832 C58.464,39.776 58.856,39.776 59.808,39.776 L62.272,39.776 L62.272,42.576 L59.388,42.576 C58.072,42.576 57.512,42.548 56.868,42.464 L56.868,45.376 C57.372,45.292 57.624,45.292 58.352,45.264 C58.324,48.148 58.296,48.428 58.1,49.912 C57.848,51.872 57.484,52.964 56.672,54.252 C57.54,54.756 57.904,55.064 58.968,56.24 C60.004,54.448 60.452,53.104 60.732,50.752 C60.9,49.408 60.984,47.616 61.012,45.264 L62.272,45.264 L62.272,53.02 C62.272,54.728 62.244,55.372 62.132,56.352 L65.184,56.352 C65.072,55.512 65.044,54.784 65.044,53.02 L65.044,33.784 C65.044,31.796 65.072,31.236 65.184,30.452 L62.132,30.452 C62.244,31.32 62.272,31.74 62.272,33.784 L62.272,37.144 Z M70.644,50.388 C70.644,50.892 70.616,51.396 70.588,51.9 C71.064,51.872 71.624,51.844 72.156,51.844 L75.852,51.844 C76.384,51.844 76.944,51.872 77.56,51.9 C77.532,51.508 77.504,51.06 77.504,50.5 L77.504,48.792 C77.504,48.26 77.504,47.98 77.56,47.28 C77.112,47.308 76.468,47.336 75.88,47.336 L72.156,47.336 C71.54,47.336 71.036,47.308 70.588,47.28 C70.616,47.728 70.644,48.26 70.644,48.764 L70.644,50.388 Z M72.688,49.044 L75.404,49.044 L75.404,50.164 L72.688,50.164 L72.688,49.044 Z M69.468,55.176 L78.68,55.176 L78.68,56.352 L81.648,56.352 C81.564,55.4 81.508,54.448 81.508,53.272 L81.508,46.412 C81.508,45.264 81.536,44.676 81.62,44.004 C80.92,44.088 80.332,44.116 79.268,44.116 L69.104,44.116 C68.068,44.116 67.312,44.088 66.612,44.004 C66.696,44.76 66.724,45.208 66.724,46.468 L66.724,53.412 C66.724,55.036 66.696,55.68 66.612,56.352 L69.468,56.352 L69.468,55.176 Z M69.44,46.44 L78.68,46.44 L78.68,52.712 L69.44,52.712 L69.44,46.44 Z" id="表態牆" sketch:type="MSShapeGroup"></path>
            </g>
            <g id="Imported-Layers-2" sketch:type="MSLayerGroup" transform="translate(1.000000, 4.000000)" fill="#6D2627">
                <path d="M16,30.031 C16,18.165 27.161,8.471 41.066,8.052 C37.266,3.26 30.153,0.031 22,0.031 C9.85,0.031 0,7.195 0,16.031 C0,21 3.114,25.44 8,28.374 L8,39.051 C8,39.865 8.936,40.323 9.579,39.823 L16.523,34.427 C16.181,33.006 16,31.536 16,30.031" id="Fill-1" sketch:type="MSShapeGroup"></path>
                <path d="M42,12.031 C29.85,12.031 20,20.09 20,30.031 C20,39.973 29.85,48.031 42,48.031 C42.768,48.031 43.526,47.998 44.273,47.936 L54.421,55.823 C55.064,56.323 56,55.865 56,55.051 L56,43.917 C60.886,40.615 64,35.621 64,30.031 C64,20.09 54.15,12.031 42,12.031 L42,12.031 Z M53.76,40.603 L52,41.791 L52,48.876 L45.492,43.817 L43.932,43.95 C43.303,44.004 42.652,44.032 42,44.032 C32.074,44.032 23.998,37.752 23.998,30.031 C23.998,22.311 32.074,16.03 42,16.03 C51.925,16.03 60.001,22.311 60.001,30.031 C60.001,34.069 57.726,37.922 53.76,40.603 L53.76,40.603 Z M52,27.031 C50.343,27.031 49,28.375 49,30.031 C49,31.689 50.343,33.031 52,33.031 C53.656,33.031 55,31.689 55,30.031 C55,28.375 53.656,27.031 52,27.031 L52,27.031 Z M31.999,27.031 C30.342,27.031 28.999,28.375 28.999,30.031 C28.999,31.689 30.342,33.031 31.999,33.031 C33.655,33.031 34.999,31.689 34.999,30.031 C34.999,28.375 33.655,27.031 31.999,27.031 L31.999,27.031 Z M42,27.031 C40.342,27.031 39,28.375 39,30.031 C39,31.689 40.342,33.031 42,33.031 C43.656,33.031 45,31.689 45,30.031 C45,28.375 43.656,27.031 42,27.031 L42,27.031 Z" id="Fill-2" sketch:type="MSShapeGroup"></path>
            </g>
        </g>
    </g>
</svg>