<?xml version="1.0" encoding="UTF-8" standalone="no"?>
<svg width="60px" height="40px" viewBox="0 0 60 40" version="1.1" xmlns="http://www.w3.org/2000/svg" xmlns:xlink="http://www.w3.org/1999/xlink" xmlns:sketch="http://www.bohemiancoding.com/sketch/ns">
    <!-- Generator: Sketch 3.2.2 (9983) - http://www.bohemiancoding.com/sketch -->
    <title>dpp</title>
    <desc>Created with Sketch.</desc>
    <defs></defs>
    <g id="Page-1" stroke="none" stroke-width="1" fill="none" fill-rule="evenodd" sketch:type="MSPage">
        <g id="dpp" sketch:type="MSArtboardGroup">
            <path d="M60,26.6833542 L60,27.7847309 L40.6839033,27.7847309 L40.6839033,40 L39.5829858,40 L39.5829858,26.6833542 L60,26.6833542 L60,26.6833542 Z" id="Shape" fill="#FFFFFF" sketch:type="MSShapeGroup"></path>
            <path d="M60,25.9824781 L60,26.6833542 L39.5829858,26.6833542 L39.5829858,40 L38.882402,40 L38.882402,25.9824781 L60,25.9824781 L60,25.9824781 Z" id="Shape" fill="#009A00" sketch:type="MSShapeGroup"></path>
            <path d="M60,27.7847309 L60,40 L40.6839033,40 L40.6839033,27.7847309 L60,27.7847309 L60,27.7847309 Z" id="Shape" fill="#009A00" sketch:type="MSShapeGroup"></path>
            <path d="M60,0.0250312891 L60,12.2403004 L40.6839033,12.2403004 L40.6839033,0.0250312891 L60,0.0250312891 L60,0.0250312891 Z" id="Shape" fill="#009A00" sketch:type="MSShapeGroup"></path>
            <path d="M60,13.3416771 L60,14.0425532 L59.9749791,14.0425532 L38.882402,14.0425532 L38.882402,0.0250312891 L39.5829858,0.0250312891 L39.5829858,13.3416771 L60,13.3416771 L60,13.3416771 Z" id="Shape" fill="#009A00" sketch:type="MSShapeGroup"></path>
            <path d="M60,12.2403004 L60,13.3416771 L39.5829858,13.3416771 L39.5829858,0.0250312891 L40.6839033,0.0250312891 L40.6839033,12.2403004 L60,12.2403004 L60,12.2403004 Z" id="Shape" fill="#FFFFFF" sketch:type="MSShapeGroup"></path>
            <path d="M28.2485405,36.0700876 C28.7369475,36.2052566 29.6366972,36.3854819 30.0500417,36.2703379 C30.2081735,35.0187735 29.5736447,34.1166458 29.6497081,32.8660826 C29.6847373,32.2913642 29.9309425,31.665582 30.1501251,30.9637046 C30.3372811,30.3649562 30.410342,29.57597 30.6505421,29.0613267 C30.8707256,28.5897372 31.4061718,28.1401752 31.7514595,27.6595745 C32.5180984,26.5922403 33.0285238,25.5549437 33.5529608,24.3554443 C33.8201835,23.7446809 34.2115096,23.2450563 34.4537114,22.6533166 C35.3154295,20.5496871 35.0361968,18.3709637 36.1551293,16.1451815 C35.9079233,15.2390488 35.7257715,14.5622028 35.8548791,13.7421777 C36.0690575,12.3854819 37.2790659,11.0908636 37.3561301,9.83729662 C37.4101751,8.96620776 36.7276063,7.99699625 36.8557131,7.1339174 C36.958799,6.43604506 37.8135113,6.06958698 37.7564637,5.43178974 C37.676397,5.01126408 37.4041701,4.78297872 37.3561301,4.33041302 C35.9159299,4.36946183 35.276397,3.60750939 34.6538782,2.82853567 C34.1694746,2.87859825 33.4448707,2.68635795 33.2527106,3.02878598 C32.4700584,4.48260325 30.6415346,4.88911139 29.3494579,5.83229036 C28.8010008,6.88360451 28.6929108,8.10813517 27.9482902,9.23654568 C27.6170142,9.73817272 26.9574646,10.0105131 26.647206,10.5381727 C26.3119266,11.1078849 26.3009174,12.0921151 26.0467056,12.8410513 C25.7014178,13.8563204 25.0078399,14.7274093 24.4453711,15.5444305 C23.8148457,16.4605757 22.9170976,17.3076345 22.6438699,18.0475594 C22.1564637,19.3652065 22.3185988,21.3897372 22.2435363,23.0538173 C22.2105088,23.7847309 21.9162636,24.6758448 22.0433695,25.2565707 C22.136447,25.6801001 22.6428691,26.0355444 22.9441201,26.4580726 C23.2293578,26.8585732 23.5406172,27.3231539 23.7447873,27.7596996 C24.0470392,28.4075094 24.0700584,29.1454318 24.3452877,29.6620776 C24.8837364,30.6713392 26.206839,31.4473091 26.9474562,32.465582 C27.4038365,33.0933667 27.6370309,33.7021277 28.0483736,34.3679599 C27.8001668,34.9386733 28.0233528,35.6645807 28.2485405,36.0700876 L28.2485405,36.0700876 Z M59.9749791,14.0425532 L59.9749791,25.9574468 L38.8573812,25.9574468 L38.8573812,39.9749687 L21.1426188,39.9749687 L21.1426188,25.9824781 L21.1426188,25.9574468 L0.0250208507,25.9574468 L0.0250208507,14.0425532 L21.1426188,14.0425532 L21.1426188,0.0250312891 L38.8573812,0.0250312891 L38.8573812,14.0425532 L38.882402,14.0425532 L59.9749791,14.0425532 L59.9749791,14.0425532 Z" id="Shape" fill="#FFFFFF" sketch:type="MSShapeGroup"></path>
            <path d="M33.2527106,3.02878598 C33.4448707,2.68635795 34.1694746,2.87859825 34.6538782,2.82853567 C35.276397,3.60750939 35.9159299,4.36946183 37.3561301,4.33041302 C37.4041701,4.78297872 37.676397,5.01126408 37.7564637,5.43178974 C37.8135113,6.06958698 36.958799,6.43604506 36.8557131,7.1339174 C36.7276063,7.99699625 37.4101751,8.96620776 37.3561301,9.83729662 C37.2790659,11.0908636 36.0690575,12.3854819 35.8548791,13.7421777 C35.7257715,14.5622028 35.9079233,15.2390488 36.1551293,16.1451815 C35.0361968,18.3709637 35.3154295,20.5496871 34.4537114,22.6533166 C34.2115096,23.2450563 33.8201835,23.7446809 33.5529608,24.3554443 C33.0285238,25.5549437 32.5180984,26.5922403 31.7514595,27.6595745 C31.4061718,28.1401752 30.8707256,28.5897372 30.6505421,29.0613267 C30.410342,29.57597 30.3372811,30.3649562 30.1501251,30.9637046 C29.9309425,31.665582 29.6847373,32.2913642 29.6497081,32.8660826 C29.5736447,34.1166458 30.2081735,35.0187735 30.0500417,36.2703379 C29.6366972,36.3854819 28.7369475,36.2052566 28.2485405,36.0700876 C28.0233528,35.6645807 27.8001668,34.9386733 28.0483736,34.3679599 C27.6370309,33.7021277 27.4038365,33.0933667 26.9474562,32.465582 C26.206839,31.4473091 24.8837364,30.6713392 24.3452877,29.6620776 C24.0700584,29.1454318 24.0470392,28.4075094 23.7447873,27.7596996 C23.5406172,27.3231539 23.2293578,26.8585732 22.9441201,26.4580726 C22.6428691,26.0355444 22.136447,25.6801001 22.0433695,25.2565707 C21.9162636,24.6758448 22.2105088,23.7847309 22.2435363,23.0538173 C22.3185988,21.3897372 22.1564637,19.3652065 22.6438699,18.0475594 C22.9170976,17.3076345 23.8148457,16.4605757 24.4453711,15.5444305 C25.0078399,14.7274093 25.7014178,13.8563204 26.0467056,12.8410513 C26.3009174,12.0921151 26.3119266,11.1078849 26.647206,10.5381727 C26.9574646,10.0105131 27.6170142,9.73817272 27.9482902,9.23654568 C28.6929108,8.10813517 28.8010008,6.88360451 29.3494579,5.83229036 C30.6415346,4.88911139 32.4700584,4.48260325 33.2527106,3.02878598 L33.2527106,3.02878598 Z" id="Shape" fill="#009A00" sketch:type="MSShapeGroup"></path>
            <path d="M21.1426188,39.9749687 L21.1426188,40 L20.442035,40 L20.442035,26.6833542 L0.0250208507,26.6833542 L0.0250208507,25.9824781 L21.1426188,25.9824781 L21.1426188,39.9749687 L21.1426188,39.9749687 Z" id="Shape" fill="#009A00" sketch:type="MSShapeGroup"></path>
            <path d="M21.1426188,0.0250312891 L21.1426188,14.0425532 L0.0250208507,14.0425532 L0.0250208507,13.3416771 L20.442035,13.3416771 L20.442035,0.0250312891 L21.1426188,0.0250312891 L21.1426188,0.0250312891 Z" id="Shape" fill="#009A00" sketch:type="MSShapeGroup"></path>
            <path d="M20.442035,26.6833542 L20.442035,40 L19.3411176,40 L19.3411176,27.7847309 L0.0250208507,27.7847309 L0.0250208507,26.6833542 L20.442035,26.6833542 L20.442035,26.6833542 Z" id="Shape" fill="#FFFFFF" sketch:type="MSShapeGroup"></path>
            <path d="M20.442035,0.0250312891 L20.442035,13.3416771 L0.0250208507,13.3416771 L0.0250208507,12.2403004 L19.3411176,12.2403004 L19.3411176,0.0250312891 L20.442035,0.0250312891 L20.442035,0.0250312891 Z" id="Shape" fill="#FFFFFF" sketch:type="MSShapeGroup"></path>
            <path d="M19.3411176,27.7847309 L19.3411176,40 L0.0250208507,40 L0.0250208507,27.7847309 L19.3411176,27.7847309 L19.3411176,27.7847309 Z" id="Shape" fill="#009A00" sketch:type="MSShapeGroup"></path>
            <path d="M19.3411176,0.0250312891 L19.3411176,12.2403004 L0.0250208507,12.2403004 L0.0250208507,0.0250312891 L19.3411176,0.0250312891 L19.3411176,0.0250312891 Z" id="Shape" fill="#009A00" sketch:type="MSShapeGroup"></path>
        </g>
    </g>
</svg>